<svg xmlns="http://www.w3.org/2000/svg" viewBox="0 0 255 255.29"><defs><style>.cls-1{opacity:0.1;}.cls-2{fill:#233348;}.cls-3{fill:#fdc800;}.cls-4{fill:none;}.cls-5{fill:#fff;}.cls-6{opacity:0.08;}.cls-7{opacity:0.3;}.cls-8{fill:#7282c4;}.cls-9{fill:#e5eefd;}.cls-10{fill:#93b9f4;}.cls-11{fill:#a3acd6;}.cls-12{fill:#ffe920;}.cls-13{opacity:0.3;}.cls-14{fill:#717791;}.cls-15{opacity:0.2;}</style></defs><title>Asset 31</title><g id="Layer_2" data-name="Layer 2"><g id="Layer_1-2" data-name="Layer 1"><g class="cls-1"><path d="M35.94,70.69A14.46,14.46,0,0,1,27.37,85L19,80.61l7.87-14.73Z"/></g><rect class="cls-2" x="16.65" y="66.97" width="12.55" height="12.53" rx="1.25" ry="1.25" transform="translate(-20.4 9.89) rotate(-16.99)"/><rect class="cls-2" x="15.38" y="65.61" width="3.14" height="8.36" transform="translate(-19.65 8) rotate(-16.99)"/><rect class="cls-3" x="19.79" y="70.1" width="6.27" height="6.27" rx="0.99" ry="0.99" transform="translate(-20.4 9.89) rotate(-16.99)"/><ellipse class="cls-4" cx="22.39" cy="71.64" rx="16.26" ry="16.56" transform="translate(-47.61 44.56) rotate(-51.49)"/><path class="cls-2" d="M22.34,86.47a14.58,14.58,0,0,1-14.6-14.7.9.9,0,0,1,.91-.9h0a.9.9,0,0,1,.9.92,12.77,12.77,0,1,0,22.65-8c-.16-.2-.33-.39-.5-.57A.91.91,0,1,1,33.05,62c.2.21.38.43.57.65a14.57,14.57,0,0,1-11.28,23.8Z"/><path class="cls-5" d="M29.39,60.2c.26.15.51.32.76.49"/><path class="cls-2" d="M30.15,61.6a.91.91,0,0,1-.52-.16L28.92,61a.91.91,0,1,1,.94-1.56c.28.16.55.34.81.52a.92.92,0,0,1,.23,1.27A.9.9,0,0,1,30.15,61.6Z"/><path class="cls-2" d="M9.83,67.25a.8.8,0,0,1-.37-.08A.91.91,0,0,1,9,66,14.63,14.63,0,0,1,27,58.1a.92.92,0,0,1,.57,1.16.9.9,0,0,1-1.16.57A12.72,12.72,0,0,0,14.24,62a12.59,12.59,0,0,0-3.58,4.67A.9.9,0,0,1,9.83,67.25Z"/><path class="cls-2" d="M22.38,90.26A18.49,18.49,0,0,1,6.51,81.21a.91.91,0,1,1,1.57-.93,16.61,16.61,0,0,0,21.52,6.5.91.91,0,0,1,.8,1.64A18.52,18.52,0,0,1,22.38,90.26Z"/><path class="cls-5" d="M36.7,81.93a17.41,17.41,0,0,1-4.35,4.3"/><path class="cls-2" d="M32.35,87.15a.9.9,0,0,1-.75-.4.92.92,0,0,1,.23-1.27A16.43,16.43,0,0,0,36,81.41a.91.91,0,1,1,1.49,1A18.34,18.34,0,0,1,32.87,87,.92.92,0,0,1,32.35,87.15Z"/><path class="cls-2" d="M39.86,71.7a.92.92,0,0,1-.91-.85,16.48,16.48,0,0,0-6.88-12.47.91.91,0,0,1,1.06-1.48,18.35,18.35,0,0,1,7.65,13.84.91.91,0,0,1-.86,1Z"/><path class="cls-5" d="M28.51,55.47c.3.11.59.22.88.35"/><path class="cls-2" d="M29.39,56.73a.94.94,0,0,1-.37-.07c-.27-.12-.55-.24-.83-.34a.91.91,0,0,1,.64-1.71l.92.37a.92.92,0,0,1,.47,1.21A.9.9,0,0,1,29.39,56.73Z"/><path class="cls-2" d="M5.15,75.94a.93.93,0,0,1-.9-.75A18.42,18.42,0,0,1,26.69,54a.93.93,0,0,1,.68,1.11.91.91,0,0,1-1.11.67,16.6,16.6,0,0,0-19,9.34,16.4,16.4,0,0,0-1.18,9.79.92.92,0,0,1-.73,1.06Z"/><path class="cls-5" d="M6.26,78.69c-.11-.25-.21-.5-.31-.76"/><path class="cls-2" d="M6.26,79.61a.91.91,0,0,1-.84-.56c-.11-.26-.22-.53-.32-.8a.92.92,0,0,1,.53-1.18.93.93,0,0,1,1.18.54c.09.24.19.49.29.73a.9.9,0,0,1-.48,1.19A.94.94,0,0,1,6.26,79.61Z"/><g class="cls-6"><path class="cls-2" d="M133.9,186.21l74.86-74.75a12,12,0,0,1,16.9,0h0a11.94,11.94,0,0,1,0,16.88L150.8,203.09a12,12,0,0,1-16.9,0h0A11.92,11.92,0,0,1,133.9,186.21Z"/><path class="cls-2" d="M8.13,125.89l11.58-11.57a12,12,0,0,1,16.9,0h0a11.94,11.94,0,0,1,0,16.88L25,142.76a12,12,0,0,1-16.9,0h0A11.91,11.91,0,0,1,8.13,125.89Z"/><path class="cls-2" d="M139.22,147.82l34.21-34.16a11.94,11.94,0,1,0,16.9,16.87l-34.21,34.16a11.94,11.94,0,0,0-16.9-16.87Z"/><path class="cls-2" d="M124.59,95.78l32.06-32a11.94,11.94,0,0,0,16.9,16.87l-32.06,32a11.94,11.94,0,1,0-16.9-16.87Z"/><path class="cls-2" d="M113.24,140.18l93.52-93.39a12,12,0,0,1,16.9,0h0a11.91,11.91,0,0,1,0,16.87l-93.52,93.39a12,12,0,0,1-16.9,0h0A11.91,11.91,0,0,1,113.24,140.18Z"/><path class="cls-2" d="M21.35,165.49,148.65,38.37a12,12,0,0,1,16.9,0h0a11.92,11.92,0,0,1,0,16.88L38.25,182.37a12,12,0,0,1-16.9,0h0A11.94,11.94,0,0,1,21.35,165.49Z"/><path class="cls-2" d="M43.86,81.8,91.1,34.63a12,12,0,0,1,16.9,0h0a11.94,11.94,0,0,1,0,16.88L60.76,98.68a12,12,0,0,1-16.9,0h0A11.92,11.92,0,0,1,43.86,81.8Z"/><path class="cls-2" d="M122,3.78l.29-.28a11.94,11.94,0,0,1,16.9,0h0a11.93,11.93,0,0,1,0,16.87l-.29.28a12,12,0,0,1-16.9,0h0A11.93,11.93,0,0,1,122,3.78Z"/><g class="cls-1"><path class="cls-2" d="M85.76,166.82l.28-.28a12,12,0,0,1,16.9,0h0a11.91,11.91,0,0,1,0,16.87l-.28.29a12,12,0,0,1-16.9,0h0A11.92,11.92,0,0,1,85.76,166.82Z"/></g></g><g class="cls-7"><path class="cls-2" d="M121.73,89.22h-.13l-6.91-1a.87.87,0,1,1,.26-1.72l6.91,1a.87.87,0,0,1,.73,1A.86.86,0,0,1,121.73,89.22Zm7-.31a.87.87,0,0,1-.09-1.74l7-.68a.9.9,0,0,1,1,.79.87.87,0,0,1-.79,1l-7,.68Zm13.91-1.35a.87.87,0,0,1-.08-1.74l7-.67a.87.87,0,1,1,.16,1.74l-6.95.67Zm-34.68-.41h-.13l-6.92-1a.88.88,0,0,1-.73-1,.86.86,0,0,1,1-.74l6.92,1a.88.88,0,0,1-.13,1.74Zm48.6-.93a.88.88,0,0,1-.09-1.75l7-.67a.87.87,0,0,1,.17,1.74l-7,.67ZM94.08,85.07H94L87,84a.87.87,0,1,1,.26-1.73l6.91,1a.87.87,0,0,1-.13,1.74Zm76.34-.2a.88.88,0,0,1-.87-.79.87.87,0,0,1,.79-1l6.95-.68a.9.9,0,0,1,1,.79.88.88,0,0,1-.79,1l-7,.68Zm13.91-1.35a.87.87,0,0,1-.08-1.74l7-.68a.89.89,0,0,1,.95.79.86.86,0,0,1-.78,1l-7,.68ZM80.26,83h-.13l-6.91-1a.87.87,0,1,1,.25-1.73l6.92,1A.88.88,0,0,1,80.26,83Zm118-.83a.86.86,0,0,1-.87-.79.87.87,0,0,1,.78-.95l7-.67a.87.87,0,1,1,.17,1.74l-7,.67ZM66.43,80.92H66.3l-6.91-1a.87.87,0,0,1,.26-1.73l6.91,1a.87.87,0,0,1,.74,1A.88.88,0,0,1,66.43,80.92Zm145.73-.09a.88.88,0,0,1-.08-1.75l7-.67a.87.87,0,0,1,.17,1.74l-7,.67Zm-159.55-2h-.13l-6.92-1a.87.87,0,0,1,.26-1.73l6.92,1a.88.88,0,0,1,.73,1A.87.87,0,0,1,52.61,78.85Z"/></g><g class="cls-7"><path class="cls-2" d="M123.51,88.29a.87.87,0,0,1-.57-1.53l5.23-4.63a.88.88,0,0,1,1.23.08.86.86,0,0,1-.07,1.23l-5.24,4.63A.84.84,0,0,1,123.51,88.29Zm-4.39-4.87a.87.87,0,0,1-.68-.34L114.1,77.6a.87.87,0,0,1,1.37-1.08L119.81,82a.88.88,0,0,1-.14,1.23A1,1,0,0,1,119.12,83.42ZM134,79a.91.91,0,0,1-.66-.29.88.88,0,0,1,.08-1.24l5.24-4.62a.87.87,0,1,1,1.15,1.3l-5.23,4.63A.88.88,0,0,1,134,79Zm-23.54-6.58a.88.88,0,0,1-.69-.33l-4.33-5.48a.87.87,0,1,1,1.37-1.08L111.13,71a.86.86,0,0,1-.14,1.22A.85.85,0,0,1,110.45,72.45Zm34-2.68a.87.87,0,0,1-.58-1.52l5.24-4.63a.87.87,0,0,1,1.16,1.3L145,69.55A.86.86,0,0,1,144.46,69.77Zm-42.68-8.28a.87.87,0,0,1-.69-.33l-4.34-5.48a.88.88,0,0,1,1.37-1.09l4.34,5.48a.88.88,0,0,1-.14,1.23A.87.87,0,0,1,101.78,61.49Zm53.15-1a.87.87,0,0,1-.58-1.52l5.24-4.63a.87.87,0,0,1,1.16,1.3l-5.24,4.63A.84.84,0,0,1,154.93,60.51Zm10.48-9.26a.87.87,0,0,1-.58-1.52l5.23-4.63a.87.87,0,1,1,1.16,1.31L166,51A.83.83,0,0,1,165.41,51.25ZM93.1,50.53a.88.88,0,0,1-.68-.33l-4.34-5.49a.86.86,0,0,1,.14-1.22.87.87,0,0,1,1.23.14l4.33,5.48a.87.87,0,0,1-.14,1.23A.85.85,0,0,1,93.1,50.53ZM175.88,42a.84.84,0,0,1-.65-.29.87.87,0,0,1,.07-1.23l5.24-4.63a.87.87,0,1,1,1.15,1.31l-5.23,4.63A.9.9,0,0,1,175.88,42ZM84.43,39.56a.87.87,0,0,1-.69-.33L79.4,33.75a.86.86,0,0,1,.15-1.22.85.85,0,0,1,1.22.14l4.34,5.48A.87.87,0,0,1,85,39.38.9.9,0,0,1,84.43,39.56Z"/></g><g class="cls-7"><path class="cls-8" d="M123,192.34a.88.88,0,0,1-.88-.85l-.17-7a.87.87,0,0,1,.85-.89h0a.87.87,0,0,1,.88.85l.17,7a.87.87,0,0,1-.85.9Zm-.35-14a.87.87,0,0,1-.87-.85l-.17-7a.87.87,0,0,1,.85-.9h0a.87.87,0,0,1,.87.85l.17,7a.86.86,0,0,1-.85.89Zm-.34-14a.88.88,0,0,1-.88-.85l-.17-7a.87.87,0,0,1,.85-.89h0a.88.88,0,0,1,.88.86l.17,7a.87.87,0,0,1-.85.9Zm-.35-14a.87.87,0,0,1-.87-.85l-.17-7a.87.87,0,0,1,.85-.9h0a.87.87,0,0,1,.87.85l.18,7a.87.87,0,0,1-.86.89Zm-.34-14a.88.88,0,0,1-.88-.85l-.17-7a.87.87,0,0,1,.85-.89h0a.88.88,0,0,1,.88.86l.17,7a.87.87,0,0,1-.85.9Z"/></g><line class="cls-9" x1="238.71" y1="233.43" x2="243.62" y2="233.43"/><path class="cls-2" d="M238.71,232.82a6.32,6.32,0,0,1,2.45-.34,14.64,14.64,0,0,1,2.46.24.72.72,0,0,1,.56.85.73.73,0,0,1-.56.57,13.65,13.65,0,0,1-2.46.23,6.51,6.51,0,0,1-2.45-.33.65.65,0,0,1-.38-.84A.62.62,0,0,1,238.71,232.82Z"/><line class="cls-9" x1="150.97" y1="233.43" x2="235.11" y2="233.43"/><path class="cls-2" d="M151,232.89c3.5-.25,7-.28,10.52-.29l10.51,0,21-.08h31.55c3.51,0,7,0,10.52.23a.71.71,0,0,1,.66.75.7.7,0,0,1-.66.66c-3.51.22-7,.23-10.52.24H193l-21-.08-10.51-.05c-3.51,0-7,0-10.52-.28a.54.54,0,0,1,0-1.08Z"/><line class="cls-9" x1="130.12" y1="233.43" x2="141.67" y2="233.43"/><path class="cls-2" d="M130.12,232.89a3,3,0,0,1,1.44-.29l1.45,0,2.89-.07h4.33a3.82,3.82,0,0,1,1.44.24.78.78,0,0,1,.41,1,.76.76,0,0,1-.41.4,3.47,3.47,0,0,1-1.44.24H135.9l-2.89-.07-1.45-.05a3,3,0,0,1-1.44-.29.61.61,0,0,1-.25-.83A.6.6,0,0,1,130.12,232.89Z"/><line class="cls-9" x1="14.76" y1="233.43" x2="108.31" y2="233.43"/><path class="cls-2" d="M14.76,232.89c3.9-.25,7.79-.28,11.69-.29l11.7,0,23.38-.08H96.61c3.9,0,7.8,0,11.7.23a.71.71,0,0,1,0,1.41c-3.9.22-7.8.23-11.7.24H61.53l-23.38-.08-11.7-.05c-3.9,0-7.79,0-11.69-.28a.54.54,0,0,1,0-1.08Z"/><line class="cls-9" x1="9.34" y1="233.43" x2="10.05" y2="233.43"/><path class="cls-2" d="M9.34,232.49a1.45,1.45,0,0,1,.36,0,1.36,1.36,0,0,1,.17,0,.51.51,0,0,1,.18.09,1,1,0,0,1,.23,1.4,1,1,0,0,1-.23.22.48.48,0,0,1-.18.08.64.64,0,0,1-.17.05,1.45,1.45,0,0,1-.36,0,1,1,0,0,1,0-1.88Z"/><line class="cls-9" x1="0.51" y1="233.43" x2="4.08" y2="233.43"/><path class="cls-2" d="M.51,232.76a7.9,7.9,0,0,1,1.79-.26,4.7,4.7,0,0,1,1.78.18.8.8,0,0,1,.51,1,.84.84,0,0,1-.51.5,4.92,4.92,0,0,1-1.78.18,7.9,7.9,0,0,1-1.79-.26.69.69,0,0,1-.48-.86A.67.67,0,0,1,.51,232.76Z"/><line class="cls-9" x1="98.68" y1="254.34" x2="167.46" y2="254.34"/><path class="cls-2" d="M98.68,253.8c2.87-.25,5.73-.28,8.6-.28l8.6,0,17.19-.08h25.79c2.87,0,5.73,0,8.6.24a.71.71,0,0,1,.65.76.72.72,0,0,1-.65.65c-2.87.21-5.73.23-8.6.24H133.07l-17.19-.08-8.6,0c-2.87,0-5.73,0-8.6-.29a.53.53,0,0,1-.49-.58A.54.54,0,0,1,98.68,253.8Z"/><line class="cls-9" x1="70.39" y1="254.34" x2="88.01" y2="254.34"/><path class="cls-2" d="M70.39,253.67c2.93-.16,5.87-.23,8.81-.25s5.87,0,8.81.18a.74.74,0,0,1,.7.79.75.75,0,0,1-.7.7c-2.94.2-5.87.21-8.81.18s-5.88-.09-8.81-.25a.67.67,0,0,1-.64-.71A.68.68,0,0,1,70.39,253.67Z"/><path class="cls-10" d="M166.6,135.25c0,.61-.07,1.22-.1,1.83"/><path class="cls-2" d="M197.13,35.51a11.7,11.7,0,0,1-2.6-.28c-5.21-1.15-9.19-4.31-10.91-8.66a14.53,14.53,0,0,1,2.52-14.34c3.37-4,9.33-5.37,13.3-3.1a1.06,1.06,0,0,1,.52.78.9.9,0,0,1,0,.43l-1.72,10.47A42,42,0,0,1,208.66,22a1.06,1.06,0,0,1,.82,1.05,12.47,12.47,0,0,1-4.81,10.19A13.45,13.45,0,0,1,197.13,35.51Zm-2.07-25.37a10,10,0,0,0-7.28,3.47,12.31,12.31,0,0,0-2.16,12.18c1.45,3.67,4.86,6.35,9.38,7.35a11.37,11.37,0,0,0,8.43-1.65,10.27,10.27,0,0,0,3.88-7.6A40.72,40.72,0,0,0,197.05,23a1,1,0,0,1-.85-.36,1.1,1.1,0,0,1-.25-.89l1.81-11A6.75,6.75,0,0,0,195.06,10.14Z"/><path class="cls-3" d="M211.39,19.61,201,17.94l1.25-10.06.2,0A10.65,10.65,0,0,1,211.39,19.61Z"/><path class="cls-3" d="M229.26,85.86l-2.76,0a.25.25,0,0,1-.13,0,.1.1,0,0,1,0-.09c-.21-3,.17-6,.15-9,0-1.17-.14-2.34-.21-3.51v0l2.92,0C228.79,73.15,229.17,84.8,229.26,85.86Z"/><path class="cls-2" d="M226.5,86a.45.45,0,0,1-.2,0,.24.24,0,0,1-.09-.19,46.79,46.79,0,0,1,0-5.43c.06-1.18.12-2.41.11-3.62,0-.78-.08-1.57-.13-2.34,0-.39-.06-.78-.08-1.16V73h3.05v.24a.09.09,0,0,0,.07,0c-.31.52,0,11.13.12,12.61l-.13,0V86H226.5Zm1.9-.26.73,0c-.07-1.3-.43-10.93-.12-12.49l-2,0h-.6c0,.35,0,.71.07,1.07.05.77.11,1.57.14,2.36,0,1.21-.06,2.45-.11,3.64a46.12,46.12,0,0,0-.05,5.39h2Z"/><path class="cls-3" d="M234.53,85.84l-2.77,0-.12,0s0,0,0,0a51.45,51.45,0,0,1,.17-5.55c0-.72-.14-1.44-.21-2.16v0h2.93C234.08,78,234.44,85.19,234.53,85.84Z"/><path class="cls-2" d="M231.77,86a.52.52,0,0,1-.18,0,.18.18,0,0,1-.11-.16,16.91,16.91,0,0,1,.05-3.34c.06-.73.12-1.48.12-2.22,0-.48-.08-1-.13-1.44,0-.24-.06-.47-.08-.71V78l.13,0h2.93v.24l.06,0c-.29.4,0,6.81.1,7.68l-.12,0V86l-2.69,0Zm-.06-.25h.13c1.61,0,2.28,0,2.56,0a54.21,54.21,0,0,1-.12-7.57H231.7l.06.6c.05.48.11,1,.13,1.46,0,.75-.06,1.51-.11,2.25A17.62,17.62,0,0,0,231.71,85.73Z"/><path class="cls-3" d="M239.51,85.82l-2.77,0a.23.23,0,0,1-.12,0,.07.07,0,0,1,0-.07c-.21-2.37.17-4.73.16-7.1,0-.92-.14-1.84-.21-2.76v0h2.92C239.05,75.84,239.42,85,239.51,85.82Z"/><path class="cls-2" d="M236.74,86a.36.36,0,0,1-.18,0,.21.21,0,0,1-.11-.17,28.93,28.93,0,0,1,.06-4.27c.05-.93.11-1.9.11-2.84,0-.61-.08-1.24-.14-1.84,0-.31,0-.61-.07-.91v-.17h3V76s.06,0,.06,0c-.3.46,0,8.74.11,9.88h-.12V86c-.06,0-1.19,0-1.95,0Zm0-.25h2.68c-.08-1.13-.41-8.4-.12-9.74h-2.6c0,.26.05.53.07.81.05.6.11,1.23.13,1.85,0,1-.05,1.93-.11,2.86A29.55,29.55,0,0,0,236.7,85.71Z"/><path class="cls-3" d="M244.56,85.8l-2.77,0a.23.23,0,0,1-.12,0,.08.08,0,0,1,0-.08c-.21-2.72.17-5.43.16-8.15,0-1.06-.15-2.11-.22-3.17v0h2.93C244.09,74.35,244.47,84.85,244.56,85.8Z"/><path class="cls-2" d="M241.79,85.94a.33.33,0,0,1-.19,0,.19.19,0,0,1-.09-.18,38,38,0,0,1,0-4.89c.06-1.07.12-2.17.11-3.26,0-.7-.08-1.43-.13-2.12,0-.35-.06-.69-.08-1v-.17h3.06v.24a.09.09,0,0,0,.07,0c-.31.5,0,10,.11,11.35l-.12,0v.12h-2.76Zm0-.25h2.68c-.08-1.21-.42-9.76-.12-11.22l-2,0h-.6c0,.31.05.62.07.94.06.7.11,1.42.14,2.13,0,1.1,0,2.21-.11,3.28A37.35,37.35,0,0,0,241.75,85.69Z"/><path class="cls-3" d="M249.83,85.78l-2.77,0-.13,0s0,0,0-.07c-.2-2.19.18-4.39.17-6.59,0-.86-.14-1.71-.21-2.56v0h2.93C249.37,76.51,249.73,85,249.83,85.78Z"/><path class="cls-2" d="M247.06,85.92a.38.38,0,0,1-.18,0,.18.18,0,0,1-.11-.16,25,25,0,0,1,.06-4c0-.87.11-1.76.11-2.64,0-.56-.08-1.14-.13-1.69,0-.29-.06-.58-.08-.86v-.13l.13,0h2.93v.24s.06,0,.06,0c-.3.44,0,8.12.11,9.17h-.12v.13h-2.76Zm-.05-.25h.83c1.12,0,1.62,0,1.85,0-.07-1.09-.39-7.76-.11-9H247c0,.24.05.5.07.76,0,.55.11,1.13.13,1.7,0,.89-.05,1.79-.11,2.66A26.69,26.69,0,0,0,247,85.67Z"/><path class="cls-3" d="M254.88,85.76l-2.77,0H252s0,0,0,0a30.27,30.27,0,0,1,.17-4.25c0-.55-.13-1.1-.2-1.65v0l2.92,0C254.44,79.79,254.79,85.27,254.88,85.76Z"/><path class="cls-2" d="M252.11,85.9a.44.44,0,0,1-.16,0,.18.18,0,0,1-.13-.14,10.51,10.51,0,0,1,.06-2.57,16.19,16.19,0,0,0,.12-1.7c0-.35-.07-.72-.12-1.08,0-.17,0-.34-.07-.51h0l0-.19h3.06v.25a.07.07,0,0,0,0,0c-.26.33,0,5.22.11,5.85l-.12,0v.13h-2.76Zm-.05-.25H253c1,0,1.52,0,1.75,0a32.24,32.24,0,0,1-.11-5.74h-2.57l.06.44c0,.36.1.73.13,1.1a16.2,16.2,0,0,1-.12,1.73A10.14,10.14,0,0,0,252.06,85.65Z"/><path class="cls-3" d="M228.93,85.88h-2.77a.21.21,0,0,1-.13,0,.14.14,0,0,1,0-.11c-.22-4,.15-8,.13-12,0-1.55-.14-3.11-.21-4.66V69c1,0,2,0,2.93,0C228.43,69,228.83,84.47,228.93,85.88Z"/><path class="cls-2" d="M226.16,86.42a.72.72,0,0,1-.48-.16.67.67,0,0,1-.21-.49c-.13-2.42-.05-4.86,0-7.23.06-1.57.11-3.2.11-4.79,0-1-.09-2.06-.14-3.09,0-.52-.06-1-.08-1.55a.57.57,0,0,1,.14-.42.55.55,0,0,1,.38-.2h2.93a.53.53,0,0,1,.53.51.55.55,0,0,1-.08.29c-.26,1.38,0,14.76.17,16.56l-.53,0,0,.53h-2.74Zm.31-16.87c0,.36,0,.71.05,1.06.06,1,.11,2.08.14,3.12,0,1.63,0,3.26-.1,4.85-.08,2.22-.16,4.52-.05,6.78h1.87c-.09-2.5-.42-12.7-.13-15.81Z"/><path class="cls-3" d="M234.2,85.86h-2.77a.25.25,0,0,1-.13,0s0,0,0-.07c-.2-2.45.18-4.91.17-7.37,0-1-.14-1.9-.21-2.86v0l2.93,0C233.73,75.51,234.1,85,234.2,85.86Z"/><path class="cls-2" d="M231.43,86.4a.8.8,0,0,1-.38-.08.74.74,0,0,1-.31-.48,30.65,30.65,0,0,1,0-4.5c.05-1,.11-2,.11-2.92,0-.62-.08-1.25-.13-1.88,0-.32-.06-.63-.08-1a.57.57,0,0,1,.52-.6h.68l2.24,0h0a.55.55,0,0,1,.54.52.52.52,0,0,1-.11.32c-.22,1.09.05,9,.16,10a.52.52,0,0,1-.44.58h-2.85ZM231.78,76c0,.14,0,.28,0,.41.05.65.11,1.3.13,1.94,0,1,0,2-.11,3a32.39,32.39,0,0,0-.08,3.94h.38c.66,0,1.14,0,1.5,0a88.78,88.78,0,0,1-.13-9.31h-1.73Zm2.37,0h0Zm0,0Zm0,0Zm0,0Zm0,0Z"/><path class="cls-3" d="M239.18,85.84s-2.59,0-2.77,0a.25.25,0,0,1-.13,0,.11.11,0,0,1,0-.09c-.21-3.15.17-6.29.15-9.43,0-1.22-.14-2.44-.21-3.66V72.6h2.92C238.7,72.59,239.08,84.74,239.18,85.84Z"/><path class="cls-2" d="M236.41,86.38a.78.78,0,0,1-.43-.11.83.83,0,0,1-.27-.5,51.51,51.51,0,0,1,0-5.7c.05-1.23.11-2.51.11-3.76,0-.79-.08-1.6-.14-2.41,0-.4,0-.81-.08-1.22h0v-.05a.51.51,0,0,1,.15-.39.51.51,0,0,1,.38-.16h2.92a.55.55,0,0,1,.53.52.51.51,0,0,1-.09.3c-.24,1.23,0,11.55.16,12.91l-.53,0v.53c-.14,0-1.85,0-2.5,0Zm.33-13.25c0,.24,0,.47,0,.71.05.81.1,1.63.13,2.45,0,1.29,0,2.58-.11,3.83-.07,1.71-.15,3.47-.06,5.2h1.87c-.09-2.12-.38-9.59-.13-12.2h-1.75Z"/><path class="cls-3" d="M244.23,85.82h-2.77a.25.25,0,0,1-.13,0,.15.15,0,0,1,0-.11c-.21-3.6.17-7.21.15-10.81,0-1.4-.15-2.8-.22-4.2v-.06h2.92C243.74,70.62,244.13,84.55,244.23,85.82Z"/><path class="cls-2" d="M241.46,86.36a.69.69,0,0,1-.46-.15.62.62,0,0,1-.23-.48c-.13-2.18-.05-4.39,0-6.52.06-1.42.12-2.88.11-4.32,0-.92-.08-1.85-.14-2.77,0-.47-.05-.94-.08-1.4a.62.62,0,0,1,.15-.42.52.52,0,0,1,.38-.19h2.92a.51.51,0,0,1,.53.52.55.55,0,0,1-.08.29c-.25,1.32,0,13.28.16,14.88l-.52,0,0,.53c-.15,0-1.8,0-2.47,0Zm.32-15.2c0,.31,0,.6.05.89,0,.94.11,1.88.13,2.82,0,1.47,0,2.95-.1,4.38-.08,2-.16,4-.06,6h1.88c-.1-2.34-.41-11.26-.14-14.15h-1.76Z"/><path class="cls-3" d="M249.49,85.8h-2.76a.25.25,0,0,1-.13,0,.09.09,0,0,1,0-.08c-.21-2.92.17-5.84.15-8.76,0-1.13-.14-2.27-.21-3.4v0l2.93,0C249,73.49,249.4,84.77,249.49,85.8Z"/><path class="cls-2" d="M246.73,86.34a.72.72,0,0,1-.42-.11.77.77,0,0,1-.28-.47,44.83,44.83,0,0,1,.05-5.32c0-1.15.11-2.33.11-3.49,0-.72-.08-1.47-.14-2.21,0-.39-.05-.77-.07-1.16a.56.56,0,0,1,.14-.41.52.52,0,0,1,.38-.19h.69l2.23,0a.53.53,0,0,1,.53.52.54.54,0,0,1-.09.31c-.23,1.19,0,10.71.16,12a.52.52,0,0,1-.46.57h-2.83Zm1.51-1.06h.7c-.09-2-.38-8.79-.13-11.26h-1.75c0,.22,0,.43.05.64,0,.75.11,1.51.13,2.26,0,1.2-.05,2.4-.11,3.56-.07,1.57-.15,3.2-.07,4.79Z"/><path class="cls-3" d="M254.44,85.68h-2.9s0,0,0-.06a55.92,55.92,0,0,1,.17-5.64c0-.73-.13-1.46-.2-2.19v0l2.92,0C254,77.75,254.34,85,254.44,85.68Z"/><path class="cls-2" d="M251.73,86.22a1.09,1.09,0,0,1-.39,0,.67.67,0,0,1-.36-.49A18.36,18.36,0,0,1,251,82.2c.06-.73.12-1.49.12-2.22,0-.45-.08-.93-.13-1.41,0-.25-.05-.49-.08-.74a.57.57,0,0,1,.14-.41.54.54,0,0,1,.38-.19h2.93a.53.53,0,0,1,.41.86,64.26,64.26,0,0,0,.16,7.53l-.52.07,0,.53h-2.69Zm.32-7.94,0,.17c.05.5.11,1,.13,1.5,0,.8,0,1.58-.11,2.34a20.33,20.33,0,0,0-.1,2.9c.89,0,1.46,0,1.88,0a59.63,59.63,0,0,1-.13-6.89h-1.69Zm2.35,0Z"/><path class="cls-5" d="M172.4,76.17l-.25,96.43a4.69,4.69,0,0,1-4.71,4.66l-85.31-.34a4.69,4.69,0,0,1-4.67-4.7l.41-113.63a4.7,4.7,0,0,1,4.71-4.67l68.21.27"/><path class="cls-2" d="M172.4,76.88a1.06,1.06,0,0,1-.76-.31L150,55a1.07,1.07,0,0,1,1.52-1.52l21.6,21.63a1.07,1.07,0,0,1-.75,1.82Z"/><path class="cls-2" d="M137.56,54.65c-11,.4-22,.41-33.06.43L88,55l-4.13,0h-1a5.4,5.4,0,0,0-.85.05,3.5,3.5,0,0,0-1.45.6A3.59,3.59,0,0,0,79,58.32c0,.23,0,.61,0,1v3.1l-.2,66.11-.15,33.06,0,8.26v2.07a4.52,4.52,0,0,0,0,.87,3.09,3.09,0,0,0,2.47,2.64,3.37,3.37,0,0,0,.81.08H97.36l33.06,0c5.51,0,11,0,16.53,0l8.26,0c2.75,0,5.51.08,8.26.37a.6.6,0,0,1,.54.65.59.59,0,0,1-.54.53c-2.75.29-5.51.34-8.26.37l-8.26,0c-5.51.05-11,0-16.53,0l-33.06,0H81.87a6.07,6.07,0,0,1-1.25-.12,5.38,5.38,0,0,1-3.83-3.18,5.92,5.92,0,0,1-.34-1.25,7.38,7.38,0,0,1-.06-1.19v-2.07l0-8.26.08-33.06.27-66.11v-3.1c0-.35,0-.65,0-1.11a5.78,5.78,0,0,1,4.79-5.23,7.66,7.66,0,0,1,1.21-.08h1l4.13,0,16.53.08c11,.11,22,.2,33.05.69a.51.51,0,0,1,0,1Z"/><path class="cls-2" d="M173.47,76.18l-.13,48.21-.06,24.11,0,12.05c0,2,0,4,0,6,0,1-.06,2-.08,3a12,12,0,0,1-.39,3,.64.64,0,0,1-1.23,0,11.56,11.56,0,0,1-.37-3c0-1-.06-2-.06-3,0-2,0-4,0-6l0-12,.06-24.11.12-48.21a1.08,1.08,0,1,1,2.15,0Z"/><path class="cls-2" d="M151.85,54.19l-.09,21.53-1.06-1.07c2.14,0,4.28.13,6.43.2,1.07,0,2.14.07,3.21.13s2.14.15,3.21.18a.61.61,0,0,1,0,1.22c-1.07,0-2.15.11-3.22.15s-2.14.07-3.21.1c-2.15.06-4.29.13-6.43.16a1.06,1.06,0,0,1-1.07-1h0v0l.1-21.52a1.07,1.07,0,0,1,2.13,0Z"/><line class="cls-9" x1="122.86" y1="157.53" x2="146.38" y2="157.63"/><path class="cls-11" d="M122.86,157c3.92-.33,7.84-.5,11.76-.58a62.59,62.59,0,0,1,11.76.48.71.71,0,0,1,0,1.41,61.71,61.71,0,0,1-11.76.39c-3.92-.11-7.84-.31-11.76-.67a.51.51,0,0,1-.46-.56A.51.51,0,0,1,122.86,157Z"/><path class="cls-12" d="M143.36,102.53h-.14a1.44,1.44,0,0,1-1.08-.65L134.85,90.7l-6.12,1.59a1.38,1.38,0,0,1-1-.08l-4.24-1.9c-3.67,3.78-7.54,7.84-8.33,8.81a1.48,1.48,0,0,1-1.34.87,1.55,1.55,0,0,1-.86-.28c-.71-.32-3.58-1.45-6.33-2.49L98.76,101a1.44,1.44,0,0,1-1.74-.37L87.44,89.39a1.44,1.44,0,0,1,.16-2,1.46,1.46,0,0,1,2.05.16L98.51,97.9,106,94.32a1.48,1.48,0,0,1,1.15,0c3.09,1.17,5.05,1.92,6.28,2.45,1.22-1.45,3.75-4,8.75-9.18a1.47,1.47,0,0,1,1.64-.31l4.69,2.11,6.64-1.73a1.46,1.46,0,0,1,1.58.62l6.87,10.52,9.92-10.28a1.45,1.45,0,0,1,2.09,2L144.4,102.09A1.41,1.41,0,0,1,143.36,102.53Z"/><path class="cls-3" d="M87.47,98.05,96.6,84a1.41,1.41,0,0,1,2-.42A1.5,1.5,0,0,1,99,84L99,84l5,8.13-2.15-.38L110,85.23a1.47,1.47,0,0,1,1.89.06l13.31,12.13-1.64-.22,9.23-4.71a1.49,1.49,0,0,1,1.11-.09l9.23,3L141.5,96,147,87.57l0-.06a1.4,1.4,0,0,1,1.93-.41l.2.17L160.27,98a.69.69,0,0,1-.9,1l-12.15-9.55,2.17-.31-5.45,8.42a1.46,1.46,0,0,1-1.67.59l-9.23-3,1.11-.09-9.23,4.71a1.47,1.47,0,0,1-1.64-.22L110,87.44l1.89.06-8.17,6.56a1.47,1.47,0,0,1-2-.22l-.1-.15-5-8.13,2.42.08L88.73,98.93a.77.77,0,0,1-1.26-.88Z"/><g class="cls-13"><path class="cls-2" d="M89.64,124.5c5.85-.37,11.7-.41,17.56-.37l17.55.17c5.85,0,11.71.17,17.56.25s11.7.25,17.56.38a.62.62,0,0,1,0,1.24c-5.85.08-11.71.21-17.56.24s-11.7.12-17.56.11l-17.55,0c-5.86,0-11.71-.09-17.56-.5a.77.77,0,0,1,0-1.54Z"/><line class="cls-9" x1="137.59" y1="136.17" x2="159.82" y2="136.26"/><path class="cls-2" d="M137.59,135.53a55.25,55.25,0,0,1,11.12-.48c3.7.09,7.41.27,11.11.64a.57.57,0,0,1,.52.63.59.59,0,0,1-.52.52c-3.71.33-7.42.49-11.12.54a54.59,54.59,0,0,1-11.12-.57.65.65,0,0,1-.51-.76A.66.66,0,0,1,137.59,135.53Z"/><line class="cls-9" x1="122.94" y1="136.11" x2="132.3" y2="136.15"/><path class="cls-2" d="M123,135.38a12.4,12.4,0,0,1,4.67-.43,32.27,32.27,0,0,1,4.68.47.74.74,0,0,1,0,1.46,32.2,32.2,0,0,1-4.67.44,12.47,12.47,0,0,1-4.68-.48.77.77,0,0,1-.46-1A.78.78,0,0,1,123,135.38Z"/><line class="cls-9" x1="155.47" y1="146.96" x2="159.78" y2="146.97"/><path class="cls-2" d="M155.48,146.46a5.37,5.37,0,0,1,2.15-.67,3.91,3.91,0,0,1,1.08,0,2.46,2.46,0,0,1,1.07.43,1,1,0,0,1,.2,1.31,1.34,1.34,0,0,1-.21.2,2.57,2.57,0,0,1-1.07.42,3.91,3.91,0,0,1-1.08,0,5.46,5.46,0,0,1-2.15-.69.57.57,0,0,1-.19-.79A.64.64,0,0,1,155.48,146.46Z"/><line class="cls-9" x1="122.9" y1="146.82" x2="149.36" y2="146.93"/><path class="cls-2" d="M122.9,146.26c2.21-.12,4.41-.22,6.62-.28s4.41-.15,6.61-.18l6.62-.09a33.36,33.36,0,0,1,6.61.4.83.83,0,0,1,0,1.64,32,32,0,0,1-6.62.34l-6.62-.14c-2.2,0-4.4-.15-6.61-.23s-4.41-.2-6.61-.34a.56.56,0,0,1-.53-.59A.57.57,0,0,1,122.9,146.26Z"/><line class="cls-9" x1="89.68" y1="114.16" x2="140.07" y2="114.36"/><path class="cls-2" d="M89.68,113.6q6.3-.16,12.6-.26l12.6-.15,12.6-.07a117.61,117.61,0,0,1,12.59.42.82.82,0,0,1,.74.91.81.81,0,0,1-.74.73,115.24,115.24,0,0,1-12.6.32l-12.6-.16-12.6-.25q-6.3-.15-12.59-.37a.56.56,0,0,1,0-1.12Z"/><path class="cls-2" d="M132,69.48q-5.43.15-10.88.24l-10.89.13-10.88.06a101.61,101.61,0,0,1-10.89-.37.74.74,0,0,1-.65-.8.74.74,0,0,1,.66-.66,101.53,101.53,0,0,1,10.89-.28l10.88.15,10.88.22q5.45.12,10.89.32a.5.5,0,0,1,0,1Z"/><line class="cls-9" x1="148.46" y1="114.4" x2="158.39" y2="114.44"/><path class="cls-2" d="M148.47,113.84c1.65-.25,3.31-.41,5-.5.83,0,1.66-.08,2.48-.11a4.79,4.79,0,0,1,2.48.39.91.91,0,0,1,0,1.64,4.8,4.8,0,0,1-2.48.36q-1.24,0-2.49-.12c-1.65-.11-3.3-.28-5-.54a.57.57,0,0,1,0-1.12Z"/><path class="cls-2" d="M89.81,157.74a3,3,0,0,1,.85-.35h.24l.39,0,.79.06,3.14.21c2.1.12,4.19.2,6.28.21a107.35,107.35,0,0,0,12.53-.67L113,158.45V136.33l1.36,1.2c-2.26,0-4.35-.1-6.48-.15s-4.23-.1-6.35-.12c-4.22,0-8.45,0-12.65.28h0l1.2-1.28c.22,3.69.44,7.38.56,11.11,0,1.86.08,3.72,0,5.61,0,.94-.08,1.89-.17,2.84,0,.48-.09,1-.17,1.45l0,.36,0,.16h0A.59.59,0,0,0,89.81,157.74Zm-2,1.41a4.21,4.21,0,0,1-.08-1.39l.12-.85c.08-.43.11-.87.16-1.31.08-.88.13-1.79.15-2.69,0-1.81,0-3.64,0-5.47-.12-3.67-.34-7.35-.55-11v-.09a1.14,1.14,0,0,1,1.06-1.2h.16c2.12.15,4.23.26,6.34.35s4.23.19,6.34.23,4.22.09,6.32,0a35.57,35.57,0,0,0,6.18-.61,1.12,1.12,0,0,1,1.33.87.91.91,0,0,1,0,.23v22.23a1.21,1.21,0,0,1-1.09,1.2,113.55,113.55,0,0,1-12.79.69c-2.14,0-4.28-.1-6.41-.22l-3.18-.21-.8-.06-.39,0c-.12,0-.38,0-.56-.06A9.54,9.54,0,0,1,87.84,159.15Z"/></g><path class="cls-3" d="M23.52,118.28c-1.7.65-2.4,2.64-2.9,4.4l-1.77,6.26a8.71,8.71,0,0,0,10.84-4.5A7.24,7.24,0,0,0,35,130.55l.42-3.46c.44-.44,1.2-.19,1.71.17s1,.83,1.66.74a1.55,1.55,0,0,0,1.14-1.08c.2-.51.26-1.06.47-1.57.6-1.49,2.27-2.23,3.85-2.53a18.87,18.87,0,0,0,4.68-1,9.16,9.16,0,0,1,2.63-5.09c.54-.53,1.34-1,2-.7a2.11,2.11,0,0,1,.93,1.48,52.52,52.52,0,0,1,1.86,13.88c2.53-3.74,2.69-8.61,2-13.07a14.41,14.41,0,0,0-1.56-4.94,11,11,0,0,0-6.37-4.74,21.39,21.39,0,0,0-8-.63c-3.79.31-7.84,1.35-10.17,4.35-.86,1.11-1.46,2.46-2.56,3.34a9.06,9.06,0,0,1-1.83,1l-5.42,2.44"/><path class="cls-2" d="M58.65,197c-1.86,2.17-5,2.51-7.87,2.7l-8.7.58c-2.09.14-4.28.26-6.19-.6-3.12-1.4-4.59-5-4.9-8.46-.53-6,1.62-11.83,3.3-17.59s2.93-12.1.65-17.66c-.23,1.71-2.68,2.36-4.09,1.37a5,5,0,0,1-1.64-4.65,9.15,9.15,0,0,1,5.06-7.05c2.6-1.22,5.14-2.72,6.6-5.32,1.28-2.26,1.15-5.53-1-7-1.33-.94-3.31-1.16-4-2.64-.44-1-.75-2.56.33-2.51,1.7.09,2.47-1.39,2.89-2.4,1.46-3.48,6.53-4.11,10.07-6,2-1,2.56-3.2,4.11-4.69a12.14,12.14,0,0,1,1.1,15.72c-1.75,2.24-4.41,4-5,6.77a7,7,0,0,0,2,5.94,15.69,15.69,0,0,0,4.29,3,5.22,5.22,0,0,0,.48,2.62c.45.92,1.19,1.67,1.6,2.59a3.84,3.84,0,0,1,.28.87,1.84,1.84,0,0,1,.43-.3c-.09.46-.17.93-.26,1.39s0,.61,0,.91,0,.59,0,.89a1.39,1.39,0,0,1-.35-.41,58.33,58.33,0,0,0-1.27,12.47c.22,7.5,2.85,14.73,3.5,22.19C60.38,192.32,60.29,195.11,58.65,197Z"/><path class="cls-5" d="M36.76,125.1a3.39,3.39,0,0,0-.87,4.81c.87,1.09,2.33,1.51,3.38,2.42A5.66,5.66,0,0,1,41,136.77a10.29,10.29,0,0,1-1.47,4.66c-.79,1.41-1.82,2.87-1.66,4.49a6.2,6.2,0,0,0,1.27,2.83q1.59,2.34,3.41,4.52c1.33,1.6,2.88,3.21,4.91,3.67a6,6,0,0,0,6.14-2.76,7.76,7.76,0,0,0,.43-6.9c-.82-2.05-2.37-3.74-3.42-5.68s-1.55-4.5-.25-6.3a11.58,11.58,0,0,1,2.21-2,12,12,0,0,0,2.48-16.06,3.36,3.36,0,0,0-2.42-1.77,3,3,0,0,0-2.28,1.22c-.58.68-1,1.49-1.61,2.14-2.33,2.52-6.79,2.38-8.69,5.23a21.51,21.51,0,0,1-1.39,2.43,3.32,3.32,0,0,1-3.65.91"/><path class="cls-2" d="M41.24,233.52a1.84,1.84,0,0,1-1.32-.61c-3.21-3.27-4.46-26-4.31-33.31a1,1,0,0,1,1-1h0a1.06,1.06,0,0,1,1,1.07c-.22,10.52,1.58,28.47,3.44,31.48.79-1.85,1.61-8.92,1.57-30.5v-1.15a1,1,0,0,1,1-1.05h0a1,1,0,0,1,1,1.05v1.15c0,4.36,0,12.49-.29,19.35-.56,12.52-1.81,13.54-3.26,13.55Zm.2-2.05h0Z"/><path class="cls-2" d="M52.75,233.52a1.84,1.84,0,0,1-1.32-.61c-3.23-3.29-4.47-26.07-4.31-33.36a1,1,0,0,1,1-1h0a1,1,0,0,1,1,1.07c-.22,10.53,1.57,28.51,3.44,31.52.79-1.84,1.6-8.91,1.57-30.47v-1.4a1,1,0,0,1,1-1h0a1,1,0,0,1,1.05,1v1.4c0,4.67,0,12.5-.29,19.35-.56,12.5-1.81,13.51-3.26,13.52Zm.2-2.05h0Z"/><path class="cls-2" d="M48.33,158a8.24,8.24,0,0,1-6.51-3.72,44.31,44.31,0,0,1-5.14-8.24,2.78,2.78,0,0,1-.27-2.38,2,2,0,0,1,1.54-1,1.19,1.19,0,0,0,.27-.07h0S40.69,140,40,134.18l0-.36A1,1,0,0,1,42,133.6l0,.32c.74,6.21-1.7,9.69-2.62,10.42a2.26,2.26,0,0,1-1.05.43,3,3,0,0,0,.18.41,41.55,41.55,0,0,0,4.93,7.91,6.08,6.08,0,0,0,5,2.86,5.2,5.2,0,0,0,4.15-2.79C55,149.31,51,144,49.9,142.86S48.71,140,48.65,138a31.51,31.51,0,0,0-.22-3.2l-.06-.44a1,1,0,1,1,2.08-.23c0,.13,0,.26,0,.38a31.48,31.48,0,0,1,.24,3.42c0,1.57.09,2.93.63,3.47,1.44,1.43,6.16,7.81,3.09,12.87A7.22,7.22,0,0,1,48.61,158Z"/><path class="cls-2" d="M35.84,200.68a4.81,4.81,0,0,1-4.62-4c-2.63-11.09-.9-15.9.93-21A49.36,49.36,0,0,0,34,169.89a34.69,34.69,0,0,0,.8-10.37c0-1.27-.08-2.65-.08-4.25a1,1,0,1,1,2.1,0c0,1.58,0,2.94.07,4.19A37,37,0,0,1,36,170.37a53.56,53.56,0,0,1-1.9,6.07c-1.8,5-3.35,9.32-.87,19.8a2.81,2.81,0,0,0,2.59,2.35h.06l19.35-.44a2.71,2.71,0,0,0,2.5-2.08c2.51-8.62.75-14-1-19.23-1.61-4.9-3.12-9.53-.54-15.91,2.36-5.82.87-11.72-3.7-14.68a1,1,0,0,1,1.13-1.76C59.05,148,60.91,155,58.2,161.72c-2.29,5.67-1,9.75.58,14.47,1.72,5.26,3.67,11.22,1,20.46a4.84,4.84,0,0,1-4.46,3.59l-19.36.44Z"/><path class="cls-2" d="M49.77,157.79a1,1,0,0,1-.92-1.53,2.8,2.8,0,0,0-.65-2.73,1,1,0,0,1,1.66-1.28,4.74,4.74,0,0,1,.83,5A1,1,0,0,1,49.77,157.79Z"/><path class="cls-2" d="M37.13,129.05a13.06,13.06,0,0,1-2.54-.31,1,1,0,0,1,.41-2.05c3.12.62,3.58.08,3.93-.82.11-.26.19-.53.28-.8.54-1.67,1.2-3.75,5.49-4.78,4.06-1,5.1-1.57,6.83-5.63a1,1,0,0,1,1.93.82c-2,4.74-3.58,5.72-8.27,6.85-3.14.75-3.52,1.91-4,3.38-.1.31-.2.62-.32.93A3.61,3.61,0,0,1,37.13,129.05Z"/><path class="cls-2" d="M40.93,134.71a.84.84,0,0,1-.31-.05c-2.3-.69-3.57-1.66-6.6-6a1,1,0,1,1,1.72-1.2c2.85,4.08,3.77,4.66,5.49,5.18a1,1,0,0,1-.3,2.05Z"/><path class="cls-2" d="M49.43,135.22a1,1,0,0,1-.25-2.06c3-.75,5-2.44,5.8-5,1.41-4.46-.87-10.13-2.55-12.06A1,1,0,0,1,54,114.7c2.22,2.55,4.55,9,3,14.06a9.53,9.53,0,0,1-7.29,6.43A1.15,1.15,0,0,1,49.43,135.22Z"/><path class="cls-2" d="M31,159.38l-.2,0a1,1,0,0,1-.71-.52,17.09,17.09,0,0,1-2.05-7.14,1.09,1.09,0,0,1,.23-.67,35,35,0,0,1,8.36-7.64,1.09,1.09,0,0,1,1.49.23,1,1,0,0,1-.21,1.44l-.16.1A32.22,32.22,0,0,0,30.19,152a15.5,15.5,0,0,0,1.22,4.71,24.19,24.19,0,0,1,3.6-2.28,1,1,0,0,1,.89,1.9,24.86,24.86,0,0,0-4.22,2.81A1.06,1.06,0,0,1,31,159.38Z"/><path class="cls-2" d="M28.11,116.85a12.21,12.21,0,0,0-3.88,1.74,4.26,4.26,0,0,0-2.16,2.91c-.26,1.26-.11,2.79-.47,4.47a6.38,6.38,0,0,1-1.05,2.45,6.58,6.58,0,0,1-1.95,1.78h0l-.42-1.91a19.26,19.26,0,0,0,3.46.3,10.91,10.91,0,0,0,3.34-.52,6.72,6.72,0,0,0,4.43-4.68v0a.52.52,0,0,1,1,.26,8.07,8.07,0,0,1-1.67,3.55,8.38,8.38,0,0,1-3.2,2.35,12.37,12.37,0,0,1-3.81.89,20.72,20.72,0,0,1-3.86-.06,1,1,0,0,1-.54-1.82l.12-.09h0a4.67,4.67,0,0,0,2-2.95c.3-1.26.22-2.79.65-4.47a5.74,5.74,0,0,1,1.23-2.37,6.35,6.35,0,0,1,2.1-1.48,11.52,11.52,0,0,1,2.26-.75,8.4,8.4,0,0,1,2.38-.28.36.36,0,0,1,.32.38.34.34,0,0,1-.28.31Z"/><path class="cls-2" d="M56,131.05a14.59,14.59,0,0,0,2.29-7.55,17.7,17.7,0,0,0-1.44-7.7A12.41,12.41,0,0,0,52,110.09a11.78,11.78,0,0,0-3.5-1.33,18.09,18.09,0,0,0-3.85-.32,17.2,17.2,0,0,0-7.49,1.62,12,12,0,0,0-5.44,5.14,13.17,13.17,0,0,0-1.25,7.58,17,17,0,0,0,.73,3.89,8.09,8.09,0,0,0,2,3.33h0a.25.25,0,0,1-.31.38A8,8,0,0,1,30.29,127a15.84,15.84,0,0,1-1.08-4.09,20.57,20.57,0,0,1-.16-4.24,12.86,12.86,0,0,1,1.14-4.2,13.37,13.37,0,0,1,6-6.2,18.22,18.22,0,0,1,8.38-1.92,20.4,20.4,0,0,1,4.3.41,12.4,12.4,0,0,1,4.08,1.7,13.64,13.64,0,0,1,5.33,6.75,18.41,18.41,0,0,1,1.09,8.36,14.52,14.52,0,0,1-3,7.76.24.24,0,0,1-.34,0,.26.26,0,0,1,0-.32Z"/><path class="cls-14" d="M51,124.09H49.4a1,1,0,0,1,0-2.09H51a1,1,0,1,1,0,2.09Z"/><ellipse class="cls-5" cx="46.69" cy="123.31" rx="2.76" ry="2.76"/><path class="cls-2" d="M46.69,127.11a3.81,3.81,0,1,1,3.81-3.8A3.8,3.8,0,0,1,46.69,127.11Zm0-5.51a1.71,1.71,0,1,0,1.72,1.71A1.71,1.71,0,0,0,46.69,121.6Z"/><ellipse class="cls-5" cx="53.88" cy="123.31" rx="2.76" ry="2.76"/><path class="cls-2" d="M53.88,127.11a3.81,3.81,0,1,1,3.81-3.8A3.8,3.8,0,0,1,53.88,127.11Zm0-5.51a1.71,1.71,0,1,0,1.72,1.71A1.71,1.71,0,0,0,53.88,121.6Z"/><line class="cls-9" x1="36.47" y1="163.33" x2="33.5" y2="161.44"/><path class="cls-11" d="M36.22,163.72a2.88,2.88,0,0,1-1.64-.7,7.46,7.46,0,0,1-1.33-1.19.48.48,0,0,1,0-.68.5.5,0,0,1,.45-.1,7.5,7.5,0,0,1,1.64.7,2.8,2.8,0,0,1,1.33,1.18.54.54,0,0,1-.25.73A.53.53,0,0,1,36.22,163.72Z"/><line class="cls-9" x1="32.7" y1="169.24" x2="24.31" y2="163.91"/><path class="cls-11" d="M32.51,169.54c-1.49-.75-2.93-1.56-4.37-2.39L26,165.88a6.89,6.89,0,0,1-2-1.53.54.54,0,0,1,.06-.77.57.57,0,0,1,.5-.11,7.41,7.41,0,0,1,2.22,1.14L28.87,166c1.36.95,2.71,1.91,4,2.94a.35.35,0,0,1,.07.5A.36.36,0,0,1,32.51,169.54Z"/><path class="cls-5" d="M47,180.2l-20.2,8.29a1.24,1.24,0,0,1-1.6-.67L16.75,167.2a1.24,1.24,0,0,1,.67-1.6l24.91-10.19a1.23,1.23,0,0,1,1.6.67l6.55,16"/><line class="cls-9" x1="50.48" y1="172.04" x2="47.1" y2="180.16"/><path class="cls-3" d="M47.1,180.93a.71.71,0,0,1-.29-.05.78.78,0,0,1-.42-1l3.38-8.12a.76.76,0,0,1,1-.42.77.77,0,0,1,.41,1l-3.38,8.12A.76.76,0,0,1,47.1,180.93Z"/><path class="cls-3" d="M47.31,180.91l-10.48,4.3-5.24,2.15L29,188.44l-1.31.53-.33.14a3.27,3.27,0,0,1-.39.15,2,2,0,0,1-1.14,0,2,2,0,0,1-1-.6,2.46,2.46,0,0,1-.31-.48l-.15-.36-.53-1.31-1.08-2.62-2.15-5.24-4.3-10.48-.27-.65a2.06,2.06,0,0,1-.13-1.11,2,2,0,0,1,.49-1,1.92,1.92,0,0,1,.44-.37,2.1,2.1,0,0,1,.26-.13l.17-.07,2.62-1.07,5.24-2.15,10.48-4.29,5.25-2.14.65-.27.33-.13a4.4,4.4,0,0,1,.42-.16,2,2,0,0,1,2.07.66,2.29,2.29,0,0,1,.3.5l.14.33.27.65.53,1.31,2.15,5.24,1,2.64a14.61,14.61,0,0,1,.82,2.73.45.45,0,0,1-.82.33,14.06,14.06,0,0,1-1.33-2.51l-1.12-2.6-2.16-5.24-.53-1.31-.27-.66-.13-.32-.07-.11a.47.47,0,0,0-.47-.15l-1.23.5-5.24,2.14L25.73,163l-5.25,2.14-2.62,1.08-.15.06-.06,0a.39.39,0,0,0-.1.08.44.44,0,0,0-.11.24.46.46,0,0,0,0,.27l.27.66,4.3,10.48,2.15,5.24,1.07,2.62.54,1.3.12.3.07.11a.44.44,0,0,0,.22.14.57.57,0,0,0,.26,0l.6-.24,1.31-.54L31,185.93l5.23-2.15,10.48-4.29a.76.76,0,0,1,1,.42A.77.77,0,0,1,47.31,180.91Z"/><path class="cls-3" d="M50.77,172.75,45,175.11l.42-1c.19.53.35,1.07.52,1.6.08.27.17.54.23.81s.12.56.21.82a.44.44,0,0,1-.27.56.45.45,0,0,1-.54-.22c-.12-.26-.29-.49-.42-.74s-.27-.49-.4-.74c-.26-.5-.52-1-.76-1.51a.74.74,0,0,1,.35-1l0,0h0l5.75-2.35a.77.77,0,1,1,.58,1.42Z"/><line class="cls-9" x1="33.82" y1="164.71" x2="39.08" y2="177.52"/><path class="cls-11" d="M34.28,164.52a15.57,15.57,0,0,1,1.57,3.1l1.25,3.22c.44,1.08.81,2.17,1.21,3.25s.78,2.18,1.14,3.28a.4.4,0,0,1-.74.3c-.52-1-1-2.08-1.5-3.13s-1-2.09-1.41-3.16l-1.37-3.18a14.87,14.87,0,0,1-1.06-3.31.5.5,0,0,1,.41-.58A.51.51,0,0,1,34.28,164.52Z"/><line class="cls-9" x1="32.72" y1="171.1" x2="35.89" y2="178.82"/><path class="cls-11" d="M33.1,170.94A12.21,12.21,0,0,1,35,174.68a32,32,0,0,1,1.24,4,.38.38,0,0,1-.28.45.37.37,0,0,1-.4-.17,33.63,33.63,0,0,1-1.93-3.72,12.11,12.11,0,0,1-1.27-4,.43.43,0,0,1,.39-.46A.48.48,0,0,1,33.1,170.94Z"/><line class="cls-9" x1="30.64" y1="166.01" x2="31.97" y2="169.26"/><path class="cls-11" d="M31.06,165.84a2.81,2.81,0,0,1,.94,1.51,7.61,7.61,0,0,1,.4,1.74.5.5,0,0,1-.43.53.52.52,0,0,1-.43-.18,8.32,8.32,0,0,1-.94-1.52,2.8,2.8,0,0,1-.39-1.73.54.54,0,0,1,.62-.45A.44.44,0,0,1,31.06,165.84Z"/><line class="cls-9" x1="32.09" y1="178.63" x2="32.7" y2="180.13"/><path class="cls-11" d="M32.38,178.51a1.53,1.53,0,0,1,.71.59.75.75,0,0,1,.06.84.77.77,0,0,1-1.44-.28,1.48,1.48,0,0,1,.09-.91.44.44,0,0,1,.58-.24Z"/><line class="cls-9" x1="27.45" y1="167.32" x2="31.22" y2="176.51"/><path class="cls-11" d="M27.78,167.18c.78,1.47,1.49,3,2.19,4.47l1,2.27a7.21,7.21,0,0,1,.72,2.39.55.55,0,0,1-1,.4,7.11,7.11,0,0,1-1.16-2.21l-.88-2.33c-.56-1.56-1.11-3.12-1.58-4.72a.35.35,0,0,1,.24-.44A.35.35,0,0,1,27.78,167.18Z"/><line class="cls-9" x1="37.13" y1="163.36" x2="40.9" y2="172.55"/><path class="cls-11" d="M37.46,163.22c.78,1.47,1.49,3,2.19,4.47l1,2.27a7.28,7.28,0,0,1,.72,2.39.54.54,0,0,1-.5.59.56.56,0,0,1-.47-.19,7.56,7.56,0,0,1-1.16-2.21l-.87-2.33c-.56-1.56-1.11-3.12-1.58-4.72a.35.35,0,0,1,.24-.44A.35.35,0,0,1,37.46,163.22Z"/><line class="cls-9" x1="41.53" y1="174.08" x2="42.27" y2="175.89"/><path class="cls-11" d="M41.86,173.94a4.13,4.13,0,0,1,.67.79l.25.42a.41.41,0,0,1,0,.54,1,1,0,0,1-1,.4.43.43,0,0,1-.41-.36l-.12-.49a4.3,4.3,0,0,1-.06-1,.39.39,0,0,1,.43-.36A.46.46,0,0,1,41.86,173.94Z"/><line class="cls-9" x1="24.26" y1="168.62" x2="27.61" y2="176.79"/><path class="cls-11" d="M24.57,168.49a40.84,40.84,0,0,1,2,3.94A14.12,14.12,0,0,1,28,176.62a.46.46,0,0,1-.42.51.45.45,0,0,1-.41-.17,13.83,13.83,0,0,1-1.93-4A37.86,37.86,0,0,1,24,168.74a.34.34,0,0,1,.24-.4A.35.35,0,0,1,24.57,168.49Z"/><line class="cls-9" x1="33.51" y1="162.98" x2="30.14" y2="161.98"/><path class="cls-11" d="M33.38,163.42a2.86,2.86,0,0,1-1.77-.21,7.88,7.88,0,0,1-1.6-.78.48.48,0,0,1-.14-.67.47.47,0,0,1,.4-.22,7.94,7.94,0,0,1,1.77.22,2.8,2.8,0,0,1,1.6.77.53.53,0,0,1,0,.77A.48.48,0,0,1,33.38,163.42Z"/><line class="cls-9" x1="31.53" y1="169.7" x2="21.99" y2="166.89"/><path class="cls-11" d="M31.43,170c-1.64-.31-3.25-.69-4.86-1.09l-2.41-.63a7.48,7.48,0,0,1-2.32-.93.55.55,0,0,1-.15-.76.54.54,0,0,1,.45-.24,7.25,7.25,0,0,1,2.45.47l2.36.78c1.57.53,3.14,1.09,4.68,1.72a.36.36,0,0,1,.2.46A.37.37,0,0,1,31.43,170Z"/><path class="cls-5" d="M48.31,176.29,31.18,189.82a1.22,1.22,0,0,1-1.72-.2L15.64,172.13a1.22,1.22,0,0,1,.2-1.72L37,153.76a1.22,1.22,0,0,1,1.72.2l10.7,13.54"/><line class="cls-9" x1="49.39" y1="167.5" x2="48.39" y2="176.24"/><path class="cls-3" d="M48.39,177H48.3a.77.77,0,0,1-.68-.85l1-8.74a.78.78,0,1,1,1.54.18l-1,8.73A.77.77,0,0,1,48.39,177Z"/><path class="cls-3" d="M48.79,176.9l-8.89,7-4.44,3.51-2.23,1.75-1.11.88-.27.22c-.11.08-.16.13-.34.25a2,2,0,0,1-1.09.33,2,2,0,0,1-1.09-.33,1.73,1.73,0,0,1-.43-.38l-.24-.3-.88-1.11L26,186.52l-3.52-4.44-7-8.89-.43-.55a1.93,1.93,0,0,1-.44-1,2,2,0,0,1,.18-1.12,2.21,2.21,0,0,1,.33-.47,1,1,0,0,1,.21-.2l.14-.12L17.71,168l4.45-3.5,8.89-7,4.45-3.51.56-.43.27-.22.14-.11.23-.16a2,2,0,0,1,2.18.07,2.21,2.21,0,0,1,.41.4l.23.28.43.55.88,1.11,3.51,4.45,1.72,2.25a14.09,14.09,0,0,1,1.53,2.39.45.45,0,0,1-.21.61.44.44,0,0,1-.48-.06,14.12,14.12,0,0,1-2-2.05l-1.8-2.19-3.51-4.44-.88-1.11-.44-.56-.21-.27a.28.28,0,0,0-.1-.09.46.46,0,0,0-.49,0l-1,.82L32,158.65l-8.9,7-4.45,3.5-2.22,1.75-.13.11,0,0a.41.41,0,0,0-.07.11.44.44,0,0,0,0,.25.41.41,0,0,0,.12.26l.43.56,7,8.88,3.51,4.45L29,187.79l.88,1.11.2.25a.43.43,0,0,0,.35.16.45.45,0,0,0,.25-.07l.5-.39,1.11-.88,2.22-1.75L39,182.71l8.88-7a.77.77,0,1,1,1,1.21Z"/><path class="cls-3" d="M49.86,168.1,45,172l.13-1.09c.33.46.63.93.94,1.4.16.24.32.46.46.71s.26.5.42.73a.45.45,0,0,1-.11.62.44.44,0,0,1-.57-.07c-.19-.21-.42-.39-.62-.59s-.39-.4-.59-.6c-.38-.41-.77-.82-1.14-1.24a.74.74,0,0,1,.07-1l0,0,0,0,4.88-3.83a.76.76,0,0,1,.94,1.2Z"/><g class="cls-15"><line class="cls-9" x1="31.35" y1="165.03" x2="39.94" y2="175.9"/><path class="cls-2" d="M31.74,164.73a15,15,0,0,1,2.36,2.55L36.2,170c.71.91,1.37,1.86,2.06,2.79s1.34,1.88,2,2.84a.39.39,0,0,1-.1.55.41.41,0,0,1-.52-.06c-.78-.86-1.55-1.72-2.3-2.6s-1.51-1.74-2.24-2.64l-2.19-2.68A15.33,15.33,0,0,1,31,165.34a.5.5,0,0,1,.77-.61Z"/></g><g class="cls-15"><line class="cls-9" x1="32.06" y1="171.48" x2="37.24" y2="178.03"/><path class="cls-2" d="M32.38,171.23a12.21,12.21,0,0,1,2.85,3.07,33.12,33.12,0,0,1,2.3,3.51.37.37,0,0,1-.15.5.38.38,0,0,1-.43-.05,31.71,31.71,0,0,1-2.88-3,12.39,12.39,0,0,1-2.33-3.49.43.43,0,0,1,.64-.5Z"/></g><g class="cls-15"><line class="cls-9" x1="28.65" y1="167.16" x2="30.83" y2="169.92"/><path class="cls-2" d="M29,166.88a2.82,2.82,0,0,1,1.31,1.19,7.64,7.64,0,0,1,.86,1.56.48.48,0,0,1-.72.58,7.57,7.57,0,0,1-1.32-1.2,2.86,2.86,0,0,1-.86-1.56.54.54,0,0,1,.73-.57Z"/></g><g class="cls-15"><line class="cls-9" x1="33.53" y1="178.89" x2="34.53" y2="180.16"/><path class="cls-2" d="M33.78,178.7a1.52,1.52,0,0,1,.84.37.73.73,0,0,1,.29.79.72.72,0,0,1-.75.6.75.75,0,0,1-.71-.47,1.41,1.41,0,0,1-.16-.9.44.44,0,0,1,.49-.39Z"/></g><g class="cls-15"><line class="cls-9" x1="25.95" y1="169.29" x2="32.11" y2="177.09"/><path class="cls-2" d="M26.23,169.07c1.16,1.2,2.25,2.44,3.34,3.7l1.59,1.9a7.23,7.23,0,0,1,1.36,2.1.55.55,0,0,1-.32.71.58.58,0,0,1-.5-.06A7.24,7.24,0,0,1,30,175.61l-1.48-2c-1-1.35-1.93-2.7-2.82-4.11a.35.35,0,0,1,.11-.49A.36.36,0,0,1,26.23,169.07Z"/></g><g class="cls-15"><line class="cls-9" x1="34.16" y1="162.82" x2="40.32" y2="170.62"/><path class="cls-2" d="M34.44,162.6c1.16,1.2,2.25,2.44,3.34,3.7l1.59,1.9a7.23,7.23,0,0,1,1.36,2.1.55.55,0,0,1-.31.71.6.6,0,0,1-.51-.06,7.2,7.2,0,0,1-1.72-1.81l-1.49-2c-1-1.35-1.93-2.7-2.82-4.1a.36.36,0,0,1,.11-.5A.36.36,0,0,1,34.44,162.6Z"/></g><g class="cls-15"><line class="cls-9" x1="41.35" y1="171.92" x2="42.56" y2="173.46"/><path class="cls-2" d="M41.63,171.7a3.67,3.67,0,0,1,.86.57l.36.33a.42.42,0,0,1,.12.53,1,1,0,0,1-.82.65.42.42,0,0,1-.49-.24l-.24-.43a3.6,3.6,0,0,1-.35-1,.4.4,0,0,1,.31-.47A.52.52,0,0,1,41.63,171.7Z"/></g><g class="cls-15"><line class="cls-9" x1="23.24" y1="171.42" x2="28.72" y2="178.36"/><path class="cls-2" d="M23.5,171.22a40.22,40.22,0,0,1,3.05,3.22,13.84,13.84,0,0,1,2.52,3.64.47.47,0,0,1-.26.61.46.46,0,0,1-.44-.06,13.81,13.81,0,0,1-3-3.29A40,40,0,0,1,23,171.63a.34.34,0,0,1,.12-.46A.33.33,0,0,1,23.5,171.22Z"/></g><path class="cls-2" d="M35.94,179.48h-.15a4.66,4.66,0,0,1-3.58-1.93,4.53,4.53,0,0,1-.29-3.6c-5.69-3.45-6.81-8-7-10.47a10.49,10.49,0,0,1,3.89-9,1,1,0,0,1,1.23,1.7,8.32,8.32,0,0,0-3,7.19c.23,3.7,2.58,7,6.62,9.19a1.05,1.05,0,0,1,.49,1.25,3.4,3.4,0,0,0-.15,2.67,2.86,2.86,0,0,0,2.09,1,1,1,0,0,1,.88,1.18A1,1,0,0,1,35.94,179.48Z"/><path class="cls-2" d="M49.9,171.78a1,1,0,0,1-.26-2.06c6.13-1.62,9.79-4.69,10.57-8.86s-1.53-8.57-3.44-10a1,1,0,0,1-.23-1.46,1.05,1.05,0,0,1,1.46-.23c2.41,1.75,5.23,6.9,4.27,12-.66,3.5-3.29,8.16-12.1,10.49A.84.84,0,0,1,49.9,171.78Z"/><path class="cls-5" d="M202.72,132.81a41,41,0,0,1,3.63-22.61,18.53,18.53,0,0,1,3.9-5.7,8.82,8.82,0,0,1,6.27-2.53,10.14,10.14,0,0,1,6.22,3,18.9,18.9,0,0,1,5.8,11,37.31,37.31,0,0,1-.06,8.58l-.76,8.94a4.45,4.45,0,0,1-.36,1.66,4.36,4.36,0,0,1-2.91,1.82,92.4,92.4,0,0,1-9.58,2.23,20.21,20.21,0,0,1-8.65.14c-2.82-.74-5.45-2.82-6-5.66a4.4,4.4,0,0,1,.52-3.33,2.87,2.87,0,0,1,3-1.26"/><path class="cls-2" d="M193.07,179l3.75,30.68c.92,7.52,1.85,15.12,4.54,22.2a2.51,2.51,0,0,0,2.28-1.31,7.29,7.29,0,0,0,.79-2.64,119.74,119.74,0,0,0,1-28.62c-.11-1.3-.21-2.74.57-3.78,1-1.27,2.76-1.44,4.34-1.49a5.38,5.38,0,0,1,3.63.76c1.14.94,1.29,2.59,1.39,4.06a107.22,107.22,0,0,0,7.76,33.53c2-.76,2.74-3.24,3.07-5.38,1.23-7.82,1.35-15.76,1.47-23.67l.37-23.79c-6.86.6-13.77,1.19-20.62.58a58.74,58.74,0,0,1-13.88-3l-1.24,3.67"/><path class="cls-5" d="M196.42,143.43a44.61,44.61,0,0,1-28.54-5.91,6.43,6.43,0,0,1-2.41-2.12,3.41,3.41,0,0,1,.39-3.91,4.54,4.54,0,0,1,4-1.17,19.51,19.51,0,0,1,4.09,1.32,30.36,30.36,0,0,0,20.74.25c2.13-.76,4.39-1.77,6.57-1.18,3.81,1,5.13,6.31,8.89,7.51,2.43.78,5-.43,7.11-1.92s4-3.31,6.47-4c3.16-.89,6.64.35,9.09,2.54a21.07,21.07,0,0,1,5.21,8.23c2.76,7,3.87,14.51,5,21.94l1,7.06a6.14,6.14,0,0,1,.05,2.26c-.53,2.33-3.93,3.16-5.73,1.6a7.88,7.88,0,0,1-2-3.83l-6.16-19.83,1.56,19.79a6.82,6.82,0,0,1-.61,4.32c-.92,1.39-2.69,1.9-4.33,2.24a63.19,63.19,0,0,1-30-1.09,13.57,13.57,0,0,1-5.09-2.36c-3.29-2.78-1.64-7.57-1.07-11.24a89.11,89.11,0,0,1,3.17-13.38c.38-1.2.8-2.4,1.23-3.58C195.18,146.56,196.07,143.48,196.42,143.43Z"/><path class="cls-2" d="M244.93,186.68a1.11,1.11,0,0,1-1.11-1c-.06-.95-.41-1.88-2.54-2.21a1.11,1.11,0,0,1-.94-1.07l-.15-6.17a1.12,1.12,0,0,1,1.09-1.14,1.11,1.11,0,0,1,1.13,1.09l.12,5.29a4.29,4.29,0,0,1,3.5,4.07,1.1,1.1,0,0,1-1,1.17Z"/><path class="cls-2" d="M166.43,133.75a1.14,1.14,0,0,1-.75-.29,9.86,9.86,0,0,0-1.06-.85,8.76,8.76,0,0,1-2.62-2.7,4.28,4.28,0,0,1-5.86-4.11,1.11,1.11,0,0,1,2.19-.31,3,3,0,0,0,1,2.21c.56.35,1.51.29,2.84-.15a1.11,1.11,0,0,1,1.32.52,6.9,6.9,0,0,0,2.43,2.75,13.94,13.94,0,0,1,1.26,1,1.11,1.11,0,0,1-.75,1.93Z"/><path class="cls-2" d="M194.32,176.26c.47,7.8,1.22,15.6,2.06,23.38s1.84,15.56,3.38,23.16a51.38,51.38,0,0,0,1.42,5.56,10,10,0,0,0,1.06,2.37,1.36,1.36,0,0,0,.23.26s0,0,0,0a.17.17,0,0,0-.1,0h0a1.31,1.31,0,0,0,.31-.38,9.21,9.21,0,0,0,.86-2.43q.3-1.36.51-2.79c.27-1.9.43-3.84.57-5.77.51-7.77.42-15.61.94-23.46a.57.57,0,0,1,1.13,0,191.53,191.53,0,0,1,.11,23.6c-.12,2-.27,4-.54,5.94-.14,1-.3,2-.52,3a11.17,11.17,0,0,1-1.11,3.1,3.53,3.53,0,0,1-.65.82,1.62,1.62,0,0,1-.51.38l-.32.17-.38.09-.39.05a2.44,2.44,0,0,1-.46-.07,2.28,2.28,0,0,1-.7-.33,3.6,3.6,0,0,1-.78-.79,11.79,11.79,0,0,1-1.39-3,51.55,51.55,0,0,1-1.54-5.82c-1.61-7.77-2.55-15.57-3.43-23.39s-1.48-15.65-1.9-23.52a1.11,1.11,0,0,1,2.21-.12Z"/><path class="cls-2" d="M203.61,191.94a21.08,21.08,0,0,0,5.28,1.59,6.92,6.92,0,0,0,2.55-.21c.86-.21,1.78-.5,2.72-.75h0a1.09,1.09,0,0,1,1.31.81,1,1,0,0,1,0,.17v0c.26,3.85.83,7.76,1.44,11.63s1.34,7.73,2.16,11.57A86.49,86.49,0,0,0,222.17,228a13.66,13.66,0,0,0,1.15,2.46,2.82,2.82,0,0,0,.32.43c.1.12.2.15.1.11a.25.25,0,0,0-.1,0h.05a.18.18,0,0,0,.11,0,.74.74,0,0,0,.23-.14,5.25,5.25,0,0,0,1-2.12,26.1,26.1,0,0,0,.55-2.77c.54-3.81.72-7.75.88-11.67s.24-7.86.29-11.8c.1-7.87.11-15.75.09-23.64a1.11,1.11,0,0,1,1.11-1.11,1.12,1.12,0,0,1,1.11,1.11h0c0,7.89,0,15.78-.1,23.67,0,4-.13,7.9-.28,11.86s-.35,7.91-.91,11.9a25.8,25.8,0,0,1-.61,3,7,7,0,0,1-1.57,3.15,3,3,0,0,1-1,.63,2.66,2.66,0,0,1-.61.13l-.31,0a2.19,2.19,0,0,1-.47-.08,2.41,2.41,0,0,1-1.1-.72,5.08,5.08,0,0,1-.57-.74,16.58,16.58,0,0,1-1.36-2.88A89.82,89.82,0,0,1,217,217.24c-.84-3.87-1.56-7.77-2.19-11.68s-1.19-7.82-1.46-11.85l1.34,1h0c-.92.15-1.84.34-2.85.47a9.21,9.21,0,0,1-3.14-.07,15,15,0,0,1-2.86-1c-.9-.39-1.75-.84-2.6-1.29a.51.51,0,0,1,.42-.93Z"/><path class="cls-2" d="M200.24,130.74a40.5,40.5,0,0,1-7.74,2.77,37.6,37.6,0,0,1-8.29,1.28,30.13,30.13,0,0,1-8.41-.94,36,36,0,0,1-7.82-3.08l1.55-.65h0a7.77,7.77,0,0,1-.73,1.62c-.33.53-.7.94-.89,1.24a3.3,3.3,0,0,0-.42,1.05,10.81,10.81,0,0,0-.19,1.34l-.39-.93c4.05,3.44,8.5,6.42,13.51,7.79a26.93,26.93,0,0,0,7.7,1,39.62,39.62,0,0,0,7.79-1,1.12,1.12,0,0,1,1.33.85,1.11,1.11,0,0,1-.08.7v0h0a60.47,60.47,0,0,0-4,12.06,88.34,88.34,0,0,0-1.89,12.65c-.09,1.06-.16,2.13-.2,3.19l0,.8a2.52,2.52,0,0,0,.05.48,2,2,0,0,0,.45.87,2.2,2.2,0,0,0,.87.57l1.5.59c1,.39,2,.79,3,1.15A38.59,38.59,0,0,0,209.14,179c2.09.09,4.22,0,6.37-.05s4.27-.24,6.39-.46,4.24-.53,6.33-.92l.78-.15.39-.08.22-.06a1.62,1.62,0,0,0,.72-.54,1.53,1.53,0,0,0,.28-.9c0-.53,0-1.06.06-1.59a107.65,107.65,0,0,0-.46-12.82c-.37-4.29-1.26-8.41-1.72-12.72h0a.48.48,0,0,1,.91-.27c2.05,4,2.55,8.45,3,12.77A110.31,110.31,0,0,1,233,174.3q0,.82-.06,1.65a3.88,3.88,0,0,1-2.52,3.55c-.18.07-.37.12-.55.17l-.41.08-.81.16c-2.16.43-4.33.75-6.51,1s-4.36.42-6.55.52a65.84,65.84,0,0,1-6.6.08,32.55,32.55,0,0,1-6.66-1,64.48,64.48,0,0,1-6.31-2c-1-.38-2-.78-3.05-1.17l-1.52-.61a4.62,4.62,0,0,1-1.8-1.22,4.54,4.54,0,0,1-1-2,4.29,4.29,0,0,1-.1-1.13l0-.82c0-1.1.11-2.19.2-3.28a87.63,87.63,0,0,1,2.08-13,63,63,0,0,1,4.29-12.5h0l1.24,1.57a41.47,41.47,0,0,1-8.25,1,29.3,29.3,0,0,1-8.32-1,31.09,31.09,0,0,1-7.67-3.36,52.48,52.48,0,0,1-6.68-4.88v0a1.07,1.07,0,0,1-.38-.92,14.76,14.76,0,0,1,.24-1.66,5.61,5.61,0,0,1,.71-1.74c.36-.54.68-.88.87-1.22a5,5,0,0,0,.52-1.14h0a1.12,1.12,0,0,1,1.41-.7l.11.05h0c1.21.55,2.42,1.08,3.65,1.55s2.5.83,3.76,1.16a29.88,29.88,0,0,0,7.76.89,35.49,35.49,0,0,0,7.83-1,58.11,58.11,0,0,1,8-1.63.52.52,0,0,1,.58.48A.54.54,0,0,1,200.24,130.74Z"/><path class="cls-2" d="M238,177.42a1.12,1.12,0,0,1-1.07-.81c-.39-1.41-.78-2.86-1.16-4.32-1.81-6.78-3.68-13.79-6.59-19a1.11,1.11,0,1,1,1.93-1.09c3,5.44,4.95,12.59,6.8,19.5.29,1.11.58,2.2.88,3.28.9-.19,2.26-.47,3.52-.69-2.23-37.53-11.73-40.88-14.61-41a1.11,1.11,0,0,1-1.06-1.16,1.14,1.14,0,0,1,1.15-1.06c9.15.41,15.27,16.48,16.79,44.09a1.11,1.11,0,0,1-.94,1.16c-2.18.32-5.37,1-5.4,1A1,1,0,0,1,238,177.42Z"/><path class="cls-2" d="M202,129.67a7.65,7.65,0,0,1-.35-2.2c0-.74,0-1.48.07-2.21.09-1.47.22-2.94.4-4.41a43.47,43.47,0,0,1,1.92-8.72,20.42,20.42,0,0,1,4.66-7.89,17,17,0,0,1,1.85-1.52l1.06-.59a5.42,5.42,0,0,1,1.09-.51A11.09,11.09,0,0,1,215,101a10.06,10.06,0,0,1,2.45,0,12.16,12.16,0,0,1,4.58,1.41,9.3,9.3,0,0,1,3.55,3.35,15.57,15.57,0,0,1,1.11,2.09c.27.72.58,1.43.79,2.16a34,34,0,0,1,1,4.39,72,72,0,0,1,.4,17.66,1,1,0,0,1-2.09-.18v0a70.57,70.57,0,0,0-.59-17.07,32.3,32.3,0,0,0-1-4.08c-.2-.67-.47-1.29-.71-1.93a12.6,12.6,0,0,0-.94-1.74,6.78,6.78,0,0,0-2.7-2.56,9.85,9.85,0,0,0-3.68-1.12,8.5,8.5,0,0,0-1.89,0,9.79,9.79,0,0,0-1.82.52,3.46,3.46,0,0,0-.87.41l-.86.45a16,16,0,0,0-1.51,1.24,18.25,18.25,0,0,0-4.12,7,41.39,41.39,0,0,0-1.86,8.24c-.18,1.42-.31,2.84-.41,4.26a15,15,0,0,1-.55,4.29v0a.73.73,0,0,1-.93.44A.75.75,0,0,1,202,129.67Z"/><path class="cls-2" d="M208.78,126.34c.48.2.79.26,1.2.41a5.9,5.9,0,0,0,1.27.4,7.27,7.27,0,0,0,2.9,0h0a.53.53,0,0,1,.5.88,4.58,4.58,0,0,1-3.74,1.28,4.66,4.66,0,0,1-2-.62,2.26,2.26,0,0,1-1.12-2,.5.5,0,0,1,.55-.44l.13,0Z"/><path class="cls-3" d="M210.25,137.37a8.13,8.13,0,0,0-2.1,2.75l1.13,2.82s-4.54,14-5.32,20.92a4.3,4.3,0,0,0,.65,2.72c2.37,3.8,4.1,4.87,4.1,4.87s4.2-3.8,4.93-5.17-1.36-23.18-1.36-23.18l1.45-2.82-1.29-2.83Z"/><path class="cls-2" d="M205.16,166.14c.65.84,1.3,1.67,2,2.42.35.37.7.75,1.07,1.09.18.17.37.33.56.48a4.17,4.17,0,0,0,.49.37h0l-1.33.12c.92-.83,1.84-1.7,2.71-2.58.44-.44.86-.88,1.26-1.33a7.3,7.3,0,0,0,.53-.66c.09-.11.13-.19.19-.27s0-.07,0-.09c0-.47.05-1.12,0-1.73s0-1.24-.06-1.86c-.05-1.26-.12-2.51-.2-3.77-.34-5-.78-10.08-1.25-15.12h0V143a.66.66,0,0,1,.13-.44l2-2.57h0v.47l-.14-.95a.29.29,0,0,1,.25-.32.28.28,0,0,1,.26.09l.63.73a.27.27,0,0,1,.05.26l-.06.22h0l-1,3.08.12-.61h0c.47,5.06.91,10.11,1.25,15.18.08,1.27.15,2.55.21,3.82,0,.65,0,1.28,0,1.94a16.61,16.61,0,0,1-.06,2.07,4.22,4.22,0,0,1-.24.83c-.11.19-.23.38-.33.52-.23.3-.44.56-.67.81-.44.51-.89,1-1.35,1.43-.91.92-1.83,1.8-2.79,2.67h0a1.07,1.07,0,0,1-1.31.12h0a7.23,7.23,0,0,1-1.38-1.28,13.47,13.47,0,0,1-1.07-1.35,22.29,22.29,0,0,1-1.7-2.89.7.7,0,0,1,.32-.94A.72.72,0,0,1,205.16,166.14Z"/><path class="cls-2" d="M208.8,140.62l1.16,2a.48.48,0,0,1,0,.35l0,.15c-.39,1.64-.8,3.29-1.23,4.92l-1.29,4.9c-.87,3.26-1.67,6.51-2.76,9.71h0a.59.59,0,0,1-.74.36.57.57,0,0,1-.39-.54,25.84,25.84,0,0,1,.54-5.14c.32-1.69.77-3.34,1.21-5a91.94,91.94,0,0,1,3.27-9.69l0,.49-.58-2.28a.43.43,0,0,1,.3-.51A.42.42,0,0,1,208.8,140.62Z"/><path class="cls-2" d="M198.79,179.81a4,4,0,0,1-1.79,3.53,2.39,2.39,0,0,1-1.39.37.64.64,0,0,1-.56-.89l.09-.21a5.12,5.12,0,0,1,1.15-1.59c.43-.47.82-.91,1.23-1.42l.09-.11a.67.67,0,0,1,.94-.1A.72.72,0,0,1,198.79,179.81Z"/><path class="cls-2" d="M222.59,181.27a12.71,12.71,0,0,1,1.07.81,8,8,0,0,1,.79.74c.26.23.51.47.76.68s.5.41.79.63l.19.15a.67.67,0,0,1,.12.93.68.68,0,0,1-.31.22,2.73,2.73,0,0,1-1.77-.1,3.81,3.81,0,0,1-1.36-.92,3.19,3.19,0,0,1-.86-1.36,2.28,2.28,0,0,1,.08-1.66.32.32,0,0,1,.43-.16l0,0Z"/><path class="cls-2" d="M217.53,144.21a12.08,12.08,0,0,0,2.87.22,13.23,13.23,0,0,0,1.53-.16c.51-.08,1-.17,1.52-.29h0a.6.6,0,0,1,.41,1.13,15.17,15.17,0,0,1-3.22,1.12,8.56,8.56,0,0,1-3.58.16,1.11,1.11,0,0,1,.42-2.18Z"/><path class="cls-5" d="M169.49,135.64c0,.06-.09.12-.13.19a9.44,9.44,0,0,1-1.63,2c-.33.33-2.29-.84-2.61-1.33s3-7.18,3.26-7.56,2.67,1,2.67,1l-.38.84"/><path class="cls-2" d="M170,136a13.29,13.29,0,0,1-1,2.1,2.45,2.45,0,0,1-.36.46l-.09.09,0,.05-.19.14a1.48,1.48,0,0,1-.39.17,1.68,1.68,0,0,1-.76,0,4.87,4.87,0,0,1-1.3-.52,7,7,0,0,1-1-.67,2.91,2.91,0,0,1-.63-.62,1.58,1.58,0,0,1-.2-.53,1.1,1.1,0,0,1,0-.25,1.9,1.9,0,0,1,0-.3c0-.15.06-.27.09-.38a20.1,20.1,0,0,1,.8-2.14c.58-1.34,1.21-2.62,1.86-3.91.16-.33.32-.64.51-1,.06-.1.07-.14.19-.32a1.47,1.47,0,0,1,.32-.32,1.15,1.15,0,0,1,.43-.2,1.93,1.93,0,0,1,.48,0,3.12,3.12,0,0,1,.83.2,14.94,14.94,0,0,1,2.08,1h0a1.07,1.07,0,0,1,.44,1.36l-.38.85a1.07,1.07,0,0,1-2-.87l.38-.85.44,1.37h0a13.58,13.58,0,0,0-1.75-.82l-.21-.05s.15,0,.22,0a.94.94,0,0,0,.31-.15,1.07,1.07,0,0,0,.22-.23s0,.08-.07.14l-.46.92c-.62,1.25-1.22,2.53-1.78,3.8-.27.62-.56,1.3-.73,1.84a.58.58,0,0,0,0,.14s0,.05,0,0a.68.68,0,0,0,0-.12.91.91,0,0,0-.16-.4c-.08-.09.05.06.14.12a5.76,5.76,0,0,0,.73.48,3.82,3.82,0,0,0,.67.31s0,0-.23,0a.92.92,0,0,0-.27.12L167,137h0l.1-.09a1.85,1.85,0,0,1,.39-.3,6.93,6.93,0,0,0,1.53-1.32.61.61,0,0,1,.85,0,.6.6,0,0,1,.15.63Z"/><path class="cls-5" d="M242,172.08h.23a10,10,0,0,1,2.59.15c.45.07.65,2.34.44,2.9s-7.58,1.76-8,1.76-.75-2.74-.75-2.74l.91-.19"/><path class="cls-2" d="M242,171.5a13.73,13.73,0,0,1,2.29-.42,2.77,2.77,0,0,1,.58,0l.13,0H245l.22.07a1.31,1.31,0,0,1,.38.22,1.74,1.74,0,0,1,.45.61,5,5,0,0,1,.33,1.36,7.28,7.28,0,0,1,.06,1.25,2.68,2.68,0,0,1-.14.87,1.35,1.35,0,0,1-.32.48l-.19.15a1.26,1.26,0,0,1-.26.15l-.35.15a21.15,21.15,0,0,1-2.21.6c-1.42.31-2.83.55-4.26.78l-1.09.15-.37,0h-.13a1,1,0,0,1-.29-.05,1.42,1.42,0,0,1-.44-.23,1.59,1.59,0,0,1-.32-.37,3,3,0,0,1-.33-.79,15.24,15.24,0,0,1-.37-2.3h0a1.07,1.07,0,0,1,.85-1.15l.91-.19a1.07,1.07,0,0,1,.44,2.1l-.91.19.85-1.16h0a12.83,12.83,0,0,0,.36,1.9c0,.1.11.27.07.19s-.08-.13-.15-.16a1,1,0,0,0-.32-.17,1.7,1.7,0,0,0-.29,0l.16,0,1-.16c1.39-.23,2.77-.49,4.13-.78a18.54,18.54,0,0,0,1.92-.48l.13-.05,0,0-.07.06a1,1,0,0,0-.25.38c0,.12,0-.08,0-.18a5.25,5.25,0,0,0,0-.88,3.76,3.76,0,0,0-.14-.72s0,0,.15.18a1.12,1.12,0,0,0,.26.15.59.59,0,0,0,.17,0h0l-.13,0a2.33,2.33,0,0,1-.47-.14,7.11,7.11,0,0,0-2-.47.6.6,0,0,1-.52-.67.61.61,0,0,1,.43-.49Z"/><path class="cls-2" d="M204,131.7a30.64,30.64,0,0,1,5.08,4c.39.35.79.69,1.18,1l.58.44c.09.05.19.13.26.16l.11.07c0-.05-.2-.07-.17-.07a1.79,1.79,0,0,0,.42-.06,6.75,6.75,0,0,0,.68-.17c.48-.14,1-.31,1.44-.49,1.94-.74,3.9-1.59,5.79-2.53s3.7-2,5.73-2.83h0a.36.36,0,0,1,.47.2.35.35,0,0,1-.07.37,20.87,20.87,0,0,1-5.27,3.85,53.38,53.38,0,0,1-5.84,3c-.51.21-1,.41-1.58.59-.28.09-.56.17-.88.24a3.45,3.45,0,0,1-1.17.1,2,2,0,0,1-.56-.16l-.24-.14c-.17-.09-.28-.18-.42-.27l-.69-.54c-.44-.36-.85-.72-1.26-1.09a26.19,26.19,0,0,1-4.29-4.87.53.53,0,0,1,.15-.73A.52.52,0,0,1,204,131.7Z"/><path class="cls-2" d="M225.44,120l-.24,0a8.54,8.54,0,0,0-2.37-.18c-2.4.18-3.29-.61-4.06-1.5a1.7,1.7,0,0,0-.53-.48,1.11,1.11,0,0,1,1-2,3.86,3.86,0,0,1,1.21,1c.44.51.74.84,2.25.74a10.7,10.7,0,0,1,3,.23,1.11,1.11,0,0,1-.24,2.19Z"/><path class="cls-14" d="M211.43,118.09h-2.08a1.11,1.11,0,1,1,0-2.22h2.08a1.11,1.11,0,0,1,0,2.22Z"/><ellipse class="cls-5" cx="214.92" cy="117.31" rx="3.55" ry="3.55"/><path class="cls-2" d="M214.92,122a4.66,4.66,0,1,1,4.66-4.66A4.67,4.67,0,0,1,214.92,122Zm0-7.1a2.44,2.44,0,1,0,2.44,2.44A2.45,2.45,0,0,0,214.92,114.87Z"/><ellipse class="cls-5" cx="205.66" cy="117.31" rx="3.55" ry="3.55"/><path class="cls-2" d="M205.66,122a4.66,4.66,0,1,1,4.66-4.66A4.66,4.66,0,0,1,205.66,122Zm0-7.1a2.44,2.44,0,1,0,2.45,2.44A2.44,2.44,0,0,0,205.66,114.87Z"/><path class="cls-2" d="M88.28,12.32a4,4,0,0,1,.53,2.5l0,2.49-.06,5v2.18a4,4,0,0,1,0,.42,2.3,2.3,0,0,1-1.38,1.85,2,2,0,0,1-.58.16c-.1,0-.2,0-.3,0h-.81l-5-.06-10-.12-5-.06-2.49,0a2.71,2.71,0,0,1-1-.16,2.4,2.4,0,0,1-1.49-1.87,6.15,6.15,0,0,1,0-.81l.17-10,0-2.49,0-1.24V9.56c0-.1,0-.2,0-.31a2.37,2.37,0,0,1,2.19-1.86h.39l1.25,0,2.49,0,10,.23,5,.11,2.49.06,1.24,0h.63a2.75,2.75,0,0,1,.49,0,2,2,0,0,1,.54.19A1,1,0,0,1,87.17,10H86.7L67.23,9.78l-2.49,0-1.25,0h-.24l-.06,4.14-.15,10v.42h.19l2.5,0,5,.1,10,.19,5,.1h.78a.08.08,0,0,0,0-.06l0-2.37.1-5,0-2.49a4,4,0,0,1,.6-2.49.62.62,0,0,1,.84-.16A.58.58,0,0,1,88.28,12.32Z"/><path class="cls-2" d="M74.77,18.85a4.3,4.3,0,0,1-2.66-.94L61.84,9.74a1.07,1.07,0,1,1,1.33-1.67l10.27,8.16a2.09,2.09,0,0,0,2.61,0l10.66-8A1.07,1.07,0,0,1,88,10L77.33,18A4.25,4.25,0,0,1,74.77,18.85Z"/><path class="cls-2" d="M73,17.8a19.49,19.49,0,0,1-2.27,2.76c-.42.43-.84.84-1.29,1.25a2.15,2.15,0,0,1-1.78.79.49.49,0,0,1-.48-.44,2.16,2.16,0,0,1,.62-1.84c.36-.48.74-.95,1.12-1.4a19.51,19.51,0,0,1,2.53-2.53A1.06,1.06,0,0,1,73,17.8Z"/><path class="cls-2" d="M79.17,18.4c.64,0,.85.39,1.19.65s.62.58.9.89A7.48,7.48,0,0,1,82,21a2.44,2.44,0,0,1,.33,1.38.54.54,0,0,1-.56.51h0a2.55,2.55,0,0,1-1.31-.55,7.65,7.65,0,0,1-.91-.89,11.25,11.25,0,0,1-.74-1c-.2-.37-.54-.64-.45-1.27A.84.84,0,0,1,79.17,18.4Z"/><polygon class="cls-3" points="64.92 10.05 73.49 16.86 75.16 17.09 86.13 9.33 64.53 9.33 64.92 10.05"/><path class="cls-5" d="M142.13,158.12a39.43,39.43,0,0,1-10.28.7,14,14,0,0,1-4.59-.9,6.11,6.11,0,0,1-3.35-3.12,8.61,8.61,0,0,1-.47-3.57,52.28,52.28,0,0,1,2-13.1c.79-2.79,1.89-5.63,4.07-7.55,3.22-2.85,8.35-2.94,12-.73s5.11,7,5.66,11.23c.23,1.81,1,3,1,4.85l-.16,6.35a7.81,7.81,0,0,1-.85,4,5.17,5.17,0,0,1-3.2,2.08,15.72,15.72,0,0,1-3.88.26l.19-.61"/><path class="cls-2" d="M117.73,196.65c-1.23,2.56-1.44,5.47-1.59,8.31a273.19,273.19,0,0,0,1.15,43.28,6.65,6.65,0,0,0,.86,3.11,2.34,2.34,0,0,0,2.83,1,3.39,3.39,0,0,0,1.37-2.13A148.64,148.64,0,0,0,129,216.32a11.23,11.23,0,0,0,7.71,0q.27,16.2,1.33,32.39c.09,1.42.43,3.16,1.8,3.58a2.44,2.44,0,0,0,2.53-1.06,7,7,0,0,0,1-2.73,306.51,306.51,0,0,0,5.82-44.24,4.1,4.1,0,0,0-.26-2.12,2.82,2.82,0,0,0-2.36-1.36,10.72,10.72,0,0,0-2.81.31c-6,1.05-12.07-.29-18-1.62l-9.19-2.07"/><path class="cls-5" d="M88.16,160.21a7.37,7.37,0,0,0,2.93,3.21,30.07,30.07,0,0,0,24.76,4.17l-4.23,19.21c-.68,3.08-1.33,6.45.08,9.28,1.65,3.28,5.53,4.72,9.12,5.53a59.39,59.39,0,0,0,24.3.33c1.76-.35,3.62-.84,4.78-2.2,1.68-2,1.3-4.88.73-7.39s-1.22-5.31.12-7.51l3.52,10.92c.42,1.31,1.16,2.87,2.54,2.89a2.27,2.27,0,0,0,2-1.49,6.39,6.39,0,0,0,.32-2.61A124.77,124.77,0,0,0,155,165c-.79-3-2-6.39-4.93-7.54-3.35-1.34-6.95,1-10.52,1.51-6.41,1-12.44-3.92-18.92-3.68-3.12.12-6.06,1.43-9.06,2.31a33.87,33.87,0,0,1-11,1.31,35.56,35.56,0,0,1-5.54-.7c-1.76-.37-3.49-1.24-5.25-1.52S87.67,158.9,88.16,160.21Z"/><path class="cls-2" d="M150.06,201q-.65,11.09-1.84,22.12c-.84,7.35-1.75,14.69-3.3,22a42.85,42.85,0,0,1-1.53,5.46,14.78,14.78,0,0,1-.61,1.37,4.85,4.85,0,0,1-1,1.4,1.88,1.88,0,0,1-1.27.46,2.68,2.68,0,0,1-.65-.15,3.76,3.76,0,0,1-.52-.31,4,4,0,0,1-1-1.47,13.31,13.31,0,0,1-.84-2.85c-.2-.93-.34-1.87-.45-2.8-.23-1.86-.38-3.72-.48-5.57-.21-3.71-.28-7.42-.31-11.12a97.82,97.82,0,0,1,.51-11.08.3.3,0,0,1,.33-.26.29.29,0,0,1,.26.26c.41,3.7.5,7.38.57,11.07s.15,7.36.39,11c.12,1.83.28,3.65.51,5.45a20.77,20.77,0,0,0,1.19,5.11,2.61,2.61,0,0,0,.52.79s.05,0,.07,0,0,0,0,0-.1,0,0,0a2.94,2.94,0,0,0,.56-.83,9.57,9.57,0,0,0,.5-1.17A41.09,41.09,0,0,0,143,244.7c1.52-7.14,2.44-14.48,3.27-21.79s1.55-14.66,2-22a.85.85,0,0,1,.91-.81A.87.87,0,0,1,150.06,201Z"/><path class="cls-2" d="M138.33,216a12,12,0,0,1-4.65,1.68,8.67,8.67,0,0,1-2.56-.15,22.54,22.54,0,0,1-2.29-.6h0l1-.79c-.27,3.94-.85,7.77-1.45,11.62s-1.34,7.66-2.18,11.46A74,74,0,0,1,123,250.54a14.69,14.69,0,0,1-.67,1.39,4.68,4.68,0,0,1-1.1,1.41,1.89,1.89,0,0,1-.57.31,1.65,1.65,0,0,1-.7.08,2.3,2.3,0,0,1-1.07-.35,3.39,3.39,0,0,1-1.22-1.44,12,12,0,0,1-.94-3c-.2-1-.34-2-.46-2.94-.46-3.9-.62-7.79-.76-11.67s-.19-7.76-.24-11.64c-.08-7.75-.08-15.51-.06-23.26a.86.86,0,0,1,1.72,0h0c0,7.75,0,15.49.06,23.23,0,3.87.12,7.74.24,11.6s.3,7.73.75,11.52c.11.95.25,1.89.44,2.81a10.49,10.49,0,0,0,.78,2.54,1.87,1.87,0,0,0,.6.77.51.51,0,0,0,.3.09c.1,0,0,0,0,0l.07,0a3.14,3.14,0,0,0,.65-.89,11.47,11.47,0,0,0,.59-1.22,72.68,72.68,0,0,0,3.13-11c.83-3.76,1.54-7.56,2.15-11.37s1.18-7.65,1.44-11.44a.86.86,0,0,1,.92-.81l.12,0h0a22.87,22.87,0,0,1,2.3.43,10.39,10.39,0,0,0,2.09.29,16.06,16.06,0,0,0,4.34-.89h0a.5.5,0,0,1,.39.92Z"/><path class="cls-2" d="M123.33,155.16A68.28,68.28,0,0,0,115,157.4a53,53,0,0,1-8.64,2,28.19,28.19,0,0,1-9-.16,31.23,31.23,0,0,1-8.49-2.9l1.21-.5a8.58,8.58,0,0,1-.56,1.35c-.24.46-.56.85-.67,1.09a7,7,0,0,0-.43,2.24l-.3-.73a36.3,36.3,0,0,0,6.31,4.38,27.58,27.58,0,0,0,7.12,2.67,35.15,35.15,0,0,0,15.23-.39.87.87,0,0,1,1,.66.94.94,0,0,1-.06.55h0a57.61,57.61,0,0,0-3.83,11.58,84,84,0,0,0-1.83,12.13c-.08,1-.15,2-.19,3.06l0,.76a1.91,1.91,0,0,0,0,.53,2.13,2.13,0,0,0,.48.93,2.36,2.36,0,0,0,.92.61l1.43.57c1,.37,1.92.75,2.88,1.1a37.19,37.19,0,0,0,11.76,2.76c2,.09,4.06,0,6.12-.06s4.09-.23,6.13-.46,4.06-.51,6.07-.89l.75-.15.37-.07.24-.08a1.57,1.57,0,0,0,.79-.6,1.68,1.68,0,0,0,.31-1c0-.5,0-1,.05-1.52a103,103,0,0,0-.47-12.29c-.36-4.1-1.22-8.07-1.79-12.15h0a.42.42,0,0,1,.36-.47.42.42,0,0,1,.43.23c1.84,3.85,2.3,8.1,2.77,12.22A104.52,104.52,0,0,1,152,197c0,.53,0,1.05-.05,1.58a3.6,3.6,0,0,1-.63,1.93,3.51,3.51,0,0,1-1.64,1.26,4.74,4.74,0,0,1-.5.15l-.39.08-.77.15c-2.06.4-4.13.7-6.21.94s-4.16.39-6.25.48-4.17.16-6.29.07A39.1,39.1,0,0,1,117,200.78c-1-.35-1.95-.73-2.92-1.11l-1.45-.57a4.07,4.07,0,0,1-2.57-2.9,4.32,4.32,0,0,1-.09-1l0-.79c0-1,.11-2.09.2-3.13a82.37,82.37,0,0,1,2-12.39A59.19,59.19,0,0,1,116.2,167h0l1,1.21a36.69,36.69,0,0,1-16,.39,29.12,29.12,0,0,1-7.56-2.84A38.87,38.87,0,0,1,87,161.16h0a.87.87,0,0,1-.3-.73c0-.45.08-.9.16-1.37a5.19,5.19,0,0,1,.45-1.5c.27-.53.53-.82.69-1.14a7.47,7.47,0,0,0,.44-1.07h0a.85.85,0,0,1,1.09-.54l.11,0a29.53,29.53,0,0,0,8,2.75,26.84,26.84,0,0,0,8.44.15,53,53,0,0,0,8.37-2,70.71,70.71,0,0,1,8.56-2.29.86.86,0,0,1,.29,1.7h0Z"/><path class="cls-2" d="M156.84,199.26a7,7,0,0,1-2.07-.3.87.87,0,0,1-.56-.59l-.3-1.08c-1.27-4.6-2.59-9.35-4.23-13.68a.87.87,0,1,1,1.62-.61c1.66,4.4,3,9.19,4.27,13.83l.17.59a4.93,4.93,0,0,0,3.06-.31c-1.51-26.5-5.3-39.43-11.59-39.52a.86.86,0,0,1,0-1.72c7.62.11,11.72,13,13.31,41.67a.87.87,0,0,1-.39.77A6,6,0,0,1,156.84,199.26Z"/><path class="cls-2" d="M147.31,157.28h-.09a.86.86,0,0,1-.77-.94c.76-8,.27-21.35-4.2-25.42a9,9,0,0,0-7.59-2c-9.14,2.27-10.57,16.88-10.61,25.38a.87.87,0,0,1-.86.86h0a.87.87,0,0,1-.86-.87c0-9,1.64-24.49,11.91-27a10.75,10.75,0,0,1,9.17,2.38c5.33,4.85,5.44,19.68,4.75,26.85A.86.86,0,0,1,147.31,157.28Z"/><path class="cls-2" d="M160.51,208.4a.86.86,0,0,1-.86-.81c-.06-.94-.42-2-2.6-2.3a.86.86,0,0,1-.73-.83l-.14-5.9a.85.85,0,0,1,.84-.88.89.89,0,0,1,.88.84l.12,5.21a3.93,3.93,0,0,1,3.35,3.75.87.87,0,0,1-.8.92Z"/><path class="cls-2" d="M88.13,158.73a.88.88,0,0,1-.69-.34,10.84,10.84,0,0,0-.88-1,8.46,8.46,0,0,1-2-3.06,3.91,3.91,0,0,1-4.76-4.63.89.89,0,0,1,.89-.83.86.86,0,0,1,.83.89,3.05,3.05,0,0,0,.64,2.41,3.63,3.63,0,0,0,2.85.38.88.88,0,0,1,1,.57,6.78,6.78,0,0,0,1.87,3.08,11.23,11.23,0,0,1,1,1.14.85.85,0,0,1-.16,1.2A.86.86,0,0,1,88.13,158.73Z"/><path class="cls-2" d="M125.84,155.77c1.89.14,3.36.89,5,1.29a25,25,0,0,0,5,.76,21.61,21.61,0,0,0,5-.33,13.9,13.9,0,0,0,4.6-1.65l0,0a.85.85,0,0,1,1.18.29.87.87,0,0,1-.21,1.13,13.53,13.53,0,0,1-5.19,2.28,20.25,20.25,0,0,1-5.54.43,22.81,22.81,0,0,1-5.44-.95c-1.74-.55-3.57-1.13-4.8-2.68a.35.35,0,0,1,.06-.48.36.36,0,0,1,.24-.07Z"/><path class="cls-2" d="M122.75,205.72c.62.11,1.23.2,1.85.26s1.21.11,1.81.1a16.24,16.24,0,0,0,1.74-.11,6.62,6.62,0,0,0,1.53-.35l.08,0a.86.86,0,0,1,.75,1.53,5,5,0,0,1-2.15.7,8.09,8.09,0,0,1-2.09-.07,10.94,10.94,0,0,1-2-.5,8,8,0,0,1-1.81-.9.35.35,0,0,1-.1-.49.35.35,0,0,1,.35-.15Z"/><path class="cls-2" d="M139.94,206a18.64,18.64,0,0,1,2.93.16,13.05,13.05,0,0,0,2.85-.11.31.31,0,0,1,.2.57,6.3,6.3,0,0,1-3.07.83,8.06,8.06,0,0,1-3.06-.44.51.51,0,0,1-.31-.66.5.5,0,0,1,.46-.35Z"/><g class="cls-13"><path class="cls-2" d="M95.22,148.19h0a.91.91,0,0,1-.91-.92v-4.38a.87.87,0,0,1,.27-.64.91.91,0,0,1,.64-.27h3.14a.92.92,0,0,1,.91.91v2h3.47a.91.91,0,1,1,0,1.82H98.36a.92.92,0,0,1-.91-.92v-2H96.14v3.47A.93.93,0,0,1,95.22,148.19Z"/><path class="cls-2" d="M106.5,159.31H99.87a.91.91,0,1,1,0-1.82h6.63a.35.35,0,0,0,.35-.35v-.53a.91.91,0,0,1,.91-.91h0a.91.91,0,0,1,.91.92v.53A2.17,2.17,0,0,1,106.5,159.31Zm-9.68,0h-.36a2.17,2.17,0,0,1-2.16-2.17v-6.81a.91.91,0,0,1,.91-.91h0a.91.91,0,0,1,.91.91v6.81a.34.34,0,0,0,.34.34h.37a.92.92,0,0,1,0,1.83Zm10.94-4.82h0a.91.91,0,0,1-.91-.91v-6.45a.34.34,0,0,0-.34-.34h-.72a.92.92,0,0,1,0-1.83h.72a2.17,2.17,0,0,1,2.17,2.17v6.45A.92.92,0,0,1,107.76,154.48Z"/><path class="cls-2" d="M103.66,156.17H99.34a1.91,1.91,0,0,1-1.9-1.91v-2.91a.91.91,0,0,1,.91-.91h0a.91.91,0,0,1,.91.91v2.91a.08.08,0,0,0,.08.08h4.29a.92.92,0,0,1,.93.91A.9.9,0,0,1,103.66,156.17Zm1-2.37h0a.9.9,0,0,1-.91-.92V150a.08.08,0,0,0-.08-.08h-4.3a.91.91,0,0,1-.06-1.82h4.36a1.91,1.91,0,0,1,1.9,1.91v2.9A.91.91,0,0,1,104.63,153.8Z"/></g></g></g></svg>