<svg xmlns="http://www.w3.org/2000/svg" viewBox="0 0 249.75 253.01"><defs><style>.cls-1,.cls-7{opacity:0.1;}.cls-2,.cls-7{fill:#233348;}.cls-15,.cls-3{fill:#fdc800;}.cls-10,.cls-13,.cls-14,.cls-18,.cls-19,.cls-20,.cls-24,.cls-25,.cls-26,.cls-28,.cls-30,.cls-31,.cls-4,.cls-5,.cls-9{fill:none;}.cls-13,.cls-14,.cls-15,.cls-19,.cls-21,.cls-24,.cls-25,.cls-27,.cls-28,.cls-30,.cls-31,.cls-5,.cls-6,.cls-9{stroke:#233348;}.cls-10,.cls-13,.cls-15,.cls-18,.cls-19,.cls-20,.cls-21,.cls-22,.cls-24,.cls-25,.cls-26,.cls-27,.cls-28,.cls-30,.cls-31,.cls-5,.cls-6,.cls-9{stroke-linecap:round;stroke-linejoin:round;}.cls-30,.cls-31,.cls-5,.cls-6{stroke-width:1.81px;}.cls-16,.cls-21,.cls-27,.cls-6{fill:#fff;}.cls-22,.cls-8{fill:#e5eefd;}.cls-10,.cls-9{stroke-width:1.73px;stroke-dasharray:6.93;opacity:0.3;}.cls-10{stroke:#7282c4;}.cls-11{opacity:0.3;}.cls-12{fill:#93b9f4;}.cls-13{stroke-width:2.12px;}.cls-14{stroke-miterlimit:10;stroke-width:0.24px;}.cls-15{stroke-width:1.05px;}.cls-17{fill:#a3acd6;}.cls-18{stroke:#ffe920;stroke-width:2.88px;}.cls-19,.cls-20,.cls-21{stroke-width:2.07px;}.cls-20,.cls-26{stroke:#717791;}.cls-22{stroke:#fdc800;stroke-width:1.53px;}.cls-23{opacity:0.2;}.cls-24,.cls-26,.cls-27{stroke-width:2.2px;}.cls-25{stroke-width:2.19px;}.cls-28{stroke-width:1.71px;}.cls-29{opacity:0.3;}.cls-30{stroke-dasharray:9.06 3.02;}.cls-31{stroke-dasharray:8.68 2.89;}</style></defs><title>Asset 18</title><g id="Layer_2" data-name="Layer 2"><g id="Layer_1-2" data-name="Layer 1"><path class="cls-1" d="M35.62,70.06a14.33,14.33,0,0,1-8.49,14.22l-8.29-4.39,7.8-14.6Z"/><rect class="cls-2" x="16.5" y="66.37" width="12.44" height="12.42" rx="1.24" ry="1.24" transform="translate(-20.21 9.8) rotate(-16.99)"/><rect class="cls-2" x="15.24" y="65.02" width="3.11" height="8.28" transform="translate(-19.47 7.92) rotate(-16.99)"/><rect class="cls-3" x="19.61" y="69.47" width="6.22" height="6.21" rx="0.98" ry="0.98" transform="translate(-20.21 9.8) rotate(-16.99)"/><ellipse class="cls-4" cx="22.19" cy="71" rx="16.11" ry="16.42" transform="translate(-47.19 44.16) rotate(-51.49)"/><path class="cls-5" d="M32.09,62.08c.18.19.36.4.53.6a13.55,13.55,0,1,1-24,8.46"/><path class="cls-6" d="M29.13,59.66c.25.15.5.32.75.49"/><path class="cls-5" d="M9.74,65.75A13.57,13.57,0,0,1,26.5,58.44"/><path class="cls-5" d="M29.73,86.82A17.38,17.38,0,0,1,7.23,80"/><path class="cls-6" d="M36.37,81.2a17.26,17.26,0,0,1-4.31,4.26"/><path class="cls-5" d="M32.31,57.12a17.38,17.38,0,0,1,7.2,13"/><path class="cls-6" d="M28.26,55l.86.35"/><path class="cls-5" d="M5.11,74.35A17.12,17.12,0,0,1,6.34,64.12a17.36,17.36,0,0,1,19.9-9.77"/><path class="cls-6" d="M6.2,78l-.3-.76"/><path class="cls-7" d="M132.7,184.55l74.19-74.08a11.85,11.85,0,0,1,16.75,0h0a11.82,11.82,0,0,1,0,16.72l-74.19,74.08a11.85,11.85,0,0,1-16.75,0h0A11.82,11.82,0,0,1,132.7,184.55Z"/><path class="cls-7" d="M8.06,124.76,19.53,113.3a11.85,11.85,0,0,1,16.75,0h0a11.81,11.81,0,0,1,0,16.73L24.81,141.48a11.85,11.85,0,0,1-16.75,0h0A11.8,11.8,0,0,1,8.06,124.76Z"/><path class="cls-8" d="M138,146.5l33.91-33.86a11.83,11.83,0,0,0,16.75,16.72l-33.91,33.86a11.83,11.83,0,0,0,0-16.72A11.85,11.85,0,0,0,138,146.5Z"/><path class="cls-8" d="M123.48,94.92,155.25,63.2A11.83,11.83,0,0,0,172,79.92l-31.77,31.72a11.83,11.83,0,0,0-16.75-16.72Z"/><path class="cls-7" d="M112.23,138.93l92.68-92.56a11.85,11.85,0,0,1,16.75,0h0a11.81,11.81,0,0,1,0,16.73L129,155.65a11.85,11.85,0,0,1-16.75,0h0A11.8,11.8,0,0,1,112.23,138.93Z"/><path class="cls-7" d="M21.16,164,147.32,38a11.85,11.85,0,0,1,16.75,0h0a11.81,11.81,0,0,1,0,16.73l-126.16,126a11.87,11.87,0,0,1-16.75,0h0A11.83,11.83,0,0,1,21.16,164Z"/><path class="cls-7" d="M43.46,81.07,90.28,34.32a11.85,11.85,0,0,1,16.75,0h0a11.81,11.81,0,0,1,0,16.73L60.21,97.8a11.85,11.85,0,0,1-16.75,0h0A11.83,11.83,0,0,1,43.46,81.07Z"/><path class="cls-7" d="M120.9,3.74l.28-.28a11.87,11.87,0,0,1,16.75,0h0a11.81,11.81,0,0,1,0,16.73l-.28.28a11.85,11.85,0,0,1-16.75,0h0A11.83,11.83,0,0,1,120.9,3.74Z"/><path class="cls-7" d="M85,165.33l.28-.28a11.85,11.85,0,0,1,16.75,0h0a11.81,11.81,0,0,1,0,16.73l-.28.27a11.85,11.85,0,0,1-16.75,0h0A11.82,11.82,0,0,1,85,165.33Z"/><polyline class="cls-9" points="217.16 78.57 122.1 87.78 42.79 75.88"/><polyline class="cls-9" points="179.5 36.16 122.1 86.91 76.74 29.59"/><line class="cls-10" x1="120.39" y1="127.43" x2="121.98" y2="191.96"/><g class="cls-11"><line class="cls-8" x1="236.58" y1="231.34" x2="241.44" y2="231.34"/><path class="cls-2" d="M236.58,230.74a6.38,6.38,0,0,1,2.43-.33,13.33,13.33,0,0,1,2.43.23.71.71,0,0,1,.56.84.7.7,0,0,1-.56.56,13.34,13.34,0,0,1-2.43.24,6.38,6.38,0,0,1-2.43-.33.65.65,0,0,1-.38-.84A.63.63,0,0,1,236.58,230.74Z"/><line class="cls-8" x1="149.62" y1="231.34" x2="233.01" y2="231.34"/><path class="cls-2" d="M149.62,230.81c3.47-.25,6.95-.28,10.42-.29l10.43,0,20.84-.08h31.27c3.48,0,6.95,0,10.43.23a.7.7,0,0,1,0,1.4c-3.48.21-6.95.23-10.43.24H191.31l-20.84-.08-10.43,0c-3.47,0-6.95,0-10.42-.28a.54.54,0,0,1,0-1.07Z"/><line class="cls-8" x1="128.96" y1="231.34" x2="140.41" y2="231.34"/><path class="cls-2" d="M129,230.81a2.92,2.92,0,0,1,1.43-.29l1.43-.05,2.86-.07H139a3.61,3.61,0,0,1,1.43.23.78.78,0,0,1,.4,1,.75.75,0,0,1-.4.4,3.45,3.45,0,0,1-1.43.24h-4.3l-2.86-.07-1.43-.05a2.91,2.91,0,0,1-1.43-.28.61.61,0,0,1-.25-.83A.64.64,0,0,1,129,230.81Z"/><line class="cls-8" x1="14.63" y1="231.34" x2="107.34" y2="231.34"/><path class="cls-2" d="M14.63,230.81c3.86-.25,7.72-.28,11.59-.29l11.58,0L61,230.4H95.75c3.86,0,7.73,0,11.59.23a.71.71,0,0,1,.66.74.7.7,0,0,1-.66.66c-3.86.21-7.73.23-11.59.24H61L37.8,232.2l-11.58,0c-3.87,0-7.73,0-11.59-.28a.55.55,0,0,1-.51-.57A.54.54,0,0,1,14.63,230.81Z"/><line class="cls-8" x1="9.25" y1="231.34" x2="9.96" y2="231.34"/><path class="cls-2" d="M9.25,230.41a1.45,1.45,0,0,1,.36,0,.61.61,0,0,1,.18.05.44.44,0,0,1,.17.08,1,1,0,0,1,.22,1.39,1.15,1.15,0,0,1-.22.22.65.65,0,0,1-.17.08.61.61,0,0,1-.18.05,1.45,1.45,0,0,1-.36,0,1,1,0,0,1-.71-1.16A1,1,0,0,1,9.25,230.41Z"/><line class="cls-8" x1="0.51" y1="231.34" x2="4.05" y2="231.34"/><path class="cls-2" d="M.51,230.67a8.3,8.3,0,0,1,1.77-.25,5.09,5.09,0,0,1,1.77.18.78.78,0,0,1,0,1.48,4.65,4.65,0,0,1-1.77.18A8.3,8.3,0,0,1,.51,232a.68.68,0,0,1-.48-.85A.7.7,0,0,1,.51,230.67Z"/><line class="cls-8" x1="97.8" y1="252.07" x2="165.96" y2="252.07"/><path class="cls-2" d="M97.8,251.54c2.84-.25,5.68-.28,8.52-.29l8.52,0,17-.08h25.56c2.84,0,5.68,0,8.52.23a.7.7,0,0,1,.65.75.72.72,0,0,1-.65.65c-2.84.21-5.68.22-8.52.24H131.88l-17-.08-8.52,0c-2.84,0-5.68,0-8.52-.28a.55.55,0,0,1-.49-.59A.53.53,0,0,1,97.8,251.54Z"/><line class="cls-8" x1="69.76" y1="252.07" x2="87.22" y2="252.07"/><path class="cls-2" d="M69.76,251.4c2.91-.16,5.82-.22,8.73-.25s5.82,0,8.73.18a.74.74,0,0,1,.69.79.73.73,0,0,1-.69.69c-2.91.2-5.82.21-8.73.18s-5.82-.09-8.73-.25a.67.67,0,0,1-.63-.71A.66.66,0,0,1,69.76,251.4Z"/></g><path class="cls-12" d="M165.12,134c-.05.61-.08,1.21-.1,1.82"/><path class="cls-13" d="M188.16,9.07,188,9a.3.3,0,0,0,.16,0c-3.72-2.14-9-.52-11.83,2.83A13.26,13.26,0,0,0,174,25c1.7,4.31,5.73,7,10.06,7.93a12.31,12.31,0,0,0,9.2-1.8c2.83-2,4.29-5.65,4.32-9.24a41.26,41.26,0,0,0-11.31-1.13Z"/><path class="cls-3" d="M200.5,18.43l-10.25-1.65,1.24-10,.19,0A10.54,10.54,0,0,1,200.5,18.43Z"/><path class="cls-3" d="M224.22,85.1s-2.57,0-2.75,0a.23.23,0,0,1-.12,0,.09.09,0,0,1,0-.09c-.21-3,.17-6,.15-9,0-1.16-.14-2.33-.21-3.48v0h2.9C223.74,72.5,224.12,84.05,224.22,85.1Z"/><path class="cls-14" d="M224.22,85.1s-2.57,0-2.75,0a.23.23,0,0,1-.12,0,.09.09,0,0,1,0-.09c-.21-3,.17-6,.15-9,0-1.16-.14-2.33-.21-3.48v0h2.9C223.74,72.5,224.12,84.05,224.22,85.1Z"/><path class="cls-3" d="M229.44,85.08s-2.57,0-2.75,0a.23.23,0,0,1-.12,0s0,0,0,0a53.18,53.18,0,0,1,.17-5.5c0-.71-.14-1.43-.21-2.14v0h2.9C229,77.34,229.34,84.43,229.44,85.08Z"/><path class="cls-14" d="M229.44,85.08s-2.57,0-2.75,0a.23.23,0,0,1-.12,0s0,0,0,0a53.18,53.18,0,0,1,.17-5.5c0-.71-.14-1.43-.21-2.14v0h2.9C229,77.34,229.34,84.43,229.44,85.08Z"/><path class="cls-3" d="M234.37,85.06s-2.57,0-2.74,0a.25.25,0,0,1-.13,0,.08.08,0,0,1,0-.07c-.2-2.34.18-4.69.16-7,0-.91-.13-1.82-.2-2.73v0l2.89,0C233.91,75.17,234.28,84.23,234.37,85.06Z"/><path class="cls-14" d="M234.37,85.06s-2.57,0-2.74,0a.25.25,0,0,1-.13,0,.08.08,0,0,1,0-.07c-.2-2.34.18-4.69.16-7,0-.91-.13-1.82-.2-2.73v0l2.89,0C233.91,75.17,234.28,84.23,234.37,85.06Z"/><path class="cls-3" d="M239.38,85s-2.57,0-2.75,0a.23.23,0,0,1-.12,0,.07.07,0,0,1,0-.08c-.21-2.69.17-5.38.15-8.07,0-1-.13-2.1-.2-3.14v0c1,0,1.94,0,2.9,0C238.91,73.69,239.28,84.09,239.38,85Z"/><path class="cls-14" d="M239.38,85s-2.57,0-2.75,0a.23.23,0,0,1-.12,0,.07.07,0,0,1,0-.08c-.21-2.69.17-5.38.15-8.07,0-1-.13-2.1-.2-3.14v0c1,0,1.94,0,2.9,0C238.91,73.69,239.28,84.09,239.38,85Z"/><path class="cls-3" d="M244.6,85s-2.57,0-2.75,0a.23.23,0,0,1-.12,0,.05.05,0,0,1,0-.06c-.21-2.18.17-4.36.16-6.54,0-.85-.13-1.69-.2-2.54v0l2.9,0C244.14,75.83,244.5,84.25,244.6,85Z"/><path class="cls-14" d="M244.6,85s-2.57,0-2.75,0a.23.23,0,0,1-.12,0,.05.05,0,0,1,0-.06c-.21-2.18.17-4.36.16-6.54,0-.85-.13-1.69-.2-2.54v0l2.9,0C244.14,75.83,244.5,84.25,244.6,85Z"/><path class="cls-3" d="M249.6,85s-2.56,0-2.74,0h-.13s0,0,0,0a31.36,31.36,0,0,1,.18-4.22c0-.54-.13-1.09-.2-1.64v0h2.9C249.16,79.07,249.51,84.5,249.6,85Z"/><path class="cls-14" d="M249.6,85s-2.56,0-2.74,0h-.13s0,0,0,0a31.36,31.36,0,0,1,.18-4.22c0-.54-.13-1.09-.2-1.64v0h2.9C249.16,79.07,249.51,84.5,249.6,85Z"/><path class="cls-15" d="M223.88,85.11l-2.74,0a.22.22,0,0,1-.13,0s0-.07,0-.11c-.22-4,.15-7.93.13-11.9,0-1.54-.14-3.08-.21-4.62v0l2.9,0C223.39,68.39,223.79,83.72,223.88,85.11Z"/><path class="cls-15" d="M229.1,85.09l-2.74,0-.13,0a.07.07,0,0,1,0-.07c-.21-2.44.17-4.87.16-7.31,0-.94-.14-1.89-.21-2.83v0h2.9C228.64,74.83,229,84.24,229.1,85.09Z"/><path class="cls-15" d="M234,85.07l-2.74,0a.25.25,0,0,1-.13,0,.11.11,0,0,1,0-.09c-.21-3.11.17-6.23.15-9.34,0-1.21-.14-2.42-.21-3.63v0l2.9,0C233.56,71.94,233.94,84,234,85.07Z"/><path class="cls-15" d="M239,85.05l-2.74,0a.31.31,0,0,1-.13,0,.14.14,0,0,1,0-.11c-.21-3.57.16-7.14.14-10.71,0-1.39-.14-2.78-.22-4.16V70H239C238.56,70,239,83.8,239,85.05Z"/><path class="cls-15" d="M244.26,85l-2.74,0a.31.31,0,0,1-.13,0,.08.08,0,0,1,0-.08c-.21-2.89.16-5.78.15-8.68,0-1.12-.14-2.25-.21-3.37v0l2.9,0C243.79,72.84,244.17,84,244.26,85Z"/><path class="cls-15" d="M249.16,84.92s-2.56,0-2.74,0a.3.3,0,0,1-.13,0s0,0,0,0a49.89,49.89,0,0,1,.17-5.6c0-.72-.14-1.45-.21-2.17v0h2.9C248.71,77.05,249.07,84.26,249.16,84.92Z"/><path class="cls-16" d="M170.85,75.49l-.24,95.57a4.65,4.65,0,0,1-4.67,4.62l-84.54-.34a4.65,4.65,0,0,1-4.63-4.66l.41-112.61a4.65,4.65,0,0,1,4.67-4.63l67.59.27"/><line class="cls-13" x1="149.44" y1="53.71" x2="170.86" y2="75.14"/><path class="cls-2" d="M136.33,54.16c-10.92.4-21.84.4-32.76.43l-16.38-.06H82.07a5.19,5.19,0,0,0-.84,0,3.58,3.58,0,0,0-3,3.23c0,.23,0,.61,0,.94v3.07L78,127.33l-.15,32.76,0,8.19v2.05a5.48,5.48,0,0,0,0,.86,3.11,3.11,0,0,0,.2.74,3.22,3.22,0,0,0,2.26,1.89,3.81,3.81,0,0,0,.79.07H96.49l32.76,0c5.46,0,10.92,0,16.38,0l8.19.05c2.73,0,5.46.08,8.19.36a.6.6,0,0,1,.53.65.59.59,0,0,1-.53.53c-2.73.28-5.46.34-8.19.36l-8.19,0c-5.46.05-10.92,0-16.38,0l-32.76,0H81.13a6.07,6.07,0,0,1-1.24-.11,5.32,5.32,0,0,1-3.78-3.16,4.9,4.9,0,0,1-.34-1.23,7.38,7.38,0,0,1-.06-1.19v-2l0-8.19.08-32.76.26-65.53V58.73c0-.34,0-.65,0-1.1a5.71,5.71,0,0,1,2.44-4.23,5.53,5.53,0,0,1,2.31-.95,6.47,6.47,0,0,1,1.2-.08h1l4.09,0,16.38.07c10.92.11,21.84.2,32.76.69a.51.51,0,0,1,0,1Z"/><path class="cls-2" d="M171.92,75.5l-.13,47.78-.06,23.89,0,11.94c0,2,0,4,0,6,0,1-.05,2-.08,3a11.37,11.37,0,0,1-.39,3,.64.64,0,0,1-.78.43.67.67,0,0,1-.43-.44,11.27,11.27,0,0,1-.37-3c0-1-.06-2-.06-3,0-2,0-4,0-6l0-12,.06-23.89.12-47.78a1.07,1.07,0,0,1,2.13,0Z"/><path class="cls-2" d="M150.49,53.71l-.08,21.34L149.35,74c2.12,0,4.25.13,6.37.2,1.06,0,2.12.07,3.19.13s2.12.15,3.18.18a.61.61,0,0,1,.59.62.6.6,0,0,1-.59.58c-1.07,0-2.13.11-3.19.15s-2.12.08-3.19.11c-2.12.06-4.25.12-6.37.15a1,1,0,0,1-1.06-1h0v0l.11-21.34a1.05,1.05,0,1,1,2.1,0Z"/><line class="cls-8" x1="121.76" y1="156.13" x2="145.07" y2="156.22"/><path class="cls-17" d="M121.76,155.62c3.89-.33,7.77-.5,11.66-.58a62.27,62.27,0,0,1,11.65.48.71.71,0,0,1,0,1.4,61.5,61.5,0,0,1-11.66.38c-3.89-.1-7.77-.3-11.65-.66a.51.51,0,0,1,0-1Z"/><path class="cls-18" d="M87.75,87.66l9.5,11.14,8.41-4s7.55,2.87,7.18,2.87,9.26-9.87,9.26-9.87l5.12,2.29,7.06-1.83,7.8,11.94,11.08-11.49"/><path class="cls-3" d="M86.69,97.17l9-14a1.42,1.42,0,0,1,2-.42,1.5,1.5,0,0,1,.43.44l0,.06,5,8L101,91l8.1-6.5a1.44,1.44,0,0,1,1.87.06l13.19,12-1.62-.21,9.15-4.67a1.44,1.44,0,0,1,1.09-.09l9.15,3-1.65.59,5.4-8.34,0-.06a1.39,1.39,0,0,1,1.91-.41,1.2,1.2,0,0,1,.21.17l11.05,10.6a.68.68,0,0,1,0,1,.69.69,0,0,1-.92.07l-12-9.47,2.15-.3-5.39,8.34a1.44,1.44,0,0,1-1.66.58l-9.14-3,1.09-.09-9.14,4.66a1.45,1.45,0,0,1-1.63-.21L109,86.66l1.87.06-8.1,6.5a1.43,1.43,0,0,1-2-.22l-.11-.15-4.95-8.06,2.41.08L87.94,98.05a.77.77,0,0,1-1.25-.88Z"/><g class="cls-11"><path class="cls-2" d="M88.84,123.38c5.8-.36,11.6-.4,17.4-.36l17.4.17c5.8,0,11.6.16,17.4.24s11.6.26,17.4.38a.61.61,0,0,1,.6.63.63.63,0,0,1-.61.61c-5.8.07-11.6.2-17.4.23s-11.6.12-17.4.11l-17.4,0c-5.8,0-11.6-.09-17.4-.5a.76.76,0,0,1-.71-.82A.78.78,0,0,1,88.84,123.38Z"/><line class="cls-8" x1="136.36" y1="134.96" x2="158.39" y2="135.04"/><path class="cls-2" d="M136.36,134.32a54.27,54.27,0,0,1,11-.48c3.67.09,7.34.27,11,.63a.59.59,0,0,1,.52.63.57.57,0,0,1-.52.51c-3.68.34-7.35.49-11,.54a53.61,53.61,0,0,1-11-.56.65.65,0,0,1,0-1.27Z"/><line class="cls-8" x1="121.84" y1="134.9" x2="131.12" y2="134.93"/><path class="cls-2" d="M121.85,134.18a12.18,12.18,0,0,1,4.63-.44,31.73,31.73,0,0,1,4.64.47.73.73,0,0,1,.58.86.75.75,0,0,1-.59.59,31.52,31.52,0,0,1-4.64.43,12.41,12.41,0,0,1-4.63-.47.77.77,0,0,1-.45-1A.73.73,0,0,1,121.85,134.18Z"/><line class="cls-8" x1="154.08" y1="145.64" x2="158.35" y2="145.66"/><path class="cls-2" d="M154.09,145.15a5.16,5.16,0,0,1,2.13-.66,3.84,3.84,0,0,1,1.07,0,2.36,2.36,0,0,1,1.06.42.94.94,0,0,1,.2,1.3,1.34,1.34,0,0,1-.21.2,2.34,2.34,0,0,1-1.06.41,3.84,3.84,0,0,1-1.07,0,5.2,5.2,0,0,1-2.13-.68.57.57,0,0,1-.19-.78A.64.64,0,0,1,154.09,145.15Z"/><line class="cls-8" x1="121.8" y1="145.51" x2="148.02" y2="145.62"/><path class="cls-2" d="M121.8,145c2.19-.13,4.37-.22,6.56-.29s4.37-.14,6.56-.17l6.55-.09a32.13,32.13,0,0,1,6.56.39.83.83,0,0,1,0,1.63,32.09,32.09,0,0,1-6.56.34l-6.55-.14c-2.19,0-4.37-.15-6.56-.23s-4.37-.19-6.55-.33a.56.56,0,0,1-.52-.59A.55.55,0,0,1,121.8,145Z"/><line class="cls-8" x1="88.88" y1="113.14" x2="138.82" y2="113.34"/><path class="cls-2" d="M88.88,112.59q6.24-.18,12.49-.27l12.48-.14,12.49-.07a115.65,115.65,0,0,1,12.48.42.81.81,0,0,1,0,1.62,115.57,115.57,0,0,1-12.48.32l-12.49-.16-12.48-.25q-6.24-.15-12.49-.37a.55.55,0,0,1,0-1.1Z"/><path class="cls-2" d="M130.77,68.86c-3.59.1-7.19.18-10.78.23l-10.79.13-10.79.06a97.27,97.27,0,0,1-10.79-.37.72.72,0,0,1,0-1.43,97.19,97.19,0,0,1,10.79-.28l10.79.14,10.78.22c3.6.08,7.19.19,10.79.32a.49.49,0,0,1,0,1Z"/><line class="cls-8" x1="147.14" y1="113.38" x2="156.98" y2="113.42"/><path class="cls-2" d="M147.14,112.82c1.64-.25,3.28-.4,4.92-.49.82,0,1.64-.09,2.46-.11a4.83,4.83,0,0,1,2.46.38.91.91,0,0,1,0,1.63,4.81,4.81,0,0,1-2.46.36c-.82,0-1.64-.07-2.46-.13-1.64-.1-3.28-.27-4.91-.53a.56.56,0,0,1-.47-.64A.57.57,0,0,1,147.14,112.82Z"/><path class="cls-2" d="M89,156.33a3.11,3.11,0,0,1,.84-.34,1,1,0,0,1,.23,0l.39,0,.78.06,3.12.2c2.08.12,4.15.2,6.22.21a107.55,107.55,0,0,0,12.42-.66L111.94,157V135.11l1.34,1.19c-2.23,0-4.3-.1-6.41-.15s-4.2-.1-6.29-.12c-4.19,0-8.38,0-12.55.28h0l1.2-1.27c.21,3.65.44,7.32.55,11,0,1.84.08,3.69,0,5.56,0,.93-.08,1.87-.16,2.82-.05.48-.1.95-.18,1.43l0,.36,0,.16h0A.55.55,0,0,0,89,156.33Zm-2,1.4a4.78,4.78,0,0,1-.08-1.38l.13-.85c.07-.42.11-.86.15-1.29.09-.88.13-1.77.16-2.67,0-1.79,0-3.61,0-5.42-.11-3.64-.33-7.28-.55-10.94v-.09a1.11,1.11,0,0,1,1-1.18H88c2.1.15,4.2.26,6.29.35s4.19.19,6.28.23,4.18.08,6.27,0a34.89,34.89,0,0,0,6.12-.59,1.11,1.11,0,0,1,1.32.85,1,1,0,0,1,0,.23v22a1.22,1.22,0,0,1-1.08,1.2,111.6,111.6,0,0,1-12.68.67c-2.12,0-4.24-.09-6.35-.21l-3.15-.21-.79-.06-.4,0-.55,0A10.52,10.52,0,0,1,87.05,157.73Z"/></g><path class="cls-3" d="M23.31,117.22c-1.69.65-2.38,2.62-2.87,4.36l-1.75,6.21a8.61,8.61,0,0,0,10.73-4.47,7.18,7.18,0,0,0,5.22,6.06l.41-3.42c.44-.44,1.19-.2,1.7.16s1,.82,1.65.74a1.53,1.53,0,0,0,1.12-1.07c.2-.51.26-1.06.47-1.56.59-1.47,2.25-2.21,3.81-2.51a18.9,18.9,0,0,0,4.64-1,9.05,9.05,0,0,1,2.61-5c.54-.53,1.32-1,2-.7a2.09,2.09,0,0,1,.93,1.47,52.37,52.37,0,0,1,1.84,13.75c2.5-3.71,2.66-8.53,1.94-12.94a14,14,0,0,0-1.55-4.91,10.94,10.94,0,0,0-6.31-4.69,21.21,21.21,0,0,0-8-.63c-3.75.31-7.77,1.34-10.08,4.31-.85,1.11-1.44,2.45-2.54,3.31a8.19,8.19,0,0,1-1.81,1l-5.37,2.42"/><path class="cls-2" d="M58.12,195.26c-1.84,2.15-5,2.48-7.79,2.67l-8.63.58c-2.07.13-4.24.26-6.13-.59-3.09-1.4-4.55-5-4.86-8.39-.53-5.92,1.61-11.72,3.28-17.43s2.89-12,.64-17.51c-.23,1.7-2.66,2.35-4.06,1.36a4.92,4.92,0,0,1-1.62-4.6,9.05,9.05,0,0,1,5-7c2.58-1.22,5.1-2.69,6.54-5.27,1.27-2.24,1.14-5.48-1-7-1.31-.93-3.28-1.15-3.95-2.62-.44-1-.74-2.54.33-2.49,1.68.09,2.44-1.37,2.86-2.37,1.45-3.45,6.47-4.08,10-5.91,2-1,2.53-3.17,4.08-4.65a12,12,0,0,1,1.09,15.58c-1.74,2.22-4.38,4-5,6.71a6.86,6.86,0,0,0,2,5.88,15.58,15.58,0,0,0,4.25,3,5.16,5.16,0,0,0,.48,2.6c.44.91,1.18,1.65,1.59,2.57a4.2,4.2,0,0,1,.27.85,1.62,1.62,0,0,1,.43-.29c-.09.46-.17.92-.26,1.38,0,.3,0,.6,0,.9s0,.58,0,.88a1.39,1.39,0,0,1-.35-.41,58,58,0,0,0-1.26,12.37c.22,7.42,2.83,14.59,3.47,22C59.85,190.61,59.75,193.37,58.12,195.26Z"/><path class="cls-16" d="M36.43,124a3.35,3.35,0,0,0-.86,4.76c.86,1.08,2.31,1.49,3.35,2.4a5.61,5.61,0,0,1,1.75,4.39,10.32,10.32,0,0,1-1.46,4.62c-.79,1.41-1.8,2.85-1.65,4.45a6.11,6.11,0,0,0,1.26,2.81q1.57,2.33,3.38,4.48c1.32,1.59,2.85,3.18,4.87,3.63a5.9,5.9,0,0,0,6.08-2.73,7.67,7.67,0,0,0,.43-6.83c-.82-2-2.35-3.71-3.39-5.64s-1.54-4.46-.25-6.24a11.36,11.36,0,0,1,2.19-2,11.94,11.94,0,0,0,2.46-15.92,3.35,3.35,0,0,0-2.4-1.75,2.93,2.93,0,0,0-2.26,1.21c-.58.68-1,1.47-1.6,2.12-2.31,2.49-6.72,2.36-8.61,5.19a23.61,23.61,0,0,1-1.37,2.4,3.29,3.29,0,0,1-3.62.9"/><path class="cls-19" d="M36.33,197.84c-.2,9.51,1.55,32.56,4.55,32.55,2.66,0,2.49-24.76,2.48-32.7"/><path class="cls-19" d="M47.73,197.79c-.2,9.49,1.56,32.61,4.55,32.6,2.69,0,2.49-25.19,2.49-32.92"/><path class="cls-19" d="M49,133c0,.13,0,.27.05.4.47,3.36-.12,6.15,1.16,7.42s5.58,7.08,2.91,11.48-7.67,4.29-10.8,0a42.44,42.44,0,0,1-5-8c-1-2.2.58-1.62,1.16-2.09s2.91-3.59,2.21-9.39c0-.11,0-.22,0-.34"/><path class="cls-19" d="M35.43,153.88c0,6.14.61,9-.74,14.73-2,8.62-6.17,11.66-2.74,26.12a3.76,3.76,0,0,0,3.65,3.12l19.18-.44a3.73,3.73,0,0,0,3.45-2.81c5-17.06-6.53-22.3-1.51-34.72,2.35-5.79,1.16-12.43-4.07-15.81"/><path class="cls-19" d="M48.59,151.53a3.69,3.69,0,0,1,.73,3.82"/><path class="cls-19" d="M34.48,126.57c2.82.57,4.35.41,5.07-1.44s.65-3.86,5-4.9S50.17,118.38,52,114"/><path class="cls-19" d="M40.56,132.47c-2-.61-3.1-1.4-6-5.54"/><path class="cls-19" d="M52.75,114.36c3.09,3.55,6.71,16-3.76,18.62"/><path class="cls-19" d="M35.14,154a25.31,25.31,0,0,0-4.38,2.91,15.89,15.89,0,0,1-1.9-6.6A33.43,33.43,0,0,1,37,142.91"/><path class="cls-2" d="M27.85,115.81A11.79,11.79,0,0,0,24,117.53a4.27,4.27,0,0,0-2.15,2.88c-.25,1.25-.1,2.77-.46,4.43a6.36,6.36,0,0,1-1,2.43A6.52,6.52,0,0,1,18.43,129h0l-.42-1.9a20.09,20.09,0,0,0,3.44.31,10.82,10.82,0,0,0,3.31-.53,6.62,6.62,0,0,0,4.39-4.63v0a.52.52,0,0,1,1,.26A8,8,0,0,1,28.5,126a8.34,8.34,0,0,1-3.18,2.33,12.48,12.48,0,0,1-3.78.89,21.18,21.18,0,0,1-3.82-.06,1,1,0,0,1-.92-1.09,1,1,0,0,1,.39-.72l.11-.09h0a4.68,4.68,0,0,0,2-2.92c.29-1.26.22-2.77.64-4.43a5.59,5.59,0,0,1,1.22-2.35,6.08,6.08,0,0,1,2.08-1.46,11.57,11.57,0,0,1,2.24-.75,8.3,8.3,0,0,1,2.36-.28.36.36,0,0,1,.32.38.35.35,0,0,1-.28.31Z"/><path class="cls-2" d="M55.53,129.87a14.39,14.39,0,0,0,2.27-7.48,17.41,17.41,0,0,0-1.43-7.63,12.23,12.23,0,0,0-4.89-5.65A11.55,11.55,0,0,0,48,107.78a19.2,19.2,0,0,0-3.82-.31,17.09,17.09,0,0,0-7.43,1.6,12,12,0,0,0-5.39,5.1,13.1,13.1,0,0,0-1.23,7.51,16.26,16.26,0,0,0,.73,3.86,7.89,7.89,0,0,0,2,3.29h0a.24.24,0,0,1-.31.37A7.8,7.8,0,0,1,30,125.86a15.15,15.15,0,0,1-1.07-4,20.28,20.28,0,0,1-.16-4.21,12.87,12.87,0,0,1,1.13-4.15,13.19,13.19,0,0,1,6-6.14,18,18,0,0,1,8.3-1.91,20.12,20.12,0,0,1,4.27.41,12.24,12.24,0,0,1,4,1.68,13.65,13.65,0,0,1,5.28,6.69,18.37,18.37,0,0,1,1.08,8.29,14.48,14.48,0,0,1-2.94,7.69.25.25,0,0,1-.34,0,.26.26,0,0,1,0-.32Z"/><line class="cls-20" x1="50.56" y1="121.95" x2="48.96" y2="121.95"/><circle class="cls-21" cx="46.28" cy="122.2" r="2.74"/><circle class="cls-21" cx="53.4" cy="122.2" r="2.74"/><line class="cls-8" x1="36.14" y1="161.87" x2="33.2" y2="160"/><path class="cls-17" d="M35.89,162.25a2.83,2.83,0,0,1-1.62-.68A8.64,8.64,0,0,1,33,160.39a.49.49,0,0,1,0-.68.47.47,0,0,1,.44-.1,7.91,7.91,0,0,1,1.63.69,2.88,2.88,0,0,1,1.32,1.18.54.54,0,0,1-.26.72A.4.4,0,0,1,35.89,162.25Z"/><line class="cls-8" x1="32.41" y1="167.73" x2="24.09" y2="162.45"/><path class="cls-17" d="M32.22,168c-1.47-.74-2.91-1.55-4.33-2.37l-2.12-1.26a7.3,7.3,0,0,1-2-1.51.56.56,0,0,1,.06-.77.57.57,0,0,1,.5-.11,7.49,7.49,0,0,1,2.2,1.12l2,1.39c1.35.93,2.69,1.89,4,2.91a.36.36,0,0,1,.06.5A.37.37,0,0,1,32.22,168Z"/><path class="cls-16" d="M46.59,178.59l-20,8.21a1.2,1.2,0,0,1-1.58-.66L16.6,165.71a1.23,1.23,0,0,1,.67-1.59L42,154a1.23,1.23,0,0,1,1.59.67L50,170.5"/><line class="cls-22" x1="50.03" y1="170.5" x2="46.68" y2="178.55"/><path class="cls-3" d="M46.88,179.3,36.5,183.56l-5.19,2.13-2.6,1.06-1.3.53-.32.14a4.15,4.15,0,0,1-.39.15,2,2,0,0,1-2.39-1.07l-.15-.35-.53-1.3-1.06-2.59-2.13-5.19-4.26-10.39-.27-.65a2.09,2.09,0,0,1-.14-1.09,2,2,0,0,1,.49-1,1.88,1.88,0,0,1,.44-.36,1,1,0,0,1,.25-.13l.18-.08,2.59-1.06,5.2-2.12,10.39-4.25,5.19-2.13.65-.26.32-.14a4.35,4.35,0,0,1,.42-.15,2,2,0,0,1,2.06.66,1.81,1.81,0,0,1,.29.48l.14.33.26.65.54,1.3,2.12,5.19,1,2.62a13.79,13.79,0,0,1,.81,2.7.45.45,0,0,1-.36.52.46.46,0,0,1-.45-.19A14.45,14.45,0,0,1,47,165l-1.12-2.58-2.13-5.19-.53-1.3-.27-.65-.13-.31a.47.47,0,0,0-.07-.12.44.44,0,0,0-.46-.14l-1.22.49-5.2,2.12L25.5,161.58l-5.2,2.13-2.6,1.06-.15.06-.06,0s-.07,0-.09.09a.46.46,0,0,0-.12.23.4.4,0,0,0,0,.27l.26.65,4.26,10.39L24,181.68l1.07,2.59.53,1.3.12.3a.86.86,0,0,0,.07.1.44.44,0,0,0,.22.14.46.46,0,0,0,.26,0l.58-.24,1.3-.53,2.6-1.07,5.19-2.13,10.38-4.26a.77.77,0,1,1,.58,1.42Z"/><path class="cls-3" d="M50.32,171.21l-5.7,2.33.42-1c.19.53.35,1.06.51,1.59a8.1,8.1,0,0,1,.24.8c.08.27.12.56.21.82a.43.43,0,0,1-.27.55.44.44,0,0,1-.53-.22c-.12-.25-.29-.48-.43-.73s-.26-.49-.39-.74c-.26-.49-.52-1-.75-1.49a.73.73,0,0,1,.35-1h0l0,0,5.69-2.32a.76.76,0,0,1,.58,1.41Z"/><line class="cls-8" x1="33.52" y1="163.24" x2="38.73" y2="175.93"/><path class="cls-17" d="M34,163.05a16.13,16.13,0,0,1,1.56,3.07l1.24,3.2c.43,1.06.8,2.14,1.2,3.21s.77,2.16,1.12,3.25a.39.39,0,0,1-.25.5.41.41,0,0,1-.48-.2c-.51-1-1-2.06-1.48-3.1s-1-2.07-1.4-3.13l-1.36-3.15a14.77,14.77,0,0,1-1-3.28.5.5,0,0,1,.4-.58A.53.53,0,0,1,34,163.05Z"/><line class="cls-8" x1="32.43" y1="169.57" x2="35.57" y2="177.22"/><path class="cls-17" d="M32.8,169.42a12.09,12.09,0,0,1,1.88,3.7,33.21,33.21,0,0,1,1.23,4,.38.38,0,0,1-.28.44.37.37,0,0,1-.4-.17,32.92,32.92,0,0,1-1.91-3.68,12.24,12.24,0,0,1-1.26-4,.42.42,0,0,1,.39-.45A.41.41,0,0,1,32.8,169.42Z"/><line class="cls-8" x1="30.36" y1="164.53" x2="31.68" y2="167.75"/><path class="cls-17" d="M30.79,164.35a2.85,2.85,0,0,1,.92,1.5,7.56,7.56,0,0,1,.4,1.72.48.48,0,0,1-.43.53.47.47,0,0,1-.42-.18,7.33,7.33,0,0,1-.93-1.5,2.77,2.77,0,0,1-.39-1.72.54.54,0,0,1,.62-.44A.65.65,0,0,1,30.79,164.35Z"/><line class="cls-8" x1="31.8" y1="177.04" x2="32.41" y2="178.52"/><path class="cls-17" d="M32.09,176.92a1.47,1.47,0,0,1,.7.57.75.75,0,0,1,.06.85.73.73,0,0,1-.88.36.77.77,0,0,1-.55-.64,1.5,1.5,0,0,1,.1-.91.43.43,0,0,1,.57-.23Z"/><line class="cls-8" x1="27.2" y1="165.82" x2="30.94" y2="174.93"/><path class="cls-17" d="M27.53,165.69c.78,1.45,1.48,2.94,2.17,4.43l1,2.25a7.36,7.36,0,0,1,.72,2.36.55.55,0,0,1-.49.59.54.54,0,0,1-.47-.19,7.42,7.42,0,0,1-1.15-2.19l-.87-2.31c-.55-1.54-1.09-3.09-1.56-4.68a.35.35,0,0,1,.65-.26Z"/><line class="cls-8" x1="36.8" y1="161.9" x2="40.53" y2="171.01"/><path class="cls-17" d="M37.12,161.76c.78,1.46,1.48,2.94,2.17,4.43l1,2.25a7.1,7.1,0,0,1,.72,2.37.54.54,0,0,1-.49.59.59.59,0,0,1-.47-.2A7.54,7.54,0,0,1,38.9,169l-.86-2.3c-.56-1.55-1.1-3.1-1.57-4.68a.35.35,0,0,1,.24-.44A.36.36,0,0,1,37.12,161.76Z"/><line class="cls-8" x1="41.16" y1="172.52" x2="41.89" y2="174.32"/><path class="cls-17" d="M41.48,172.39a4,4,0,0,1,.67.77l.25.42a.41.41,0,0,1,0,.54.94.94,0,0,1-1,.39.41.41,0,0,1-.4-.36l-.11-.47a3.81,3.81,0,0,1-.07-1,.39.39,0,0,1,.43-.36A.36.36,0,0,1,41.48,172.39Z"/><line class="cls-8" x1="24.05" y1="167.11" x2="27.37" y2="175.21"/><path class="cls-17" d="M24.35,167a38.91,38.91,0,0,1,2,3.9A13.86,13.86,0,0,1,27.78,175a.47.47,0,0,1-.42.51.43.43,0,0,1-.4-.17A13.64,13.64,0,0,1,25,171.43a39.87,39.87,0,0,1-1.3-4.19.33.33,0,0,1,.25-.4A.33.33,0,0,1,24.35,167Z"/><line class="cls-8" x1="33.21" y1="161.52" x2="29.87" y2="160.54"/><path class="cls-17" d="M33.08,162a2.87,2.87,0,0,1-1.75-.21,7.76,7.76,0,0,1-1.59-.77.48.48,0,0,1-.14-.66.46.46,0,0,1,.4-.22,7.69,7.69,0,0,1,1.75.21,2.83,2.83,0,0,1,1.59.77.54.54,0,0,1,0,.76A.48.48,0,0,1,33.08,162Z"/><line class="cls-8" x1="31.25" y1="168.18" x2="21.79" y2="165.4"/><path class="cls-17" d="M31.15,168.52c-1.62-.31-3.23-.68-4.82-1.08l-2.39-.63a7.06,7.06,0,0,1-2.29-.92.54.54,0,0,1,.29-1,7.34,7.34,0,0,1,2.43.47l2.34.77c1.56.53,3.11,1.08,4.64,1.7a.36.36,0,0,1-.2.68Z"/><path class="cls-16" d="M47.88,174.72l-17,13.41a1.22,1.22,0,0,1-1.71-.21L15.5,170.59a1.21,1.21,0,0,1,.2-1.71l20.94-16.5a1.23,1.23,0,0,1,1.71.2L49,166"/><line class="cls-22" x1="48.95" y1="166" x2="47.95" y2="174.66"/><path class="cls-3" d="M48.35,175.32l-8.81,7-4.4,3.48-2.2,1.74-1.1.87-.28.22-.33.25a2,2,0,0,1-1.09.32,2,2,0,0,1-1.5-.7l-.24-.29-.87-1.1-1.74-2.2-3.48-4.41-6.95-8.8-.44-.56a2,2,0,0,1-.25-2.12,1.86,1.86,0,0,1,.32-.47l.21-.2.15-.11,2.2-1.74L22,163,30.77,156l4.41-3.47.55-.44.28-.21.14-.11.22-.16a2,2,0,0,1,2.16.08,2.16,2.16,0,0,1,.41.39l.22.27.44.55.87,1.1,3.47,4.41,1.7,2.23A14.32,14.32,0,0,1,47.17,163a.45.45,0,0,1-.21.6.46.46,0,0,1-.48,0,13.91,13.91,0,0,1-1.95-2l-1.78-2.17L39.27,155l-.87-1.1-.44-.55-.21-.27a.28.28,0,0,0-.1-.09.46.46,0,0,0-.49,0l-1,.81-4.41,3.47-8.81,7-4.41,3.47-2.21,1.74-.13.1,0,0a.34.34,0,0,0-.07.11.45.45,0,0,0-.05.25.47.47,0,0,0,.12.26l.44.55,7,8.8L27,183.91l1.74,2.2.87,1.1.2.25a.81.81,0,0,0,.1.09.52.52,0,0,0,.25.07.4.4,0,0,0,.24-.07l.5-.39,1.1-.87,2.2-1.74,4.41-3.48,8.81-6.95a.76.76,0,1,1,.94,1.2Z"/><path class="cls-3" d="M49.42,166.6l-4.83,3.81.13-1.08c.32.46.62.93.93,1.39.15.23.31.46.45.71s.27.49.42.72a.44.44,0,0,1-.1.61.46.46,0,0,1-.58-.07c-.18-.21-.41-.38-.6-.58s-.4-.4-.59-.6c-.38-.41-.77-.81-1.13-1.23a.73.73,0,0,1,.07-1l0,0,0,0,4.83-3.8a.76.76,0,0,1,1.07.12A.77.77,0,0,1,49.42,166.6Z"/><g class="cls-23"><line class="cls-8" x1="31.07" y1="163.56" x2="39.59" y2="174.33"/><path class="cls-2" d="M31.46,163.26a15.08,15.08,0,0,1,2.34,2.52l2.08,2.73c.7.9,1.36,1.84,2,2.76s1.33,1.87,2,2.82a.38.38,0,0,1-.1.54.37.37,0,0,1-.51-.06c-.78-.84-1.54-1.7-2.28-2.57s-1.51-1.73-2.22-2.62l-2.17-2.66a15.54,15.54,0,0,1-1.92-2.86.5.5,0,0,1,.23-.67A.53.53,0,0,1,31.46,163.26Z"/></g><g class="cls-23"><line class="cls-8" x1="31.77" y1="169.95" x2="36.91" y2="176.44"/><path class="cls-2" d="M32.09,169.7a12,12,0,0,1,2.83,3,32.48,32.48,0,0,1,2.27,3.48.37.37,0,0,1-.14.5.38.38,0,0,1-.43-.05,32.56,32.56,0,0,1-2.86-3,12,12,0,0,1-2.3-3.45.42.42,0,0,1,.63-.5Z"/></g><g class="cls-23"><line class="cls-8" x1="28.4" y1="165.67" x2="30.55" y2="168.4"/><path class="cls-2" d="M28.76,165.38a2.85,2.85,0,0,1,1.3,1.19,7.75,7.75,0,0,1,.85,1.55.48.48,0,0,1-.26.62.5.5,0,0,1-.46-.05,7.79,7.79,0,0,1-1.3-1.19A2.83,2.83,0,0,1,28,166a.54.54,0,0,1,.48-.59A.69.69,0,0,1,28.76,165.38Z"/></g><g class="cls-23"><line class="cls-8" x1="33.23" y1="177.3" x2="34.23" y2="178.55"/><path class="cls-2" d="M33.48,177.1a1.52,1.52,0,0,1,.83.37.76.76,0,0,1-.46,1.38.75.75,0,0,1-.7-.47,1.53,1.53,0,0,1-.16-.89.44.44,0,0,1,.48-.39Z"/></g><g class="cls-23"><line class="cls-8" x1="25.72" y1="167.78" x2="31.82" y2="175.51"/><path class="cls-2" d="M26,167.56c1.15,1.19,2.24,2.42,3.31,3.66l1.58,1.89a7.23,7.23,0,0,1,1.35,2.08.54.54,0,0,1-.31.7.52.52,0,0,1-.5-.06A6.92,6.92,0,0,1,29.71,174l-1.47-2c-1-1.34-1.91-2.68-2.8-4.07a.35.35,0,0,1,.55-.44Z"/></g><g class="cls-23"><line class="cls-8" x1="33.85" y1="161.37" x2="39.96" y2="169.1"/><path class="cls-2" d="M34.13,161.15c1.15,1.19,2.24,2.42,3.31,3.66L39,166.7a7.31,7.31,0,0,1,1.35,2.08.55.55,0,0,1-.32.7.59.59,0,0,1-.5-.06,7.44,7.44,0,0,1-1.71-1.79l-1.47-2c-1-1.33-1.91-2.67-2.79-4.06a.35.35,0,0,1,.1-.49A.36.36,0,0,1,34.13,161.15Z"/></g><g class="cls-23"><line class="cls-8" x1="40.98" y1="170.39" x2="42.18" y2="171.91"/><path class="cls-2" d="M41.25,170.17a3.55,3.55,0,0,1,.86.56l.36.33a.43.43,0,0,1,.12.53,1,1,0,0,1-.82.64.41.41,0,0,1-.48-.24l-.24-.42a3.72,3.72,0,0,1-.35-1,.4.4,0,0,1,.31-.46A.33.33,0,0,1,41.25,170.17Z"/></g><g class="cls-23"><line class="cls-8" x1="23.04" y1="169.89" x2="28.46" y2="176.76"/><path class="cls-2" d="M23.29,169.69a37.78,37.78,0,0,1,3,3.19,13.39,13.39,0,0,1,2.5,3.61.46.46,0,0,1-.25.6.48.48,0,0,1-.44-.05,13.57,13.57,0,0,1-2.93-3.27,38.19,38.19,0,0,1-2.41-3.68.34.34,0,0,1,.12-.45A.33.33,0,0,1,23.29,169.69Z"/></g><path class="cls-19" d="M29.19,153.91c-4.43,3.22-5.89,12.71,3.67,18-1,2.9-.25,4.52,2.76,5"/><path class="cls-19" d="M56.87,148.72c3.85,2.79,9.22,16.08-7.41,20.49"/><path class="cls-16" d="M200.91,131.62a40.57,40.57,0,0,1,3.6-22.4,18.19,18.19,0,0,1,3.86-5.65,8.76,8.76,0,0,1,6.22-2.52,10.13,10.13,0,0,1,6.16,3A18.74,18.74,0,0,1,226.5,115a37.19,37.19,0,0,1-.07,8.5l-.74,8.86a3.32,3.32,0,0,1-3.25,3.45A93.27,93.27,0,0,1,213,138a20.2,20.2,0,0,1-8.58.13c-2.78-.73-5.4-2.79-6-5.6a4.35,4.35,0,0,1,.52-3.31,2.85,2.85,0,0,1,3-1.25"/><path class="cls-2" d="M191.35,177.38l3.71,30.41c.91,7.45,1.84,15,4.5,22a2.5,2.5,0,0,0,2.26-1.3,7,7,0,0,0,.78-2.62,118.6,118.6,0,0,0,1-28.36,5.39,5.39,0,0,1,.56-3.75c.94-1.26,2.73-1.42,4.3-1.47a5.34,5.34,0,0,1,3.6.75c1.13.93,1.28,2.57,1.38,4a105.66,105.66,0,0,0,7.69,33.23c2-.75,2.71-3.21,3-5.33,1.22-7.75,1.34-15.62,1.46-23.46l.36-23.57c-6.8.59-13.64,1.18-20.44.57a58.24,58.24,0,0,1-13.75-2.94l-1.23,3.64"/><path class="cls-16" d="M194.66,142.15a44.21,44.21,0,0,1-28.28-5.86,6.39,6.39,0,0,1-2.39-2.1,3.38,3.38,0,0,1,.39-3.88,4.48,4.48,0,0,1,3.94-1.15,18.41,18.41,0,0,1,4.05,1.31,30.14,30.14,0,0,0,20.56.24c2.11-.75,4.35-1.76,6.51-1.16,3.77,1,5.09,6.25,8.81,7.44,2.41.77,5-.44,7.05-1.91s4-3.28,6.41-4c3.13-.88,6.58.35,9,2.51a21,21,0,0,1,5.16,8.16c2.73,6.93,3.84,14.38,4.92,21.75l1,7a6.25,6.25,0,0,1,0,2.24c-.52,2.31-3.9,3.14-5.68,1.59a7.8,7.8,0,0,1-2-3.8l-6.11-19.65,1.55,19.61a6.7,6.7,0,0,1-.61,4.28c-.91,1.38-2.67,1.88-4.28,2.22A62.49,62.49,0,0,1,195,175.94a13.23,13.23,0,0,1-5-2.34c-3.26-2.75-1.63-7.5-1.06-11.13a87.24,87.24,0,0,1,3.14-13.26c.38-1.2.79-2.38,1.22-3.56C193.43,145.25,194.32,142.2,194.66,142.15Z"/><path class="cls-24" d="M239.15,174.59q.06,2.86.14,6.11c2.26.36,3.33,1.43,3.45,3.21"/><path class="cls-24" d="M164.94,131.45c-1.4-1.28-2.45-1.4-3.88-4-3.07,1-4.78.25-5.23-2.92"/><path class="cls-2" d="M192.58,174.69c.47,7.73,1.22,15.46,2,23.17s1.81,15.41,3.34,22.95a52.86,52.86,0,0,0,1.41,5.51,10.49,10.49,0,0,0,1.05,2.35,1.55,1.55,0,0,0,.23.25s0,0,0,0a.11.11,0,0,0-.1,0s0,0,0,0,.13-.06.31-.38a9.19,9.19,0,0,0,.85-2.41c.2-.9.37-1.83.5-2.77.27-1.88.44-3.8.57-5.72.5-7.7.42-15.47.94-23.24a.55.55,0,0,1,.59-.52.54.54,0,0,1,.52.52,188,188,0,0,1,.11,23.38c-.12,2-.27,3.92-.53,5.89-.14,1-.3,2-.52,3a11.52,11.52,0,0,1-1.09,3.06,3.65,3.65,0,0,1-.65.82,1.74,1.74,0,0,1-.51.38,1.82,1.82,0,0,1-.31.16,2.34,2.34,0,0,1-.38.09l-.38.05a3.4,3.4,0,0,1-.46-.06,2.11,2.11,0,0,1-.69-.33,3.21,3.21,0,0,1-.78-.79,12,12,0,0,1-1.38-2.93,54,54,0,0,1-1.52-5.77c-1.6-7.7-2.53-15.44-3.41-23.19s-1.46-15.51-1.88-23.3a1.1,1.1,0,0,1,2.19-.13Z"/><path class="cls-2" d="M201.79,190.23A21.52,21.52,0,0,0,207,191.8a7,7,0,0,0,2.53-.2c.86-.21,1.77-.5,2.7-.75h0a1.07,1.07,0,0,1,1.3.8,1,1,0,0,1,0,.17v0c.26,3.82.83,7.69,1.43,11.52s1.32,7.67,2.14,11.47a88.81,88.81,0,0,0,3,11.15,13.34,13.34,0,0,0,1.14,2.43,2.82,2.82,0,0,0,.32.43c.1.11.2.14.1.11a.25.25,0,0,0-.1,0h.05l.11,0a.62.62,0,0,0,.22-.14,5.21,5.21,0,0,0,1-2.1,23.89,23.89,0,0,0,.54-2.75,116,116,0,0,0,.88-11.57c.15-3.89.23-7.79.28-11.69.11-7.8.11-15.61.09-23.43a1.1,1.1,0,1,1,2.2,0h0c0,7.82,0,15.64-.09,23.46-.06,3.92-.14,7.83-.29,11.75a118,118,0,0,1-.9,11.8,25.27,25.27,0,0,1-.6,3,6.65,6.65,0,0,1-1.56,3.12,2.78,2.78,0,0,1-1,.62,2.3,2.3,0,0,1-.61.13l-.31,0a2.11,2.11,0,0,1-.46-.07,2.39,2.39,0,0,1-1.09-.71,5.68,5.68,0,0,1-.57-.74,16,16,0,0,1-1.35-2.86A87.7,87.7,0,0,1,215,215.3c-.83-3.84-1.54-7.7-2.17-11.58S211.66,196,211.39,192l1.33,1h0c-.92.14-1.84.33-2.84.47a8.8,8.8,0,0,1-3.11-.08,14.28,14.28,0,0,1-2.83-1c-.89-.38-1.73-.83-2.58-1.27a.51.51,0,0,1-.22-.69.52.52,0,0,1,.64-.24Z"/><path class="cls-2" d="M198.45,129.57a40.46,40.46,0,0,1-7.67,2.75,37.47,37.47,0,0,1-8.22,1.27,29.61,29.61,0,0,1-8.33-.94,35.11,35.11,0,0,1-7.75-3.05L168,129h0a7.86,7.86,0,0,1-.73,1.6c-.32.53-.69.93-.88,1.24a2.94,2.94,0,0,0-.41,1,8.73,8.73,0,0,0-.19,1.32l-.39-.92c4,3.4,8.42,6.36,13.39,7.72a26.8,26.8,0,0,0,7.63.95,39.67,39.67,0,0,0,7.72-1,1.1,1.1,0,0,1,1.31.84,1.11,1.11,0,0,1-.07.7h0a59,59,0,0,0-3.94,12A86.9,86.9,0,0,0,189.57,167c-.09,1.06-.15,2.11-.2,3.17l0,.79a1.8,1.8,0,0,0,.49,1.33,2.06,2.06,0,0,0,.86.57l1.49.59c1,.39,2,.77,3,1.14a38.44,38.44,0,0,0,12.11,2.81c2.07.09,4.18,0,6.32,0s4.22-.23,6.33-.46,4.2-.52,6.27-.91l.78-.15.38-.07.22-.07a1.55,1.55,0,0,0,.71-.53,1.53,1.53,0,0,0,.28-.9c0-.52.05-1,.06-1.57a105.89,105.89,0,0,0-.46-12.71c-.37-4.24-1.25-8.33-1.7-12.59v0a.47.47,0,0,1,.42-.52.5.5,0,0,1,.48.25c2,4,2.53,8.38,3,12.66a108.3,108.3,0,0,1,.57,13c0,.54,0,1.09-.05,1.64a3.79,3.79,0,0,1-.69,2.12,3.9,3.9,0,0,1-1.81,1.4,3.47,3.47,0,0,1-.55.16l-.4.08-.8.17c-2.14.41-4.3.73-6.45,1s-4.33.42-6.5.52-4.33.18-6.54.08a31.42,31.42,0,0,1-6.6-1,60.72,60.72,0,0,1-6.25-2c-1-.37-2-.77-3-1.16l-1.5-.6a4.49,4.49,0,0,1-1.78-1.21,4.35,4.35,0,0,1-1-2,4.26,4.26,0,0,1-.11-1.12l0-.81c0-1.09.11-2.17.21-3.26a85.16,85.16,0,0,1,2.06-12.87,61.85,61.85,0,0,1,4.25-12.38h0l1.23,1.55a41.5,41.5,0,0,1-8.18,1,28.81,28.81,0,0,1-8.25-1,30.9,30.9,0,0,1-7.6-3.33,50.63,50.63,0,0,1-6.62-4.84h0a1.05,1.05,0,0,1-.37-.91,11,11,0,0,1,.24-1.65,5.3,5.3,0,0,1,.7-1.73c.36-.54.67-.87.86-1.21a5.23,5.23,0,0,0,.51-1.12h0a1.12,1.12,0,0,1,1.4-.7l.11,0,0,0c1.2.55,2.4,1.07,3.62,1.53s2.47.82,3.73,1.15a29.3,29.3,0,0,0,7.69.89,35.37,35.37,0,0,0,7.75-1,57.4,57.4,0,0,1,7.91-1.62.53.53,0,0,1,.28,1Z"/><path class="cls-25" d="M225.75,131c8.29.36,14.11,15.8,15.59,42.66-2.22.33-5.43,1-5.43,1-2.17-7.83-4.19-16.92-7.79-23.33"/><path class="cls-2" d="M200.15,128.51a7.8,7.8,0,0,1-.34-2.18c0-.73,0-1.46.07-2.19.09-1.46.22-2.92.4-4.37a42.67,42.67,0,0,1,1.9-8.64,20.09,20.09,0,0,1,4.61-7.82,19.06,19.06,0,0,1,1.83-1.51l1-.58a5.1,5.1,0,0,1,1.09-.5,10.51,10.51,0,0,1,2.34-.66,9.9,9.9,0,0,1,2.43,0,12,12,0,0,1,4.54,1.4,9.11,9.11,0,0,1,3.51,3.32,15.35,15.35,0,0,1,1.11,2.07c.26.71.56,1.42.77,2.14a31.83,31.83,0,0,1,1,4.35,71.22,71.22,0,0,1,.39,17.5,1,1,0,0,1-1.12.94,1,1,0,0,1-1-1.12v0a69.76,69.76,0,0,0-.6-16.91,29.84,29.84,0,0,0-.95-4c-.19-.66-.46-1.28-.69-1.91a13.58,13.58,0,0,0-.93-1.73,6.72,6.72,0,0,0-2.68-2.53,9.8,9.8,0,0,0-3.65-1.11,7.86,7.86,0,0,0-1.88,0,9.82,9.82,0,0,0-1.8.52,3.2,3.2,0,0,0-.86.4l-.85.45a15.68,15.68,0,0,0-1.5,1.22,17.93,17.93,0,0,0-4.08,6.9,40.69,40.69,0,0,0-1.84,8.17c-.18,1.4-.32,2.81-.41,4.22a15.13,15.13,0,0,1-.55,4.25v0a.73.73,0,0,1-1.37,0Z"/><path class="cls-2" d="M206.91,125.21c.48.2.79.25,1.19.41a6.64,6.64,0,0,0,1.26.4,7.37,7.37,0,0,0,2.88,0h0a.52.52,0,0,1,.62.41.51.51,0,0,1-.13.46,4.53,4.53,0,0,1-3.7,1.28,4.67,4.67,0,0,1-2-.62,2.25,2.25,0,0,1-1.12-2,.49.49,0,0,1,.54-.43.28.28,0,0,1,.13,0Z"/><path class="cls-3" d="M208.37,136.14a8,8,0,0,0-2.08,2.72l1.12,2.8s-4.5,13.88-5.27,20.73a4.3,4.3,0,0,0,.64,2.7c2.35,3.77,4.06,4.82,4.06,4.82s4.17-3.76,4.89-5.12-1.35-23-1.35-23l1.44-2.8-1.28-2.8Z"/><path class="cls-2" d="M203.32,164.65c.65.83,1.29,1.66,2,2.4.35.37.69.75,1.06,1.08.18.17.36.33.55.48a5.22,5.22,0,0,0,.49.37h0l-1.31.12c.9-.83,1.81-1.69,2.68-2.56.43-.43.85-.88,1.24-1.32a6.91,6.91,0,0,0,.53-.65c.09-.11.13-.19.19-.27s0-.07,0-.09c0-.47,0-1.11,0-1.71s0-1.24-.06-1.85c-.05-1.24-.12-2.49-.2-3.74-.34-5-.77-10-1.23-15h0l0-.17a.67.67,0,0,1,.13-.44l1.94-2.54h0v.47l-.14-.94a.3.3,0,0,1,.24-.33.31.31,0,0,1,.26.1l.62.72a.27.27,0,0,1,.06.26l-.07.21h0l-1,3.05.12-.61h0c.47,5,.9,10,1.24,15.05.08,1.26.15,2.52.21,3.79,0,.64.05,1.26.05,1.91a16.46,16.46,0,0,1-.06,2.06,4.91,4.91,0,0,1-.23.82,4.51,4.51,0,0,1-.34.51,9.6,9.6,0,0,1-.66.81c-.44.5-.88,1-1.33,1.42-.91.91-1.82,1.78-2.77,2.64h0a1.07,1.07,0,0,1-1.3.12h0a7.8,7.8,0,0,1-1.37-1.27,14.83,14.83,0,0,1-1.06-1.34,23,23,0,0,1-1.68-2.86.69.69,0,0,1,1.17-.73Z"/><path class="cls-2" d="M206.93,139.36l1.15,2a.42.42,0,0,1,0,.34l0,.15q-.58,2.45-1.21,4.88l-1.28,4.85c-.86,3.23-1.66,6.45-2.74,9.63h0a.57.57,0,0,1-.73.36.57.57,0,0,1-.39-.54,26.16,26.16,0,0,1,.53-5.09c.32-1.67.77-3.3,1.21-4.94a88.78,88.78,0,0,1,3.24-9.6v.49l-.57-2.26a.41.41,0,0,1,.76-.31Z"/><path class="cls-2" d="M197,178.2a3.53,3.53,0,0,1-.81,2.6,3.59,3.59,0,0,1-1,.9,2.38,2.38,0,0,1-1.38.37.65.65,0,0,1-.6-.68.46.46,0,0,1,.05-.2l.08-.21a4.92,4.92,0,0,1,1.15-1.57c.42-.47.8-.91,1.21-1.42l.09-.1a.66.66,0,0,1,1.17.31Z"/><path class="cls-2" d="M220.6,179.65c.46.32.76.56,1.06.8a9.18,9.18,0,0,1,.78.73c.26.24.51.47.76.68s.49.41.78.62l.19.15a.66.66,0,0,1,.12.92.62.62,0,0,1-.31.22,2.55,2.55,0,0,1-1.75-.1,3.83,3.83,0,0,1-1.35-.91,3.14,3.14,0,0,1-.85-1.35,2.25,2.25,0,0,1,.07-1.65.34.34,0,0,1,.44-.15l0,0Z"/><path class="cls-2" d="M215.59,142.92a11.82,11.82,0,0,0,2.84.22A13.29,13.29,0,0,0,220,143c.5-.08,1-.17,1.5-.29h0a.6.6,0,0,1,.41,1.12,15,15,0,0,1-3.2,1.11,8.38,8.38,0,0,1-3.54.16,1.1,1.1,0,0,1,.42-2.16Z"/><path class="cls-16" d="M168,134.42l-.12.19a9.35,9.35,0,0,1-1.62,2c-.32.32-2.27-.83-2.59-1.32s3-7.11,3.24-7.49,2.64,1,2.64,1l-.37.84"/><path class="cls-2" d="M168.46,134.74a13.9,13.9,0,0,1-1,2.08,3.46,3.46,0,0,1-.35.46l-.09.09-.05,0c0,.05-.12.09-.18.14a1.48,1.48,0,0,1-.39.17,1.64,1.64,0,0,1-.75,0,5,5,0,0,1-1.29-.51,9.14,9.14,0,0,1-1-.67,2.94,2.94,0,0,1-.61-.62,1.45,1.45,0,0,1-.21-.52,2.36,2.36,0,0,1,0-.25,1.63,1.63,0,0,1,0-.3,2.33,2.33,0,0,1,.08-.37,19.9,19.9,0,0,1,.8-2.13c.57-1.32,1.19-2.59,1.84-3.87.16-.32.32-.64.51-1,.05-.09.07-.13.19-.32a1.37,1.37,0,0,1,.31-.31,1.44,1.44,0,0,1,.43-.21,1.78,1.78,0,0,1,.47,0,3.12,3.12,0,0,1,.83.2,15.22,15.22,0,0,1,2.06,1h0a1.06,1.06,0,0,1,.43,1.35l-.37.84a1.07,1.07,0,0,1-2-.87l.38-.84.44,1.36h0a12.16,12.16,0,0,0-1.74-.81l-.2-.05s.14,0,.21,0a.94.94,0,0,0,.31-.15.86.86,0,0,0,.22-.23,1.38,1.38,0,0,1-.07.14l-.46.91c-.62,1.24-1.21,2.51-1.76,3.77a17.51,17.51,0,0,0-.72,1.82c0,.06,0,.12,0,.14s0,.05,0,0a.68.68,0,0,0,0-.12.87.87,0,0,0-.16-.39c-.08-.1.06.05.14.11a4.85,4.85,0,0,0,.73.48,3,3,0,0,0,.66.3.77.77,0,0,0-.23,0,.83.83,0,0,0-.27.11l-.13.11s0,0,0,0l.1-.1a2.55,2.55,0,0,1,.38-.29,7.11,7.11,0,0,0,1.52-1.31.59.59,0,0,1,1,.6Z"/><path class="cls-16" d="M239.84,170.55l.22,0a9.84,9.84,0,0,1,2.57.15c.45.07.65,2.32.44,2.87s-7.52,1.75-8,1.75-.74-2.72-.74-2.72l.9-.19"/><path class="cls-2" d="M239.81,170a12.79,12.79,0,0,1,2.26-.41,2.23,2.23,0,0,1,.58,0l.13,0h.05l.22.07a1.12,1.12,0,0,1,.37.22,1.66,1.66,0,0,1,.45.61,4.8,4.8,0,0,1,.33,1.34,8.38,8.38,0,0,1,.06,1.24,2.89,2.89,0,0,1-.14.86,1.35,1.35,0,0,1-.32.48l-.18.14a2.17,2.17,0,0,1-.26.15l-.35.15a20.87,20.87,0,0,1-2.19.6c-1.41.3-2.81.54-4.22.77l-1.08.15-.37,0H235a1,1,0,0,1-.29-.05,1.24,1.24,0,0,1-.43-.23,1.82,1.82,0,0,1-.32-.36,3,3,0,0,1-.33-.79,15.13,15.13,0,0,1-.36-2.28h0a1.07,1.07,0,0,1,.84-1.14l.9-.19a1.07,1.07,0,0,1,.44,2.09l-.91.18.85-1.15h0a12.8,12.8,0,0,0,.36,1.88,1.17,1.17,0,0,0,.07.19s-.09-.13-.15-.16a1,1,0,0,0-.32-.17,1.7,1.7,0,0,0-.29,0l.15,0,1-.16c1.37-.22,2.75-.48,4.09-.77a18.1,18.1,0,0,0,1.9-.48l.14-.05,0,0-.08.07a.88.88,0,0,0-.24.37c0,.12,0-.08,0-.18a6.64,6.64,0,0,0,0-.88,3.48,3.48,0,0,0-.14-.7s0,0,.15.17a.85.85,0,0,0,.26.15.47.47,0,0,0,.17,0s0,0,0,0l-.14,0a2.25,2.25,0,0,1-.46-.15,7,7,0,0,0-1.95-.46.59.59,0,0,1-.09-1.15Z"/><path class="cls-2" d="M202.13,130.52a30.62,30.62,0,0,1,5,3.92c.39.35.78.68,1.17,1,.2.15.39.3.58.43l.26.17.1.06c-.05,0-.2-.06-.16-.06s.21,0,.41-.06.44-.11.68-.17c.47-.14,1-.31,1.43-.49,1.92-.74,3.85-1.58,5.73-2.51s3.67-2,5.68-2.8h0a.37.37,0,0,1,.47.21.36.36,0,0,1-.07.37,21.12,21.12,0,0,1-5.23,3.81,53.19,53.19,0,0,1-5.78,3c-.51.21-1,.41-1.58.58a8.8,8.8,0,0,1-.86.25,3.53,3.53,0,0,1-1.17.09,1.69,1.69,0,0,1-.55-.16L208,138c-.16-.09-.27-.18-.41-.27l-.69-.53c-.43-.36-.84-.72-1.24-1.09a25.09,25.09,0,0,1-4.25-4.83.52.52,0,0,1,.69-.73Z"/><path class="cls-24" d="M216.78,115.8c1.2.6,1,2.06,4,1.86a9.32,9.32,0,0,1,2.65.2"/><line class="cls-26" x1="207.48" y1="115.93" x2="209.54" y2="115.93"/><ellipse class="cls-27" cx="212.99" cy="116.26" rx="3.52" ry="3.52"/><ellipse class="cls-27" cx="203.83" cy="116.26" rx="3.52" ry="3.52"/><path class="cls-2" d="M88.49,12.21A4,4,0,0,1,89,14.69l0,2.46-.06,4.94v2.16c0,.1,0,.19,0,.42a2.29,2.29,0,0,1-1.37,1.83,1.92,1.92,0,0,1-.58.16,1.46,1.46,0,0,1-.29,0h-.8l-4.94-.06L71,26.5l-4.94-.06-2.47,0a2.62,2.62,0,0,1-1-.16,2.37,2.37,0,0,1-1-.72,2.35,2.35,0,0,1-.49-1.13,6.15,6.15,0,0,1,0-.81l.17-9.87,0-2.47,0-1.23V9.47a1.54,1.54,0,0,1,0-.3A2.34,2.34,0,0,1,63,7.43a2,2,0,0,1,.6-.1H64l1.24,0,2.47,0,9.87.23,4.93.11,2.47.06,1.23,0h.62a2.75,2.75,0,0,1,.49,0,2,2,0,0,1,.54.19,1,1,0,0,1-.43,1.8h-.46l-19.3-.17-2.47,0-1.23,0h-.25l-.06,4.1-.14,9.87c0,.6,0,.38,0,.42h.2l2.47,0,4.93.1,9.88.19,4.93.1h.77a.07.07,0,0,0,0-.06l0-2.35.09-4.94,0-2.47a4.09,4.09,0,0,1,.6-2.46.61.61,0,0,1,.84-.15A.52.52,0,0,1,88.49,12.21Z"/><path class="cls-13" d="M87.57,9.09,77,17a3.11,3.11,0,0,1-3.89-.06L62.94,8.83"/><path class="cls-2" d="M73.35,17.64a18.52,18.52,0,0,1-2.26,2.73c-.41.43-.83.84-1.27,1.24a2.11,2.11,0,0,1-1.76.79.49.49,0,0,1-.48-.43,2.17,2.17,0,0,1,.62-1.84q.52-.7,1.11-1.38a19.76,19.76,0,0,1,2.5-2.51,1.05,1.05,0,0,1,1.48.17A1,1,0,0,1,73.35,17.64Z"/><path class="cls-2" d="M79.47,18.24c.62,0,.84.38,1.17.64a10.68,10.68,0,0,1,.89.89,6.28,6.28,0,0,1,.73,1,2.6,2.6,0,0,1,.33,1.37.52.52,0,0,1-.56.5h0a2.46,2.46,0,0,1-1.3-.54,6.24,6.24,0,0,1-.9-.88,10.5,10.5,0,0,1-.73-1c-.21-.37-.54-.64-.45-1.26A.84.84,0,0,1,79.47,18.24Z"/><polygon class="cls-3" points="65.34 9.96 73.83 16.71 75.49 16.94 86.36 9.24 64.96 9.24 65.34 9.96"/><path class="cls-16" d="M140.85,156.7a38.65,38.65,0,0,1-10.18.7,13.78,13.78,0,0,1-4.55-.89,6.12,6.12,0,0,1-3.32-3.1,8.42,8.42,0,0,1-.46-3.53,51.78,51.78,0,0,1,1.93-13c.78-2.77,1.88-5.59,4-7.49,3.2-2.82,8.27-2.91,11.92-.72s5.07,6.91,5.62,11.13c.23,1.79,1,3,1,4.81l-.16,6.29a7.73,7.73,0,0,1-.85,4,5.11,5.11,0,0,1-3.16,2,15.51,15.51,0,0,1-3.85.27l.19-.61"/><path class="cls-2" d="M116.67,194.89c-1.21,2.54-1.42,5.43-1.57,8.24A271.84,271.84,0,0,0,116.24,246a6.53,6.53,0,0,0,.86,3.08,2.31,2.31,0,0,0,2.8,1,3.33,3.33,0,0,0,1.35-2.1,147.09,147.09,0,0,0,6.59-33.57,11,11,0,0,0,7.64,0q.27,16.06,1.31,32.1c.1,1.41.43,3.14,1.79,3.55a2.41,2.41,0,0,0,2.51-1,7.06,7.06,0,0,0,1-2.7,305.37,305.37,0,0,0,5.77-43.84,4.07,4.07,0,0,0-.26-2.11,2.86,2.86,0,0,0-2.34-1.35,11.53,11.53,0,0,0-2.79.31c-5.91,1-11.95-.29-17.81-1.6l-9.1-2.06"/><path class="cls-16" d="M87.37,158.78A7.25,7.25,0,0,0,90.28,162a29.8,29.8,0,0,0,24.53,4.13l-4.19,19c-.68,3.05-1.32,6.4.08,9.19,1.64,3.26,5.48,4.69,9,5.48a58.5,58.5,0,0,0,24.08.33c1.74-.34,3.59-.83,4.75-2.17,1.66-1.94,1.28-4.84.71-7.33s-1.2-5.26.12-7.44L152.89,194c.42,1.29,1.15,2.84,2.52,2.87a2.25,2.25,0,0,0,2-1.48,6.27,6.27,0,0,0,.32-2.59,124.19,124.19,0,0,0-4-29.27c-.79-3-2-6.33-4.89-7.47-3.32-1.33-6.89,1-10.43,1.5-6.35,1-12.33-3.89-18.75-3.64-3.09.11-6,1.41-9,2.28a33.57,33.57,0,0,1-10.87,1.3,35.08,35.08,0,0,1-5.49-.7c-1.74-.36-3.46-1.22-5.2-1.5S86.88,157.48,87.37,158.78Z"/><path class="cls-2" d="M148.71,199.22q-.63,11-1.81,21.91c-.83,7.29-1.73,14.57-3.27,21.8a40.18,40.18,0,0,1-1.53,5.41,11.29,11.29,0,0,1-.59,1.35,4.57,4.57,0,0,1-1,1.39,1.83,1.83,0,0,1-1.26.46,2.3,2.3,0,0,1-.64-.15,3.4,3.4,0,0,1-.52-.31,4.07,4.07,0,0,1-1-1.45,13.61,13.61,0,0,1-.83-2.82c-.2-.93-.33-1.86-.45-2.78-.23-1.85-.37-3.69-.47-5.53-.21-3.67-.28-7.34-.3-11a93.83,93.83,0,0,1,.5-11,.29.29,0,0,1,.32-.26.29.29,0,0,1,.27.26c.4,3.66.49,7.31.55,11s.16,7.3.39,10.93c.12,1.81.28,3.62.51,5.4a20.26,20.26,0,0,0,1.18,5.06,2.83,2.83,0,0,0,.51.79s.06,0,.08,0,0,0,0,0-.1,0,0,0a2.8,2.8,0,0,0,.56-.82,12.27,12.27,0,0,0,.5-1.16,42.49,42.49,0,0,0,1.4-5.16c1.51-7.09,2.42-14.35,3.25-21.6s1.52-14.53,2-21.81a.85.85,0,0,1,1.7.11Z"/><path class="cls-2" d="M137.09,214.07a12.18,12.18,0,0,1-4.6,1.67,8.53,8.53,0,0,1-2.54-.16,19.31,19.31,0,0,1-2.27-.59h0l1-.78c-.26,3.9-.83,7.7-1.43,11.51s-1.33,7.59-2.15,11.36a73.52,73.52,0,0,1-3.2,11.22,14.54,14.54,0,0,1-.67,1.38,4.42,4.42,0,0,1-1.09,1.39,1.59,1.59,0,0,1-.55.31,1.4,1.4,0,0,1-.7.08,2.21,2.21,0,0,1-1.06-.34,3.46,3.46,0,0,1-1.22-1.44,12.33,12.33,0,0,1-.93-3c-.19-1-.33-1.94-.45-2.91-.46-3.87-.61-7.71-.75-11.56s-.2-7.7-.24-11.54c-.08-7.69-.08-15.37-.06-23.05a.86.86,0,0,1,1.71,0h0c0,7.68,0,15.36.06,23,0,3.84.11,7.67.23,11.5s.3,7.66.74,11.42c.12.93.26,1.86.44,2.77a10,10,0,0,0,.78,2.53,1.88,1.88,0,0,0,.58.76.62.62,0,0,0,.3.09c.11,0,0,0,0,0l.06,0a3.23,3.23,0,0,0,.65-.88,12.56,12.56,0,0,0,.59-1.22,72.39,72.39,0,0,0,3.1-10.91c.82-3.73,1.52-7.5,2.13-11.27s1.16-7.58,1.42-11.34a.85.85,0,0,1,.92-.8h.12c.78.1,1.55.27,2.27.43a10.4,10.4,0,0,0,2.08.29,16.14,16.14,0,0,0,4.3-.88h0a.51.51,0,0,1,.62.34A.5.5,0,0,1,137.09,214.07Z"/><path class="cls-2" d="M122.23,153.78A66.92,66.92,0,0,0,114,156a53.22,53.22,0,0,1-8.57,2,28.28,28.28,0,0,1-8.9-.16A30.78,30.78,0,0,1,88.09,155l1.19-.49a8.31,8.31,0,0,1-.55,1.33c-.24.46-.55.84-.67,1.09a7.07,7.07,0,0,0-.42,2.22l-.3-.72a36.9,36.9,0,0,0,6.25,4.33,27.26,27.26,0,0,0,7.06,2.65,34.86,34.86,0,0,0,15.1-.39.85.85,0,0,1,1,.66.77.77,0,0,1-.06.54h0a57.26,57.26,0,0,0-3.8,11.48,83.89,83.89,0,0,0-1.81,12c-.09,1-.15,2-.19,3l0,.76a1.8,1.8,0,0,0,0,.52,2,2,0,0,0,.48.92,2.13,2.13,0,0,0,.91.6l1.42.57c1,.37,1.9.75,2.85,1.09a36.56,36.56,0,0,0,11.65,2.73c2,.1,4,0,6.07-.05s4.05-.23,6.07-.45,4-.51,6-.89l.74-.15.37-.07.24-.07a1.72,1.72,0,0,0,.78-.6,1.6,1.6,0,0,0,.3-1c0-.5.05-1,.06-1.51A101.16,101.16,0,0,0,148.4,183c-.36-4.06-1.21-8-1.77-12h0a.42.42,0,0,1,.35-.47.43.43,0,0,1,.43.23c1.83,3.81,2.28,8,2.74,12.12a102.44,102.44,0,0,1,.51,12.39c0,.52,0,1,0,1.57a3.46,3.46,0,0,1-2.25,3.16,4.13,4.13,0,0,1-.5.15l-.38.07-.76.16c-2.05.39-4.1.69-6.16.92s-4.12.39-6.19.48-4.13.16-6.24.07A38.61,38.61,0,0,1,115.92,199c-1-.35-1.94-.73-2.9-1.1l-1.43-.57a4.11,4.11,0,0,1-1.62-1.09,4,4,0,0,1-.93-1.78,4.28,4.28,0,0,1-.1-1l0-.78c0-1,.11-2.07.19-3.1a82.2,82.2,0,0,1,2-12.28,58.64,58.64,0,0,1,4-11.81h0l1,1.21a36.63,36.63,0,0,1-15.84.39,29,29,0,0,1-7.5-2.82,38.1,38.1,0,0,1-6.54-4.53h0a.8.8,0,0,1-.29-.71c0-.45.08-.89.16-1.36a4.89,4.89,0,0,1,.44-1.49c.27-.52.53-.81.68-1.13a6.89,6.89,0,0,0,.44-1.06h0a.87.87,0,0,1,1.09-.54l.11.05a29.39,29.39,0,0,0,7.94,2.72,26.7,26.7,0,0,0,8.37.15,53,53,0,0,0,8.3-2,67.64,67.64,0,0,1,8.48-2.27.86.86,0,1,1,.29,1.69Z"/><path class="cls-28" d="M145.91,155.33c7.34.11,10.93,14.8,12.35,40.5a5.81,5.81,0,0,1-4.61.54c-1.36-4.92-2.74-10-4.5-14.71"/><path class="cls-28" d="M122.09,152.94c0-10,2-23.7,11.16-26a9.85,9.85,0,0,1,8.3,2.16c5.09,4.63,5.07,19.35,4.44,25.9"/><path class="cls-28" d="M155.64,196.76c0,1.84.08,3.78.14,5.86,2.16.34,3.18,1.36,3.29,3.06"/><path class="cls-28" d="M87.34,156.46c-1.1-1.44-2.08-1.74-3-4.42-3.07.45-4.55-.57-4.44-3.64"/><path class="cls-2" d="M124.71,154.38a28.67,28.67,0,0,1,5,1.28,25.31,25.31,0,0,0,5,.75,21.81,21.81,0,0,0,5-.32,13.68,13.68,0,0,0,4.56-1.65l0,0a.86.86,0,0,1,1,1.42,13.58,13.58,0,0,1-5.14,2.26,20.72,20.72,0,0,1-5.49.43,23.52,23.52,0,0,1-5.4-.95c-1.72-.54-3.54-1.12-4.75-2.65a.35.35,0,0,1,.06-.48.29.29,0,0,1,.23-.07Z"/><path class="cls-2" d="M121.65,203.88c.62.11,1.23.2,1.83.26a15.61,15.61,0,0,0,1.8.09,14,14,0,0,0,1.73-.1,7.14,7.14,0,0,0,1.51-.34l.08,0a.85.85,0,0,1,.74,1.52,5,5,0,0,1-2.12.69,8,8,0,0,1-2.08-.07,9.79,9.79,0,0,1-2-.5,7.74,7.74,0,0,1-1.8-.89.35.35,0,0,1,.25-.63Z"/><path class="cls-2" d="M138.69,204.12a19.55,19.55,0,0,1,2.9.15,12.17,12.17,0,0,0,2.82-.1.3.3,0,0,1,.35.26.3.3,0,0,1-.15.3,6.18,6.18,0,0,1-3,.82,7.93,7.93,0,0,1-3-.43.53.53,0,0,1-.31-.66.5.5,0,0,1,.45-.34Z"/><g class="cls-29"><polyline class="cls-5" points="101.83 144.56 97.48 144.55 97.49 141.62 94.38 141.62 94.37 145.79 94.37 145.79 94.37 145.96"/><path class="cls-30" d="M94.37,149v6.74A1.24,1.24,0,0,0,95.6,157h10a1.25,1.25,0,0,0,1.25-1.24v-9.93a1.24,1.24,0,0,0-1.24-1.25h-2.23"/><rect class="cls-31" x="97.48" y="147.66" width="6.21" height="6.22" rx="0.98" ry="0.98" transform="translate(-50.33 251.12) rotate(-89.91)"/></g></g></g></svg>