<svg xmlns="http://www.w3.org/2000/svg" viewBox="0 0 285 209.18"><defs><style>.cls-1{opacity:0.08;}.cls-2{fill:#233348;}.cls-3{fill:#fdc800;}.cls-4{fill:#fff;}.cls-5{opacity:0.7;}.cls-6{opacity:0.4;}.cls-7{opacity:0.7;}.cls-8{fill:#e5eefd;}.cls-9{fill:#717791;}.cls-10{opacity:0.1;}.cls-11{fill:none;}</style></defs><title>Asset 32</title><g id="Layer_2" data-name="Layer 2"><g id="Layer_1-2" data-name="Layer 1"><g class="cls-1"><path class="cls-2" d="M165.41,172.54l79-78.44a12.68,12.68,0,0,1,17.84,0h0a12.45,12.45,0,0,1,0,17.71l-79,78.44a12.69,12.69,0,0,1-17.85,0h0A12.47,12.47,0,0,1,165.41,172.54Z"/><path class="cls-2" d="M32.63,109.24,44.85,97.11a12.68,12.68,0,0,1,17.84,0h0a12.44,12.44,0,0,1,0,17.7L50.47,127a12.68,12.68,0,0,1-17.84,0h0A12.45,12.45,0,0,1,32.63,109.24Z"/><path class="cls-2" d="M171,132.25,207.15,96.4a12.47,12.47,0,0,0,0,17.71,12.68,12.68,0,0,0,17.84,0L188.87,150a12.47,12.47,0,0,0,0-17.71A12.7,12.7,0,0,0,171,132.25Z"/><path class="cls-2" d="M156.64,77.32l32.47-32.23a12,12,0,0,0,0,17,12.17,12.17,0,0,0,17.12,0L173.76,94.31a12,12,0,0,0,0-17A12.16,12.16,0,0,0,156.64,77.32Z"/><path class="cls-2" d="M143.6,124.24l98.74-98a12.69,12.69,0,0,1,17.85,0h0a12.46,12.46,0,0,1,0,17.7l-98.74,98a12.69,12.69,0,0,1-17.85,0h0A12.46,12.46,0,0,1,143.6,124.24Z"/><path class="cls-2" d="M46.59,150.8,181,17.41a12.68,12.68,0,0,1,17.84,0h0a12.44,12.44,0,0,1,0,17.7L64.43,168.51a12.68,12.68,0,0,1-17.84,0h0A12.45,12.45,0,0,1,46.59,150.8Z"/><path class="cls-2" d="M70.35,63l49.87-49.5a12.69,12.69,0,0,1,17.85,0h0a12.47,12.47,0,0,1,0,17.71L88.19,80.69a12.68,12.68,0,0,1-17.84,0h0A12.45,12.45,0,0,1,70.35,63Z"/><path class="cls-2" d="M114.59,152.19l.3-.29a12.68,12.68,0,0,1,17.84,0h0a12.45,12.45,0,0,1,0,17.71l-.3.29a12.68,12.68,0,0,1-17.84,0h0A12.45,12.45,0,0,1,114.59,152.19Z"/></g><path class="cls-3" d="M241.89,167a15.91,15.91,0,0,1-2.92-1.08c-3.18-1.7-2.5-4.93.59-6.73,6.19-3.59,16.28-.62,20,10.8a23.07,23.07,0,0,1,2.76-16.81c4.15-6.84,9.67-7.1,12.61-5.5a5.51,5.51,0,0,1,2.7,6.41c-1,2.71-4.15,3.84-6.48,5.57a12.21,12.21,0,0,0-4.43,12.7c.35-7.1,11.66-9.38,14.59-8.94,3.83.58,4.72,4.3,2.32,6.87-1.89,2-4.63,2.39-7.12,3.29C270,175.92,268,182,262.74,183a5.67,5.67,0,0,1-5.11-1.72c-.87-1-1.09-2.41-1.77-3.54A24.93,24.93,0,0,0,241.89,167Z"/><path class="cls-2" d="M265.31,158.14a27.71,27.71,0,0,0-1.38,4.86,35,35,0,0,0-.54,5,50.17,50.17,0,0,0-.07,5.06c.05,1.69.19,3.38.36,5.08a.57.57,0,0,1-1.14.13c-.22-1.71-.4-3.43-.51-5.15a39.38,39.38,0,0,1,0-5.21,29.85,29.85,0,0,1,.9-5.15,26.35,26.35,0,0,1,1.82-4.89.32.32,0,0,1,.58.26Z"/><path class="cls-2" d="M251.53,167.52a12.23,12.23,0,0,1,3.95,2,13,13,0,0,1,3,3.35,19.32,19.32,0,0,1,2.71,8.46.92.92,0,0,1-1.83.24v0A23.05,23.05,0,0,0,257,173.8a14.83,14.83,0,0,0-2.48-3.17,26.2,26.2,0,0,0-3.25-2.59.28.28,0,0,1-.08-.4A.29.29,0,0,1,251.53,167.52Z"/><path class="cls-2" d="M272.61,171.61a28,28,0,0,0-3.48,2.9,17.29,17.29,0,0,0-2.55,3.85.45.45,0,0,1-.61.19.46.46,0,0,1-.24-.48,10.49,10.49,0,0,1,2.07-4.7,8.32,8.32,0,0,1,1.95-1.79,6.78,6.78,0,0,1,2.41-1,.59.59,0,0,1,.68.45.6.6,0,0,1-.21.57Z"/><path class="cls-4" d="M271.26,187.5l-1.69,7.27a1.27,1.27,0,0,1-1.24,1H258.11a1.25,1.25,0,0,1-1.23-1l-3-13a.76.76,0,0,1,.75-.93h17.25a.76.76,0,0,1,.75.93l-.19.78"/><path class="cls-2" d="M271.67,187.59c.45,1.29-.08,2.35-.28,3.48l-.77,3.36a4.16,4.16,0,0,1-.3,1,2.23,2.23,0,0,1-1.07,1,2.32,2.32,0,0,1-.73.19h-1.38l-3.44,0-3.45,0h-2.18a2.27,2.27,0,0,1-.76-.14,2.32,2.32,0,0,1-1.18-1,2.28,2.28,0,0,1-.26-.69l-.1-.42-.21-.84-.4-1.68-.8-3.35-1.55-6.86a1.78,1.78,0,0,1,.88-1.71,1.86,1.86,0,0,1,.93-.25h5.61l6.89,0h4.77a1.63,1.63,0,0,1,.9.29,1.53,1.53,0,0,1,.63,1.64,2.36,2.36,0,0,1-.49.84.58.58,0,0,1-1-.19l0,0a5.54,5.54,0,0,1-.11-.84.09.09,0,0,0,0,.15.11.11,0,0,0,.09,0h-1.28l-3.45,0-6.89,0-3.45,0h-2.16s.08,0,.11,0a.28.28,0,0,0,.13-.26l1.58,6.58,1.47,6.42a.24.24,0,0,0,.12.1l.08,0h2.14l3.45,0,3.44,0h1.22l.1,0c.15-.11.13,0,.31-.75l.8-3.36c.33-1.1.31-2.28,1.29-3.24a.5.5,0,0,1,.7,0A.58.58,0,0,1,271.67,187.59Z"/><g class="cls-5"><path class="cls-2" d="M141.3,114.78a1.42,1.42,0,0,1-1.4-1.2l-.75-5a1.41,1.41,0,0,1,2.79-.42l.75,5a1.41,1.41,0,0,1-1.18,1.61Z"/><path class="cls-2" d="M138.39,112.65a1.41,1.41,0,0,1-.2-2.81l5.06-.75a1.41,1.41,0,1,1,.41,2.79l-5.06.75Z"/></g><g class="cls-6"><path class="cls-2" d="M143.11,10.39A1.41,1.41,0,0,1,143,8.56l3-4.08a1.41,1.41,0,0,1,2.27,1.68l-3,4.08a1.43,1.43,0,0,1-2,.29A1.07,1.07,0,0,1,143.11,10.39Z"/><path class="cls-2" d="M142.58,6.82a1.41,1.41,0,0,1,1.85-2.12l4.09,3.06A1.41,1.41,0,1,1,146.83,10L142.73,7Z"/></g><path class="cls-2" d="M254.21,53.33a2.43,2.43,0,1,1,2.44-2.43A2.43,2.43,0,0,1,254.21,53.33Zm0-3a.63.63,0,1,0,0,1.25.63.63,0,1,0,0-1.25Z"/><g class="cls-7"><path class="cls-2" d="M40.37,80.74a2.94,2.94,0,1,1,3-2.94A2.95,2.95,0,0,1,40.37,80.74Zm0-4.08a1.14,1.14,0,1,0,1.16,1.14A1.15,1.15,0,0,0,40.37,76.66Z"/></g><g class="cls-5"><path class="cls-3" d="M106.1,90a1.06,1.06,0,0,1-.51-.14,1.07,1.07,0,0,1-.43-1.45l4.18-7.62a1.07,1.07,0,0,1,1.45-.43,1.08,1.08,0,0,1,.43,1.46L107,89.41A1.08,1.08,0,0,1,106.1,90Z"/><path class="cls-3" d="M112,88.23a1,1,0,0,1-.51-.13L103.84,84a1.07,1.07,0,1,1,1-1.88l7.68,4.15a1.07,1.07,0,0,1-.51,2Z"/></g><path class="cls-3" d="M187.54,71.45a2.83,2.83,0,1,1,2.84-2.82A2.83,2.83,0,0,1,187.54,71.45Zm0-3.51a.69.69,0,1,0,.7.69A.7.7,0,0,0,187.54,67.94Z"/><ellipse class="cls-3" cx="73.51" cy="24.52" rx="1.77" ry="1.75"/><path class="cls-2" d="M223.53,7.65c.75-.18,1.5-.3,2.24-.41s1.5-.18,2.25-.24a35.26,35.26,0,0,1,4.48-.08l-1.06.85h0A14.63,14.63,0,0,1,233,3.24,6.73,6.73,0,0,1,237.14.12a5.08,5.08,0,0,1,5.11,1.75,5.16,5.16,0,0,1,1,2.6,13,13,0,0,1,0,2.43,1.08,1.08,0,0,1-2.16,0,5,5,0,0,1,.87-3.3,4.31,4.31,0,0,1,3-1.8,3.8,3.8,0,0,1,3.39,1.32,3.57,3.57,0,0,1,.57,3.68,1.08,1.08,0,0,1-2-.86h0v0a2.13,2.13,0,0,1,1.18-1.08,2.39,2.39,0,0,1,1.4-.08,2.82,2.82,0,0,1,1.84,1.64,4.28,4.28,0,0,1,.35,2,4.38,4.38,0,0,1-.59,2h0l-.94-1.63c2.73-.08,5.47,0,8.2.15s5.47.31,8.2.57a.37.37,0,0,1,0,.73c-2.73.26-5.46.44-8.2.57s-5.47.24-8.2.15h0a1.1,1.1,0,0,1-1.06-1.13,1.2,1.2,0,0,1,.14-.5h0a2.38,2.38,0,0,0,.31-1,2.22,2.22,0,0,0-.17-1,.73.73,0,0,0-.37-.42h-.13s0,0,0-.07l-2-.88a1.43,1.43,0,0,0-.27-1.42A1.6,1.6,0,0,0,245.16,4a2.1,2.1,0,0,0-1.5.89,2.85,2.85,0,0,0-.48,1.85H241c.14-1.43.11-2.77-.5-3.54a3,3,0,0,0-2.91-.94,4.55,4.55,0,0,0-2.76,2.13,12.61,12.61,0,0,0-1.29,3.86h0a1,1,0,0,1-.92.84h-.14A33.51,33.51,0,0,1,228,9c-.75-.06-1.5-.13-2.25-.24s-1.49-.23-2.24-.41a.35.35,0,0,1-.26-.43A.36.36,0,0,1,223.53,7.65Z"/><line class="cls-8" x1="113.93" y1="208.08" x2="159.6" y2="208.08"/><path class="cls-2" d="M113.93,207.46a37.72,37.72,0,0,1,5.71-.33l5.71,0,11.42-.09h17.12a47.36,47.36,0,0,1,5.71.27.82.82,0,0,1,.71.91.83.83,0,0,1-.71.71,47.36,47.36,0,0,1-5.71.27H136.77l-11.42-.09-5.71-.05a37.72,37.72,0,0,1-5.71-.33.62.62,0,0,1-.52-.71A.63.63,0,0,1,113.93,207.46Z"/><line class="cls-8" x1="173.6" y1="208.08" x2="181.97" y2="208.08"/><path class="cls-2" d="M173.6,207.46a1.5,1.5,0,0,1,1-.33l1.05-.06c.7,0,1.4,0,2.09-.08s1.4,0,2.1,0h1a1.81,1.81,0,0,1,1.05.28,1,1,0,0,1,.26,1.36.92.92,0,0,1-.26.26,1.81,1.81,0,0,1-1.05.28h-1c-.7,0-1.4,0-2.1,0s-1.39,0-2.09-.08l-1.05-.06a1.5,1.5,0,0,1-1-.33.82.82,0,0,1-.09-1.15Z"/><line class="cls-8" x1="84.06" y1="208.08" x2="102.66" y2="208.08"/><path class="cls-2" d="M84.06,207.41c3.1-.16,6.2-.22,9.3-.25s6.2,0,9.3.18a.74.74,0,0,1,0,1.48c-3.1.2-6.2.21-9.3.18s-6.2-.09-9.3-.25a.67.67,0,0,1-.64-.7A.68.68,0,0,1,84.06,207.41Z"/><path class="cls-2" d="M47.66,45.15a43.65,43.65,0,0,1-4.94.55,47.9,47.9,0,0,1-4.94.07h-.09a.87.87,0,0,1-.81-.72h0a14,14,0,0,0-1.45-4.34,5.33,5.33,0,0,0-3.22-2.47,3.52,3.52,0,0,0-3.48,1.13c-.75,1-.75,2.52-.61,4.1H26.29a3.44,3.44,0,0,0-.57-2.22,2.6,2.6,0,0,0-1.85-1.1,2.06,2.06,0,0,0-1.87.69,1.85,1.85,0,0,0-.33,1.85L20,43.42a.48.48,0,0,0-.41-.08A1,1,0,0,0,19,44a2.84,2.84,0,0,0,.17,2.47h0a.94.94,0,0,1-.8,1.38c-3,.07-6,0-9-.13s-6-.26-9-.48A.32.32,0,0,1,0,46.88a.31.31,0,0,1,.29-.29c3-.22,6-.37,9-.48s6-.21,9-.13l-.79,1.38h0a4.63,4.63,0,0,1-.24-4.15,2.86,2.86,0,0,1,1.83-1.65,2.41,2.41,0,0,1,1.38.08,2,2,0,0,1,1.15,1h0a.92.92,0,0,1-1.68.74h0a3.68,3.68,0,0,1,.59-3.77,3.9,3.9,0,0,1,3.49-1.35,4.46,4.46,0,0,1,3.15,1.87,5.18,5.18,0,0,1,.9,3.45.9.9,0,0,1-1,.83.92.92,0,0,1-.84-.84,13.4,13.4,0,0,1,0-2.62,5,5,0,0,1,6.35-4.56A7.18,7.18,0,0,1,37,39.75a16.21,16.21,0,0,1,1.68,4.9h0l-.9-.73c1.65-.08,3.29,0,4.94.08a43.65,43.65,0,0,1,4.94.55.3.3,0,0,1,.24.35A.29.29,0,0,1,47.66,45.15Z"/><line class="cls-8" x1="276.47" y1="195.8" x2="281.65" y2="195.8"/><path class="cls-2" d="M276.47,195.14a6.85,6.85,0,0,1,2.59-.35,14.12,14.12,0,0,1,2.59.25.77.77,0,0,1,0,1.51,14.13,14.13,0,0,1-2.59.26,6.86,6.86,0,0,1-2.59-.36.69.69,0,0,1-.4-.9A.73.73,0,0,1,276.47,195.14Z"/><line class="cls-8" x1="31" y1="195.8" x2="273.76" y2="195.8"/><path class="cls-2" d="M31,195.18c10-.29,20-.33,30.06-.33l30.06,0,60.12,0,60.12,0c20,0,42.36-.2,62.4.25a.81.81,0,0,1,0,1.62c-20,.45-42.36.21-62.4.25l-60.12-.05-60.12-.05-30.06,0c-10,0-20,0-30.06-.32a.62.62,0,0,1-.6-.64A.62.62,0,0,1,31,195.18Z"/><line class="cls-8" x1="26.42" y1="195.8" x2="27.17" y2="195.8"/><path class="cls-2" d="M26.42,194.88a1.18,1.18,0,0,1,.75.13.88.88,0,0,1,.37,1.21.94.94,0,0,1-.37.37,1.33,1.33,0,0,1-.75.13.94.94,0,0,1-.83-1A.93.93,0,0,1,26.42,194.88Z"/><line class="cls-8" x1="17.1" y1="195.8" x2="20.87" y2="195.8"/><path class="cls-2" d="M17.1,195.13a9.42,9.42,0,0,1,1.89-.25,5.48,5.48,0,0,1,1.88.17.78.78,0,0,1,0,1.49,5.26,5.26,0,0,1-1.88.18,9.42,9.42,0,0,1-1.89-.25.69.69,0,0,1-.49-.85A.68.68,0,0,1,17.1,195.13Z"/><path class="cls-2" d="M93.06,71.58a5.76,5.76,0,0,1,1.07,3.34,5.85,5.85,0,0,1-1.72,4.13c-1.59,1.59-6.38,4.77-14.14,5l-.09,0a7.75,7.75,0,0,0-.37-2.85c-.42-1.51-1-3.12-.42-4.59.58-1.66,2.29-2.6,3.68-3.69a13.34,13.34,0,0,0,.13-21,10.45,10.45,0,0,1-5.93,6c-2.66,1-5.92,1.07-7.82,3.19-1.24,1.36-1.62,3.3-2.84,4.69a5.14,5.14,0,0,1-5.3,1.45c.3,1.9,1.85,3.37,3.34,4.62s3.11,2.57,3.65,4.44A8.61,8.61,0,0,1,66.59,78c.12,1.4.24,2.8.37,4.19v.07l-.69-.1c-1,1.33-3.63,2.26-4.81,2.66-2.33.8-5.1-1-5.26-2.14a8.79,8.79,0,0,1-3.64-16,8.4,8.4,0,0,1-.15-1.51A7.8,7.8,0,0,1,58,57.67,16.94,16.94,0,0,1,74.78,43C83.89,43,89.6,50.1,90,59a7.72,7.72,0,0,1,3,12.54Z"/><path class="cls-9" d="M66.55,74.91l-.18,0c-2.69-.82-4.21-2-7.85-7.14a.65.65,0,0,1,.16-.9.64.64,0,0,1,.89.16c3.64,5.18,4.92,6,7.17,6.65a.64.64,0,0,1-.19,1.25Z"/><path class="cls-9" d="M77.12,75.55a.66.66,0,0,1-.63-.49.65.65,0,0,1,.47-.78c4-1,6.59-3.23,7.68-6.67,1.68-5.33-.79-12.6-3.3-15.47a.64.64,0,1,1,1-.84C85,54.32,87.75,62,85.86,68c-1.21,3.84-4.18,6.44-8.59,7.53Z"/><path class="cls-2" d="M92.19,78.83a5.47,5.47,0,0,0,1.41-3.44A5.21,5.21,0,0,0,92.5,72h0a.71.71,0,0,1,.05-.87h0A6.92,6.92,0,0,0,89.7,59.9h0a.94.94,0,0,1-.58-.81A17.3,17.3,0,0,0,85,48.45a13.2,13.2,0,0,0-10.12-4.38,15.84,15.84,0,0,0-10.47,4,15.6,15.6,0,0,0-5.2,9.82h0v.09a1.23,1.23,0,0,1-.89,1,6.68,6.68,0,0,0-4.86,7.54h0v0a.91.91,0,0,1-.39.91,7.93,7.93,0,0,0-1,12.42,8.22,8.22,0,0,0,4.28,2.11h0l.17,0a.54.54,0,0,1,.43.57,1.9,1.9,0,0,0,.62.76,5,5,0,0,0,1.15.69,3.83,3.83,0,0,0,2.57.21h0a.6.6,0,0,1,.38,1.14,5.1,5.1,0,0,1-3.45-.12,6.56,6.56,0,0,1-1.51-.83,2.89,2.89,0,0,1-1.19-1.65l.61.61h0A9.67,9.67,0,0,1,51,81a9.43,9.43,0,0,1-2.9-4.88,9.58,9.58,0,0,1,.38-5.7A9.87,9.87,0,0,1,52,65.87l-.39.95h0a8.7,8.7,0,0,1,.94-6.26,9.06,9.06,0,0,1,5-4.1l-.9,1.07h0A18.14,18.14,0,0,1,74.91,41.86a16.37,16.37,0,0,1,6.38,1.35,14.84,14.84,0,0,1,5.24,3.9A19.21,19.21,0,0,1,90.94,59l-.6-.82h0a8.88,8.88,0,0,1,3.45,2.41,8.5,8.5,0,0,1,1.82,7.88,8.67,8.67,0,0,1-2,3.59l0-.88h0a6.43,6.43,0,0,1,1,4.3,6.29,6.29,0,0,1-2,3.8.32.32,0,0,1-.44-.45Z"/><path class="cls-3" d="M89,151.88c-2.28,2.64-6.16,3.06-9.66,3.29l-10.7.71c-2.56.17-5.25.32-7.59-.73-3.84-1.71-5.65-6.17-6-10.33-.65-7.3,2-14.45,4.06-21.48s3.59-14.78.8-21.57c-.29,2.09-3.3,2.89-5,1.67s-2.25-3.58-2-5.67A11.16,11.16,0,0,1,59,89.15c3.19-1.49,6.32-3.31,8.11-6.49,1.57-2.76,1.41-6.75-1.19-8.58-1.63-1.15-4.07-1.41-4.9-3.23-.55-1.19-.92-3.12.41-3.06,2.08.11,3-1.69,3.54-2.93,1.8-4.24,8-5,12.38-7.27,2.48-1.28,3.14-3.91,5-5.74a14.77,14.77,0,0,1,1.35,19.21c-2.16,2.73-5.42,4.87-6.14,8.26A8.45,8.45,0,0,0,80,86.57a19.25,19.25,0,0,0,5.28,3.72,6.27,6.27,0,0,0,.59,3.2c.55,1.12,1.46,2,2,3.17a5,5,0,0,1,.34,1,1.84,1.84,0,0,1,.53-.36l-.33,1.7c0,.37.06.74.07,1.11s0,.72,0,1.08a2.07,2.07,0,0,1-.43-.5A71.3,71.3,0,0,0,86.53,116c.27,9.15,3.51,18,4.3,27.09C91.1,146.14,91,149.54,89,151.88Z"/><path class="cls-4" d="M60.23,67A3.86,3.86,0,0,0,61,69.92c1.06,1.33,2.86,1.84,4.16,3a6.89,6.89,0,0,1,2.16,5.41A12.6,12.6,0,0,1,65.52,84c-1,1.73-2.24,3.51-2,5.49A7.59,7.59,0,0,0,65,92.93c1.31,1.9,2.71,3.75,4.19,5.52,1.64,2,3.54,3.92,6,4.47a7.32,7.32,0,0,0,7.54-3.36,9.39,9.39,0,0,0,.53-8.42c-1-2.51-2.91-4.57-4.2-7s-1.91-5.49-.31-7.69a13.61,13.61,0,0,1,2.72-2.4,14.67,14.67,0,0,0,3-19.62,4.2,4.2,0,0,0-3-2.16c-1.1,0-1.07,1.9-1.78,2.73s-1.46,1.45-2.21,2.25c-2.86,3.07-9.13,2-11.47,5.52a27.58,27.58,0,0,1-1.7,2.95A4.1,4.1,0,0,1,60,66.89"/><path class="cls-4" d="M61.94,155.06c-.24,11.72,1.93,40.12,5.64,40.11,3.3,0,3.09-30.52,3.08-40.3"/><path class="cls-2" d="M67.58,196.45a2.26,2.26,0,0,1-1.63-.74c-4-4-5.48-31.8-5.29-40.68a1.28,1.28,0,0,1,1.28-1.26h0a1.28,1.28,0,0,1,1.25,1.31c-.27,12.86,1.94,34.8,4.23,38.45,1-2.24,2-10.86,1.93-37.23v-1.43a1.28,1.28,0,0,1,1.28-1.28h0a1.28,1.28,0,0,1,1.28,1.28v1.42c0,5.33,0,15.26-.36,23.63-.69,15.28-2.22,16.53-4,16.53Zm.24-2.5h0Z"/><path class="cls-4" d="M76.08,155c-.25,11.7,1.93,40.18,5.64,40.17,3.33,0,3.09-31,3.08-40.56"/><path class="cls-2" d="M81.72,196.45a2.26,2.26,0,0,1-1.63-.74c-4-4-5.48-31.85-5.29-40.74a1.28,1.28,0,0,1,1.28-1.25h0A1.27,1.27,0,0,1,77.36,155c-.27,12.87,1.93,34.86,4.24,38.5,1-2.23,2-10.86,1.93-37.24v-1.68a1.3,1.3,0,0,1,1.28-1.29h0a1.29,1.29,0,0,1,1.29,1.29v1.68c0,5.71,0,15.26-.35,23.63-.7,15.29-2.23,16.53-4,16.53ZM82,194h0Z"/><path class="cls-2" d="M76.29,104.28c-3,0-5.86-1.64-8-4.54-3.88-5.28-4.95-7.21-6.32-10.07a3.39,3.39,0,0,1-.33-2.91,2.43,2.43,0,0,1,1.88-1.19,1.69,1.69,0,0,0,.34-.08h0s3-3.24,2.17-10.36L66,74.69a1.29,1.29,0,0,1,1.15-1.41,1.26,1.26,0,0,1,1.4,1.14l0,.4c.91,7.58-2.09,11.84-3.21,12.73a2.88,2.88,0,0,1-1.29.52,4,4,0,0,0,.21.5c1.29,2.71,2.31,4.55,6.06,9.65,1.7,2.31,3.94,3.59,6.16,3.49a6.35,6.35,0,0,0,5.1-3.4c2.87-4.7-2-11.21-3.4-12.57s-1.46-3.5-1.54-6a34.91,34.91,0,0,0-.27-3.9c0-.18,0-.36-.07-.54A1.28,1.28,0,0,1,78.89,75l.06.47a36.46,36.46,0,0,1,.29,4.18c.06,1.92.12,3.57.78,4.23,1.76,1.75,7.57,9.54,3.79,15.73a8.84,8.84,0,0,1-7.18,4.62Z"/><path class="cls-2" d="M61,156.36a5.92,5.92,0,0,1-5.69-4.84C52,138,54.16,132.1,56.42,125.88a65.13,65.13,0,0,0,2.24-7.14,42,42,0,0,0,1-12.66c0-1.51-.09-3.23-.09-5.19a1.28,1.28,0,1,1,2.56,0c0,1.92,0,3.62.1,5.12a44.94,44.94,0,0,1-1.05,13.32,66.92,66.92,0,0,1-2.33,7.42c-2.22,6.1-4.12,11.38-1.07,24.18A3.43,3.43,0,0,0,61,153.79l23.78-.54a3.32,3.32,0,0,0,3.07-2.54c3.09-10.52.93-17.11-1.17-23.47-2-6-3.82-11.64-.65-19.44,2.89-7.11,1.06-14.31-4.55-17.92a1.28,1.28,0,1,1,1.38-2.16c6.59,4.23,8.87,12.89,5.55,21-2.82,6.92-1.19,11.9.71,17.67,2.11,6.42,4.5,13.7,1.19,25a5.9,5.9,0,0,1-5.47,4.38l-23.78.55Z"/><path class="cls-2" d="M78.05,104a1.2,1.2,0,0,1-.6-.16,1.26,1.26,0,0,1-.52-1.73,3.36,3.36,0,0,0-.8-3.32,1.28,1.28,0,1,1,2-1.57c1.76,2.27,1.78,4.7,1,6.1A1.31,1.31,0,0,1,78.05,104Z"/><path class="cls-2" d="M67.19,75.78a1.22,1.22,0,0,1-.37,0c-2.82-.85-4.39-2-8.11-7.31a1.28,1.28,0,1,1,2.1-1.48c3.5,5,4.63,5.7,6.75,6.33a1.29,1.29,0,0,1,.86,1.6A1.28,1.28,0,0,1,67.19,75.78Z"/><path class="cls-2" d="M77.64,76.41a1.28,1.28,0,0,1-.3-2.52c3.73-.92,6.13-3,7.13-6.17,1.71-5.45-1.09-12.35-3.13-14.69a1.28,1.28,0,1,1,1.92-1.69c2.73,3.1,5.59,11,3.66,17.15-1.27,4-4.37,6.75-9,7.88A1.06,1.06,0,0,1,77.64,76.41Z"/><path class="cls-2" d="M55,105.91a1.14,1.14,0,0,1-.26,0,1.29,1.29,0,0,1-.86-.63,20.71,20.71,0,0,1-2.52-8.73,1.26,1.26,0,0,1,.28-.83A42.91,42.91,0,0,1,62,86.38l.1-.06a1.29,1.29,0,0,1,1.78.34,1.27,1.27,0,0,1-.32,1.76l-.19.12A40,40,0,0,0,54,96.92a18.78,18.78,0,0,0,1.49,5.76,27.87,27.87,0,0,1,4.44-2.79A1.28,1.28,0,0,1,61,102.21h0a30.63,30.63,0,0,0-5.18,3.43A1.28,1.28,0,0,1,55,105.91Z"/><path class="cls-2" d="M61.06,130.46h-.18c-2.17-.31-3.61-1.08-4.4-2.37a5.56,5.56,0,0,1-.35-4.39c-7-4.21-8.38-9.78-8.56-12.79a12.75,12.75,0,0,1,4.77-11,1.28,1.28,0,1,1,1.5,2.08,10.14,10.14,0,0,0-3.71,8.77c.28,4.51,3.16,8.5,8.13,11.22a1.28,1.28,0,0,1,.6,1.54c-.52,1.51-.58,2.6-.19,3.24a3.46,3.46,0,0,0,2.57,1.17,1.28,1.28,0,0,1-.18,2.55Z"/><path class="cls-2" d="M89,95a3.76,3.76,0,0,0,2.79.09,2,2,0,0,0,.74-.87,4.67,4.67,0,0,0,.33-1.48,14.29,14.29,0,0,0-1.75-6.89A19.24,19.24,0,0,0,86.59,80a13.7,13.7,0,0,0-6.36-3.21,1.29,1.29,0,0,1-1-1.51,1.25,1.25,0,0,1,.17-.43l0-.07h0a5.22,5.22,0,0,0,.9-2.93,1.09,1.09,0,0,0-.44-.88,4,4,0,0,0-1.5-.5H78.3a.66.66,0,0,1-.52-.77.68.68,0,0,1,.44-.5,3.74,3.74,0,0,1,2.53-.06,3.15,3.15,0,0,1,1.86,2.31A5.4,5.4,0,0,1,82.54,74a6.47,6.47,0,0,1-1,2.27h0l-.8-2a16.37,16.37,0,0,1,7.57,3.79,21.73,21.73,0,0,1,5.09,6.59,16.66,16.66,0,0,1,2,8.24,7.32,7.32,0,0,1-.56,2.34,4.46,4.46,0,0,1-1.81,2,4.92,4.92,0,0,1-2.59.56,11.37,11.37,0,0,1-1.19-.15l-1.09-.31a1.28,1.28,0,0,1,.69-2.47l.09,0Z"/><path class="cls-2" d="M62.49,68.94a16.41,16.41,0,0,1-3.15-.38,1.28,1.28,0,0,1,.5-2.52c3.89.78,4.47.1,4.91-1,.13-.33.24-.66.34-1,.67-2.06,1.5-4.62,6.81-5.89,5.15-1.23,6.32-1.67,8.45-6.64a1.28,1.28,0,0,1,2.36,1c-2.59,6-4.65,6.79-10.22,8.13-3.91.93-4.37,2.36-5,4.18-.12.38-.24.76-.39,1.14A4.48,4.48,0,0,1,62.49,68.94Z"/><path class="cls-4" d="M210.14,52.58a14,14,0,0,0-7.57,7c-1.73,3.64-1.76,7.81-2,11.83-.15,2.42-.45,5-2.08,6.82a3.46,3.46,0,0,0-1,1.41,1.84,1.84,0,0,0,.78,1.77,7.75,7.75,0,0,0,1.82.91,13.28,13.28,0,0,1,7.45,8.27c.38,1.27.72,2.78,1.94,3.31a3,3,0,0,0,3.13-.91,29.68,29.68,0,0,0,2-2.79c1.81-2.29,4.72-3.38,7.4-4.56s5.5-2.75,6.6-5.46a12.1,12.1,0,0,0,.7-3.59c.18-2-.21-4.63.65-6.4,1.85-3.84.57-7.86-1.54-11.34-1.8-3-5.11-4.78-8.51-5.54a39.4,39.4,0,0,0-10.41-.44"/><path class="cls-4" d="M196.45,78.93l-7.73,2c-2.47.64-5.12,1.4-6.63,3.44-2.06,2.79-1.1,6.69-.05,10l10.31-1.13a155.39,155.39,0,0,0-6.68,28.55c-.35,2.57-.58,5.37.81,7.56s4.37,3.29,7.07,4a88.1,88.1,0,0,0,32.11,1.86c2.41-.3,5-.85,6.49-2.77,1.34-1.76,1.3-4.17,1.19-6.37l-.62-12.65c-.15-3.2-.13-6.86,2.27-9,1.37-1.22,3.25-1.67,4.95-2.39s3.42-1.94,3.68-3.75-1-3.43-2.18-4.82L235.12,86c-2-2.28-5.12-4.55-7.07-6.83-4.16,2-7.11,4-11.27,6.07a12.32,12.32,0,0,0-4.37,3c-2.31,2.87-1.65,7.27-3.8,10.26,0-3.73-.1-7.58-1.62-11-1.7-3.8-5.49-6.46-9.07-8.74Z"/><path class="cls-2" d="M188.91,134.18l4.33,35.2c1.06,8.62,2.14,17.34,5.25,25.46a2.93,2.93,0,0,0,2.63-1.5,8.13,8.13,0,0,0,.9-3,136.16,136.16,0,0,0,1.14-32.83,9.15,9.15,0,0,1,1.64-5.1c1.09-1.45,2.19-.88,4-.94,1.46-.05,3.07-.05,4.19.87,1.32,1.07,1.5,3,1.61,4.66a122,122,0,0,0,9,38.45c2.35-.86,3.15-3.71,3.54-6.17,1.42-9,1.56-18.07,1.7-27.15l.42-27.29c-7.92.69-15.89,1.37-23.8.66a68.08,68.08,0,0,1-16-3.4c-.48,1.41-.09.28-.57,1.68"/><path class="cls-3" d="M233.14,58.22c-.21-2.52.62-.37-1.93-6.29a20.66,20.66,0,0,0-1.33-1.78,15.63,15.63,0,0,0-1.22-1.29,8.56,8.56,0,0,0-4.3-2.6c-.73-.23,1.3.73-1,.35-8.45-1.42-9.79-1.43-14.43.28l-2.83,1.59a9.93,9.93,0,0,0-2.68-3.74c-1-.65-2.3,1.74-.78,8.83-.12,1.36-1,.74.65,2.19.12.17.23.35.36.52l.11-.28,1.93-.82s.47-1.15,1-1.13.57-.58,1.49,0S210,55.48,210.79,56s.21.78,2.19,1.18,1.63.81,3.45.58c1.33-.18,4.44-.89,7-.45,1.33.22,1.08-1.92,1.58.33a25.14,25.14,0,0,1,.75,3.25c.21,1.59-.27,2.39,0,2.91,1.17,2.38-1.05,1.75,1.33,4.31a4,4,0,0,0,1.74,2.53c.37.3.59-.26.59-.26.31-.76.14.57.45-.1,1.43-3,1.82-5,2.88-7.67C233.49,60.8,233.31,60.07,233.14,58.22Z"/><path class="cls-2" d="M190.36,131.05c.62,8.93,1.45,17.87,2.46,26.77s2.13,17.82,3.93,26.52c.47,2.16,1,4.32,1.63,6.36a12.19,12.19,0,0,0,1.19,2.71,2,2,0,0,0,.28.34,1,1,0,0,0-.25,0s-.08,0-.08,0,0,0,0,0a.36.36,0,0,1,.1-.11,1.91,1.91,0,0,0,.15-.21,9.24,9.24,0,0,0,1-2.68q.36-1.54.6-3.18c.31-2.16.5-4.38.66-6.59.3-4.44.42-8.92.5-13.4s-.19-9,.83-13.46a.56.56,0,0,1,1.1,0c1,4.49.73,9,.76,13.49s-.13,9-.4,13.55c-.15,2.26-.32,4.53-.64,6.81-.15,1.14-.36,2.29-.62,3.45a11.31,11.31,0,0,1-1.36,3.6,4.81,4.81,0,0,1-.34.49c-.16.16-.32.33-.49.48a3.53,3.53,0,0,1-.71.43,3.14,3.14,0,0,1-.89.22,2.27,2.27,0,0,1-1-.18A2.6,2.6,0,0,1,198,196a4.52,4.52,0,0,1-.82-.93,14.31,14.31,0,0,1-1.56-3.42,56.71,56.71,0,0,1-1.75-6.68C192,176,191,167.09,190,158.13s-1.68-17.93-2.07-26.95a1.23,1.23,0,0,1,2.46-.14Z"/><path class="cls-2" d="M201.08,149.33l3.13.87a20.55,20.55,0,0,0,3,.6,9.45,9.45,0,0,0,2.84-.17c1-.19,2.07-.43,3.18-.58a1.22,1.22,0,0,1,1.46.93.57.57,0,0,1,0,.18v0c.3,4.4,1,8.86,1.66,13.28s1.53,8.83,2.48,13.2a99.86,99.86,0,0,0,3.51,12.84,16.38,16.38,0,0,0,1.33,2.82,3.66,3.66,0,0,0,.37.49c.11.13.23.17.14.14s-.07,0-.1,0h.06a.58.58,0,0,0,.14,0,.75.75,0,0,0,.26-.17,5.75,5.75,0,0,0,1.12-2.42,28.22,28.22,0,0,0,.63-3.17c.62-4.35.83-8.85,1-13.32s.27-9,.33-13.47c.12-9,.12-18,.1-27a1.23,1.23,0,1,1,2.46,0h0c0,9,0,18-.1,27-.06,4.51-.15,9-.33,13.53a136.23,136.23,0,0,1-1,13.6,28.85,28.85,0,0,1-.69,3.45,12,12,0,0,1-.61,1.77,5.42,5.42,0,0,1-1.2,1.81,3.36,3.36,0,0,1-1.16.7,2.82,2.82,0,0,1-.69.14,2.07,2.07,0,0,1-.36,0,2.17,2.17,0,0,1-.52-.08,2.68,2.68,0,0,1-1.23-.81,5.89,5.89,0,0,1-.66-.84,18.72,18.72,0,0,1-1.56-3.28,103.28,103.28,0,0,1-3.61-13.19q-1.44-6.65-2.51-13.34c-.71-4.48-1.37-8.93-1.69-13.52l1.49,1.13h0a28.18,28.18,0,0,1-3.23.82,9.55,9.55,0,0,1-3.69,0,13.51,13.51,0,0,1-3.32-1.21,22,22,0,0,1-2.89-1.72.56.56,0,0,1-.15-.78A.58.58,0,0,1,201.08,149.33Z"/><path class="cls-2" d="M200.19,79.45c-3,.49-6,1-8.89,1.59-1.45.31-2.86.69-4.3,1.13l-4.35,1.33.82-.79a13.4,13.4,0,0,0-.51,2.58c-.11.91-.17,1.84-.19,2.77s0,1.87,0,2.8a25.71,25.71,0,0,0,.24,2.72l-1.18-1c3.54.09,7.11.11,10.65,0a1.22,1.22,0,0,1,1.27,1.19,1.11,1.11,0,0,1-.11.55v0h0A68,68,0,0,0,189,108.21a98.16,98.16,0,0,0-2.19,14.57c-.1,1.22-.17,2.45-.22,3.68a3.35,3.35,0,0,0,.07,1.38,2.34,2.34,0,0,0,.62,1,2.43,2.43,0,0,0,.49.35,2.24,2.24,0,0,0,.27.13l.43.17,1.73.68c1.15.44,2.31.89,3.47,1.31a43.65,43.65,0,0,0,14.1,3.15c2.42.1,4.89,0,7.36-.1s4.91-.3,7.36-.57,4.87-.62,7.28-1.09l.9-.18a2.07,2.07,0,0,0,.53-.18,1.76,1.76,0,0,0,.74-.74,2.73,2.73,0,0,0,.23-1.29l.09-1.85a140.5,140.5,0,0,0-.13-14.8c-.15-2.45-.39-4.9-.77-7.32s-.81-4.79-1.14-7.24h0a.79.79,0,0,1,.68-.9.81.81,0,0,1,.83.44,25.63,25.63,0,0,1,2.11,7.33c.4,2.51.66,5,.83,7.53a145.94,145.94,0,0,1,.19,15.08l-.08,1.88a5.36,5.36,0,0,1-.5,2.34,4.39,4.39,0,0,1-1.85,1.87,4.48,4.48,0,0,1-1.22.44l-.94.19c-2.48.49-5,.87-7.48,1.16s-5,.49-7.54.61-5,.22-7.58.11a36.79,36.79,0,0,1-7.66-1.05,67.44,67.44,0,0,1-7.27-2.27c-1.18-.43-2.35-.89-3.52-1.34l-1.75-.69-.43-.17a6.11,6.11,0,0,1-.58-.27,5.36,5.36,0,0,1-1-.75,4.94,4.94,0,0,1-1.34-2.14,4.83,4.83,0,0,1-.23-1.26c0-.49,0-.7,0-1,.06-1.26.13-2.52.24-3.78a99.44,99.44,0,0,1,2.35-14.94,71.26,71.26,0,0,1,4.93-14.38h0L192.57,95c-3.61.11-7.2.09-10.81,0h0a1.22,1.22,0,0,1-1.17-1,26.82,26.82,0,0,1-.27-3c0-1,0-2,0-3s.08-2,.2-3a16.08,16.08,0,0,1,.62-3.07,1.19,1.19,0,0,1,.79-.78h0l4.34-1.33c1.46-.45,3-.85,4.49-1.17,3-.65,6-1.12,9-1.62a1.23,1.23,0,1,1,.4,2.43Z"/><path class="cls-2" d="M229.54,80.1a51,51,0,0,1,9.14,8,31.85,31.85,0,0,1,6.5,10.39h0a1.18,1.18,0,0,1-.41,1.39l0,0c-1.45,1-2.93,2-4.47,2.94a22.75,22.75,0,0,1-4.84,2.4.69.69,0,0,1-.64-1.2h0c1.35-1.12,2.83-2,4.25-3l4.25-3.08-.44,1.41h0a29.38,29.38,0,0,0-6-9.56,49.46,49.46,0,0,0-8.69-7.58h0a1.23,1.23,0,0,1,1.39-2Z"/><path class="cls-2" d="M229.79,73.19a35.27,35.27,0,0,1,.45,3.84,15,15,0,0,1-.07,3.84,1.23,1.23,0,0,1-2.44-.11v-.13a13.59,13.59,0,0,1,.29-3.71,33.52,33.52,0,0,1,.79-3.73v0a.5.5,0,0,1,1,0Z"/><path class="cls-2" d="M200,79.47h0a1.24,1.24,0,0,1-1.23-1.24c0-6.29.69-15.25,3.71-22.2a1.23,1.23,0,1,1,2.26,1c-2.85,6.57-3.48,15.17-3.51,21.23A1.23,1.23,0,0,1,200,79.47Z"/><path class="cls-2" d="M207.32,74.33a5.13,5.13,0,0,0,2.54,1.07,9.72,9.72,0,0,0,3.35-.06h.06a.59.59,0,0,1,.69.47.62.62,0,0,1-.15.51,5,5,0,0,1-4.27,1.43,5.41,5.41,0,0,1-2.26-.73,3.34,3.34,0,0,1-1.64-2.16.84.84,0,0,1,.67-1,.85.85,0,0,1,.74.22Z"/><path class="cls-2" d="M247.41,143a1.23,1.23,0,0,1-1.22-1.15c-.08-1.1-.49-2.18-3-2.56a1.24,1.24,0,0,1-.82-.51,1.28,1.28,0,0,1-.2-1c4-20.43.31-27.6-4.54-34.26a1.23,1.23,0,1,1,2-1.44c4.9,6.74,9,14.51,5.18,35a4.84,4.84,0,0,1,3.79,4.55A1.22,1.22,0,0,1,247.5,143Z"/><path class="cls-2" d="M164.73,93a24.85,24.85,0,0,1-4.34-.35,14.1,14.1,0,0,1-8.23-4.21,5,5,0,0,1-1.93.94A8.11,8.11,0,0,1,143,87.53a1.23,1.23,0,0,1,1.73-1.76A5.64,5.64,0,0,0,149.61,87c.42-.11,1.15-.38,1.32-.95a1.24,1.24,0,0,1,1-.87,1.22,1.22,0,0,1,1.21.53c1.59,2.37,4.17,3.89,7.68,4.51,7.8,1.39,18-2.12,19.92-3.54a1.23,1.23,0,1,1,1.44,2C180.08,90.16,172.23,93,164.73,93Z"/><path class="cls-2" d="M212.53,85.07c2.16-.69,4.36-1.55,6.53-2.46l6.53-2.82a.61.61,0,0,1,.7,1,21.33,21.33,0,0,1-6.1,4.29,30.65,30.65,0,0,1-3.44,1.47,19.59,19.59,0,0,1-3.69,1,1.23,1.23,0,0,1-.56-2.39Z"/><path class="cls-2" d="M206.5,86.38a19.49,19.49,0,0,1-3.18-2.25,34.05,34.05,0,0,1-2.76-2.61.76.76,0,0,1,1-1.11,31.07,31.07,0,0,0,2.91,2.1,24.92,24.92,0,0,0,3.07,1.66,1.23,1.23,0,0,1-1,2.27Z"/><path class="cls-2" d="M194.9,136.06a3.61,3.61,0,0,1-.72,2.39,3.31,3.31,0,0,1-.86.89,2.33,2.33,0,0,1-1.24.46.73.73,0,0,1-.74-.69.86.86,0,0,1,.08-.36l.07-.12a4.58,4.58,0,0,1,1.31-1.42l1.6-1.33,0,0a.31.31,0,0,1,.42,0A.27.27,0,0,1,194.9,136.06Z"/><path class="cls-2" d="M223.11,137.08a13.14,13.14,0,0,0,1.7,2,7.64,7.64,0,0,0,2,1.43l.13.06a.63.63,0,0,1-.13,1.17,3.17,3.17,0,0,1-1.89-.22,4.7,4.7,0,0,1-1.49-1,4.23,4.23,0,0,1-1.33-3.2.55.55,0,0,1,.58-.51.52.52,0,0,1,.4.23Z"/><path class="cls-2" d="M209.54,100.62h-.07a1.24,1.24,0,0,1-1.16-1.18,83.64,83.64,0,0,0-2.23-13.76,1.23,1.23,0,1,1,2.4-.57c.31,1.3.83,3.62,1.31,6.26a27,27,0,0,1,1.81-5.59,1.23,1.23,0,1,1,2.24,1c-1.28,2.78-1.92,5.77-3.08,12.78A1.23,1.23,0,0,1,209.54,100.62Z"/><path class="cls-2" d="M214.39,90.79a1.23,1.23,0,0,1-1-1.87,1.27,1.27,0,0,1,1.72-.46,1.18,1.18,0,0,1,.44,1.64l-.06.1A1.23,1.23,0,0,1,214.39,90.79Z"/><path class="cls-2" d="M214.39,95.93a1.23,1.23,0,0,1-1-1.88,1.28,1.28,0,0,1,1.72-.46,1.2,1.2,0,0,1,.44,1.65l-.06.09A1.24,1.24,0,0,1,214.39,95.93Z"/><path class="cls-2" d="M205.48,47.06a10.11,10.11,0,0,0-1.35-1.93,5.84,5.84,0,0,0-1.62-1.36.56.56,0,0,0-.24-.09h.06a.84.84,0,0,0,.37-.08l.13-.07h0a3.07,3.07,0,0,0-.35.76,10.56,10.56,0,0,0-.43,2.25,14.28,14.28,0,0,0,.37,4.74,12.28,12.28,0,0,0,.84,2.24,18.34,18.34,0,0,1,1.1,2.17v.05a.86.86,0,0,1-1.28,1,5.73,5.73,0,0,1-1.79-2.18,14.48,14.48,0,0,1-1.77-8.24,10.9,10.9,0,0,1,.6-2.86A4.78,4.78,0,0,1,201,41.9a2.19,2.19,0,0,1,.65-.5,1.52,1.52,0,0,1,.68-.15,1.87,1.87,0,0,1,.39,0,3.41,3.41,0,0,1,1,.4,6.71,6.71,0,0,1,2.12,2.24,7.4,7.4,0,0,1,1,2.72.71.71,0,0,1-.59.81.7.7,0,0,1-.73-.36Z"/><path class="cls-2" d="M209.44,54.07a10.36,10.36,0,0,0,3.6,1.5,14.19,14.19,0,0,0,1.94.29c.66,0,1.31,0,2,.11a14.29,14.29,0,0,0,2.06,0l2.12-.1c1.41-.07,2.82-.14,4.23-.23a1,1,0,0,1,1,1.24l0,.06h0l-.17,2.73a24.86,24.86,0,0,0,0,2.73,13.38,13.38,0,0,0,1.47,5.3h0a.48.48,0,0,1-.2.64.49.49,0,0,1-.53-.06,9.8,9.8,0,0,1-3-5.57,11.46,11.46,0,0,1-.21-3.2,9.86,9.86,0,0,1,.72-3.15h0l1,1.3c-1.42.06-2.83.13-4.24.21s-2.76.14-4.28.26a12,12,0,0,1-4.46-.7A10.26,10.26,0,0,1,208.63,55a.63.63,0,0,1,.8-1Z"/><path class="cls-2" d="M203.88,56.13a17,17,0,0,1,1.48-1.93c.27-.3.54-.59.82-.87a1.06,1.06,0,0,1,1.2-.48h.07a1.22,1.22,0,0,1,1,1,1.15,1.15,0,0,1-.53,1.25c-.31.28-.64.54-1,.8a9.22,9.22,0,0,1-2.24,1.25.66.66,0,0,1-.79-1Z"/><path class="cls-2" d="M206.79,45.79a9.4,9.4,0,0,1,2.68-1.53,12.75,12.75,0,0,1,2.95-.79,21.82,21.82,0,0,1,6,0,20.59,20.59,0,0,1,11.13,4.74,14.13,14.13,0,0,1,3.65,5.1,14.58,14.58,0,0,1,1.09,6.16,21.9,21.9,0,0,1-3.86,11.36.71.71,0,0,1-1,.19.72.72,0,0,1-.25-.89l0,0a34.87,34.87,0,0,0,1.84-5.26,21.9,21.9,0,0,0,.79-5.4A12.07,12.07,0,0,0,228,50a18.58,18.58,0,0,0-9.79-4.45,21.57,21.57,0,0,0-5.5-.15,15.21,15.21,0,0,0-5.25,1.37h0a.57.57,0,0,1-.76-.26A.55.55,0,0,1,206.79,45.79Z"/><path class="cls-3" d="M94.47,36.27a19.84,19.84,0,0,1,3.45,0,32.78,32.78,0,0,1,3.4.5c1.12.2,2.24.45,3.36.74a31.71,31.71,0,0,1,3.32,1,.46.46,0,0,1,.26.6.44.44,0,0,1-.37.29,31.45,31.45,0,0,1-3.48.18c-1.15,0-2.3,0-3.44-.13s-2.28-.19-3.41-.36a19.69,19.69,0,0,1-3.35-.81A1.08,1.08,0,0,1,93.57,37,1.06,1.06,0,0,1,94.47,36.27Z"/><path class="cls-3" d="M103.57,30.42a18.9,18.9,0,0,1,4.56,2.4A28.68,28.68,0,0,1,112.18,36a.46.46,0,0,1,0,.65.47.47,0,0,1-.49.11A29.32,29.32,0,0,1,107,34.57a18.9,18.9,0,0,1-4.16-3,.68.68,0,0,1,0-1A.67.67,0,0,1,103.57,30.42Z"/><path class="cls-3" d="M106.57,21.31a21.49,21.49,0,0,1,3.24,4.44,34.26,34.26,0,0,1,2.42,4.94.46.46,0,0,1-.27.59.44.44,0,0,1-.49-.11,34,34,0,0,1-3.41-4.32,21.87,21.87,0,0,1-2.6-4.84.67.67,0,0,1,.41-.85A.69.69,0,0,1,106.57,21.31Z"/><path class="cls-3" d="M185.83,9.78A19.28,19.28,0,0,1,184.5,13c-.53,1-1.1,2-1.72,2.93s-1.27,1.9-1.94,2.82a31,31,0,0,1-2.2,2.68.47.47,0,0,1-.66,0,.46.46,0,0,1-.12-.46A29.3,29.3,0,0,1,179,17.67c.43-1.06.89-2.11,1.4-3.13a33.11,33.11,0,0,1,1.6-3,18.69,18.69,0,0,1,2-2.78,1.07,1.07,0,0,1,1.83,1Z"/><path class="cls-3" d="M187.92,20.34A18.47,18.47,0,0,1,184,23.65a29.6,29.6,0,0,1-4.5,2.54.47.47,0,0,1-.61-.24.46.46,0,0,1,.08-.49A29.14,29.14,0,0,1,182.78,22a18.85,18.85,0,0,1,4.38-2.7.68.68,0,0,1,.88.37A.69.69,0,0,1,187.92,20.34Z"/><path class="cls-3" d="M195.33,26.48A21.31,21.31,0,0,1,190,27.82a32.7,32.7,0,0,1-5.52.39.46.46,0,0,1-.16-.88,33.6,33.6,0,0,1,5.32-1.54,21.32,21.32,0,0,1,5.48-.59.66.66,0,0,1,.64.7A.66.66,0,0,1,195.33,26.48Z"/><ellipse class="cls-3" cx="147.56" cy="48.99" rx="24.65" ry="24.46"/><g class="cls-10"><path d="M171,54.44c-2.82,10.33-10.67,17.69-22.28,19.16l-11.52-12,21.32-20.15Z"/></g><rect class="cls-2" x="136.81" y="40.48" width="21.94" height="22.1" rx="2.2" ry="2.2" transform="matrix(0.02, -1, 1, 0.02, 92.95, 198.12)"/><rect class="cls-2" x="136.93" y="35.21" width="5.53" height="14.62" transform="translate(0.99 -3.11) rotate(1.28)"/><rect class="cls-3" x="142.25" y="46.05" width="11.05" height="10.97" rx="1.74" ry="1.74" transform="translate(1.19 -3.29) rotate(1.28)"/><ellipse class="cls-11" cx="147.77" cy="48.59" rx="28.58" ry="29.05" transform="translate(6.68 114.09) rotate(-43.1)"/><path class="cls-2" d="M169.28,39.2a22.59,22.59,0,0,1,3.23,11.35A24.6,24.6,0,0,1,168.84,62a25.1,25.1,0,0,1-20.11,11.83,25.48,25.48,0,0,1-11.8-2.3A25.19,25.19,0,0,1,127.55,64a21.15,21.15,0,0,1-1.67-2.52c-.25-.44-.52-.88-.75-1.32l-.62-1.39a22.53,22.53,0,0,1-1.72-5.8,22.62,22.62,0,0,1,2.11-11.61,24.17,24.17,0,0,0,.18,11.23,22.77,22.77,0,0,0,41.79,8.2,22.06,22.06,0,0,0,3.31-10.38A24.81,24.81,0,0,0,169.28,39.2Z"/><path class="cls-4" d="M165.66,33.55c.34.4.67.8,1,1.22"/><path class="cls-2" d="M165.66,33.55c.41-.26.71-.43,1-.6a.61.61,0,0,0,.12.16l.25.32.26.32.13.16c-.24.27-.47.53-.8.86l-1,.55-.12-.14-.23-.29L165,34.6c-.05,0-.07-.1-.13-.14Z"/><path class="cls-2" d="M129.85,33a16.46,16.46,0,0,1,2.56-3.89,26.56,26.56,0,0,1,4-2.41,25.15,25.15,0,0,1,18-1.65,27.52,27.52,0,0,1,4.32,1.66,18.93,18.93,0,0,1,3.24,3.34,42.46,42.46,0,0,0-4.27-1.26,25.18,25.18,0,0,0-3.92-1.51,22.87,22.87,0,0,0-16.36,1.5,21.32,21.32,0,0,0-3.56,2.2A41.28,41.28,0,0,0,129.85,33Z"/><path class="cls-2" d="M138.05,76.18A21.6,21.6,0,0,1,132.6,75,32.25,32.25,0,0,1,128,71.82,30,30,0,0,1,117.6,52.68a29.65,29.65,0,0,1-.17-5.57,22.38,22.38,0,0,1,2-5.22,42.71,42.71,0,0,0,.31,5.37,28.37,28.37,0,0,0,.16,5.13A27.66,27.66,0,0,0,129.52,70,26,26,0,0,0,133.75,73,46.81,46.81,0,0,0,138.05,76.18Z"/><path class="cls-4" d="M152.53,77.33a29,29,0,0,1-10.13,0"/><path class="cls-2" d="M152.53,77.33a7.62,7.62,0,0,1-1.11,1.35l-1.32.13c-.87.08-1.76.11-2.64.11s-1.76,0-2.64-.12q-.66-.06-1.32-.15a8.29,8.29,0,0,1-1.1-1.34c.5-.39,1-.66,1.41-1,.41.06.81.1,1.22.14.81.07,1.62.11,2.44.11s1.62,0,2.44-.1c.4,0,.81-.07,1.21-.14A13.83,13.83,0,0,1,152.53,77.33Z"/><path class="cls-2" d="M176.11,44.26c.31.49.59,1,.86,1.51s.45,1.06.66,1.6l0,1.66,0,1.66A30.17,30.17,0,0,1,174,63.36l-.84,1.43c-.32.46-.6.94-.92,1.39-.48.34-.94.68-1.42,1s-1,.57-1.51.83c.17-.55.35-1.09.53-1.61l.5-1.56c.27-.43.57-.84.85-1.28l.77-1.32a27.63,27.63,0,0,0,2.35-5.65,28,28,0,0,0,1-6,26,26,0,0,0,0-3.06l.41-1.59C175.82,45.38,176,44.83,176.11,44.26Z"/><path class="cls-4" d="M173.86,37c.22.46.42.94.61,1.42"/><path class="cls-2" d="M173.86,37c.47-.15.8-.23,1.15-.31a.44.44,0,0,0,.07.19l.15.37.16.37.08.19c-.3.19-.59.38-1,.61l-1.15.26-.07-.17-.15-.34-.14-.35a.65.65,0,0,0-.09-.16C173.16,37.46,173.45,37.26,173.86,37Z"/><path class="cls-2" d="M123.6,32.74a24,24,0,0,1,4-6.24,30.78,30.78,0,0,1,6.19-4.16,26.69,26.69,0,0,1,3.44-1.46l1.77-.59c.59-.2,1.21-.3,1.82-.45a30.42,30.42,0,0,1,3.68-.63,31,31,0,0,1,3.73-.12,30.21,30.21,0,0,1,14.27,4,30.58,30.58,0,0,1,6,4.45,26.7,26.7,0,0,1,3.72,6.41,36.8,36.8,0,0,0-5.33-4.73,27.93,27.93,0,0,0-18.69-7.77,30.59,30.59,0,0,0-3.45.11,30.18,30.18,0,0,0-3.4.58c-.56.14-1.13.23-1.67.42l-1.64.54a24.08,24.08,0,0,0-3.18,1.35,26.6,26.6,0,0,0-5.7,3.86A36.24,36.24,0,0,0,123.6,32.74Z"/><path class="cls-4" d="M120.61,38.3c.17-.42.35-.84.54-1.25"/><path class="cls-2" d="M120.61,38.3c-.43-.24-.72-.42-1-.6a.4.4,0,0,0,.08-.16l.14-.32.14-.33.07-.16c.35.09.68.18,1.13.32l1,.64-.07.15-.13.3-.13.29s0,.1,0,.16Z"/></g></g></svg>