<svg xmlns="http://www.w3.org/2000/svg" viewBox="0 0 249.82 183.36"><defs><style>.cls-1,.cls-3{fill:#233348;}.cls-1,.cls-16{opacity:0.1;}.cls-2{fill:#fdc800;}.cls-13,.cls-4{fill:#fff;}.cls-5{opacity:0.7;}.cls-10,.cls-12,.cls-14,.cls-15,.cls-17,.cls-6,.cls-7,.cls-8,.cls-9{fill:none;}.cls-13,.cls-14,.cls-15,.cls-6,.cls-8,.cls-9{stroke:#233348;}.cls-10,.cls-12,.cls-13,.cls-14,.cls-15,.cls-6,.cls-7,.cls-8,.cls-9{stroke-linecap:round;stroke-linejoin:round;}.cls-6,.cls-7{stroke-width:2.47px;}.cls-10,.cls-7{stroke:#fdc800;}.cls-8,.cls-9{stroke-width:1.58px;}.cls-9{opacity:0.7;}.cls-10{stroke-width:1.88px;}.cls-11{fill:#e5eefd;}.cls-12{stroke:#717791;stroke-width:1.13px;}.cls-13,.cls-14{stroke-width:2.25px;}.cls-15{stroke-width:2.16px;}</style></defs><title>Asset 19</title><g id="Layer_2" data-name="Layer 2"><g id="Layer_1-2" data-name="Layer 1"><path class="cls-1" d="M145,151.24l69.28-68.75a11.11,11.11,0,0,1,15.64,0h0a10.91,10.91,0,0,1,0,15.52l-69.27,68.76a11.14,11.14,0,0,1-15.65,0h0A10.94,10.94,0,0,1,145,151.24Z"/><path class="cls-1" d="M28.6,95.75,39.31,85.12a11.11,11.11,0,0,1,15.64,0h0a10.91,10.91,0,0,1,0,15.52L44.24,111.28a11.13,11.13,0,0,1-15.64,0h0A10.92,10.92,0,0,1,28.6,95.75Z"/><path class="cls-1" d="M149.92,115.93,181.58,84.5a10.91,10.91,0,0,0,0,15.52,11.12,11.12,0,0,0,15.64,0l-31.66,31.42a10.92,10.92,0,0,0,0-15.52A11.1,11.1,0,0,0,149.92,115.93Z"/><path class="cls-1" d="M137.3,67.77l28.46-28.24a10.49,10.49,0,0,0,0,14.89,10.68,10.68,0,0,0,15,0L152.31,82.67a10.49,10.49,0,0,0,0-14.9A10.67,10.67,0,0,0,137.3,67.77Z"/><path class="cls-1" d="M125.88,108.9,212.43,23a11.11,11.11,0,0,1,15.64,0h0a10.91,10.91,0,0,1,0,15.52l-86.55,85.9a11.11,11.11,0,0,1-15.64,0h0A10.91,10.91,0,0,1,125.88,108.9Z"/><path class="cls-1" d="M40.84,132.18,158.65,15.26a11.11,11.11,0,0,1,15.64,0h0a10.91,10.91,0,0,1,0,15.52L56.48,147.71a11.13,11.13,0,0,1-15.64,0h0A10.92,10.92,0,0,1,40.84,132.18Z"/><path class="cls-1" d="M61.66,55.21l43.72-43.4a11.13,11.13,0,0,1,15.64,0h0a10.92,10.92,0,0,1,0,15.53L77.3,70.73a11.11,11.11,0,0,1-15.64,0h0A10.91,10.91,0,0,1,61.66,55.21Z"/><path class="cls-1" d="M100.44,133.41l.26-.26a11.12,11.12,0,0,1,15.65,0h0a10.93,10.93,0,0,1,0,15.52l-.27.26a11.11,11.11,0,0,1-15.64,0h0A10.91,10.91,0,0,1,100.44,133.41Z"/><path class="cls-2" d="M212,146.35a13.31,13.31,0,0,1-2.56-.95c-2.79-1.48-2.19-4.32.52-5.89,5.43-3.15,14.27-.55,17.56,9.46A20.22,20.22,0,0,1,230,134.24c3.64-6,8.48-6.23,11.06-4.82a4.81,4.81,0,0,1,2.36,5.62c-.87,2.37-3.63,3.36-5.67,4.87a10.69,10.69,0,0,0-3.88,11.14c.3-6.23,10.22-8.22,12.78-7.83,3.36.5,4.14,3.76,2,6-1.67,1.79-4.06,2.1-6.24,2.89-5.74,2.09-7.49,7.43-12.11,8.26a5,5,0,0,1-4.48-1.5c-.77-.87-1-2.12-1.55-3.1A21.91,21.91,0,0,0,212,146.35Z"/><path class="cls-3" d="M232.56,138.62a24.33,24.33,0,0,0-1.21,4.26,30.84,30.84,0,0,0-.47,4.39c-.09,1.47-.12,2.95-.07,4.43s.17,3,.32,4.46a.5.5,0,0,1-.45.55.51.51,0,0,1-.55-.44c-.19-1.49-.35-3-.44-4.51a34.84,34.84,0,0,1,0-4.57,25.5,25.5,0,0,1,.79-4.51,23.25,23.25,0,0,1,1.59-4.29.28.28,0,0,1,.51.23Z"/><path class="cls-3" d="M220.48,146.85a10.59,10.59,0,0,1,3.46,1.76,11.35,11.35,0,0,1,2.67,2.94A16.83,16.83,0,0,1,229,159a.81.81,0,0,1-.71.89.83.83,0,0,1-.89-.68v0a19.78,19.78,0,0,0-2.09-6.82,13.13,13.13,0,0,0-2.17-2.77,22.18,22.18,0,0,0-2.85-2.27.25.25,0,0,1-.07-.35A.24.24,0,0,1,220.48,146.85Z"/><path class="cls-3" d="M239,150.43a23.34,23.34,0,0,0-3.05,2.54,15.39,15.39,0,0,0-2.24,3.38.38.38,0,0,1-.53.16.39.39,0,0,1-.21-.42,9.17,9.17,0,0,1,1.81-4.12,7.5,7.5,0,0,1,1.71-1.57,5.8,5.8,0,0,1,2.11-.87.5.5,0,0,1,.41.89Z"/><path class="cls-4" d="M237.78,164.35l-1.49,6.38a1.11,1.11,0,0,1-1.08.85h-9a1.12,1.12,0,0,1-1.08-.85l-2.65-11.37a.67.67,0,0,1,.65-.82h15.12a.68.68,0,0,1,.66.82l-.16.68"/><path class="cls-3" d="M238.14,164.44c.39,1.13-.08,2.05-.25,3l-.67,3a4.24,4.24,0,0,1-.27.92,1.87,1.87,0,0,1-.94.9,2,2,0,0,1-.64.17h-1.2l-3,0h-4.93a1.89,1.89,0,0,1-.67-.12,2,2,0,0,1-1.27-1.46l-.09-.37-.17-.74-.35-1.47-.71-2.94-1.36-6a1.56,1.56,0,0,1,.78-1.5,1.68,1.68,0,0,1,.81-.22h1.89l3,0,6.05,0h4.18a1.44,1.44,0,0,1,.78.25,1.35,1.35,0,0,1,.56,1.45,2.17,2.17,0,0,1-.43.73.52.52,0,0,1-.72.08.53.53,0,0,1-.17-.25v0a4,4,0,0,1-.1-.74.08.08,0,0,0,0,.13.1.1,0,0,0,.08,0h-1.12l-3,0-6.05,0h-4.91a.65.65,0,0,0,.1,0,.24.24,0,0,0,.11-.23l1.38,5.77,1.29,5.62a.22.22,0,0,0,.11.1h1.94l3,0h4.08l.09,0c.14-.09.12,0,.27-.66l.7-2.94c.29-1,.28-2,1.13-2.84a.44.44,0,0,1,.62,0A.54.54,0,0,1,238.14,164.44Z"/><g class="cls-5"><line class="cls-6" x1="123.2" y1="94.98" x2="123.86" y2="99.38"/><line class="cls-6" x1="125.75" y1="96.85" x2="121.31" y2="97.5"/></g><g class="cls-5"><line class="cls-7" x1="127.32" y1="4.25" x2="127.98" y2="8.65"/><line class="cls-7" x1="129.87" y1="6.13" x2="125.43" y2="6.78"/></g><ellipse class="cls-8" cx="222.83" cy="44.62" rx="1.35" ry="1.34"/><ellipse class="cls-9" cx="35.39" cy="68.2" rx="1.8" ry="1.79"/><g class="cls-5"><line class="cls-10" x1="96.67" y1="71.24" x2="93.01" y2="77.92"/><line class="cls-10" x1="98.2" y1="76.4" x2="91.47" y2="72.77"/></g><ellipse class="cls-10" cx="164.39" cy="60.15" rx="1.55" ry="1.54"/><ellipse class="cls-2" cx="64.43" cy="21.5" rx="1.55" ry="1.54"/><path class="cls-3" d="M195.94,6.71c.65-.16,1.31-.26,2-.36s1.31-.16,2-.21a28.65,28.65,0,0,1,3.93-.08l-.93.75h0a12.77,12.77,0,0,1,1.37-4A5.83,5.83,0,0,1,207.87.11a4.47,4.47,0,0,1,4.48,1.53,4.55,4.55,0,0,1,.84,2.28,10.71,10.71,0,0,1,0,2.13.95.95,0,0,1-1.89,0A4.34,4.34,0,0,1,212,3.17a3.73,3.73,0,0,1,2.66-1.58,3.3,3.3,0,0,1,3,1.15,3.12,3.12,0,0,1,.5,3.23.95.95,0,0,1-1.74-.76h0a1.83,1.83,0,0,1,1-1,2.24,2.24,0,0,1,1.23-.07,2.45,2.45,0,0,1,1.6,1.44,3.64,3.64,0,0,1,.31,1.79,3.9,3.9,0,0,1-.51,1.71h0l-.82-1.43c2.4-.08,4.8,0,7.19.13s4.8.27,7.19.5a.32.32,0,0,1,.29.35.33.33,0,0,1-.29.29c-2.39.23-4.79.38-7.19.5s-4.79.21-7.19.13h0a1,1,0,0,1-.93-1,.93.93,0,0,1,.12-.44h0a2.1,2.1,0,0,0,.27-.89,2,2,0,0,0-.15-.88.66.66,0,0,0-.32-.37.25.25,0,0,0-.12,0s0,0,0-.07l-1.73-.77A1.25,1.25,0,0,0,216.19,4a1.4,1.4,0,0,0-1.29-.47,1.83,1.83,0,0,0-1.32.78,2.55,2.55,0,0,0-.42,1.62h-1.89a4.58,4.58,0,0,0-.44-3.11A2.61,2.61,0,0,0,208.28,2a4,4,0,0,0-2.42,1.87,11.17,11.17,0,0,0-1.13,3.39h0a.88.88,0,0,1-.81.74h-.12a30.33,30.33,0,0,1-3.93-.07c-.65-.06-1.31-.12-2-.21s-1.32-.2-2-.36a.31.31,0,0,1-.23-.38A.3.3,0,0,1,195.94,6.71Z"/><line class="cls-11" x1="99.87" y1="182.4" x2="139.9" y2="182.4"/><path class="cls-3" d="M99.87,181.85a34.94,34.94,0,0,1,5-.29l5,0,10-.08h15a42,42,0,0,1,5,.25.72.72,0,0,1,0,1.42,44.16,44.16,0,0,1-5,.24h-15l-10-.08-5,0a33.55,33.55,0,0,1-5-.29.55.55,0,0,1,0-1.09Z"/><line class="cls-11" x1="152.17" y1="182.4" x2="159.51" y2="182.4"/><path class="cls-3" d="M152.17,181.85a1.34,1.34,0,0,1,.92-.29l.91-.05c.62,0,1.23,0,1.84-.07s1.22,0,1.83,0h.92a1.6,1.6,0,0,1,.92.25.85.85,0,0,1,.22,1.19,1,1,0,0,1-.22.23,1.67,1.67,0,0,1-.92.24h-.92c-.61,0-1.22,0-1.83,0s-1.22,0-1.84-.07l-.91-.05a1.34,1.34,0,0,1-.92-.29.71.71,0,0,1-.08-1Z"/><line class="cls-11" x1="73.68" y1="182.4" x2="89.99" y2="182.4"/><path class="cls-3" d="M73.68,181.81c2.72-.14,5.44-.2,8.16-.22s5.43,0,8.15.15a.67.67,0,0,1,.61.7.66.66,0,0,1-.61.61c-2.72.17-5.44.18-8.15.15s-5.44-.08-8.16-.22a.59.59,0,0,1,0-1.17Z"/><path class="cls-3" d="M41.78,39.58a40.09,40.09,0,0,1-4.33.48,41.74,41.74,0,0,1-4.33.06H33a.77.77,0,0,1-.71-.63h0a12.16,12.16,0,0,0-1.28-3.8,4.6,4.6,0,0,0-2.82-2.17,3.08,3.08,0,0,0-3.05,1,5.35,5.35,0,0,0-.53,3.59h-1.6a3,3,0,0,0-.51-2,2.23,2.23,0,0,0-1.62-1,1.75,1.75,0,0,0-1.63.6,1.61,1.61,0,0,0-.3,1.62l-1.47.65a.41.41,0,0,0-.36-.07.9.9,0,0,0-.52.55,2.49,2.49,0,0,0,.14,2.16h0a.82.82,0,0,1-.33,1.11.83.83,0,0,1-.37.11c-2.64.06-5.28,0-7.92-.12s-5.28-.23-7.92-.42a.27.27,0,0,1,0-.54c2.64-.2,5.28-.33,7.92-.43s5.28-.17,7.92-.11l-.7,1.21h0a4.09,4.09,0,0,1-.22-3.64,2.5,2.5,0,0,1,1.61-1.45,2.18,2.18,0,0,1,1.21.07,1.79,1.79,0,0,1,1,.92h0a.81.81,0,0,1-1.48.65h0A3.23,3.23,0,0,1,18,34.76a3.41,3.41,0,0,1,3.06-1.18,3.89,3.89,0,0,1,2.76,1.64,4.53,4.53,0,0,1,.79,3,.8.8,0,0,1-1.6,0,11.7,11.7,0,0,1,0-2.3,4.76,4.76,0,0,1,.88-2.4,4.69,4.69,0,0,1,4.68-1.6,6.27,6.27,0,0,1,3.85,2.91,13.67,13.67,0,0,1,1.47,4.29h0l-.78-.63c1.44-.07,2.88,0,4.33.07a37.72,37.72,0,0,1,4.33.48.26.26,0,0,1,.21.31A.27.27,0,0,1,41.78,39.58Z"/><line class="cls-11" x1="240.35" y1="171.63" x2="244.89" y2="171.63"/><path class="cls-3" d="M240.35,171.05a5.92,5.92,0,0,1,2.27-.31,12.57,12.57,0,0,1,2.27.23.68.68,0,0,1,0,1.32,11.72,11.72,0,0,1-2.27.22,5.92,5.92,0,0,1-2.27-.31.61.61,0,0,1-.36-.79A.67.67,0,0,1,240.35,171.05Z"/><line class="cls-11" x1="27.17" y1="171.63" x2="237.97" y2="171.63"/><path class="cls-3" d="M27.17,171.08c8.79-.24,17.57-.28,26.35-.28l26.35,0,52.7,0,52.7,0c17.56,0,35.13-.17,52.69.22a.71.71,0,0,1,.7.72.72.72,0,0,1-.7.7c-17.56.39-35.13.18-52.69.22l-52.7,0-52.7,0-26.35,0c-8.78,0-17.56,0-26.35-.28a.55.55,0,0,1,0-1.09Z"/><line class="cls-11" x1="22.16" y1="171.63" x2="22.82" y2="171.63"/><path class="cls-3" d="M22.16,170.82a1.19,1.19,0,0,1,.66.11.79.79,0,0,1,.32,1.07.76.76,0,0,1-.32.32,1,1,0,0,1-.66.11.81.81,0,0,1-.73-.88A.82.82,0,0,1,22.16,170.82Z"/><line class="cls-11" x1="13.99" y1="171.63" x2="17.29" y2="171.63"/><path class="cls-3" d="M14,171a8.49,8.49,0,0,1,1.65-.22,4.88,4.88,0,0,1,1.65.16.67.67,0,0,1,.45.85.7.7,0,0,1-.45.45,4.88,4.88,0,0,1-1.65.16,8.49,8.49,0,0,1-1.65-.22.61.61,0,0,1-.43-.74A.6.6,0,0,1,14,171Z"/><path class="cls-3" d="M81.57,62.74a5,5,0,0,1,.94,2.93A5.09,5.09,0,0,1,81,69.29c-1.39,1.4-5.59,4.19-12.39,4.36l-.08,0a6.94,6.94,0,0,0-.32-2.5c-.37-1.32-.84-2.73-.37-4,.51-1.45,2-2.28,3.23-3.23a11.71,11.71,0,0,0,.1-18.45A9.12,9.12,0,0,1,66,50.66c-2.33.9-5.19.94-6.86,2.79-1.08,1.2-1.42,2.9-2.48,4.11A4.53,4.53,0,0,1,52,58.83c.27,1.67,1.63,3,2.94,4.05s2.72,2.26,3.2,3.9a7.86,7.86,0,0,1,.25,1.54c.1,1.23.21,2.46.32,3.68v.07l-.6-.1c-.91,1.17-3.18,2-4.22,2.33-2,.71-4.47-.92-4.6-1.87a7.7,7.7,0,0,1-3.2-14,7.18,7.18,0,0,1-.13-1.31,6.83,6.83,0,0,1,4.86-6.54A14.85,14.85,0,0,1,65.55,37.66c8,0,13,6.25,13.36,14.09a6.81,6.81,0,0,1,4.48,6.38A6.73,6.73,0,0,1,81.57,62.74Z"/><path class="cls-12" d="M58.34,65.1c-2.2-.66-3.4-1.52-6.58-6"/><path class="cls-12" d="M71.72,45.33c3.4,3.88,7.37,17.5-4.12,20.33"/><path class="cls-3" d="M80.81,69.1a4.79,4.79,0,0,0,1.24-3,4.61,4.61,0,0,0-1-3h0a.59.59,0,0,1,0-.75h0a6.22,6.22,0,0,0,1.4-2.66,6.09,6.09,0,0,0,0-3,6.17,6.17,0,0,0-3.88-4.2h0a.84.84,0,0,1-.51-.72,15.14,15.14,0,0,0-3.58-9.31,11.6,11.6,0,0,0-8.87-3.84,14,14,0,0,0-9.18,3.46,13.7,13.7,0,0,0-4.56,8.61h0v.08a1.05,1.05,0,0,1-.78.85,5.87,5.87,0,0,0-4.25,6.62h0v0a.78.78,0,0,1-.35.8,7.1,7.1,0,0,0-2.61,3.17A6.94,6.94,0,0,0,45.61,70a7.24,7.24,0,0,0,3.75,1.85h0l.15,0a.48.48,0,0,1,.38.5,1.61,1.61,0,0,0,.54.67,4.09,4.09,0,0,0,1,.6,3.36,3.36,0,0,0,2.24.19h0a.53.53,0,0,1,.33,1,4.46,4.46,0,0,1-3-.11A5.58,5.58,0,0,1,49.69,74a2.54,2.54,0,0,1-1-1.44l.53.53h0a8.41,8.41,0,0,1-6.69-11.38,8.59,8.59,0,0,1,3.13-3.94l-.34.83h0a7.61,7.61,0,0,1,.82-5.49,7.94,7.94,0,0,1,4.37-3.59l-.79.94h0a15.9,15.9,0,0,1,16-13.71,14.23,14.23,0,0,1,5.59,1.18,13,13,0,0,1,4.6,3.41,16.88,16.88,0,0,1,3.87,10.42L79.19,51h0a7.65,7.65,0,0,1,4.7,5.37A7.63,7.63,0,0,1,83.81,60,7.45,7.45,0,0,1,82,63.15l0-.76h0a5.62,5.62,0,0,1,.85,3.77,5.44,5.44,0,0,1-1.73,3.33.27.27,0,0,1-.39,0A.27.27,0,0,1,80.81,69.1Z"/><path class="cls-2" d="M78,133.13c-2,2.32-5.4,2.68-8.47,2.89l-9.37.62c-2.26.15-4.61.28-6.66-.64-3.36-1.5-5-5.41-5.29-9.06-.57-6.4,1.75-12.66,3.56-18.83s3.15-13,.7-18.91C52.2,91,49.56,91.74,48,90.67s-2-3.14-1.76-5a9.77,9.77,0,0,1,5.45-7.55c2.79-1.31,5.53-2.91,7.11-5.7,1.37-2.42,1.23-5.91-1.05-7.51-1.43-1-3.57-1.24-4.29-2.83-.48-1-.81-2.74.35-2.68,1.83.09,2.66-1.49,3.11-2.57,1.57-3.72,7-4.41,10.85-6.38,2.18-1.12,2.75-3.43,4.43-5a12.94,12.94,0,0,1,1.18,16.84c-1.89,2.39-4.75,4.27-5.38,7.24a7.37,7.37,0,0,0,2.12,6.35,16.47,16.47,0,0,0,4.62,3.27A5.4,5.4,0,0,0,75.3,82c.48,1,1.28,1.79,1.72,2.78a4.3,4.3,0,0,1,.3.92,1.72,1.72,0,0,1,.46-.32c-.09.5-.19,1-.28,1.49,0,.33,0,.65.06,1l0,1a1.92,1.92,0,0,1-.37-.44,62.07,62.07,0,0,0-1.37,13.35c.24,8,3.07,15.76,3.77,23.75C79.85,128.1,79.75,131.09,78,133.13Z"/><path class="cls-4" d="M52.8,58.76a3.37,3.37,0,0,0,.67,2.53c.93,1.16,2.51,1.61,3.64,2.59A6,6,0,0,1,59,68.63a10.93,10.93,0,0,1-1.58,5c-.86,1.51-2,3.07-1.8,4.8a6.73,6.73,0,0,0,1.37,3c1.15,1.68,2.38,3.29,3.68,4.85,1.43,1.71,3.1,3.43,5.29,3.92a6.44,6.44,0,0,0,6.61-3A8.27,8.27,0,0,0,73,79.89c-.89-2.2-2.55-4-3.68-6.09s-1.67-4.82-.27-6.74A11.82,11.82,0,0,1,71.48,65a13.06,13.06,0,0,0,4.68-8.08,12.92,12.92,0,0,0-2-9.11,3.65,3.65,0,0,0-2.6-1.9c-1,0-1,1.67-1.57,2.4s-1.28,1.26-1.93,2C65.53,52.92,60,52,58,55.06a27.84,27.84,0,0,1-1.5,2.6,3.58,3.58,0,0,1-3.93,1"/><path class="cls-13" d="M54.29,135.92c-.21,10.27,1.7,35.16,5,35.16,2.89,0,2.71-26.75,2.7-35.33"/><path class="cls-13" d="M66.69,135.87c-.22,10.25,1.69,35.21,5,35.21,2.91,0,2.7-27.22,2.7-35.56"/><path class="cls-14" d="M68,65.91c0,.14,0,.29,0,.44.51,3.63-.13,6.63,1.26,8s6.06,7.64,3.16,12.4-8.33,4.64-11.74,0a44.81,44.81,0,0,1-5.42-8.64c-1.14-2.38.63-1.75,1.26-2.25S59.76,72,59,65.72c0-.12,0-.24,0-.37"/><path class="cls-14" d="M53.32,88.43c0,6.64.66,9.71-.81,15.91-2.2,9.32-6.7,12.6-3,28.22a4.1,4.1,0,0,0,4,3.37l20.85-.47a4.07,4.07,0,0,0,3.75-3c5.4-18.43-7.1-24.09-1.64-37.5C79,88.66,77.72,81.49,72,77.84"/><path class="cls-14" d="M67.63,85.89A4,4,0,0,1,68.42,90"/><path class="cls-14" d="M58.9,65.31c-2.18-.66-3.37-1.51-6.52-6"/><path class="cls-14" d="M72.14,45.74c3.37,3.84,7.3,17.32-4.08,20.12"/><path class="cls-14" d="M53,88.58a27.66,27.66,0,0,0-4.76,3.14,17,17,0,0,1-2.06-7.13,35.92,35.92,0,0,1,8.85-8"/><path class="cls-14" d="M46.54,88.47c-4.81,3.47-6.4,13.72,4,19.42-1.07,3.13-.27,4.88,3,5.34"/><path class="cls-3" d="M78,83.23a3.29,3.29,0,0,0,2.44.08,1.73,1.73,0,0,0,.65-.77,3.82,3.82,0,0,0,.29-1.29,12.42,12.42,0,0,0-1.54-6,16.92,16.92,0,0,0-3.93-5.1,12.18,12.18,0,0,0-5.58-2.81A1.13,1.13,0,0,1,69.43,66a1.16,1.16,0,0,1,.15-.38l0-.06h0A4.6,4.6,0,0,0,70.41,63,1,1,0,0,0,70,62.2a3.29,3.29,0,0,0-1.31-.43l-.08,0a.57.57,0,0,1-.45-.67.59.59,0,0,1,.38-.44,3.28,3.28,0,0,1,2.22,0,2.75,2.75,0,0,1,1.64,2,4.89,4.89,0,0,1-.07,2.26,5.76,5.76,0,0,1-.91,2h0l-.7-1.76a14.21,14.21,0,0,1,6.63,3.31,19.16,19.16,0,0,1,4.47,5.78,14.66,14.66,0,0,1,1.77,7.22,6.34,6.34,0,0,1-.48,2.06,4,4,0,0,1-1.59,1.8,4.5,4.5,0,0,1-2.27.49c-.37,0-.7-.09-1-.14l-1-.27a1.12,1.12,0,0,1,.61-2.16l.08,0Z"/><path class="cls-14" d="M52.24,59c3.09.62,4.77.44,5.56-1.57s.71-4.21,5.48-5.35,6.15-1.74,8.19-6.48"/><path class="cls-4" d="M184.2,46.09a12.27,12.27,0,0,0-6.63,6.12c-1.52,3.2-1.55,6.86-1.76,10.38-.13,2.12-.4,4.39-1.82,6a3.06,3.06,0,0,0-.87,1.23,1.62,1.62,0,0,0,.68,1.55,6.66,6.66,0,0,0,1.6.8,11.65,11.65,0,0,1,6.53,7.25c.34,1.11.63,2.43,1.7,2.9a2.56,2.56,0,0,0,2.74-.8,26.7,26.7,0,0,0,1.78-2.44c1.59-2,4.14-3,6.49-4s4.82-2.41,5.79-4.78a10.86,10.86,0,0,0,.61-3.15c.16-1.72-.18-4.06.57-5.61,1.62-3.37.5-6.89-1.35-9.94a11.52,11.52,0,0,0-7.46-4.86,34.85,34.85,0,0,0-9.13-.38"/><path class="cls-4" d="M172.2,69.19l-6.78,1.75c-2.16.56-4.49,1.23-5.8,3-1.81,2.44-1,5.86-.05,8.75l9-1a137.06,137.06,0,0,0-5.86,25c-.3,2.25-.51,4.71.71,6.62s3.83,2.89,6.2,3.47a77.11,77.11,0,0,0,28.15,1.64c2.1-.27,4.41-.75,5.69-2.43s1.13-3.65,1-5.59L204,99.38c-.14-2.81-.12-6,2-7.9,1.2-1.07,2.84-1.47,4.33-2.09s3-1.71,3.23-3.3-.88-3-1.92-4.22L206.1,75.4c-1.72-2-4.49-4-6.2-6-3.65,1.78-6.23,3.54-9.88,5.32a10.9,10.9,0,0,0-3.83,2.62c-2,2.52-1.44,6.37-3.33,9,0-3.27-.09-6.64-1.42-9.63-1.49-3.34-4.81-5.66-7.95-7.66Z"/><path class="cls-3" d="M165.6,117.62l3.79,30.85c.93,7.56,1.88,15.2,4.6,22.32a2.53,2.53,0,0,0,2.3-1.32,7.1,7.1,0,0,0,.8-2.65,119.51,119.51,0,0,0,1-28.78,8.05,8.05,0,0,1,1.44-4.47c1-1.27,1.92-.77,3.53-.82a5.36,5.36,0,0,1,3.67.76c1.15.94,1.31,2.6,1.41,4.08A106.77,106.77,0,0,0,196,171.3c2.06-.76,2.77-3.25,3.11-5.41,1.24-7.86,1.36-15.84,1.48-23.8l.37-23.92c-6.94.6-13.92,1.2-20.86.58a59.66,59.66,0,0,1-14-3l-.5,1.47"/><path class="cls-2" d="M204.37,51c-.2-2.21.54-.32-1.7-5.51A16.77,16.77,0,0,0,201.5,44a13.52,13.52,0,0,0-1.06-1.13,7.59,7.59,0,0,0-3.77-2.28c-.64-.2,1.13.64-.85.31-7.4-1.25-8.58-1.26-12.64.24l-2.49,1.39a8.42,8.42,0,0,0-2.35-3.27c-.85-.57-2,1.52-.68,7.73-.1,1.2-.9.66.57,1.92.11.16.2.31.32.46l.09-.25,1.7-.71s.41-1,.82-1,.51-.51,1.31,0,1.59,1.21,2.3,1.63.18.68,1.92,1,1.43.72,3,.51a21.07,21.07,0,0,1,6.18-.39c1.16.2.94-1.68,1.38.29a21.05,21.05,0,0,1,.66,2.85c.18,1.39-.24,2.1,0,2.55,1,2.09-.92,1.53,1.17,3.78a3.51,3.51,0,0,0,1.52,2.21c.33.27.52-.22.52-.22.27-.67.12.5.4-.09,1.24-2.67,1.59-4.38,2.52-6.72A6.48,6.48,0,0,0,204.37,51Z"/><path class="cls-3" d="M166.86,114.88c.54,7.82,1.27,15.66,2.16,23.46s1.87,15.62,3.44,23.24a54.9,54.9,0,0,0,1.44,5.58,10.23,10.23,0,0,0,1,2.37,2.13,2.13,0,0,0,.25.31.41.41,0,0,0-.22-.05s-.07,0-.07,0,0,0,0,0l.09-.1s.08-.12.13-.18a8.1,8.1,0,0,0,.86-2.35c.21-.9.39-1.84.52-2.79.28-1.89.45-3.84.58-5.78.27-3.89.38-7.82.44-11.74s-.17-7.86.73-11.8a.49.49,0,0,1,.59-.37.48.48,0,0,1,.37.37c.9,3.93.65,7.88.67,11.83s-.11,7.9-.35,11.87c-.13,2-.28,4-.56,6-.14,1-.31,2-.55,3a9.84,9.84,0,0,1-1.19,3.15,3.73,3.73,0,0,1-.3.43c-.14.14-.28.29-.43.42a3.7,3.7,0,0,1-.61.38,2.94,2.94,0,0,1-.79.19,2,2,0,0,1-.91-.16,2.66,2.66,0,0,1-.65-.39,4.32,4.32,0,0,1-.72-.81,13.4,13.4,0,0,1-1.37-3,53.27,53.27,0,0,1-1.53-5.86c-1.58-7.81-2.53-15.65-3.4-23.51s-1.47-15.71-1.81-23.62a1.08,1.08,0,0,1,2.15-.12Z"/><path class="cls-3" d="M176.26,130.9l2.75.76a16.39,16.39,0,0,0,2.62.52,8.36,8.36,0,0,0,2.48-.14c.87-.17,1.82-.38,2.79-.51a1.08,1.08,0,0,1,1.28.81,1.1,1.1,0,0,1,0,.16v0c.26,3.85.84,7.77,1.45,11.64s1.35,7.74,2.18,11.57A88.44,88.44,0,0,0,194.91,167a13.69,13.69,0,0,0,1.17,2.46,2.82,2.82,0,0,0,.32.43c.1.12.2.16.12.13s-.05,0-.09,0h.06l.12,0a.81.81,0,0,0,.23-.15,5.11,5.11,0,0,0,1-2.12,24.41,24.41,0,0,0,.55-2.78c.55-3.82.73-7.76.9-11.68s.23-7.87.29-11.81c.1-7.88.11-15.77.09-23.66a1.08,1.08,0,1,1,2.16,0h0c0,7.89,0,15.79-.1,23.69-.05,3.95-.13,7.91-.28,11.86s-.35,7.92-.92,11.92a25.24,25.24,0,0,1-.61,3,10.52,10.52,0,0,1-.53,1.55,4.65,4.65,0,0,1-1.06,1.59,2.8,2.8,0,0,1-1,.61,2.58,2.58,0,0,1-.6.13,1.55,1.55,0,0,1-.31,0,2.11,2.11,0,0,1-.46-.07,2.46,2.46,0,0,1-1.08-.71,5.08,5.08,0,0,1-.57-.74,15.34,15.34,0,0,1-1.37-2.88,89.35,89.35,0,0,1-3.17-11.56q-1.26-5.82-2.2-11.69c-.62-3.92-1.2-7.83-1.48-11.85l1.31,1h0a24.87,24.87,0,0,1-2.83.72,8.22,8.22,0,0,1-3.24,0,12.11,12.11,0,0,1-2.91-1.06,19.1,19.1,0,0,1-2.54-1.51.48.48,0,0,1-.12-.68A.5.5,0,0,1,176.26,130.9Z"/><path class="cls-3" d="M175.48,69.64c-2.62.43-5.24.85-7.79,1.4-1.28.27-2.51.6-3.77,1l-3.81,1.17.71-.69a12.73,12.73,0,0,0-.45,2.26c-.09.8-.14,1.61-.16,2.43s0,1.64,0,2.46a19.87,19.87,0,0,0,.21,2.38l-1-.9c3.1.09,6.23.1,9.33,0a1.08,1.08,0,0,1,1.11,1.05,1,1,0,0,1-.1.48v0h0a60.29,60.29,0,0,0-4,12.16,85.94,85.94,0,0,0-1.92,12.77c-.09,1.07-.15,2.15-.2,3.23a3.06,3.06,0,0,0,.07,1.21,2,2,0,0,0,.55.87,2.17,2.17,0,0,0,.42.31l.24.11.37.15,1.52.6c1,.38,2,.78,3,1.14A37.84,37.84,0,0,0,182.13,118c2.12.09,4.28,0,6.45-.09s4.31-.25,6.45-.49,4.28-.55,6.38-1l.79-.16a1.63,1.63,0,0,0,.47-.16,1.46,1.46,0,0,0,.65-.65,2.36,2.36,0,0,0,.2-1.12l.08-1.62a122.14,122.14,0,0,0-.11-13c-.14-2.15-.35-4.29-.68-6.41s-.71-4.21-1-6.35h0a.71.71,0,0,1,1.33-.41A22.19,22.19,0,0,1,205,93c.35,2.2.58,4.4.73,6.6a126.8,126.8,0,0,1,.17,13.22l-.08,1.65a4.49,4.49,0,0,1-.43,2.05,3.88,3.88,0,0,1-1.62,1.64,4.16,4.16,0,0,1-1.07.38l-.82.17c-2.18.43-4.37.76-6.56,1s-4.4.43-6.61.53-4.4.19-6.65.1a32.45,32.45,0,0,1-6.71-.92,58.23,58.23,0,0,1-6.37-2c-1-.37-2.06-.77-3.09-1.16l-1.53-.61-.38-.15a4.59,4.59,0,0,1-.5-.24,4.49,4.49,0,0,1-.9-.65,4.36,4.36,0,0,1-1.18-1.88,4.62,4.62,0,0,1-.2-1.11c0-.42,0-.61,0-.91,0-1.11.11-2.21.21-3.31a86.46,86.46,0,0,1,2.06-13.1,62.43,62.43,0,0,1,4.32-12.61h0l1,1.56c-3.17.1-6.31.08-9.47,0h0a1.08,1.08,0,0,1-1-.9,22.65,22.65,0,0,1-.24-2.66c0-.87,0-1.73,0-2.6a25.82,25.82,0,0,1,.18-2.62,15.08,15.08,0,0,1,.54-2.69,1.08,1.08,0,0,1,.69-.69h0l3.8-1.16c1.29-.4,2.62-.75,3.94-1,2.65-.56,5.27-1,7.9-1.42a1.08,1.08,0,0,1,1.24.89,1.07,1.07,0,0,1-.89,1.24Z"/><path class="cls-3" d="M201.21,70.21a45.5,45.5,0,0,1,8,7,28,28,0,0,1,5.7,9.11h0a1.05,1.05,0,0,1-.36,1.22l0,0c-1.27.9-2.57,1.77-3.92,2.57a19.71,19.71,0,0,1-4.24,2.1.61.61,0,0,1-.76-.4.63.63,0,0,1,.19-.65h0c1.19-1,2.49-1.77,3.73-2.67l3.73-2.7L212.88,87h0a25.76,25.76,0,0,0-5.27-8.39A42.57,42.57,0,0,0,200,72h0a1.08,1.08,0,1,1,1.22-1.78Z"/><path class="cls-3" d="M201.42,64.16a29.06,29.06,0,0,1,.4,3.36,13,13,0,0,1-.06,3.36,1.08,1.08,0,0,1-1.25.88,1.09,1.09,0,0,1-.89-1v-.11a12.31,12.31,0,0,1,.25-3.26,29.67,29.67,0,0,1,.7-3.26v0a.44.44,0,0,1,.54-.31A.46.46,0,0,1,201.42,64.16Z"/><path class="cls-15" d="M175.3,68.58c0-6,.73-13.41,3.17-19"/><path class="cls-3" d="M181.73,65.16a4.54,4.54,0,0,0,2.22.93,8.34,8.34,0,0,0,2.94,0h.05a.53.53,0,0,1,.61.41.55.55,0,0,1-.13.45,4.44,4.44,0,0,1-3.74,1.26,4.91,4.91,0,0,1-2-.65,2.89,2.89,0,0,1-1.43-1.89.74.74,0,0,1,1.24-.68Z"/><path class="cls-15" d="M209.21,90.15c4.11,5.65,7.81,12.15,4.16,30.87,2.3.36,3.38,1.44,3.5,3.24"/><path class="cls-15" d="M159.06,76.82c-2.62,1.9-19.86,7.61-25.72-1.12-.66,2.22-5.17,2.3-7.26.26"/><path class="cls-3" d="M186.3,74.57c1.89-.61,3.82-1.36,5.72-2.16l5.73-2.47a.54.54,0,0,1,.61.86A18.71,18.71,0,0,1,193,74.56a26.87,26.87,0,0,1-3,1.29,16.28,16.28,0,0,1-3.23.83,1.08,1.08,0,0,1-.49-2.1Z"/><path class="cls-3" d="M181,75.72a18.34,18.34,0,0,1-2.79-2,26.19,26.19,0,0,1-2.41-2.3.64.64,0,0,1,0-.93.66.66,0,0,1,.87,0,28.42,28.42,0,0,0,2.56,1.83A20.82,20.82,0,0,0,182,73.78a1.08,1.08,0,0,1-.85,2Z"/><path class="cls-3" d="M170.85,119.27a3.21,3.21,0,0,1-.64,2.09,3,3,0,0,1-.76.78,2,2,0,0,1-1.08.4.64.64,0,0,1-.65-.6.72.72,0,0,1,.08-.32l0-.1a4.17,4.17,0,0,1,1.15-1.25l1.41-1.16v0a.27.27,0,0,1,.37,0A.35.35,0,0,1,170.85,119.27Z"/><path class="cls-3" d="M195.57,120.16a12.54,12.54,0,0,0,1.49,1.77,7.23,7.23,0,0,0,1.74,1.24l.12.06a.55.55,0,0,1-.12,1,2.71,2.71,0,0,1-1.65-.19,4.16,4.16,0,0,1-1.31-.89,3.75,3.75,0,0,1-1.17-2.81.48.48,0,0,1,.51-.44.46.46,0,0,1,.36.2Z"/><path class="cls-15" d="M181.69,74.85a74.83,74.83,0,0,1,2,12.27c1-6.21,1.61-8.93,2.78-11.48"/><line class="cls-15" x1="187.98" y1="78.42" x2="187.93" y2="78.5"/><line class="cls-15" x1="187.98" y1="82.92" x2="187.93" y2="83.01"/><path class="cls-3" d="M180.11,41.25a9.08,9.08,0,0,0-1.17-1.69,5.08,5.08,0,0,0-1.43-1.19.45.45,0,0,0-.21-.08h0a.91.91,0,0,0,.33-.06l.11-.06h0a2.18,2.18,0,0,0-.3.66,8.8,8.8,0,0,0-.38,2,12.35,12.35,0,0,0,.32,4.15,10.62,10.62,0,0,0,.74,2,16.06,16.06,0,0,1,1,1.9v0a.76.76,0,0,1-.49,1,.76.76,0,0,1-.63-.07,5,5,0,0,1-1.57-1.92,11.65,11.65,0,0,1-1-2.29,12.45,12.45,0,0,1-.57-4.93,10.43,10.43,0,0,1,.53-2.51,4.26,4.26,0,0,1,.75-1.36,1.12,1.12,0,0,1,.22-.21,1.4,1.4,0,0,1,.35-.23,1.34,1.34,0,0,1,.6-.13,1.28,1.28,0,0,1,.33,0,2.73,2.73,0,0,1,.85.34,6,6,0,0,1,1.87,2,6.7,6.7,0,0,1,.88,2.39.62.62,0,0,1-.52.71.61.61,0,0,1-.64-.32Z"/><path class="cls-3" d="M183.59,47.4a9.37,9.37,0,0,0,3.15,1.31,10.89,10.89,0,0,0,1.7.25c.58,0,1.16,0,1.74.1A13.77,13.77,0,0,0,192,49l1.85-.09c1.24-.06,2.47-.13,3.71-.21a.89.89,0,0,1,.94.83.74.74,0,0,1,0,.26v.05h0l-.15,2.4a21.35,21.35,0,0,0,0,2.4,11.65,11.65,0,0,0,1.28,4.64h0a.42.42,0,0,1-.18.56.39.39,0,0,1-.46-.05A8.49,8.49,0,0,1,196.29,55a10.24,10.24,0,0,1-.19-2.81,8.52,8.52,0,0,1,.64-2.76h0l.9,1.14-3.71.18c-1.25.08-2.42.12-3.75.23a10.71,10.71,0,0,1-3.91-.61,9,9,0,0,1-3.39-2.08.56.56,0,0,1,.7-.86Z"/><path class="cls-3" d="M178.71,49.2a15.75,15.75,0,0,1,1.3-1.69c.24-.26.47-.52.72-.77a1,1,0,0,1,1.05-.42h.06a1.08,1.08,0,0,1,.84.85,1,1,0,0,1-.47,1.1c-.27.25-.56.48-.85.7a8,8,0,0,1-2,1.1.57.57,0,0,1-.75-.34.56.56,0,0,1,0-.52Z"/><path class="cls-3" d="M181.26,40.13a8.57,8.57,0,0,1,2.35-1.34,11.8,11.8,0,0,1,2.59-.69,19.2,19.2,0,0,1,5.3,0,18.11,18.11,0,0,1,9.75,4.15,12.44,12.44,0,0,1,3.2,4.47,13,13,0,0,1,1,5.41A19.28,19.28,0,0,1,202,62.05a.64.64,0,0,1-1.11-.61l0,0a30.12,30.12,0,0,0,1.62-4.62,19.25,19.25,0,0,0,.69-4.73,10.56,10.56,0,0,0-3.43-8.26,16.35,16.35,0,0,0-8.58-3.91,19,19,0,0,0-4.82-.13,13.11,13.11,0,0,0-4.6,1.21h0a.5.5,0,0,1-.67-.23A.51.51,0,0,1,181.26,40.13Z"/><path class="cls-2" d="M82.81,31.79a17,17,0,0,1,3,0c1,.1,2,.25,3,.44s2,.4,2.94.65a28.12,28.12,0,0,1,2.92.91.4.4,0,0,1,.23.52.42.42,0,0,1-.33.26,26.17,26.17,0,0,1-3,.15c-1,0-2,0-3-.11a29.69,29.69,0,0,1-3-.31,18,18,0,0,1-2.94-.72.95.95,0,0,1,.23-1.83Z"/><path class="cls-2" d="M90.79,26.67a16.49,16.49,0,0,1,4,2.09,25.85,25.85,0,0,1,3.55,2.82.4.4,0,0,1,0,.57.39.39,0,0,1-.42.1,26.06,26.06,0,0,1-4.09-1.95,16.56,16.56,0,0,1-3.65-2.66.6.6,0,0,1,0-.84A.58.58,0,0,1,90.79,26.67Z"/><path class="cls-2" d="M93.42,18.68a18.78,18.78,0,0,1,2.83,3.89,28.48,28.48,0,0,1,2.12,4.33.4.4,0,0,1-.66.42,29.11,29.11,0,0,1-3-3.79,18.18,18.18,0,0,1-2.27-4.24.59.59,0,0,1,.35-.75A.63.63,0,0,1,93.42,18.68Z"/><path class="cls-2" d="M162.89,8.58a16.88,16.88,0,0,1-1.16,2.77c-.47.88-1,1.74-1.52,2.57s-1.1,1.67-1.7,2.48a28,28,0,0,1-1.92,2.34.42.42,0,0,1-.58,0,.4.4,0,0,1-.11-.4,27,27,0,0,1,1-2.87c.38-.93.78-1.85,1.22-2.74s.9-1.78,1.41-2.64a17.12,17.12,0,0,1,1.76-2.44.94.94,0,0,1,1.6.91Z"/><path class="cls-2" d="M164.73,17.83a16.66,16.66,0,0,1-3.45,2.9A25.38,25.38,0,0,1,157.33,23a.4.4,0,0,1-.53-.2.42.42,0,0,1,.07-.43,24.1,24.1,0,0,1,3.35-3.05,16.55,16.55,0,0,1,3.84-2.37.59.59,0,0,1,.67.93Z"/><path class="cls-2" d="M171.22,23.22a19.3,19.3,0,0,1-4.69,1.17,29.9,29.9,0,0,1-4.84.34.4.4,0,0,1-.39-.41.38.38,0,0,1,.25-.36,29.06,29.06,0,0,1,4.66-1.35,18.43,18.43,0,0,1,4.81-.52.59.59,0,0,1,.56.61A.61.61,0,0,1,171.22,23.22Z"/><ellipse class="cls-2" cx="129.35" cy="42.95" rx="21.61" ry="21.44"/><path class="cls-16" d="M149.84,47.72c-2.46,9.05-9.34,15.5-19.52,16.79L120.22,54l18.69-17.66Z"/><rect class="cls-3" x="119.92" y="35.48" width="19.23" height="19.37" rx="1.93" ry="1.93" transform="translate(81.48 173.66) rotate(-88.72)"/><rect class="cls-3" x="120.02" y="30.86" width="4.84" height="12.82" transform="translate(0.86 -2.73) rotate(1.28)"/><rect class="cls-2" x="124.69" y="40.36" width="9.69" height="9.61" rx="1.53" ry="1.53" transform="translate(1.04 -2.89) rotate(1.28)"/><ellipse class="cls-17" cx="129.53" cy="42.59" rx="25.05" ry="25.46" transform="translate(5.85 100.01) rotate(-43.1)"/><path class="cls-3" d="M148.38,34.36a19.82,19.82,0,0,1,2.84,10,21.67,21.67,0,0,1-3.22,10,22,22,0,0,1-17.63,10.37,22.3,22.3,0,0,1-10.34-2,22,22,0,0,1-8.22-6.59,19,19,0,0,1-1.47-2.22c-.22-.39-.45-.77-.66-1.16l-.54-1.21a19.75,19.75,0,0,1-1.51-5.09,20,20,0,0,1,1.85-10.18,21.25,21.25,0,0,0,.16,9.85,19.83,19.83,0,0,0,11.24,14.75,20.26,20.26,0,0,0,9.39,1.84,20,20,0,0,0,16-9.41,19.23,19.23,0,0,0,2.9-9.09A21.71,21.71,0,0,0,148.38,34.36Z"/><path class="cls-4" d="M145.21,29.41c.3.35.59.7.86,1.07"/><path class="cls-3" d="M145.21,29.41c.36-.23.62-.38.89-.53a.83.83,0,0,0,.11.15l.22.28.23.27.11.14c-.21.24-.41.47-.7.76l-.91.48-.1-.12-.21-.26-.2-.25s-.06-.09-.11-.12C144.73,30,144.93,29.73,145.21,29.41Z"/><path class="cls-3" d="M113.82,29a14.15,14.15,0,0,1,2.25-3.42,23.86,23.86,0,0,1,3.46-2.11A22.1,22.1,0,0,1,135.32,22a24.4,24.4,0,0,1,3.78,1.46,16.39,16.39,0,0,1,2.84,2.93c-1.28-.43-2.51-.83-3.74-1.11a22.39,22.39,0,0,0-3.44-1.32,20.08,20.08,0,0,0-14.34,1.32,18.61,18.61,0,0,0-3.12,1.93A34.59,34.59,0,0,0,113.82,29Z"/><path class="cls-3" d="M121,66.78a19.47,19.47,0,0,1-4.78-1,27.1,27.1,0,0,1-4-2.79,26,26,0,0,1-6.15-7.53,26,26,0,0,1-3.14-14.13,19.58,19.58,0,0,1,1.76-4.57,36,36,0,0,0,.27,4.7,25.06,25.06,0,0,0,.14,4.5,24.29,24.29,0,0,0,8.43,15.48A23,23,0,0,0,117.24,64,43.08,43.08,0,0,0,121,66.78Z"/><path class="cls-4" d="M133.7,67.78a25.46,25.46,0,0,1-8.88,0"/><path class="cls-3" d="M133.7,67.78a6.51,6.51,0,0,1-1,1.19l-1.15.11c-.78.07-1.55.1-2.32.1s-1.55,0-2.32-.11c-.38,0-.77-.07-1.15-.12a8.25,8.25,0,0,1-1-1.18c.44-.34.84-.58,1.24-.84.35,0,.71.09,1.06.12.72.06,1.43.1,2.14.1s1.43,0,2.14-.09c.36,0,.71-.06,1.06-.13A14.58,14.58,0,0,1,133.7,67.78Z"/><path class="cls-3" d="M154.37,38.8c.27.42.52.87.75,1.32s.4.93.59,1.4l0,1.46-.05,1.46a25.94,25.94,0,0,1-1,5.73,26.24,26.24,0,0,1-2.23,5.37l-.73,1.26c-.28.4-.53.81-.81,1.21s-.82.6-1.24.87-.88.51-1.33.74c.15-.49.31-1,.47-1.41l.44-1.37c.23-.38.5-.74.74-1.12l.68-1.16a24.29,24.29,0,0,0,3-10.24,24.14,24.14,0,0,0,0-2.69l.35-1.38C154.11,39.78,154.23,39.29,154.37,38.8Z"/><path class="cls-4" d="M152.4,32.43c.19.41.37.82.54,1.25"/><path class="cls-3" d="M152.4,32.43c.41-.12.7-.2,1-.27,0,.07,0,.11.06.17l.14.32.14.33.07.16-.87.54-1,.22-.07-.15-.13-.3-.12-.29a.71.71,0,0,0-.08-.15C151.79,32.84,152,32.66,152.4,32.43Z"/><path class="cls-3" d="M108.34,28.7a21.07,21.07,0,0,1,3.51-5.47,27.39,27.39,0,0,1,5.44-3.65,22.86,22.86,0,0,1,3-1.28l1.55-.51c.52-.18,1.06-.27,1.59-.4a29.44,29.44,0,0,1,3.23-.55,29.87,29.87,0,0,1,3.28-.11,26.55,26.55,0,0,1,17.74,7.38A22.86,22.86,0,0,1,151,29.73a31.78,31.78,0,0,0-4.67-4.15,24.51,24.51,0,0,0-16.38-6.81,25.56,25.56,0,0,0-3,.09,27.69,27.69,0,0,0-3,.51c-.49.13-1,.21-1.46.37l-1.44.47a20.16,20.16,0,0,0-2.79,1.19,23.76,23.76,0,0,0-5,3.38A31.16,31.16,0,0,0,108.34,28.7Z"/><path class="cls-4" d="M105.72,33.57c.15-.37.31-.73.47-1.09"/><path class="cls-3" d="M105.72,33.57c-.37-.2-.63-.36-.89-.53a.42.42,0,0,0,.07-.13l.12-.29.13-.28.06-.14,1,.28.87.56-.06.13-.11.26-.11.26a.29.29,0,0,0,0,.13Z"/></g></g></svg>