<svg xmlns="http://www.w3.org/2000/svg" xmlns:xlink="http://www.w3.org/1999/xlink" viewBox="0 0 247.91 269.32"><defs><style>.cls-1,.cls-13,.cls-19,.cls-31,.cls-32,.cls-33,.cls-36,.cls-38,.cls-4,.cls-5,.cls-6,.cls-7{fill:none;}.cls-10,.cls-12,.cls-2,.cls-27,.cls-28{fill:#233348;}.cls-2,.cls-35{opacity:0.1;}.cls-3{opacity:0.7;}.cls-13,.cls-14,.cls-20,.cls-21,.cls-22,.cls-24,.cls-31,.cls-32,.cls-33,.cls-36,.cls-37,.cls-4,.cls-7{stroke:#233348;}.cls-13,.cls-14,.cls-19,.cls-20,.cls-21,.cls-22,.cls-24,.cls-31,.cls-32,.cls-33,.cls-36,.cls-37,.cls-38,.cls-4,.cls-5,.cls-6,.cls-7{stroke-linecap:round;stroke-linejoin:round;}.cls-4,.cls-5{stroke-width:1.98px;}.cls-38,.cls-5,.cls-6{stroke:#fdc800;}.cls-6,.cls-7{stroke-width:1.26px;}.cls-22,.cls-8{fill:#e5eefd;}.cls-9{fill:#717791;}.cls-11,.cls-20,.cls-21,.cls-24,.cls-37{fill:#fff;}.cls-12,.cls-26{opacity:0.3;}.cls-13,.cls-14,.cls-19,.cls-20{stroke-width:2.16px;}.cls-14,.cls-17{fill:#fdc800;}.cls-15{opacity:0.4;}.cls-16{clip-path:url(#clip-path);}.cls-18{fill:#b8d4ff;}.cls-19{stroke:#717791;}.cls-21{stroke-width:2.11px;}.cls-22,.cls-24{stroke-width:2.19px;}.cls-23{clip-path:url(#clip-path-2);}.cls-25,.cls-28{opacity:0.5;}.cls-27{opacity:0.2;}.cls-28{font-size:10.2px;font-family:SFUIDisplay-Bold, SF UI Display;font-weight:700;}.cls-29{letter-spacing:-0.02em;}.cls-30{letter-spacing:-0.01em;}.cls-31,.cls-32,.cls-33{stroke-width:1.72px;}.cls-32{stroke-dasharray:8.61 2.87;}.cls-33{stroke-dasharray:8.25 2.75;}.cls-34{fill:#3f72ba;opacity:0.2;}.cls-36,.cls-37{stroke-width:1.28px;}.cls-38{stroke-width:1.67px;}</style><clipPath id="clip-path"><rect class="cls-1" x="34.9" y="16.62" width="108.81" height="156.91"/></clipPath><clipPath id="clip-path-2"><path class="cls-1" d="M232.81,40.91h17.11V5.36h-95.1V40.91h.65a44.31,44.31,0,1,0,77.34,0Z"/></clipPath></defs><title>Asset 17</title><g id="Layer_2" data-name="Layer 2"><g id="Layer_1-2" data-name="Layer 1"><path class="cls-2" d="M243.85,143.17c-1.39,14.15-9.42,28.33-11.49,30s-5.8.75-8.39.75H18.77l-.11-.22c-5.1-8.9-10.89-17.53-13.78-27.48-8-27.73,17.6-46.48,34.18-64.22C48.55,71.83,49.27,57.2,57.48,46.35,68.73,31.5,87.75,23.76,105.9,22.55c20.87-1.39,38.61,6.12,51.29,23,10.43,13.88,16.37,35.37,32.75,43.72,5.88,3,12.69,3.37,19.06,5.07C229.76,99.89,246,121.35,243.85,143.17Z"/><g class="cls-3"><line class="cls-4" x1="128.68" y1="66.88" x2="128.68" y2="74.93"/><line class="cls-4" x1="132.71" y1="70.91" x2="124.65" y2="70.91"/></g><circle class="cls-5" cx="209.83" cy="13.94" r="1.63"/><circle class="cls-5" cx="245.29" cy="2.62" r="1.63"/><circle class="cls-4" cx="148.31" cy="107.88" r="1.63"/><rect class="cls-6" x="242.18" y="36.79" width="3.01" height="3.01" transform="translate(271.06 283.45) rotate(-105.31)"/><g class="cls-3"><line class="cls-4" x1="25.63" y1="103.06" x2="25.63" y2="111.11"/><line class="cls-4" x1="29.67" y1="107.09" x2="21.6" y2="107.09"/></g><rect class="cls-7" x="51.48" y="73.91" width="3.01" height="3.01" transform="translate(-5.76 146.43) rotate(-105.31)"/><line class="cls-8" x1="232.49" y1="174.68" x2="237.27" y2="174.68"/><path class="cls-9" d="M232.49,174.07a6.18,6.18,0,0,1,2.39-.33,12.91,12.91,0,0,1,2.39.24.72.72,0,0,1,.56.84.7.7,0,0,1-.56.55,12.91,12.91,0,0,1-2.39.24,6.18,6.18,0,0,1-2.39-.33.65.65,0,0,1-.37-.84A.64.64,0,0,1,232.49,174.07Z"/><line class="cls-8" x1="14.35" y1="174.68" x2="228.98" y2="174.68"/><path class="cls-10" d="M14.35,174.1c9-.26,17.89-.3,26.83-.3l26.83,0,53.66,0,53.65,0,26.83,0c8.94,0,17.89,0,26.83.26a.75.75,0,0,1,0,1.49c-8.94.23-17.89.25-26.83.26l-26.83,0-53.65,0-53.66,0-26.83,0c-8.94,0-17.88,0-26.83-.3a.57.57,0,0,1-.55-.59A.56.56,0,0,1,14.35,174.1Z"/><line class="cls-8" x1="9.07" y1="174.68" x2="9.77" y2="174.68"/><path class="cls-10" d="M9.07,173.82a1.36,1.36,0,0,1,.35,0,.39.39,0,0,1,.18,0,.47.47,0,0,1,.17.07.88.88,0,0,1,.24,1.23.91.91,0,0,1-.24.24.47.47,0,0,1-.17.07.39.39,0,0,1-.18,0,1.36,1.36,0,0,1-.35,0,.88.88,0,0,1,0-1.71Z"/><line class="cls-8" x1="0.48" y1="174.68" x2="3.96" y2="174.68"/><path class="cls-10" d="M.48,174.06a8.67,8.67,0,0,1,1.74-.24A5.16,5.16,0,0,1,4,174a.72.72,0,0,1,.47.9.73.73,0,0,1-.47.47,5.16,5.16,0,0,1-1.74.17,8,8,0,0,1-1.74-.24.63.63,0,0,1-.46-.78A.62.62,0,0,1,.48,174.06Z"/><line class="cls-8" x1="96.95" y1="186.07" x2="163.94" y2="186.07"/><path class="cls-10" d="M97,185.5c2.79-.27,5.58-.3,8.37-.31l8.38,0,16.74-.09h25.12c2.8,0,5.59,0,8.38.25a.75.75,0,0,1,0,1.5c-2.79.23-5.58.24-8.38.25H130.44L113.7,187l-8.38,0c-2.79,0-5.58,0-8.37-.3a.58.58,0,0,1,0-1.15Z"/><line class="cls-8" x1="69.39" y1="186.07" x2="86.55" y2="186.07"/><path class="cls-10" d="M69.39,185.45c2.86-.15,5.72-.21,8.58-.23s5.72,0,8.58.16a.7.7,0,0,1,.65.73.69.69,0,0,1-.65.65c-2.86.18-5.72.19-8.58.16s-5.72-.08-8.58-.23a.62.62,0,0,1-.59-.65A.63.63,0,0,1,69.39,185.45Z"/><polygon class="cls-11" points="202.31 158.83 202.75 164.49 203.53 174.48 219.54 174.48 220.13 167 220.97 156.11 221.51 149.23 201.56 149.23 202.31 158.83"/><path class="cls-12" d="M221.67,141h-2.36A1.48,1.48,0,0,0,218,142.4H199.9l-.68,6.83h23.42l0-6.94A1.15,1.15,0,0,0,221.67,141Z"/><polyline class="cls-13" points="221.51 149.23 220.97 156.11 220.13 167 219.54 174.48 203.53 174.48 202.75 164.49 202.31 158.83 201.56 149.23"/><path class="cls-13" d="M222.68,142.29a1.15,1.15,0,0,0-1-1.26h-2.36A1.48,1.48,0,0,0,218,142.4H199.9l-.68,6.83h23.42Z"/><path class="cls-14" d="M221,156.11,220.13,167a2.86,2.86,0,0,1-2,.95c-2.21,0-4-3.12-4-7s1.79-7,4-7A3.48,3.48,0,0,1,221,156.11Z"/><line class="cls-13" x1="202.31" y1="158.83" x2="214.3" y2="158.83"/><line class="cls-13" x1="214.65" y1="164.49" x2="202.75" y2="164.49"/><g class="cls-15"><path class="cls-8" d="M220.22,137.47c-5-3.64,2.15-11.82-2.66-18.88"/><path class="cls-10" d="M219.89,137.92a4.75,4.75,0,0,1-1.87-2.11,6.66,6.66,0,0,1-.55-2.73,40,40,0,0,1,.46-5.07,19.3,19.3,0,0,0,.12-4.66,21.31,21.31,0,0,0-1.17-4.3v0a.83.83,0,0,1,1.36-.88,7.57,7.57,0,0,1,2.19,5,19,19,0,0,1-.36,5.25,47.82,47.82,0,0,0-.85,4.78,6.09,6.09,0,0,0,.18,2.15,3.83,3.83,0,0,0,1.15,1.75h0a.57.57,0,0,1,0,.79A.55.55,0,0,1,219.89,137.92Z"/></g><g class="cls-15"><path class="cls-8" d="M222.91,137.75c-3.13-3,2.69-8,.05-13.41"/><path class="cls-10" d="M222.64,138a5.2,5.2,0,0,1-.66-.74,3.07,3.07,0,0,1-.42-.92c0-.16-.09-.33-.12-.49l0-.5a6.07,6.07,0,0,1,0-1,25,25,0,0,1,.84-3.48,12.91,12.91,0,0,0,.54-3.23,17.92,17.92,0,0,0-.37-3.12v0a.59.59,0,0,1,.48-.68.57.57,0,0,1,.56.22,5.4,5.4,0,0,1,1,3.67,14,14,0,0,1-.77,3.61,34,34,0,0,0-1.06,3.25,3.08,3.08,0,0,0,.52,2.85l0,.05a.39.39,0,1,1-.58.51Z"/></g><g class="cls-16"><path class="cls-11" d="M110.82,83.32a76.24,76.24,0,0,0-7.3-41.9c-1.9-3.85-2.19-7.61-5.39-10.49a16.42,16.42,0,0,0-11.72-4.56c-4.37.27-8.32,2.76-11.49,5.77-5.69,5.43-8.4,12.69-9.43,20.48-.71,5.27-2.62,12.17-2.11,17.47.54,5.53.46,9.66,1,15.19a8.24,8.24,0,0,0,.7,3.07c1,1.94,3.35,2.73,5.46,3.31a173.16,173.16,0,0,0,17.85,3.91c5.34.87,10.88,1.49,16.08.05S114.53,90.26,115.56,85c.41-2.11-2.3-.51-3.52-2.27"/><path class="cls-17" d="M123,89.7c-3.44-2.42-10.18-10.28-13.62-7.87-5,3.51-6.73,5.6-13.26,8.94-9.08,4.65-8.29,2.7-13.27.46C78.48,89.29,72.68,88,68.65,84.4c-4.57-4-10.08-.94-14.58,3.17s-8.62,11.1-10.78,16.8c-4.95,13-6.52,20.41-5.51,29.14.5,4.39,10.67,15.63,14.12,18.93,1,1,6.79,3.81,7.12,5.19,1,4.3,4.39,7.65,7.7,4.72,2-1.81-6.66-1.69-5.88-4.3,3.66-12.33-3.88,5.91-.22-6.41-2.72,7-4.78-7.23-5.58,5-.19,2.75-1,7.35.51,9.62,1.73,2.57,5.77,1.85,8.82,2.44A117.16,117.16,0,0,0,120,166c3.36-1,8-2.4,10.62-4.69,6.05-5.24-1.18-14,.51-20.71,1-4.15,6.9-12.89,4.19-21-.75-2.23-.92-9.61-1.76-11.81-.29-.76-8-16.26-8.6-16.34"/><path class="cls-18" d="M126.88,168.82c-2.08,19-3.17,38.05-5.24,57.08-1.53,14-3.09,28.12-7.91,41.33a4.69,4.69,0,0,1-4.27-2.38,13.3,13.3,0,0,1-1.52-4.89c-3-17.52-5-37.66-3.67-55.38a58.78,58.78,0,0,0-.59-7.82c2.78-.59-4.56.48-7.5.42-2.35-.05-4.93,0-6.73,1.5-2.1,1.76-2.34,4.84-2.49,7.57a198.42,198.42,0,0,1-13.61,62.44c-3.8-1.35-5.16-5.94-5.84-9.91-2.46-14.49-2.88-29.24-3.3-43.93L63,170.69c12.76.94,25.6,1.88,38.32.57,8.77-.89,17.27-4.13,25.56-7.1.8,2.26-1.14,1.18-.34,3.44"/><path class="cls-9" d="M127.62,163.94q-.9,21.85-2.75,43.64c-.64,7.26-1.35,14.51-2.2,21.76s-1.82,14.47-3.15,21.68A95,95,0,0,1,117,261.76a20.41,20.41,0,0,1-2.32,5.29,5,5,0,0,1-1.2,1.25,2.82,2.82,0,0,1-1,.45,2.69,2.69,0,0,1-1.13,0,3.48,3.48,0,0,1-1.71-.95,6.57,6.57,0,0,1-1-1.29,20.56,20.56,0,0,1-2-5.42c-.44-1.81-.76-3.63-1-5.45-.54-3.64-.89-7.29-1.17-10.93-1.05-14.59-1.14-29.17-.83-43.72a.55.55,0,0,1,.56-.54.56.56,0,0,1,.54.52c.7,14.55.75,29.11,1.83,43.57.29,3.62.64,7.22,1.18,10.78.27,1.78.59,3.54,1,5.26a18.52,18.52,0,0,0,1.75,4.81c.39.67.92,1.2,1.29,1.24a.5.5,0,0,0,.22,0,.6.6,0,0,0,.24-.11,3.22,3.22,0,0,0,.66-.73,18.65,18.65,0,0,0,2-4.69,96,96,0,0,0,2.45-10.5c1.3-7.12,2.24-14.32,3.08-21.54s1.52-14.45,2.13-21.69c1.23-14.49,2.26-29,2.9-43.52a1.08,1.08,0,1,1,2.16.08Z"/><path class="cls-9" d="M109.23,194.46c-1.59.81-3.18,1.62-4.84,2.32a26.41,26.41,0,0,1-5.18,1.7,15.27,15.27,0,0,1-2.79.3,19.56,19.56,0,0,1-2.78-.21c-1.82-.26-3.54-.64-5.27-.93l1.29-1h0c-.4,7.4-1.38,14.66-2.43,21.94s-2.31,14.5-3.77,21.7c-.73,3.6-1.52,7.19-2.4,10.76s-1.87,7.14-3.13,10.65a29,29,0,0,1-2.37,5.19,8.24,8.24,0,0,1-.94,1.26A3.69,3.69,0,0,1,73,269.22a2.29,2.29,0,0,1-.61.1H72a4.18,4.18,0,0,1-.92-.19,4.29,4.29,0,0,1-1.56-.93,8.11,8.11,0,0,1-1.76-2.62,19.48,19.48,0,0,1-1-2.74,48.8,48.8,0,0,1-1.16-5.49c-1.14-7.33-1.56-14.66-2-22s-.62-14.66-.81-22c-.39-14.66-.58-29.31-.74-44a1.08,1.08,0,0,1,2.15,0h0c.16,14.65.36,29.29.74,43.92.2,7.31.44,14.63.81,21.93s.84,14.6,1.94,21.75a49.86,49.86,0,0,0,1.11,5.25,10.23,10.23,0,0,0,2.12,4.36,2.19,2.19,0,0,0,.77.47,2.05,2.05,0,0,0,.43.09h.22l.06,0a1.69,1.69,0,0,0,.62-.48,6.68,6.68,0,0,0,.7-.95,26.06,26.06,0,0,0,2.17-4.78,164.46,164.46,0,0,0,5.45-21.1c1.45-7.16,2.68-14.36,3.75-21.59s2-14.49,2.41-21.72h0v-.06a1.06,1.06,0,0,1,1.14-1l.15,0c1.75.4,3.47.88,5.14,1.22a13.87,13.87,0,0,0,5,.2,25,25,0,0,0,5-1.36c1.64-.59,3.26-1.31,4.87-2h0a.5.5,0,0,1,.43.9Z"/><path class="cls-9" d="M132.89,140.39a15.87,15.87,0,0,1,.87,3.45c.09.58.15,1.15.22,1.74s.12,1.24.15,1.85c.1,2.46-.17,4.82-.23,7.11,0,.57,0,1.14,0,1.7,0,.26,0,.62,0,1a7.36,7.36,0,0,1-.14,1,7.05,7.05,0,0,1-2,3.61,7.17,7.17,0,0,1-1.67,1.22c-.66.34-1.15.51-1.71.74l-3.27,1.35c-4.38,1.77-8.78,3.5-13.34,4.91a56.32,56.32,0,0,1-14.11,2.61c-4.78.27-9.5.11-14.23,0s-9.46-.59-14.16-1.17c-2.36-.3-4.71-.63-7-1.06l-1.75-.33-.89-.18a5.53,5.53,0,0,1-1-.31,6.13,6.13,0,0,1-3.15-2.83,6,6,0,0,1-.65-2.06,8.63,8.63,0,0,1-.06-.95l0-.89-.15-3.55a22,22,0,0,1,.43-7.11.48.48,0,0,1,.59-.33.49.49,0,0,1,.33.35,33.07,33.07,0,0,1,.82,7l.18,3.5,0,.88c0,.28,0,.6.06.8a3.69,3.69,0,0,0,.42,1.29,3.85,3.85,0,0,0,2,1.76,3.6,3.6,0,0,0,.66.2l.85.16,1.72.3c2.3.39,4.61.74,6.93,1,4.63.59,9.3,1,14,1.19s9.39.37,14,.12c9.28-.32,18.06-3.79,26.76-7.3l3.25-1.34c.53-.22,1.15-.45,1.53-.66a4.86,4.86,0,0,0,1.17-.85,4.75,4.75,0,0,0,1.34-2.51,4.17,4.17,0,0,0,.08-.7c0-.24,0-.46,0-.8,0-.61,0-1.22,0-1.82,0-2.42.25-4.76.24-7,0-.56,0-1.12-.07-1.67s-.11-1.18-.13-1.77a16,16,0,0,1,.17-3.58.52.52,0,0,1,.61-.42.51.51,0,0,1,.4.32Z"/><path class="cls-10" d="M110.19,77.51a54.1,54.1,0,0,1-.67-8c-.14-2.67-.34-5.33-.62-8a80.86,80.86,0,0,0-3-15.6c-1.56-5-3.86-9.87-7.55-13.42a17.72,17.72,0,0,0-6.41-4c-.59-.24-1.21-.36-1.82-.55a15.85,15.85,0,0,0-1.83-.29,16.44,16.44,0,0,0-3.77.11,19.17,19.17,0,0,0-7.15,2.48,14.89,14.89,0,0,0-5.24,5.28,33.91,33.91,0,0,0-3.21,7.09,63.91,63.91,0,0,0-2,7.66,113.08,113.08,0,0,0-2,15.82,106,106,0,0,0,.19,15.94h0a1,1,0,0,1-2,.21A105.43,105.43,0,0,1,62.75,66a111.39,111.39,0,0,1,1.93-16.15,69.15,69.15,0,0,1,2.1-7.93,36.12,36.12,0,0,1,3.45-7.55,17.21,17.21,0,0,1,6-6,21.37,21.37,0,0,1,8-2.76,18.47,18.47,0,0,1,4.27-.12,15.79,15.79,0,0,1,2.15.35c.68.2,1.37.35,2,.61a19.8,19.8,0,0,1,7.19,4.45c4.1,4,6.5,9.17,8.12,14.37a83.91,83.91,0,0,1,3.07,16q.42,4.05.61,8.1a38.51,38.51,0,0,1-.13,8.1.68.68,0,0,1-.79.56A.67.67,0,0,1,110.19,77.51Z"/><path class="cls-10" d="M91.37,92.84a15,15,0,0,1,4,5l-2,5.27s6.8,25.9,8.41,38.72a7.91,7.91,0,0,1-1.13,5.06c-4.32,7.13-7.5,9.14-7.5,9.14s-7.9-6.94-9.29-9.47,4-43.08,4-43.08L85,98.32,87.31,93Z"/><path class="cls-9" d="M119.06,170.19a22.52,22.52,0,0,0,1.74,3.18c.32.5.69.95,1,1.41s.7.88,1.08,1.33l.08.09a.6.6,0,0,1-.08.85.56.56,0,0,1-.44.14,3.85,3.85,0,0,1-2.09-1,6.78,6.78,0,0,1-1.39-1.69,7.7,7.7,0,0,1-1.18-4.11.64.64,0,0,1,.66-.62.64.64,0,0,1,.56.37Z"/><path class="cls-9" d="M73.79,173.94a4.77,4.77,0,0,1-.34,2.72,7,7,0,0,1-1.52,2.27,7.59,7.59,0,0,1-2.25,1.63,4.84,4.84,0,0,1-2.84.46.64.64,0,0,1-.09-1.24l.07,0a9.58,9.58,0,0,0,3.55-2.35c.52-.52,1-1.09,1.47-1.67s.93-1.19,1.46-1.89h0a.27.27,0,0,1,.38-.05A.27.27,0,0,1,73.79,173.94Z"/><path class="cls-10" d="M79.19,108.31a16.62,16.62,0,0,1-6.33,0,28.46,28.46,0,0,1-5.94-1.72.58.58,0,0,1-.32-.76.59.59,0,0,1,.71-.34h0c.92.27,1.89.49,2.85.67s1.93.31,2.9.4a21.22,21.22,0,0,0,2.87,0,24.64,24.64,0,0,0,2.77-.36h0a1.08,1.08,0,0,1,.43,2.11Z"/><path class="cls-19" d="M71.59,152l9.61,1.22c.2,3.6,1.71,5.45,4.49,5.93"/><path class="cls-13" d="M64.23,82.79c-15.54.88-50.5,61.64,3.21,73.53,4.17.57,3.79-11.74,3.79-11.74-12.46-2.66-21.74-19-11.83-31.63"/><path class="cls-18" d="M65.11,152.41c0,.12,0,.24,0,.35a14.82,14.82,0,0,0-.18,4.06c0,.72,3.55,1.39,4.44,1.15s4.36-13.12,4.26-13.16a16.08,16.08,0,0,0-4.37-.68l-.44,1.38"/><path class="cls-9" d="M65.68,152.5a12.81,12.81,0,0,0,.16,3.3,5.41,5.41,0,0,1,.1.82v.12a.83.83,0,0,0-.06-.27c-.09-.17-.12-.18-.14-.2l.12.06a6.26,6.26,0,0,0,1.38.42,9.3,9.3,0,0,0,1.51.19H69a.7.7,0,0,0-.25.13c-.18.14-.12.1-.13.11a4,4,0,0,0,.28-.58c.42-1,.77-2.07,1.12-3.14.68-2.16,1.32-4.36,1.93-6.56l.43-1.64.1-.4,0-.15v.08a.84.84,0,0,0,.09.47,1.08,1.08,0,0,0,.56.54s0,0,0,0h0l-.08,0c-.2-.08-.45-.14-.69-.21a19.83,19.83,0,0,0-3.21-.38l1-.73-.44,1.39a1,1,0,1,1-2-.64l.44-1.38h0a1,1,0,0,1,1-.72,19.7,19.7,0,0,1,3.63.41,7.63,7.63,0,0,1,1,.27l.13,0h0a1.14,1.14,0,0,1,.56.55,1.24,1.24,0,0,1,.1.49v0a.76.76,0,0,1,0,.16l-.05.27-.11.44L74,147.45c-.6,2.24-1.21,4.45-1.92,6.66-.37,1.11-.72,2.2-1.2,3.34a5.54,5.54,0,0,1-.5,1,1.77,1.77,0,0,1-.41.44,1.52,1.52,0,0,1-.36.17l-.14,0-.19,0a3,3,0,0,1-.59,0,10.51,10.51,0,0,1-1.9-.23,8.8,8.8,0,0,1-1.9-.6,2.49,2.49,0,0,1-.6-.39,1.41,1.41,0,0,1-.41-.54,1.32,1.32,0,0,1-.11-.47v-.1a4.53,4.53,0,0,1,0-.9,18.65,18.65,0,0,1,.75-3.54v0a.58.58,0,0,1,.72-.38A.59.59,0,0,1,65.68,152.5Z"/><path class="cls-19" d="M102.05,152l-9.61,1.22c-.2,3.6-1.71,5.45-4.5,5.93"/><path class="cls-10" d="M109.66,81.12a11.68,11.68,0,0,1,6.47,1.79,29.06,29.06,0,0,1,5.27,4A48.44,48.44,0,0,1,129.52,97a53.93,53.93,0,0,1,8,24.44,35.88,35.88,0,0,1-1.56,13,29.57,29.57,0,0,1-6.67,11.26,35.77,35.77,0,0,1-10.59,7.58,55.25,55.25,0,0,1-12.25,4.13h0l-.07,0a3,3,0,0,1-2.41-.76,5.08,5.08,0,0,1-1.2-1.72,14.16,14.16,0,0,1-1-3.49,33.58,33.58,0,0,1-.37-3.43c-.07-1.15-.1-2.27-.07-3.44a1.07,1.07,0,0,1,.84-1h0a20.85,20.85,0,0,0,8.62-4.29,23.54,23.54,0,0,0,6.1-7.54,17.86,17.86,0,0,0,2-9.32,16.23,16.23,0,0,0-3.5-8.77,1.08,1.08,0,1,1,1.69-1.33,18.41,18.41,0,0,1,4,9.94,19.91,19.91,0,0,1-2.21,10.44,25.4,25.4,0,0,1-6.66,8.25,22.93,22.93,0,0,1-9.53,4.73l.86-1c0,1.06,0,2.17.06,3.25a30.88,30.88,0,0,0,.34,3.21,12.42,12.42,0,0,0,.81,2.94,3,3,0,0,0,.68,1,.78.78,0,0,0,.67.23H106a53.35,53.35,0,0,0,11.74-4,33.49,33.49,0,0,0,9.9-7.14,27.22,27.22,0,0,0,6.12-10.42,33.88,33.88,0,0,0,1.41-12.11,51.54,51.54,0,0,0-7.63-23.35,46.21,46.21,0,0,0-7.71-9.64A27,27,0,0,0,115,84.94a24.78,24.78,0,0,0-5.43-2.33h0a.77.77,0,0,1-.52-.94A.78.78,0,0,1,109.66,81.12Z"/><path class="cls-18" d="M108.53,152.41c0,.12,0,.24,0,.35a14.82,14.82,0,0,1,.18,4.06c0,.72-3.55,1.39-4.45,1.15s-4.35-13.12-4.25-13.16a16.08,16.08,0,0,1,4.37-.68l.44,1.38"/><path class="cls-9" d="M109.09,152.33a19.46,19.46,0,0,1,.75,3.54,6.79,6.79,0,0,1,0,.9v.1a1.57,1.57,0,0,1-.11.47,1.52,1.52,0,0,1-.41.54,2.49,2.49,0,0,1-.6.39,8.8,8.8,0,0,1-1.9.6,10.51,10.51,0,0,1-1.91.23,3,3,0,0,1-.58,0l-.2,0-.14,0a1.63,1.63,0,0,1-.35-.17,1.58,1.58,0,0,1-.41-.44,4.91,4.91,0,0,1-.5-1c-.48-1.14-.84-2.23-1.2-3.34-.71-2.21-1.33-4.42-1.92-6.66l-.44-1.68-.1-.44,0-.27a.52.52,0,0,1,0-.16v0a1.24,1.24,0,0,1,.1-.49,1.1,1.1,0,0,1,.56-.55h0l.12,0a8.28,8.28,0,0,1,1-.27,19.6,19.6,0,0,1,3.63-.41,1,1,0,0,1,1,.72h0l.44,1.38a1,1,0,1,1-2,.64l-.44-1.39,1,.73a19.7,19.7,0,0,0-3.21.38c-.24.07-.49.13-.69.21l-.08,0h0s0,0,0,0a1.11,1.11,0,0,0,.56-.54,1,1,0,0,0,.09-.47v0c0-.08,0-.06,0-.06l0,.15.1.4.43,1.64c.6,2.2,1.25,4.4,1.93,6.56.35,1.07.7,2.16,1.11,3.14a5.09,5.09,0,0,0,.29.58s0,0-.13-.11a.8.8,0,0,0-.25-.13h.25a9.05,9.05,0,0,0,1.5-.19,6.36,6.36,0,0,0,1.39-.42l.12-.06s0,0-.14.2a.63.63,0,0,0-.06.27v-.12c0-.29,0-.55.1-.82a12.81,12.81,0,0,0,.17-3.3.57.57,0,0,1,.54-.6.59.59,0,0,1,.58.4Z"/><path class="cls-10" d="M109.5,82.32a41.62,41.62,0,0,1-9.32,7.86c-1.7,1.12-3.42,2.19-5.2,3.2a30.1,30.1,0,0,1-2.78,1.41,6.34,6.34,0,0,1-.78.31,4.41,4.41,0,0,1-.47.14,2.54,2.54,0,0,1-.65.06,7.08,7.08,0,0,1-1.75-.36,46.83,46.83,0,0,1-5.68-2.42c-1.82-.87-3.62-1.79-5.41-2.71a115.61,115.61,0,0,1-10.55-5.87.35.35,0,0,1-.1-.48.34.34,0,0,1,.4-.14c3.82,1.36,7.39,3.21,11,4.92,1.81.85,3.63,1.7,5.45,2.5a55.88,55.88,0,0,0,5.48,2.15,5.18,5.18,0,0,0,1.19.25.29.29,0,0,0,.1,0l.25-.08c.19-.07.4-.16.61-.26.86-.38,1.72-.87,2.58-1.34,1.73-1,3.42-2,5.09-3.09,3.32-2.2,6.62-4.42,9.82-6.76h0a.5.5,0,0,1,.7.1A.51.51,0,0,1,109.5,82.32Z"/><path class="cls-13" d="M71.93,57.27c-2.07.93-4.93-2.09-7.14-2.7"/><path class="cls-13" d="M102.43,57.27c2.06.93,4.89-2.09,7.09-2.69"/><line class="cls-13" x1="89.37" y1="57.29" x2="85.51" y2="57.34"/><ellipse class="cls-20" cx="79.04" cy="58.05" rx="6.6" ry="6.59"/><ellipse class="cls-20" cx="96.23" cy="57.82" rx="6.6" ry="6.59"/><path class="cls-10" d="M82.45,75.18a19.69,19.69,0,0,0,2.78,1,12.15,12.15,0,0,0,3,.52,12,12,0,0,0,3.09-.29c1.07-.22,2.15-.52,3.26-.81a.51.51,0,0,1,.62.37.5.5,0,0,1-.21.55,18,18,0,0,1-3.12,1.68,10.73,10.73,0,0,1-3.65.86,11,11,0,0,1-3.75-.45,5.75,5.75,0,0,1-3.13-2.31.83.83,0,0,1,.27-1.14.81.81,0,0,1,.77,0Z"/></g><path class="cls-21" d="M34.89,168.93H141.3a1,1,0,0,1,1,1v0a4.21,4.21,0,0,1-4.21,4.21h-100A4.21,4.21,0,0,1,33.86,170v0a1,1,0,0,1,1-1Z"/><path class="cls-11" d="M134.56,174.17H41.63l-3.89-50.31a3.17,3.17,0,0,1,3.16-3.41h94.39a3.17,3.17,0,0,1,3.17,3.41Z"/><path class="cls-10" d="M38.14,136.1c-1-3.36-1-6.8-1.35-10.22l-.1-1.28,0-.64a4.14,4.14,0,0,1,0-.86,4.25,4.25,0,0,1,1.7-2.91,4.14,4.14,0,0,1,1.56-.73,4.94,4.94,0,0,1,.86-.11H44l20.58,0,41.16,0,20.58,0h9a4.24,4.24,0,0,1,1.68.37,4.28,4.28,0,0,1,2.28,2.48,4.35,4.35,0,0,1,.23,1.71l-.1,1.29-.41,5.13-1.6,20.52c-.25,3.42-.49,6.84-.81,10.25a68,68,0,0,1-1.43,10.21.43.43,0,0,1-.84-.06,70.9,70.9,0,0,1,.16-10.31c.22-3.42.51-6.84.79-10.26l1.57-20.52.39-5.13.1-1.27a2,2,0,0,0-.12-.83,2.11,2.11,0,0,0-1.11-1.2,2,2,0,0,0-.81-.17h-9l-20.58,0-41.16,0-20.58,0H41.45c-.2,0-.46,0-.61,0a2,2,0,0,0-.42,0,2,2,0,0,0-.75.35,2,2,0,0,0-.82,1.41,2.88,2.88,0,0,0,0,.42l.05.64.1,1.28c.22,3.43.72,6.83.24,10.31a.55.55,0,0,1-.62.47A.58.58,0,0,1,38.14,136.1Z"/><path class="cls-10" d="M134.56,175.23H41.63a1.06,1.06,0,0,1-1.05-1l-1-13c-.18-2.17-.36-4.34-.46-6.51a32,32,0,0,1,.11-6.56.42.42,0,0,1,.49-.36.45.45,0,0,1,.35.3,31.89,31.89,0,0,1,1.11,6.46c.24,2.16.39,4.33.55,6.5l1,13-1.06-1h92.93a1.06,1.06,0,1,1,0,2.11Z"/><path class="cls-22" d="M238.46,63.66a44.32,44.32,0,1,1-44.32-44.22A44.11,44.11,0,0,1,238.46,63.66Z"/><g class="cls-23"><rect class="cls-24" x="160.02" y="24.53" width="68.25" height="87.48" rx="4.94" ry="4.94"/><line class="cls-11" x1="174.74" y1="32.41" x2="228.27" y2="32.41"/><path class="cls-10" d="M174.74,31.76c4.46-.21,8.92-.27,13.38-.28l13.38-.08c8.92,0,17.84-.1,26.77-.08a1.09,1.09,0,1,1,0,2.18c-8.93,0-17.85,0-26.77-.09l-13.38-.07c-4.46,0-8.92-.07-13.38-.28a.65.65,0,0,1,0-1.3Z"/><line class="cls-11" x1="160.02" y1="32.41" x2="168.31" y2="32.41"/><path class="cls-10" d="M160,31.32a30.15,30.15,0,0,1,4.14.13c1.38.1,2.76.25,4.15.44a.52.52,0,0,1,.45.59.54.54,0,0,1-.45.45c-1.39.19-2.77.34-4.15.44a30.15,30.15,0,0,1-4.14.13,1.09,1.09,0,0,1,0-2.18Z"/><g class="cls-25"><path class="cls-11" d="M218.93,38h.3a2,2,0,0,1,2,2V52.55a2,2,0,0,1-2,2H175.59"/><path class="cls-10" d="M218.93,37.49a1.44,1.44,0,0,1,1.29-.25,2.46,2.46,0,0,1,1.23.79,2.9,2.9,0,0,1,.68,1.31,3.09,3.09,0,0,1,.08.71v.49l0,3.91,0,7.83v.25c0,.1,0,.25,0,.37a3.8,3.8,0,0,1-.18.74,3.07,3.07,0,0,1-.87,1.23,3.16,3.16,0,0,1-1.36.67,4,4,0,0,1-.71.07h-.49l-3.91,0-7.83,0-15.66-.06-7.83,0-3.92,0a9.25,9.25,0,0,1-3.91-.48.63.63,0,0,1-.31-.84.59.59,0,0,1,.31-.31,9.1,9.1,0,0,1,3.91-.49h3.92l7.83,0,15.66-.06,7.83,0,3.91,0h.49a1.34,1.34,0,0,0,.26,0,.93.93,0,0,0,.39-.18.94.94,0,0,0,.25-.34.8.8,0,0,0,.05-.21v-.37l0-7.83,0-3.91v-.49a.93.93,0,0,0,0-.26.88.88,0,0,0-.2-.41,1.86,1.86,0,0,0-.38-.3,4.06,4.06,0,0,0-.63-.48.65.65,0,0,1-.2-.89l.08-.1Z"/></g><g class="cls-25"><path class="cls-11" d="M170.38,54.5h-1.27a2,2,0,0,1-2-2V40a2,2,0,0,1,2-2h45.27"/><path class="cls-10" d="M170.38,55a4.73,4.73,0,0,1-1,.32l-.26.06a1.53,1.53,0,0,1-.37,0,2.4,2.4,0,0,1-.75-.12A2.8,2.8,0,0,1,166.1,53a1.84,1.84,0,0,1,0-.4V48.74l0-8.15v-.51a3.11,3.11,0,0,1,.81-2.2,3.22,3.22,0,0,1,1.36-.87,3.63,3.63,0,0,1,.8-.14h12.8l16.31.09,8.15,0c2.72,0,5.44,0,8.16.27a.76.76,0,0,1,.69.85.78.78,0,0,1-.69.7c-2.72.27-5.44.25-8.16.27l-8.15,0-16.31.08H169.07a.71.71,0,0,0-.2,0,.81.81,0,0,0-.34.21.8.8,0,0,0-.19.35.83.83,0,0,0,0,.26v.51l-.05,8.15v3.93a1.15,1.15,0,0,0,.49.77l.23.14.14.05.26.06a5.38,5.38,0,0,1,1,.32.53.53,0,0,1,.28.71A.57.57,0,0,1,170.38,55Z"/></g><g class="cls-26"><path class="cls-10" d="M196.24,65.41c4.08-.11,8.16-.11,12.23-.09l6.12.09a27,27,0,0,1,6.12.53.49.49,0,0,1,0,1,27,27,0,0,1-6.12.53l-6.12.09c-4.07,0-8.15,0-12.23-.09a1,1,0,0,1,0-2Z"/></g><g class="cls-26"><path class="cls-10" d="M196.24,72.08c2-.16,4.08-.25,6.12-.32s4.08-.1,6.11-.11,4.08,0,6.12.06a33.35,33.35,0,0,1,6.12.57.47.47,0,0,1,.37.57.48.48,0,0,1-.37.38,33.34,33.34,0,0,1-6.12.56c-2,.07-4.08.08-6.12.07s-4.07-.06-6.11-.12-4.08-.16-6.12-.31a.68.68,0,0,1-.62-.73A.67.67,0,0,1,196.24,72.08Z"/></g><g class="cls-26"><path class="cls-10" d="M196.24,78.09C199,78,201.7,78,204.43,78l4.09.08a12.55,12.55,0,0,1,4.09.53.51.51,0,0,1,.3.65.49.49,0,0,1-.3.31,12.55,12.55,0,0,1-4.09.53l-4.09.08c-2.73,0-5.46,0-8.19-.09a1,1,0,0,1,0-2Z"/></g><rect class="cls-27" x="166.64" y="88.62" width="55" height="5.61"/><rect class="cls-27" x="166.64" y="98.16" width="55" height="5.61"/><text class="cls-28" transform="translate(173.73 49.62)"><tspan class="cls-29">r</tspan><tspan x="3.61" y="0">ecei</tspan><tspan class="cls-30" x="23.38" y="0">v</tspan><tspan x="28.74" y="0">ed</tspan></text><path class="cls-17" d="M246.63,16.78A18,18,0,0,1,244,18.63c-.9.53-1.83,1-2.79,1.48s-1.92.88-2.9,1.28a27.89,27.89,0,0,1-3,1,.44.44,0,0,1-.53-.3.41.41,0,0,1,.13-.42,26.59,26.59,0,0,1,2.49-2c.85-.63,1.72-1.23,2.62-1.79s1.8-1.1,2.73-1.59a17.67,17.67,0,0,1,2.94-1.22,1,1,0,0,1,1.23.68A1,1,0,0,1,246.63,16.78Z"/><path class="cls-17" d="M236.85,13.87A12.86,12.86,0,0,1,235.73,16c-.44.67-.9,1.31-1.39,1.92s-1,1.23-1.53,1.82a22.72,22.72,0,0,1-1.7,1.7.43.43,0,0,1-.6-.05.42.42,0,0,1-.07-.44,21.47,21.47,0,0,1,1.09-2.14c.4-.69.82-1.36,1.27-2a21.75,21.75,0,0,1,1.4-1.91,13.53,13.53,0,0,1,1.67-1.72.64.64,0,0,1,.88.09A.63.63,0,0,1,236.85,13.87Z"/><path class="cls-17" d="M231.35,6.55a15.41,15.41,0,0,1-.11,2.55c-.11.84-.25,1.68-.44,2.5s-.38,1.65-.61,2.47a24.62,24.62,0,0,1-.82,2.42.43.43,0,0,1-.82-.14,24.07,24.07,0,0,1,.08-2.56c.07-.85.16-1.69.29-2.53s.27-1.67.46-2.49a15.27,15.27,0,0,1,.78-2.43.62.62,0,0,1,1.19.21Z"/><g class="cls-26"><path class="cls-10" d="M168.65,82.4a3.73,3.73,0,0,1,.9-.26.67.67,0,0,1,.2,0l.34,0,.71.06,2.87.19c1.91.12,3.81.2,5.72.22A78.5,78.5,0,0,0,190.76,82l-.85,1V61.66l1.17,1a26.15,26.15,0,0,1-3.05,0l-2.9-.1c-1.92-.06-3.84-.1-5.77-.11-3.83,0-7.67,0-11.5.2l1-1c.21,3.56.43,7.12.54,10.69,0,1.8.07,3.59,0,5.4q0,1.35-.15,2.73c-.05.46-.09.91-.17,1.38l0,.34,0,.16a0,0,0,0,1,0,0A.82.82,0,0,0,168.65,82.4Zm-1.59,1.12a4.45,4.45,0,0,1,0-1.22l.13-.8c.07-.41.1-.84.15-1.27.08-.85.12-1.72.15-2.6.05-1.75,0-3.51,0-5.28-.11-3.53-.32-7.08-.53-10.63v-.06a.92.92,0,0,1,.87-1h.11c3.85.24,7.69.38,11.53.47,1.92.06,3.83.09,5.75.05,1,0,1.91-.07,2.86-.13a14.32,14.32,0,0,0,2.69-.37.91.91,0,0,1,1.13.63.73.73,0,0,1,0,.25V83a1,1,0,0,1-.85,1,79.7,79.7,0,0,1-11.65.66q-2.91,0-5.81-.23l-2.89-.19-.72-.06-.38,0L169,84A10.62,10.62,0,0,1,167.06,83.52Z"/></g><g class="cls-26"><polyline class="cls-31" points="180.53 67.89 176.4 67.89 176.4 65.1 173.44 65.1 173.44 69.07 173.44 69.07 173.44 69.23"/><path class="cls-32" d="M173.43,72.1v6.41a1.19,1.19,0,0,0,1.19,1.19h9.46a1.18,1.18,0,0,0,1.19-1.18V69.08a1.18,1.18,0,0,0-1.18-1.18H182"/><path class="cls-33" d="M177.33,70.84h4a.94.94,0,0,1,.94.94v4a.93.93,0,0,1-.93.93h-4a.93.93,0,0,1-.93-.93v-4a.94.94,0,0,1,.94-.94Z" transform="translate(105.28 253.04) rotate(-89.91)"/></g></g><path class="cls-34" d="M223.65,96.66a44.29,44.29,0,0,1-11.6,7.47l-6.27-13.67a1,1,0,0,1,1.35-1.35Z"/><path class="cls-24" d="M225.55,99.85a5.76,5.76,0,0,0-3.2,3.19l-2,5.06a1.21,1.21,0,0,1-2.27.18l-9.62-21A1,1,0,0,1,209.79,86l21,9.6a1.21,1.21,0,0,1-.18,2.27Z"/><line class="cls-24" x1="228.91" y1="103.06" x2="235.82" y2="109.96"/><line class="cls-24" x1="225.74" y1="106.92" x2="228.83" y2="110"/><path class="cls-24" d="M197.14,174.21H152.57a3.75,3.75,0,0,1-3.75-3.74h0a3.74,3.74,0,0,1,3.75-3.74h44.57"/><path class="cls-24" d="M192.33,166.26H156.28a3,3,0,0,1-3-3h0a3,3,0,0,1,3-3h36.05"/><path class="cls-12" d="M156.49,160.92h35.86a0,0,0,0,1,0,0v2.43a0,0,0,0,1,0,0H154.2a0,0,0,0,1,0,0v-.14A2.29,2.29,0,0,1,156.49,160.92Z"/><path class="cls-12" d="M152.15,167.8h45a0,0,0,0,1,0,0v2.43a0,0,0,0,1,0,0h-47.3a0,0,0,0,1,0,0v-.14A2.29,2.29,0,0,1,152.15,167.8Z"/><path class="cls-35" d="M97.1,150.38a9,9,0,0,1-7.7,6.92l-4.13-4.14,7.35-7.28Z"/><rect class="cls-10" x="85.05" y="145.62" width="7.76" height="7.77" rx="0.78" ry="0.78" transform="translate(-60.81 238.05) rotate(-89.85)"/><rect class="cls-10" x="85.05" y="143.79" width="1.94" height="5.17" transform="translate(0.38 -0.23) rotate(0.15)"/><rect class="cls-17" x="86.99" y="147.57" width="3.89" height="3.88" rx="0.61" ry="0.61" transform="translate(0.39 -0.23) rotate(0.15)"/><ellipse class="cls-1" cx="88.91" cy="148.47" rx="10.07" ry="10.25" transform="translate(-68.99 77.65) rotate(-34.93)"/><path class="cls-36" d="M96.47,145c.07.15.13.3.2.46a8.47,8.47,0,1,1-15.92.62"/><path class="cls-37" d="M95.14,143a4.82,4.82,0,0,1,.36.43"/><path class="cls-36" d="M82.45,143a8.48,8.48,0,0,1,11.35-1.27"/><path class="cls-36" d="M90.49,159.29a10.84,10.84,0,0,1-12.18-8.19"/><path class="cls-37" d="M95.49,157.16a11,11,0,0,1-3.36,1.76"/><path class="cls-36" d="M97.51,142.05a10.81,10.81,0,0,1,1.89,9.1"/><path class="cls-37" d="M95.49,140l.45.37"/><path class="cls-36" d="M78.09,147.33a10.84,10.84,0,0,1,16.31-8.05"/><path class="cls-37" d="M78.07,149.7c0-.17,0-.34,0-.51"/><circle class="cls-38" cx="117.71" cy="44.62" r="1.63"/><circle class="cls-2" cx="142.37" cy="57.54" r="1.63"/></g></g></svg>