<svg xmlns="http://www.w3.org/2000/svg" xmlns:xlink="http://www.w3.org/1999/xlink" viewBox="0 0 282.71 213.34"><defs><style>.cls-1{fill:none;}.cls-2{opacity:0.08;}.cls-13,.cls-3{fill:#233348;}.cls-4{opacity:0.7;}.cls-5{fill:#fdc800;}.cls-6{fill:#e5eefd;}.cls-7{fill:#fff;}.cls-8{opacity:0.3;}.cls-9{opacity:0.4;}.cls-10{fill:#717791;}.cls-11{fill:#b8d4ff;}.cls-12{clip-path:url(#clip-path);}.cls-13,.cls-14{opacity:0.3;}.cls-15{opacity:0.2;}.cls-16{opacity:0.2;}.cls-17{fill:#3f72ba;}.cls-18{opacity:0.1;}</style><clipPath id="clip-path"><path class="cls-1" d="M265.5,46.65H285V6.12H176.56V46.65h.74a50.53,50.53,0,1,0,88.2,0Z"/></clipPath></defs><title>Asset 30</title><g id="Layer_2" data-name="Layer 2"><g id="Layer_1-2" data-name="Layer 1"><g class="cls-2"><path class="cls-3" d="M278.09,163.26c-1.59,16.15-10.75,32.32-13.11,34.2s-6.62.86-9.57.86h-234l-.13-.25c-5.81-10.14-12.41-20-15.71-31.34-9.18-31.62,20.07-53,39-73.23,10.83-11.59,11.65-28.27,21-40.64,12.83-16.94,34.52-25.76,55.22-27.14,23.79-1.58,44,7,58.48,26.21,11.9,15.84,18.67,40.34,37.36,49.86,6.7,3.42,14.47,3.84,21.73,5.78C262,113.91,280.53,138.39,278.09,163.26Z"/></g><g class="cls-4"><path class="cls-3" d="M146.74,86.58a1.14,1.14,0,0,1-1.13-1.13V76.27a1.13,1.13,0,1,1,2.26,0v9.18A1.13,1.13,0,0,1,146.74,86.58Z"/><path class="cls-3" d="M151.34,82h-9.19a1.13,1.13,0,0,1,0-2.26h9.19a1.13,1.13,0,0,1,0,2.26Z"/></g><path class="cls-5" d="M239.29,18.88a3,3,0,1,1,3-3A3,3,0,0,1,239.29,18.88Zm0-3.71a.73.73,0,1,0,.73.72A.73.73,0,0,0,239.29,15.17Z"/><path class="cls-5" d="M279.72,6a3,3,0,1,1,3-3A3,3,0,0,1,279.72,6Zm0-3.71A.73.73,0,0,0,279,3a.73.73,0,1,0,1.46,0A.73.73,0,0,0,279.72,2.26Z"/><path class="cls-3" d="M169.13,126a3,3,0,1,1,3-3A3,3,0,0,1,169.13,126Zm0-3.71a.73.73,0,0,0-.73.73.73.73,0,1,0,.73-.73Z"/><path class="cls-5" d="M276.68,46.5A.72.72,0,0,1,276,46l-.9-3.31a.68.68,0,0,1,.07-.54.7.7,0,0,1,.43-.34l3.32-.9a.72.72,0,0,1,.88.5l.9,3.31a.68.68,0,0,1-.07.54.7.7,0,0,1-.43.34l-3.32.9A.58.58,0,0,1,276.68,46.5Zm0-3.53.53,1.93,1.93-.52-.53-1.93Z"/><g class="cls-4"><path class="cls-3" d="M29.23,127.84a1.14,1.14,0,0,1-1.13-1.13v-9.18a1.13,1.13,0,0,1,2.26,0v9.18A1.13,1.13,0,0,1,29.23,127.84Z"/><path class="cls-3" d="M33.83,123.25H24.64a1.13,1.13,0,0,1,0-2.26h9.19a1.13,1.13,0,0,1,0,2.26Z"/></g><path class="cls-3" d="M59.22,88.83a.72.72,0,0,1-.69-.53L57.63,85a.75.75,0,0,1,.06-.55.77.77,0,0,1,.44-.33l3.32-.91a.72.72,0,0,1,.88.51l.9,3.31a.73.73,0,0,1-.07.54.7.7,0,0,1-.43.34l-3.32.9A.63.63,0,0,1,59.22,88.83Zm0-3.53.52,1.93,1.94-.53-.53-1.92Z"/><line class="cls-6" x1="265.13" y1="199.2" x2="270.58" y2="199.2"/><path class="cls-3" d="M265.13,198.5a7.13,7.13,0,0,1,2.72-.37,14.86,14.86,0,0,1,2.73.27.81.81,0,0,1,.63,1,.8.8,0,0,1-.63.63,14.86,14.86,0,0,1-2.73.27,7.13,7.13,0,0,1-2.72-.37.76.76,0,0,1-.43-1A.79.79,0,0,1,265.13,198.5Z"/><line class="cls-6" x1="16.37" y1="199.2" x2="261.13" y2="199.2"/><path class="cls-3" d="M16.37,198.54c10.2-.3,20.39-.35,30.59-.34l30.6,0,61.19-.05,61.19,0,30.59,0c10.2,0,20.4,0,30.6.29a.86.86,0,0,1,0,1.71c-10.2.26-20.4.28-30.6.29l-30.59,0-61.19-.05-61.19,0-30.6,0c-10.2,0-20.39,0-30.59-.34a.66.66,0,0,1,0-1.31Z"/><line class="cls-6" x1="10.35" y1="199.2" x2="11.14" y2="199.2"/><path class="cls-3" d="M10.35,198.23a1.7,1.7,0,0,1,.39,0,.65.65,0,0,1,.2.05.5.5,0,0,1,.2.08,1,1,0,0,1,.28,1.4,1,1,0,0,1-.28.27.52.52,0,0,1-.2.09.65.65,0,0,1-.2,0,1.28,1.28,0,0,1-.39,0A1,1,0,0,1,9.59,199,1,1,0,0,1,10.35,198.23Z"/><line class="cls-6" x1="0.55" y1="199.2" x2="4.51" y2="199.2"/><path class="cls-3" d="M.55,198.49a9,9,0,0,1,2-.26,5.56,5.56,0,0,1,2,.18.82.82,0,0,1,0,1.57,5.56,5.56,0,0,1-2,.19,9.62,9.62,0,0,1-2-.27.73.73,0,0,1,0-1.41Z"/><line class="cls-6" x1="110.56" y1="212.19" x2="186.95" y2="212.19"/><path class="cls-3" d="M110.56,211.54c3.18-.3,6.37-.34,9.55-.35l9.55-.05,19.1-.1H177.4c3.19,0,6.37,0,9.55.29a.85.85,0,0,1,.79.92.87.87,0,0,1-.79.79c-3.18.25-6.36.27-9.55.29H148.76l-19.1-.1-9.55-.05c-3.18,0-6.37,0-9.55-.34a.66.66,0,0,1-.59-.72A.65.65,0,0,1,110.56,211.54Z"/><line class="cls-6" x1="79.13" y1="212.19" x2="98.71" y2="212.19"/><path class="cls-3" d="M79.13,211.49c3.26-.17,6.53-.24,9.79-.27s6.52,0,9.79.19a.78.78,0,0,1,.73.83.8.8,0,0,1-.73.74c-3.27.2-6.53.21-9.79.18s-6.53-.09-9.79-.26a.71.71,0,0,1-.67-.74A.7.7,0,0,1,79.13,211.49Z"/><polygon class="cls-7" points="230.71 181.13 231.22 187.58 232.1 198.97 250.36 198.97 251.03 190.44 251.99 178.03 252.6 170.18 229.86 170.18 230.71 181.13"/><g class="cls-8"><path class="cls-3" d="M252.79,160.82H250.1a1.7,1.7,0,0,0-1.52,1.57H228l-.77,7.79h26.7l.05-7.92A1.32,1.32,0,0,0,252.79,160.82Z"/></g><path class="cls-3" d="M250.36,200.2H232.1a1.23,1.23,0,0,1-1.23-1.13l-2.24-28.8a1.23,1.23,0,0,1,1.13-1.32,1.24,1.24,0,0,1,1.32,1.13l2.16,27.67h16l2.16-27.67A1.25,1.25,0,0,1,252.7,169a1.23,1.23,0,0,1,1.13,1.32l-2.24,28.8A1.23,1.23,0,0,1,250.36,200.2Z"/><path class="cls-3" d="M253.89,171.41h-26.7a1.21,1.21,0,0,1-.91-.41,1.23,1.23,0,0,1-.32-.95l.78-7.78a1.23,1.23,0,0,1,1.22-1.11H247.7a2.74,2.74,0,0,1,2.4-1.57h2.69a2.54,2.54,0,0,1,2.38,2.67h0l0,7.91A1.24,1.24,0,0,1,253.89,171.41ZM228.55,169h24.12l0-6.69a.48.48,0,0,0,0-.21H250.1s-.24.17-.3.53a1.23,1.23,0,0,1-1.22,1h-19.5Zm25.39-6.69h0Z"/><path class="cls-5" d="M252,178l-1,12.41a3.23,3.23,0,0,1-2.3,1.08c-2.52,0-4.56-3.55-4.56-8s2-7.95,4.56-7.95A4,4,0,0,1,252,178Z"/><path class="cls-3" d="M248.73,192.75c-3.25,0-5.79-4-5.79-9.18s2.54-9.18,5.79-9.18c1.69,0,3.27,1.11,4.34,3.05a1.26,1.26,0,0,1,.15.68l-1,12.42a1.3,1.3,0,0,1-.35.76A4.43,4.43,0,0,1,248.73,192.75Zm0-15.9c-1.57,0-3.33,2.76-3.33,6.72s1.76,6.72,3.33,6.72a1.75,1.75,0,0,0,1.11-.43l.9-11.54A2.62,2.62,0,0,0,248.73,176.85Z"/><path class="cls-3" d="M244.39,182.36H230.71a1.23,1.23,0,0,1,0-2.46h13.68a1.23,1.23,0,1,1,0,2.46Z"/><path class="cls-3" d="M244.79,188.81H231.22a1.23,1.23,0,1,1,0-2.46h13.57a1.23,1.23,0,1,1,0,2.46Z"/><g class="cls-9"><path class="cls-6" d="M251.13,156.77c-5.73-4.15,2.46-13.48-3-21.53"/><path class="cls-3" d="M250.76,157.28a5.47,5.47,0,0,1-2.14-2.41,7.81,7.81,0,0,1-.62-3.11,45.31,45.31,0,0,1,.52-5.78,21.72,21.72,0,0,0,.14-5.32,25.41,25.41,0,0,0-1.33-4.89l0-.05a1,1,0,0,1,1.56-1,8.59,8.59,0,0,1,2.49,5.66,21.42,21.42,0,0,1-.41,6c-.33,1.9-.84,3.71-1,5.45a6.85,6.85,0,0,0,.19,2.46,4.5,4.5,0,0,0,1.32,2h0a.64.64,0,0,1,.06.9A.64.64,0,0,1,250.76,157.28Z"/></g><g class="cls-9"><path class="cls-6" d="M254.2,157.09c-3.57-3.47,3.07-9.13.06-15.29"/><path class="cls-3" d="M253.89,157.41a6,6,0,0,1-.75-.84,3.76,3.76,0,0,1-.48-1.06c0-.18-.1-.37-.14-.56l0-.56a5.68,5.68,0,0,1,.05-1.1,29.6,29.6,0,0,1,.95-4,14.33,14.33,0,0,0,.62-3.69,19.88,19.88,0,0,0-.43-3.54V142a.69.69,0,0,1,.55-.78.67.67,0,0,1,.64.25,6.12,6.12,0,0,1,1.15,4.18,15.71,15.71,0,0,1-.88,4.13c-.41,1.29-1,2.5-1.21,3.7a3.54,3.54,0,0,0,.6,3.25l.05,0a.45.45,0,0,1-.67.59Z"/></g><path class="cls-7" d="M126.37,95a86.76,86.76,0,0,0-8.32-47.77c-2.16-4.4-2.5-8.68-6.14-12s-8.47-5.5-13.37-5.2-9.49,3.15-13.1,6.59C78.94,42.84,75.86,51.12,74.68,60c-.8,6-3,13.88-2.4,19.92.61,6.31.52,11,1.14,17.33a9.28,9.28,0,0,0,.8,3.5c1.16,2.21,3.81,3.12,6.23,3.78A199.5,199.5,0,0,0,100.8,109c6.08,1,12.4,1.69,18.34.05s11.46-6.11,12.64-12.14c.47-2.4-2.62-.58-4-2.59"/><path class="cls-5" d="M140.21,102.29c-3.93-2.75-11.6-11.72-15.53-9-5.75,4-7.68,6.39-15.13,10.2-10.35,5.3-9.45,3.08-15.13.53-4.92-2.21-11.53-3.73-16.14-7.79-5.21-4.6-11.49-1.08-16.62,3.61S51.83,112.53,49.37,119c-5.65,14.89-7.43,23.27-6.29,33.24.58,5,12.17,17.82,16.1,21.57,1.17,1.12,7.75,4.36,8.12,5.92,1.18,4.91,5,8.73,8.79,5.39,2.33-2.06-7.59-1.93-6.71-4.9,4.17-14.06-4.42,6.74-.25-7.32-3.1,8-5.45-8.24-6.37,5.74-.21,3.13-1.18,8.38.58,11,2,2.92,6.59,2.1,10.06,2.77a133.59,133.59,0,0,0,63.47-3.12c3.83-1.15,9.09-2.73,12.11-5.34,6.89-6-1.34-16,.58-23.62,1.19-4.74,7.87-14.7,4.78-23.91-.86-2.54-1.05-11-2-13.46-.33-.87-9.08-18.55-9.81-18.63"/><path class="cls-10" d="M151.55,160.1a17.81,17.81,0,0,1,1,3.93c.11.66.17,1.31.26,2s.14,1.41.17,2.11c.11,2.8-.2,5.49-.26,8.1,0,.66,0,1.31,0,2,0,.29,0,.7,0,1.1a9.45,9.45,0,0,1-.16,1.19,8,8,0,0,1-2.26,4.12,8.15,8.15,0,0,1-1.9,1.39c-.75.39-1.32.58-1.95.85l-3.74,1.54c-5,2-10,4-15.2,5.6a64.26,64.26,0,0,1-16.09,3c-5.46.32-10.84.13-16.23-.05s-10.79-.66-16.16-1.33c-2.68-.34-5.36-.72-8-1.2L69,194l-1-.2a7.91,7.91,0,0,1-1.17-.36,7,7,0,0,1-3.6-3.23,6.93,6.93,0,0,1-.74-2.35c0-.43,0-.74-.07-1.08l0-1-.17-4a25.31,25.31,0,0,1,.48-8.11.55.55,0,0,1,1.06,0,37.74,37.74,0,0,1,.93,8l.21,4,.05,1c0,.33,0,.7.07.92a4.29,4.29,0,0,0,.48,1.48,4.46,4.46,0,0,0,2.29,2,5.26,5.26,0,0,0,.75.21l1,.19,2,.34c2.62.45,5.25.85,7.9,1.18,5.28.67,10.6,1.1,15.93,1.36s10.7.41,16,.14c10.59-.37,20.6-4.33,30.52-8.33l3.72-1.53c.6-.25,1.3-.52,1.74-.75a6.3,6.3,0,0,0,1.33-1A5.42,5.42,0,0,0,150.1,180a5.58,5.58,0,0,0,.09-.81c0-.26,0-.52,0-.9,0-.7,0-1.39,0-2.08,0-2.76.29-5.43.28-8,0-.64,0-1.27-.08-1.9s-.12-1.34-.15-2a18.67,18.67,0,0,1,.19-4.08.61.61,0,0,1,.7-.49.62.62,0,0,1,.46.38Z"/><path class="cls-3" d="M125.65,88.39a65.51,65.51,0,0,1-.76-9.14c-.16-3-.38-6.08-.7-9.1a93.28,93.28,0,0,0-3.42-17.78c-1.78-5.71-4.41-11.26-8.62-15.31a20.16,20.16,0,0,0-7.3-4.52c-.67-.26-1.39-.41-2.08-.62a17.85,17.85,0,0,0-2.09-.34,19.29,19.29,0,0,0-4.29.13,21.94,21.94,0,0,0-8.15,2.83,16.94,16.94,0,0,0-6,6,38.12,38.12,0,0,0-3.67,8.08,73.69,73.69,0,0,0-2.3,8.73,126.93,126.93,0,0,0-2.29,18,119.85,119.85,0,0,0,.22,18.18h0a1.17,1.17,0,0,1-1,1.28,1.16,1.16,0,0,1-1.27-1,121.19,121.19,0,0,1-.36-18.56,128.61,128.61,0,0,1,2.21-18.42,75.27,75.27,0,0,1,2.4-9,40.68,40.68,0,0,1,3.93-8.61,19.65,19.65,0,0,1,6.84-6.87A24.37,24.37,0,0,1,96,29.2a21.5,21.5,0,0,1,4.88-.13,18.76,18.76,0,0,1,2.44.39c.77.24,1.57.4,2.33.7a22.58,22.58,0,0,1,8.2,5.08c4.68,4.52,7.41,10.45,9.26,16.38a95.66,95.66,0,0,1,3.5,18.27c.32,3.08.54,6.16.7,9.24a44.52,44.52,0,0,1-.15,9.23.79.79,0,0,1-.9.65A.8.8,0,0,1,125.65,88.39Z"/><path class="cls-3" d="M104.19,105.87a17.14,17.14,0,0,1,4.53,5.76l-2.32,6s7.75,29.54,9.58,44.15a9,9,0,0,1-1.28,5.78c-4.92,8.13-8.56,10.43-8.56,10.43s-9-7.93-10.59-10.81,4.52-49.12,4.52-49.12l-3.16-5.95,2.66-6Z"/><path class="cls-3" d="M90.31,123.52a19.09,19.09,0,0,1-7.23,0,32.77,32.77,0,0,1-6.77-2,.67.67,0,0,1,.44-1.26h0c1,.31,2.16.56,3.25.77a31.3,31.3,0,0,0,3.31.45,25.71,25.71,0,0,0,3.28,0,26.83,26.83,0,0,0,3.15-.42h0a1.23,1.23,0,0,1,.49,2.41Z"/><path class="cls-10" d="M97.73,182.7l-.21,0c-3.53-.6-5.57-2.92-6.06-6.88l-6.27-.8-3.7-.46a1.24,1.24,0,0,1-1.07-1.38,1.22,1.22,0,0,1,1.38-1.06l3.69.46,7.27.92a1.23,1.23,0,0,1,1.07,1.15c.24,4.41,2.32,5.32,4.1,5.62a1.23,1.23,0,0,1-.2,2.45Z"/><path class="cls-3" d="M77.22,179.51a3.87,3.87,0,0,1-.48,0c-13.64-3-36-12.21-33.76-40.09,1.79-22.18,19.08-45.58,30.2-46.21a1.23,1.23,0,1,1,.14,2.46c-4.5.25-11,5.75-16.69,14-6.33,9.26-10.41,20.18-11.2,30-1.1,13.64,3.51,31.22,31.74,37.47a.89.89,0,0,0,.68-.28c1.64-1.47,2.18-7.12,2.17-10.93a25.37,25.37,0,0,1-16.85-15.8,22.31,22.31,0,0,1,3.6-22,1.23,1.23,0,1,1,1.94,1.52,19.91,19.91,0,0,0-3.23,19.66c2.64,7.27,8.92,12.94,16,14.45a1.24,1.24,0,0,1,1,1.17c0,1.11.24,10.89-3,13.77A3.37,3.37,0,0,1,77.22,179.51Z"/><path class="cls-11" d="M74.25,173.81l-.06.4a17.21,17.21,0,0,0-.21,4.62c0,.82,4.06,1.59,5.08,1.32s5-15,4.85-15a19,19,0,0,0-5-.77l-.5,1.58"/><path class="cls-10" d="M74.9,173.91a14.66,14.66,0,0,0,.19,3.77,6.77,6.77,0,0,1,.11.93v.13a.84.84,0,0,0-.07-.3.77.77,0,0,0-.16-.24.72.72,0,0,0,.14.08,7.07,7.07,0,0,0,1.58.47,9.66,9.66,0,0,0,1.71.22l.31,0h0a1.3,1.3,0,0,0-.29.14c-.2.16-.13.13-.15.13a4.94,4.94,0,0,0,.33-.66c.47-1.11.88-2.36,1.27-3.58.77-2.47,1.51-5,2.2-7.47l.49-1.88.11-.45,0-.18s0,0,0,.07v0a1.06,1.06,0,0,0,.1.54,1.2,1.2,0,0,0,.64.61s0,0,0,0h0l-.09,0a7.43,7.43,0,0,0-.79-.23,20.81,20.81,0,0,0-3.66-.44l1.17-.83-.5,1.58a1.2,1.2,0,0,1-2.28-.72l.5-1.58v0a1.17,1.17,0,0,1,1.16-.81,23.32,23.32,0,0,1,4.13.46,8.33,8.33,0,0,1,1.1.31l.14.05h.06a1.33,1.33,0,0,1,.64.63,1.14,1.14,0,0,1,.1.56v0c0,.13,0,.15,0,.19l-.06.3-.12.5-.5,1.92c-.68,2.55-1.38,5.08-2.19,7.6-.41,1.26-.82,2.51-1.37,3.81a6.65,6.65,0,0,1-.56,1.08,1.85,1.85,0,0,1-.48.49,1.34,1.34,0,0,1-.4.2l-.16,0-.22,0a5.47,5.47,0,0,1-.67,0,12.38,12.38,0,0,1-2.17-.27,9.78,9.78,0,0,1-2.17-.68,3.14,3.14,0,0,1-.68-.45,1.62,1.62,0,0,1-.46-.61,1.87,1.87,0,0,1-.14-.54v-.12a5.82,5.82,0,0,1,0-1,21.09,21.09,0,0,1,.85-4v0a.65.65,0,0,1,.82-.43A.67.67,0,0,1,74.9,173.91Z"/><path class="cls-10" d="M100.29,182.7a1.23,1.23,0,0,1-.21-2.45c1.79-.3,3.87-1.21,4.11-5.62a1.23,1.23,0,0,1,1.07-1.15l7.34-.93,3.62-.45a1.21,1.21,0,0,1,1.37,1.06,1.24,1.24,0,0,1-1.06,1.38l-3.63.45-6.35.81c-.49,4-2.52,6.28-6.06,6.88Z"/><path class="cls-3" d="M125.06,92.51a13.4,13.4,0,0,1,7.38,2,34.42,34.42,0,0,1,6,4.53,55.17,55.17,0,0,1,9.25,11.55,61.33,61.33,0,0,1,9.1,27.87A40.55,40.55,0,0,1,155,153.27a33.55,33.55,0,0,1-7.61,12.84,41,41,0,0,1-12.07,8.65,63.83,63.83,0,0,1-14,4.7h-.1a3.39,3.39,0,0,1-2.74-.86,5.87,5.87,0,0,1-1.37-2,16.78,16.78,0,0,1-1.11-4,37.53,37.53,0,0,1-.42-3.92c-.07-1.31-.1-2.59-.08-3.92a1.22,1.22,0,0,1,1-1.16h0a23.56,23.56,0,0,0,9.82-4.89,26.58,26.58,0,0,0,7-8.6,20.23,20.23,0,0,0,2.25-10.62,18.49,18.49,0,0,0-4-10A1.23,1.23,0,0,1,133.5,128,21,21,0,0,1,138,139.38a22.67,22.67,0,0,1-2.5,11.91,29.24,29.24,0,0,1-7.6,9.4A26.24,26.24,0,0,1,117,166.08l1-1.16c0,1.2,0,2.47.08,3.7a34.12,34.12,0,0,0,.39,3.66,14.19,14.19,0,0,0,.92,3.35,3.59,3.59,0,0,0,.77,1.16.87.87,0,0,0,.77.25l-.1,0a61,61,0,0,0,13.39-4.57,38.23,38.23,0,0,0,11.3-8.15,31,31,0,0,0,7-11.89,38.25,38.25,0,0,0,1.61-13.81,58.77,58.77,0,0,0-8.7-26.62,52.36,52.36,0,0,0-8.79-11,31.14,31.14,0,0,0-5.52-4.17,29.42,29.42,0,0,0-6.19-2.66h0a.86.86,0,0,1-.59-1.07A.88.88,0,0,1,125.06,92.51Z"/><path class="cls-11" d="M123.76,173.81c0,.13,0,.27.07.4a17.06,17.06,0,0,1,.2,4.62c0,.82-4,1.59-5.07,1.32s-5-15-4.85-15a18.94,18.94,0,0,1,5-.77l.5,1.58"/><path class="cls-10" d="M124.4,173.71a21.09,21.09,0,0,1,.86,4,5.82,5.82,0,0,1,0,1v.12a1.82,1.82,0,0,1-.13.54,1.73,1.73,0,0,1-.46.61,3.43,3.43,0,0,1-.69.45,9.87,9.87,0,0,1-2.16.68,12.49,12.49,0,0,1-2.18.27,5.47,5.47,0,0,1-.67,0l-.22,0-.16,0a1.34,1.34,0,0,1-.4-.2,1.76,1.76,0,0,1-.47-.49,6.8,6.8,0,0,1-.57-1.08c-.55-1.3-1-2.55-1.36-3.81-.81-2.52-1.52-5.05-2.2-7.6l-.49-1.92-.12-.5-.06-.3a.78.78,0,0,1,0-.19v0a1.1,1.1,0,0,1,.11-.56,1.28,1.28,0,0,1,.63-.63h.07l.14-.05a8.2,8.2,0,0,1,1.09-.31,23.52,23.52,0,0,1,4.13-.46,1.16,1.16,0,0,1,1.16.81v0l.5,1.58a1.19,1.19,0,0,1-2.27.72l-.5-1.58,1.16.83a20.7,20.7,0,0,0-3.65.44,7.63,7.63,0,0,0-.8.23l-.09,0h0a1.19,1.19,0,0,0,.63-.61,1.43,1.43,0,0,0,.11-.54v0c0-.09,0-.07,0-.07l0,.18.11.45.5,1.88c.68,2.5,1.42,5,2.2,7.47.39,1.22.8,2.47,1.27,3.58a5.17,5.17,0,0,0,.32.66s.06,0-.15-.13a1.11,1.11,0,0,0-.29-.14h0l.31,0a9.76,9.76,0,0,0,1.72-.22,7.23,7.23,0,0,0,1.58-.47l.14-.08s-.06,0-.16.24a1.23,1.23,0,0,0-.08.3v-.13a8.73,8.73,0,0,1,.12-.93,15.13,15.13,0,0,0,.19-3.77.66.66,0,0,1,.62-.69.65.65,0,0,1,.65.46Z"/><path class="cls-3" d="M124.87,93.87a47.2,47.2,0,0,1-10.63,9c-1.93,1.27-3.89,2.5-5.92,3.65-1,.57-2,1.12-3.17,1.61-.29.12-.57.24-.9.35a5,5,0,0,1-.54.16,2.73,2.73,0,0,1-.73.07,7.78,7.78,0,0,1-2-.42,51.53,51.53,0,0,1-6.47-2.75c-2.09-1-4.14-2-6.18-3.09a135.94,135.94,0,0,1-12-6.7.4.4,0,0,1-.11-.55.39.39,0,0,1,.46-.15c4.36,1.54,8.43,3.66,12.57,5.6,2.07,1,4.14,1.94,6.22,2.86a64,64,0,0,0,6.25,2.45,5.89,5.89,0,0,0,1.35.29.28.28,0,0,0,.12,0,3,3,0,0,0,.29-.09,7.39,7.39,0,0,0,.69-.29c1-.44,2-1,3-1.53,2-1.1,3.9-2.29,5.8-3.53,3.79-2.5,7.54-5,11.19-7.71h0a.57.57,0,0,1,.79.12A.56.56,0,0,1,124.87,93.87Z"/><path class="cls-3" d="M81.05,66.74c-1.63,0-3.3-1-4.81-1.94a12.48,12.48,0,0,0-2.68-1.38,1.24,1.24,0,0,1-.86-1.52A1.25,1.25,0,0,1,74.22,61a14.19,14.19,0,0,1,3.3,1.66c1.45.89,3.1,1.89,4,1.49a1.23,1.23,0,1,1,1,2.24A3.51,3.51,0,0,1,81.05,66.74Z"/><path class="cls-3" d="M117.78,66.74a3.47,3.47,0,0,1-1.47-.31,1.23,1.23,0,0,1-.62-1.63,1.22,1.22,0,0,1,1.63-.61c.88.39,2.51-.6,3.94-1.47a13.68,13.68,0,0,1,3.31-1.66,1.24,1.24,0,0,1,1.51.87,1.22,1.22,0,0,1-.87,1.5,12.9,12.9,0,0,0-2.67,1.38C121,65.73,119.4,66.74,117.78,66.74Z"/><path class="cls-3" d="M97.52,66.62a1.23,1.23,0,0,1,0-2.46l4.4-.06a1.2,1.2,0,0,1,1.25,1.22,1.23,1.23,0,0,1-1.21,1.24l-4.41.06Z"/><ellipse class="cls-7" cx="90.14" cy="66.19" rx="7.53" ry="7.52"/><path class="cls-3" d="M90.14,74.94a8.76,8.76,0,0,1-8.76-8.63,8.76,8.76,0,1,1,8.87,8.63Zm0-15h-.08a6.29,6.29,0,0,0,.08,12.57h.08a6.29,6.29,0,0,0-.08-12.57Z"/><ellipse class="cls-7" cx="109.74" cy="65.94" rx="7.53" ry="7.52"/><path class="cls-3" d="M109.74,74.69A8.77,8.77,0,0,1,101,66.06h0a8.76,8.76,0,0,1,8.65-8.85h.11a8.75,8.75,0,0,1,.11,17.49ZM103.44,66a6.31,6.31,0,0,0,6.3,6.21h.08a6.29,6.29,0,0,0,4.43-1.9A6.22,6.22,0,0,0,116,65.86a6.29,6.29,0,0,0-6.3-6.2h-.08A6.3,6.3,0,0,0,103.44,66Z"/><path class="cls-3" d="M94,85.74a22.71,22.71,0,0,0,3.17,1.19,14.65,14.65,0,0,0,3.43.6,14.08,14.08,0,0,0,3.52-.34c1.22-.25,2.45-.59,3.72-.92a.58.58,0,0,1,.47,1,20.24,20.24,0,0,1-3.56,1.91,12.17,12.17,0,0,1-8.44.47,6.5,6.5,0,0,1-3.57-2.63.93.93,0,0,1,.31-1.3.92.92,0,0,1,.88-.06Z"/><rect class="cls-1" x="39.8" y="18.96" width="124.08" height="178.94"/><path class="cls-7" d="M39.79,192.65H161.14a1.18,1.18,0,0,1,1.18,1.18v0a4.8,4.8,0,0,1-4.8,4.8H43.42a4.8,4.8,0,0,1-4.8-4.8v0a1.18,1.18,0,0,1,1.18-1.18Z"/><path class="cls-3" d="M157.51,199.83H43.42a6,6,0,0,1-6-6,2.39,2.39,0,0,1,2.38-2.38H161.14a2.39,2.39,0,0,1,2.38,2.38A6,6,0,0,1,157.51,199.83Zm3.6-6-121.32,0a3.64,3.64,0,0,0,3.63,3.57H157.51A3.6,3.6,0,0,0,161.11,193.82Z"/><path class="cls-7" d="M153.45,198.62h-106L43,141.25a3.62,3.62,0,0,1,3.61-3.89H154.28a3.62,3.62,0,0,1,3.61,3.89Z"/><path class="cls-3" d="M43.5,155.2c-1.16-3.83-1.18-7.75-1.55-11.65l-.11-1.46-.06-.73a5.37,5.37,0,0,1,0-1,4.89,4.89,0,0,1,1.94-3.32,4.76,4.76,0,0,1,1.78-.83,5.49,5.49,0,0,1,1-.13h3.7l23.47,0,46.94,0,23.47,0h10.28a4.88,4.88,0,0,1,4.52,3.26,4.75,4.75,0,0,1,.26,1.94l-.11,1.48-.47,5.84L156.73,172c-.28,3.9-.56,7.8-.92,11.7a78.18,78.18,0,0,1-1.63,11.64.48.48,0,0,1-1-.07,78.19,78.19,0,0,1,.18-11.76c.25-3.9.57-7.8.89-11.7l1.8-23.39.44-5.86.11-1.45a2.31,2.31,0,0,0-.13-.94,2.38,2.38,0,0,0-1.27-1.37,2.25,2.25,0,0,0-.93-.2H144.08l-23.47,0-46.94,0-23.47,0H46.57a3.55,3.55,0,0,0-.47.06,2.37,2.37,0,0,0-1.8,2,2.64,2.64,0,0,0,0,.49l.05.73.11,1.46c.25,3.91.83,7.78.27,11.75a.62.62,0,0,1-.71.53A.61.61,0,0,1,43.5,155.2Z"/><path class="cls-3" d="M153.45,199.83h-106a1.21,1.21,0,0,1-1.2-1.11L45.1,183.87c-.2-2.47-.41-4.94-.52-7.42A36,36,0,0,1,44.7,169a.49.49,0,0,1,.56-.41.5.5,0,0,1,.4.34,36,36,0,0,1,1.27,7.37c.27,2.46.44,4.94.62,7.41l1.13,14.85-1.2-1.11h106a1.21,1.21,0,0,1,0,2.41Z"/><path class="cls-6" d="M271.93,72.6a50.54,50.54,0,1,1-50.54-50.44A50.25,50.25,0,0,1,271.93,72.6Z"/><path class="cls-3" d="M221.39,124.28a51.6,51.6,0,1,1,20.93-4.39A51.78,51.78,0,0,1,221.39,124.28Zm0-100.87a49.16,49.16,0,1,0,49.3,49.19A49.3,49.3,0,0,0,221.39,23.41Z"/><g class="cls-12"><rect class="cls-7" x="182.48" y="27.97" width="77.83" height="99.76" rx="5.63" ry="5.63"/><path class="cls-3" d="M254.68,129H188.11a6.88,6.88,0,0,1-6.87-6.88V33.6a6.88,6.88,0,0,1,6.87-6.88h66.57a6.89,6.89,0,0,1,6.88,6.88v88.5A6.89,6.89,0,0,1,254.68,129ZM188.11,29.22a4.39,4.39,0,0,0-4.38,4.38v88.5a4.39,4.39,0,0,0,4.38,4.39h66.57a4.39,4.39,0,0,0,4.38-4.39V33.6a4.38,4.38,0,0,0-4.38-4.38Z"/><line class="cls-7" x1="199.27" y1="36.96" x2="260.31" y2="36.96"/><path class="cls-13" d="M199.27,36.21c5.09-.23,10.18-.3,15.26-.31l15.26-.09c10.17-.06,20.35-.12,30.52-.1a1.25,1.25,0,0,1,0,2.5q-15.26,0-30.52-.1L214.53,38c-5.08,0-10.17-.08-15.26-.32a.74.74,0,0,1-.71-.78A.76.76,0,0,1,199.27,36.21Z"/><line class="cls-7" x1="182.48" y1="36.96" x2="191.93" y2="36.96"/><path class="cls-13" d="M182.48,35.71a35.61,35.61,0,0,1,4.73.15c1.57.12,3.15.28,4.72.5a.61.61,0,0,1,0,1.2c-1.57.21-3.15.38-4.72.5a35.61,35.61,0,0,1-4.73.15,1.25,1.25,0,0,1,0-2.5Z"/><g class="cls-14"><path class="cls-7" d="M249.66,44.52H250a2.23,2.23,0,0,1,2.23,2.23V61.06A2.23,2.23,0,0,1,250,63.29H200.24"/><path class="cls-3" d="M249.66,43.89a1.67,1.67,0,0,1,1.48-.28,2.84,2.84,0,0,1,1.4.9,3.28,3.28,0,0,1,.86,2.3v.56l0,4.47,0,8.92V61c0,.12,0,.29,0,.42a3.53,3.53,0,0,1-.21.85,3.42,3.42,0,0,1-1,1.41,3.58,3.58,0,0,1-1.55.76,3.5,3.5,0,0,1-.81.07h-.55l-4.47,0-8.93,0-17.86-.07-8.93,0-4.46,0a10.38,10.38,0,0,1-4.46-.55.72.72,0,0,1-.36-1,.76.76,0,0,1,.36-.35,10.38,10.38,0,0,1,4.46-.55l4.46,0,8.93,0L236,62l8.93,0,4.47,0h.86a1.23,1.23,0,0,0,.43-.21,1.11,1.11,0,0,0,.29-.39,2.1,2.1,0,0,0,.06-.24v-.42l.05-8.92,0-4.47v-.56a1.19,1.19,0,0,0,0-.29,1.15,1.15,0,0,0-.24-.48,2.4,2.4,0,0,0-.42-.34,5.59,5.59,0,0,0-.73-.54.74.74,0,0,1-.22-1l.09-.11Z"/></g><g class="cls-14"><path class="cls-7" d="M194.3,63.29h-1.45a2.23,2.23,0,0,1-2.23-2.23V46.75a2.23,2.23,0,0,1,2.23-2.23h51.62"/><path class="cls-3" d="M194.3,63.85a6.25,6.25,0,0,1-1.16.37l-.29.06a3,3,0,0,1-.42,0,3.16,3.16,0,0,1-.86-.14,3.22,3.22,0,0,1-2.16-2.63c0-.15,0-.3,0-.45V56.72l-.06-9.3v-.58a3.51,3.51,0,0,1,.08-.87,3.66,3.66,0,0,1,.85-1.63,3.53,3.53,0,0,1,2.46-1.15h14.59l18.6.09,9.3,0c3.1,0,6.2,0,9.3.31a.89.89,0,0,1,.8,1,.88.88,0,0,1-.8.79c-3.1.31-6.2.3-9.3.32l-9.3,0-18.6.1H192.81a.85.85,0,0,0-.23,0,1,1,0,0,0-.39.24,1,1,0,0,0-.22.41,1,1,0,0,0,0,.28v.58l-.06,9.3V61.2a1.32,1.32,0,0,0,.56.88,1.64,1.64,0,0,0,.26.16c.05,0,.11,0,.16.06l.29.07a7.06,7.06,0,0,1,1.16.36.62.62,0,0,1,.32.81A.64.64,0,0,1,194.3,63.85Z"/></g><g class="cls-8"><path class="cls-3" d="M223.79,74.59c4.65-.12,9.3-.12,14-.1l7,.1a31,31,0,0,1,7,.6.56.56,0,0,1,.41.68.55.55,0,0,1-.41.41,30.42,30.42,0,0,1-7,.6l-7,.1c-4.65,0-9.3,0-14-.1a1.14,1.14,0,0,1-1.11-1.17A1.16,1.16,0,0,1,223.79,74.59Z"/></g><g class="cls-8"><path class="cls-3" d="M223.79,82.2c2.33-.18,4.65-.29,7-.36s4.65-.12,7-.14,4.65,0,7,.08a38.22,38.22,0,0,1,7,.64.56.56,0,0,1,.43.66.57.57,0,0,1-.43.43,38.22,38.22,0,0,1-7,.64c-2.33.08-4.65.09-7,.08s-4.65-.08-7-.14-4.65-.18-7-.36a.77.77,0,0,1,0-1.53Z"/></g><g class="cls-8"><path class="cls-3" d="M223.79,89.05c3.11-.13,6.22-.13,9.33-.1l4.67.1a13.84,13.84,0,0,1,4.66.6.57.57,0,0,1,.35.74.6.6,0,0,1-.35.35,14.1,14.1,0,0,1-4.66.6l-4.67.1c-3.11,0-6.22,0-9.33-.1a1.15,1.15,0,0,1,0-2.29Z"/></g><g class="cls-15"><rect class="cls-3" x="190.04" y="101.06" width="62.72" height="6.4"/></g><g class="cls-15"><rect class="cls-3" x="190.04" y="111.94" width="62.72" height="6.4"/></g><g class="cls-14"><path class="cls-3" d="M198.69,51.48h1.6V52.6h0a1.47,1.47,0,0,1,1.49-1.19,1.61,1.61,0,0,1,.48.06v1.46a2,2,0,0,0-.61-.09,1.25,1.25,0,0,0-1.34,1.39v3.5h-1.66Z"/><path class="cls-3" d="M208.49,55.82a2.62,2.62,0,0,1-2.84,2,2.91,2.91,0,0,1-3.08-3.2,2.94,2.94,0,0,1,3-3.26,2.84,2.84,0,0,1,3,3.11V55h-4.33v.1a1.41,1.41,0,0,0,1.46,1.51,1.28,1.28,0,0,0,1.29-.78ZM204.23,54h2.7a1.29,1.29,0,0,0-1.33-1.35A1.36,1.36,0,0,0,204.23,54Z"/><path class="cls-3" d="M213.54,53.78a1.21,1.21,0,0,0-1.26-1.1c-.86,0-1.4.72-1.4,1.92s.54,1.92,1.4,1.92a1.18,1.18,0,0,0,1.27-1.06h1.55a2.56,2.56,0,0,1-2.84,2.37,2.92,2.92,0,0,1-3.06-3.23,2.93,2.93,0,0,1,3.05-3.23,2.59,2.59,0,0,1,2.84,2.41Z"/><path class="cls-3" d="M221.61,55.82a2.61,2.61,0,0,1-2.84,2,2.9,2.9,0,0,1-3.07-3.2,2.93,2.93,0,0,1,3-3.26,2.83,2.83,0,0,1,2.95,3.11V55h-4.33v.1a1.41,1.41,0,0,0,1.47,1.51,1.27,1.27,0,0,0,1.28-.78ZM217.35,54h2.7a1.29,1.29,0,0,0-1.33-1.35A1.37,1.37,0,0,0,217.35,54Z"/><path class="cls-3" d="M222.52,49.93a.9.9,0,1,1,.89.87A.87.87,0,0,1,222.52,49.93Zm.06,1.55h1.66v6.25h-1.66Z"/><path class="cls-3" d="M228.92,57.73h-1.87l-2.17-6.25h1.78L228,56.25h0l1.33-4.77h1.73Z"/><path class="cls-3" d="M237.2,55.82a2.6,2.6,0,0,1-2.84,2,2.9,2.9,0,0,1-3.07-3.2,2.93,2.93,0,0,1,3-3.26,2.83,2.83,0,0,1,2.95,3.11V55h-4.32v.1a1.4,1.4,0,0,0,1.46,1.51,1.26,1.26,0,0,0,1.28-.78ZM232.94,54h2.71a1.3,1.3,0,0,0-1.33-1.35A1.37,1.37,0,0,0,232.94,54Z"/><path class="cls-3" d="M237.91,54.59c0-2,1-3.18,2.57-3.18a2,2,0,0,1,1.92,1.14h0v-3.4h1.66v8.58h-1.64V56.66h0a2,2,0,0,1-2,1.14C238.92,57.8,237.91,56.56,237.91,54.59Zm1.7,0c0,1.15.56,1.86,1.42,1.86s1.42-.72,1.42-1.85-.56-1.86-1.42-1.86S239.61,53.47,239.61,54.6Z"/></g><path class="cls-5" d="M281.26,19.13a19.47,19.47,0,0,1-3,2.11c-1,.61-2.09,1.18-3.18,1.69s-2.19,1-3.31,1.46a30.82,30.82,0,0,1-3.47,1.19.49.49,0,0,1-.6-.34.51.51,0,0,1,.14-.49,34.14,34.14,0,0,1,2.84-2.31c1-.71,2-1.4,3-2s2.05-1.26,3.12-1.81a19.7,19.7,0,0,1,3.35-1.39,1.13,1.13,0,0,1,1.08,1.93Z"/><path class="cls-5" d="M270.1,15.81a14.68,14.68,0,0,1-1.28,2.42c-.49.75-1,1.48-1.58,2.19s-1.14,1.4-1.75,2.07a22.09,22.09,0,0,1-1.94,1.93.48.48,0,0,1-.76-.56A22.17,22.17,0,0,1,264,21.43c.46-.79.94-1.55,1.45-2.3a25.78,25.78,0,0,1,1.6-2.17,14.63,14.63,0,0,1,1.9-2,.72.72,0,0,1,1,.1A.71.71,0,0,1,270.1,15.81Z"/><path class="cls-5" d="M263.83,7.47a17.58,17.58,0,0,1-.13,2.91c-.13,1-.29,1.91-.5,2.85s-.43,1.88-.7,2.81a23.71,23.71,0,0,1-.93,2.77.48.48,0,0,1-.63.26.49.49,0,0,1-.3-.43,25.75,25.75,0,0,1,.09-2.92c.08-1,.18-1.92.33-2.88a27.76,27.76,0,0,1,.52-2.84,17.18,17.18,0,0,1,.89-2.77.71.71,0,0,1,1.36.24Z"/><g class="cls-8"><path class="cls-3" d="M192.32,94a4.71,4.71,0,0,1,1-.29.88.88,0,0,1,.23,0l.39,0,.81.06,3.27.22c2.17.13,4.35.22,6.52.25a89.22,89.22,0,0,0,13-.72l-1,1.1V70.32l1.34,1.08a29.14,29.14,0,0,1-3.48,0l-3.31-.11c-2.2-.07-4.39-.12-6.58-.12-4.37,0-8.75,0-13.12.23l1.11-1.18c.24,4,.49,8.11.61,12.19.06,2,.09,4.09,0,6.15,0,1-.08,2.07-.17,3.11-.06.53-.11,1-.2,1.58l-.06.4,0,.17,0,0A1.08,1.08,0,0,0,192.32,94Zm-1.8,1.29a5,5,0,0,1-.05-1.4l.14-.91c.08-.47.12-1,.18-1.44.09-1,.14-2,.17-3,0-2,0-4,0-6-.13-4-.38-8.08-.62-12.13v-.06a1.05,1.05,0,0,1,1-1.11h.13c4.39.27,8.77.44,13.15.54,2.19.07,4.38.1,6.56,0,1.09,0,2.18-.08,3.26-.14a16.11,16.11,0,0,0,3.06-.43,1,1,0,0,1,1.3.72,1,1,0,0,1,0,.28V94.61a1.11,1.11,0,0,1-1,1.1,92.08,92.08,0,0,1-13.28.74q-3.31,0-6.62-.26l-3.3-.22-.83-.06-.43,0-.59-.07A11.39,11.39,0,0,1,190.52,95.25Z"/></g><g class="cls-8"><path class="cls-3" d="M197.78,79.93h0a1,1,0,0,1-1-1v-4.7a1,1,0,0,1,1-1h3.38a1,1,0,0,1,1,1v2.2h3.73a1,1,0,0,1,1,1,1,1,0,0,1-1,1h-4.71a1,1,0,0,1-1-1v-2.2h-1.41V79A1,1,0,0,1,197.78,79.93Z"/><path class="cls-3" d="M209.91,91.88h-7.13a1,1,0,1,1,0-2h7.13a.36.36,0,0,0,.37-.37V89a1,1,0,0,1,1-1h0a1,1,0,0,1,1,1v.57A2.32,2.32,0,0,1,209.91,91.88Zm-10.4,0h-.4a2.34,2.34,0,0,1-2.32-2.33V82.22a1,1,0,0,1,1-1h0a1,1,0,0,1,1,1v7.32a.36.36,0,0,0,.37.36h.39a1,1,0,1,1,0,2Zm11.76-5.18h0a1,1,0,0,1-1-1V78.78a.38.38,0,0,0-.37-.37h-.78a1,1,0,1,1,0-2h.77a2.33,2.33,0,0,1,2.33,2.33v6.93A1,1,0,0,1,211.27,86.69Z"/><path class="cls-3" d="M206.86,88.51h-4.65a2,2,0,0,1-2-2V83.33a1,1,0,0,1,1-1h0a1,1,0,0,1,1,1v3.13a.09.09,0,0,0,.08.08h4.62a1,1,0,0,1,1,1A1,1,0,0,1,206.86,88.51Zm1-2.56h0a1,1,0,0,1-1-1V81.86a.08.08,0,0,0-.09-.08h-4.68a1,1,0,0,1-.93-1,1,1,0,0,1,1-1h4.64a2.05,2.05,0,0,1,2,2V85A1,1,0,0,1,207.9,86Z"/></g></g><g class="cls-16"><path class="cls-17" d="M255,110.23a50.46,50.46,0,0,1-13.22,8.52l-7.15-15.6a1.15,1.15,0,0,1,1.53-1.53Z"/></g><path class="cls-7" d="M257.22,113.87a6.53,6.53,0,0,0-3.65,3.64l-2.31,5.76a1.38,1.38,0,0,1-2.59.21l-11-23.92A1.16,1.16,0,0,1,239.24,98l24,11a1.38,1.38,0,0,1-.21,2.58Z"/><path class="cls-3" d="M249.92,125.53a2.59,2.59,0,0,1-2.38-1.53l-11-23.92a2.4,2.4,0,0,1,3.18-3.19l24,11a2.62,2.62,0,0,1-.32,4.9L257.68,115h0a5.29,5.29,0,0,0-3,2.94l-2.29,5.71a2.58,2.58,0,0,1-2.3,1.84Zm-11-26.26L249.8,123a.13.13,0,0,0,.14.08.11.11,0,0,0,.11-.1s0-.09,0-.13l2.31-5.77a7.85,7.85,0,0,1,4.34-4.33l5.78-2.31.13,0a.12.12,0,0,0,.1-.12.11.11,0,0,0-.08-.13Zm18.28,14.6h0Z"/><line class="cls-7" x1="261.05" y1="117.53" x2="268.93" y2="125.4"/><path class="cls-3" d="M268.93,126.64a1.24,1.24,0,0,1-.88-.36l-7.88-7.86a1.25,1.25,0,1,1,1.76-1.77l7.88,7.86a1.25,1.25,0,0,1-.88,2.13Z"/><line class="cls-7" x1="257.43" y1="121.93" x2="260.95" y2="125.45"/><path class="cls-3" d="M261,126.69a1.24,1.24,0,0,1-.88-.36l-3.53-3.52a1.25,1.25,0,0,1,1.77-1.76l3.52,3.51a1.25,1.25,0,0,1-.88,2.13Z"/><path class="cls-7" d="M224.81,198.66H174a4.27,4.27,0,0,1-4.27-4.26h0a4.26,4.26,0,0,1,4.27-4.26h50.82"/><path class="cls-3" d="M224.81,199.91H174a5.51,5.51,0,1,1,0-11h50.82a1.25,1.25,0,1,1,0,2.49H174a3,3,0,1,0,0,6h50.82a1.25,1.25,0,0,1,0,2.5Z"/><path class="cls-7" d="M219.33,189.59H178.22a3.45,3.45,0,0,1-3.46-3.44h0a3.45,3.45,0,0,1,3.46-3.45h41.11"/><path class="cls-3" d="M219.33,190.84H178.22a4.7,4.7,0,1,1,0-9.39h41.11a1.25,1.25,0,0,1,0,2.5H178.22a2.2,2.2,0,1,0,0,4.4h41.11a1.25,1.25,0,1,1,0,2.49Z"/><g class="cls-8"><path class="cls-3" d="M175.85,186.28h43.51v-2.77h-40.9a2.61,2.61,0,0,0-2.61,2.61Z"/></g><g class="cls-8"><path class="cls-3" d="M170.89,194.12h53.94v-2.77H173.51a2.62,2.62,0,0,0-2.62,2.62Z"/></g><g class="cls-18"><path d="M110.73,171.49a10.22,10.22,0,0,1-8.78,7.89l-4.71-4.73,8.38-8.29Z"/></g><rect class="cls-3" x="96.99" y="166.07" width="8.85" height="8.86" rx="0.89" ry="0.89" transform="translate(-69.35 271.46) rotate(-89.85)"/><rect class="cls-3" x="96.99" y="163.98" width="2.22" height="5.9" transform="translate(0.44 -0.26) rotate(0.15)"/><rect class="cls-5" x="99.2" y="168.28" width="4.43" height="4.42" rx="0.7" ry="0.7" transform="translate(0.45 -0.27) rotate(0.15)"/><ellipse class="cls-1" cx="101.39" cy="169.31" rx="11.48" ry="11.69" transform="translate(-78.68 88.55) rotate(-34.93)"/><path class="cls-3" d="M101.31,179.84a10.37,10.37,0,0,1-9.92-13.51.73.73,0,0,1,1.39.44,8.93,8.93,0,1,0,16.79-.66c-.07-.16-.14-.32-.22-.48a.73.73,0,0,1,.35-1,.74.74,0,0,1,1,.34l.24.56a10.36,10.36,0,0,1-9.6,14.28Z"/><path class="cls-7" d="M108.5,163.05c.14.16.28.32.41.49"/><path class="cls-3" d="M108.91,164.27a.75.75,0,0,1-.58-.28,5.54,5.54,0,0,0-.37-.45.73.73,0,0,1,.06-1,.72.72,0,0,1,1,.06c.15.17.3.34.44.52a.72.72,0,0,1-.13,1A.68.68,0,0,1,108.91,164.27Z"/><path class="cls-3" d="M94,163.85a.74.74,0,0,1-.48-.18.73.73,0,0,1-.07-1,10.41,10.41,0,0,1,13.92-1.57.71.71,0,0,1,.16,1,.72.72,0,0,1-1,.17,9,9,0,0,0-12,1.34A.73.73,0,0,1,94,163.85Z"/><path class="cls-3" d="M101.33,182.52a13.07,13.07,0,0,1-12.73-10,.72.72,0,0,1,1.41-.33,11.64,11.64,0,0,0,13.07,8.79.72.72,0,1,1,.22,1.43A13.17,13.17,0,0,1,101.33,182.52Z"/><path class="cls-7" d="M108.89,179.23a12.19,12.19,0,0,1-3.83,2"/><path class="cls-3" d="M105.06,182a.73.73,0,0,1-.22-1.42,11.42,11.42,0,0,0,3.61-1.88.72.72,0,0,1,1,.13.73.73,0,0,1-.13,1,13.12,13.12,0,0,1-4.06,2.12A.78.78,0,0,1,105.06,182Z"/><path class="cls-3" d="M113.36,173.1a.55.55,0,0,1-.18,0,.72.72,0,0,1-.53-.88,11.57,11.57,0,0,0-2-9.77.72.72,0,0,1,.14-1,.73.73,0,0,1,1,.14,13,13,0,0,1,2.28,11A.72.72,0,0,1,113.36,173.1Z"/><path class="cls-7" d="M108.9,159.68q.25.19.51.42"/><path class="cls-3" d="M109.41,160.82a.72.72,0,0,1-.48-.17l-.48-.4a.72.72,0,0,1-.13-1,.73.73,0,0,1,1-.13c.19.14.37.29.55.45a.72.72,0,0,1-.48,1.27Z"/><path class="cls-3" d="M89.05,168.74H89a.73.73,0,0,1-.64-.81,13,13,0,0,1,3.17-7.1A13.11,13.11,0,0,1,108,158.21a.73.73,0,0,1-.75,1.25,11.65,11.65,0,0,0-17.51,8.63A.73.73,0,0,1,89.05,168.74Z"/><path class="cls-7" d="M89,170.71c0-.19,0-.38,0-.58"/><path class="cls-3" d="M89,171.44a.73.73,0,0,1-.72-.65c0-.2,0-.41,0-.61a.72.72,0,0,1,.69-.77.74.74,0,0,1,.76.68c0,.18,0,.37.05.55a.74.74,0,0,1-.65.8Z"/><path class="cls-5" d="M134.24,53.69a2.81,2.81,0,1,1,2.8-2.81A2.81,2.81,0,0,1,134.24,53.69Zm0-3.71a.91.91,0,1,0,.9.9A.91.91,0,0,0,134.24,50Z"/><g class="cls-18"><circle class="cls-3" cx="162.36" cy="65.62" r="1.86"/></g></g></g></svg>
