<svg xmlns="http://www.w3.org/2000/svg" viewBox="0 0 202.51 209.92"><defs><style>.cls-1,.cls-7{fill:#233348;}.cls-1{opacity:0.1;}.cls-2,.cls-3,.cls-4,.cls-9{fill:none;}.cls-10,.cls-2,.cls-3,.cls-4,.cls-9{stroke:#233348;stroke-linecap:round;stroke-linejoin:round;}.cls-2,.cls-3,.cls-4{stroke-width:1.31px;}.cls-3{opacity:0.3;}.cls-4,.cls-5{opacity:0.4;}.cls-10,.cls-6{fill:#fff;}.cls-8{fill:#fdc800;}.cls-10,.cls-9{stroke-width:1.59px;}</style></defs><title>Asset 16</title><g id="Layer_2" data-name="Layer 2"><g id="Layer_1-2" data-name="Layer 1"><path class="cls-1" d="M59.42,67.77c7-18.74-5.89-40,23.26-49.46,46.37-15.1,91,33.68,105.87,67.31,13.95,31.5-8.29,58.1-49.56,68.92s-20.66,29.88-31.66,44.3S67.57,216,47.27,192.53,24,154.82,12.58,147.43c-27.92-18-5-68.24,26.23-64.05C53.53,85.35,55.94,77.1,59.42,67.77Z"/><ellipse class="cls-1" cx="159.26" cy="166.91" rx="13.09" ry="13.13"/><ellipse class="cls-1" cx="48.2" cy="55.29" rx="8.84" ry="8.86"/><ellipse class="cls-1" cx="191.67" cy="145.57" rx="4.26" ry="4.27"/><ellipse class="cls-1" cx="11.34" cy="164.83" rx="7.74" ry="7.77"/><ellipse class="cls-2" cx="17.17" cy="67.11" rx="2.62" ry="2.63"/><polygon class="cls-3" points="199.2 121.61 196.56 126.2 201.85 126.2 199.2 121.61"/><polygon class="cls-4" points="68.25 199.08 65.61 203.68 70.9 203.68 68.25 199.08"/><g class="cls-5"><line class="cls-2" x1="165.16" y1="32.97" x2="165.16" y2="34.94"/><line class="cls-2" x1="165.16" y1="38.88" x2="165.16" y2="40.85"/><line class="cls-2" x1="163.19" y1="36.91" x2="161.23" y2="36.91"/><line class="cls-2" x1="169.09" y1="36.91" x2="167.12" y2="36.91"/><line class="cls-2" x1="167.78" y1="34.28" x2="166.47" y2="35.6"/><line class="cls-2" x1="163.85" y1="38.22" x2="162.54" y2="39.54"/><line class="cls-2" x1="163.85" y1="35.6" x2="162.54" y2="34.28"/><line class="cls-2" x1="167.78" y1="39.54" x2="166.47" y2="38.22"/></g><ellipse class="cls-1" cx="5.73" cy="150.82" rx="3.6" ry="3.61"/><line class="cls-2" x1="177.6" y1="142.62" x2="177.6" y2="144.58"/><line class="cls-2" x1="177.6" y1="148.52" x2="177.6" y2="150.49"/><line class="cls-2" x1="175.63" y1="146.55" x2="173.67" y2="146.55"/><line class="cls-2" x1="181.53" y1="146.55" x2="179.56" y2="146.55"/><line class="cls-2" x1="180.22" y1="143.93" x2="178.91" y2="145.24"/><line class="cls-2" x1="176.29" y1="147.87" x2="174.98" y2="149.18"/><line class="cls-2" x1="176.29" y1="145.24" x2="174.98" y2="143.93"/><line class="cls-2" x1="180.22" y1="149.18" x2="178.91" y2="147.87"/><g class="cls-5"><line class="cls-2" x1="15.25" y1="117.34" x2="15.25" y2="119.31"/><line class="cls-2" x1="15.25" y1="123.25" x2="15.25" y2="125.22"/><line class="cls-2" x1="13.28" y1="121.28" x2="11.32" y2="121.28"/><line class="cls-2" x1="19.18" y1="121.28" x2="17.21" y2="121.28"/><line class="cls-2" x1="17.87" y1="118.65" x2="16.56" y2="119.96"/><line class="cls-2" x1="13.94" y1="122.59" x2="12.63" y2="123.9"/><line class="cls-2" x1="13.94" y1="119.96" x2="12.63" y2="118.65"/><line class="cls-2" x1="17.87" y1="123.9" x2="16.56" y2="122.59"/></g><line class="cls-2" x1="26.09" y1="177.41" x2="24.78" y2="178.73"/><line class="cls-2" x1="22.16" y1="181.35" x2="20.85" y2="182.67"/><line class="cls-2" x1="22.16" y1="178.73" x2="20.85" y2="177.41"/><line class="cls-2" x1="26.09" y1="182.67" x2="24.78" y2="181.35"/><ellipse class="cls-6" cx="103.61" cy="117.01" rx="70.06" ry="70.25"/><path class="cls-7" d="M103.61,107.82A86.15,86.15,0,0,0,37.1,139.14a70,70,0,0,0,133,0A86.15,86.15,0,0,0,103.61,107.82Z"/><path class="cls-8" d="M80.93,126.56c-.76.89-7.67,4.64-8.37,3.62s.89-1.4.57-2.79-.23-1.53-.75-1.65,1.07-1.09,1.64-.7c.19.12,3.55.38,4.18,0S81.69,125.67,80.93,126.56ZM71,122.3c2.79-.69,8.49-3,10.27-4.76s6.4-3.75,10-5.4c3-1.39,7.75-3.09,9.72-4.28A85.82,85.82,0,0,0,54.46,123.2c-.84,1.32-1.62,2.6-2.3,3.68-2.32,3.71-1.58,7.18-.7,7.75s7.29-5.34,9.76-7.56S68.26,123,71,122.3Zm57.85-10.71c1.48,1.33,3.49,2.63,4.18,3.28.89.83,2.48,1.59,1.59,3s-.25,2.43-1.84,3.41-1.52,1.73-3.36.59-3.36-1.32-3.42-.59-2.66,1.1-5.19-.43-6.21-3.11-8.24-2.67-4.94.7-7.1,3.63-.89,4.63-4.12,6.54-6.14,4-6.33,5,2.21,5.34,3.8,3.81,3-3.37,3.48-.82,2.16,5.52,3.36,5,3.49-.83,3.68-3.25a5.49,5.49,0,0,1,1.2-3.45,8.4,8.4,0,0,0,.25-3.85,5.65,5.65,0,0,1,1.46-4.13c.64-.45,2.66-.51,1.78,2.09s-2.41,4.33-.32,5.41,4.62.25,5.83-.19,3.86.31,1.27,1.58A7.63,7.63,0,0,0,116.6,140a10.61,10.61,0,0,1-5.77,4.95c-2.66,1-6.08,2.55-7.79.58s-.76-5.41-2.34-5S98.54,143.21,98,144s-4.76,3.44-5.83,4.9-.92,3.07-4,3.26-5.13.12-5.89,1.2-3.7-.21-2.18,1.7,5.83,4.51,3.93,6.35-1.84,1.08-5.45,1.46-4.63-1.27-5,1.91-1.33,4.58-1.71,6.29-.73,2,1.36,2.52,2.54.9,4.89.46,5,1.09,6.56-1.9.18-3.43,2.4-4.51,3.8-1.4,4.18-2.41-.32-2.36,2-2,4.25-1,5.26-1.46,1.52.7,3.55,2.29,2.41,2,4.18,3.18a8.59,8.59,0,0,1,3,3.24c.26.63,3.62-1.53,1.65-2.86s-3.67-2.29-4.75-3.82-2.16-3.49-1.9-3.81,2.34-.32,3.55,1.4,4.56,2.92,5.57,3.75.64.57.57,2.54a4.22,4.22,0,0,0,2.73,3.94c1.14.25,4-.13,3.23-1.27s-2.92-3,.13-3.05,5.61-.07,5.55-1.15-1.82-1.2,0-3,2.6-4.83,3-5.21,2.66-1.34,2.85-.13.13,3.24,1.9,3.05,2.66.57,2.28-.63-1.71-1.91-1.14-2.55,2.28-1.08,2.6.07-2,1.46-.38,2.67,3.86,2.28,5.39,3.49,2,2.35-.7,2-4.75-2.35-7.16-.95-4.16,1.86-5.37,2.87-3.71.88-4.15,2.09-.37,2.35,1.15,3.75,1.91,2.47,2.54,3,2.41-.19,4.5-.63,4.18-1.4,4.37-.32c.14.8-.57,2.22-.6,3.19a70.18,70.18,0,0,0,15.61-11.44c-.13-.41-.25-.81-.37-1.22-.64-2,.19-1.46-1.46-3.62s-2.66-3.05-1.84-3.81,4.18-3.31,4.56-1.84-1.39,1.77-.44,3.3,2.15,2,2.91,3.68h0a70.43,70.43,0,0,0,14.42-24.85A86.53,86.53,0,0,0,128.89,111.59ZM77.43,143.9c-.28.61-1.31,1.23-1.69,2.4s-2,3.15.17,2.63,2.54-.47,3.75-1.65.07-3.39-.24-4.32S77.85,143,77.43,143.9ZM97,173.9c-2.79,0-8.45.47-11.49,2.25s-3,2.07-5,1a4.8,4.8,0,0,0-4.82.51,6.52,6.52,0,0,1-2.53,2.6,70.08,70.08,0,0,0,52.69,3.32c-2.54-1.11-6.23-2.62-8.09-2.62a3,3,0,0,0-3,2.8c0,.76-.76,1.78-3.55.25s-3.8-.76-6.33-2.28-3.8-2-3.55-3.82S99.81,173.9,97,173.9ZM81.31,150.33c1.56,0,2.83-.28,4.57-.39s4.67-2.06,4.29-2.84-2.32-1.93-2.38-3.11a3.38,3.38,0,0,0-1.55-2.56c-.68-.43-.43-.93-.15-1.55s0-2-.9-2.11-2.4-1.12-2.89.11-1,2-.58,3.55c.48,1.84,2.06,3.52.77,5.09C81.33,147.93,80.26,150.31,81.31,150.33Z"/><path class="cls-6" d="M114,167.67c.07-2,.45-1.72-.57-2.54s-4.37-2-5.57-3.75a3.59,3.59,0,0,0-1.62-1.29.18.18,0,0,1,0-.11c.26-.32,2.35-.32,3.55,1.4s4.56,2.92,5.58,3.75.63.57.57,2.54a4.22,4.22,0,0,0,2.66,3.92,5.53,5.53,0,0,1-1.9,0A4.22,4.22,0,0,1,114,167.67Zm-9.69-31.32c-.31-1.77-1.11-1.42-2.1-.53a2.93,2.93,0,0,1,.13.53c.45,2.54,2.16,5.52,3.36,5,.25-.11.56-.21.87-.32A9,9,0,0,1,104.31,136.35Zm12.42,47.46a3.06,3.06,0,0,1,2.15-2.68,6.58,6.58,0,0,0-1.08-.12,3,3,0,0,0-3,2.8,1,1,0,0,1-.37.8C116.19,185.26,116.73,184.45,116.73,183.81Zm-15.34-55.47c-3.23,1.91-6.14,4-6.33,5s2.21,5.34,3.8,3.81L99,137c-1.14-.94-2.12-3-2-3.66.19-1,3.11-3.11,6.34-5s2-3.62,4.12-6.54,5-3.17,7-3.6a5,5,0,0,0-1.84,0c-2,.45-4.94.7-7.1,3.63S104.62,126.43,101.39,128.34Zm12.36,5.85a5.68,5.68,0,0,0,3.39.45,5,5,0,0,1-1.43-.45c-2.09-1.08-.57-2.8.32-5.41s-1.14-2.54-1.77-2.09a1.4,1.4,0,0,0-.2.17,2.08,2.08,0,0,1,0,1.92c-.4,1.18-.93,2.17-1.2,3a11.46,11.46,0,0,1,0,1.57A1.93,1.93,0,0,0,113.75,134.19Zm9.06,1.39c2.6-1.27-.06-2-1.27-1.58l-.12,0c.68.27.9.82-.57,1.54A7.63,7.63,0,0,0,116.6,140a10.61,10.61,0,0,1-5.77,4.95,27.59,27.59,0,0,1-4.41,1.41c1.82.44,4.33-.67,6.38-1.41a10.59,10.59,0,0,0,5.76-4.95A7.63,7.63,0,0,1,122.81,135.58ZM143,165.9l.37,0c2.73.32,2.22-.82.7-2s-3.74-2.29-5.39-3.49.7-1.53.38-2.67c-.25-.93-1.43-.81-2.17-.38a.87.87,0,0,1,.21.38,1,1,0,0,1-.4,1,5,5,0,0,1,.91,1.47c.15.5.09.66-.16.69,1.53,1,3.35,1.95,4.66,3C143.22,164.78,143.78,165.61,143,165.9Zm-3.75,9.84c-.11-.67-1-.56-2.08-.27a.67.67,0,0,1,.12.27c.14.8-.57,2.22-.6,3.19.74-.4,1.48-.81,2.2-1.24A5.13,5.13,0,0,0,139.28,175.74ZM56.74,122c12.73-8.84,27.63-13.12,44.06-14l.18-.11A85.82,85.82,0,0,0,54.46,123.2c-.84,1.32-1.62,2.6-2.3,3.68-2.32,3.71-1.58,7.18-.7,7.75.22.14.77-.11,1.51-.6-.6-1.26-.74-4.13,1.16-7.15C54.8,125.8,55.9,123.3,56.74,122Zm98,38.32c-1-1.53.83-1.84.45-3.3-.18-.7-1-.49-2,0,.37,1.46-1.4,1.78-.45,3.3s2.15,2,2.91,3.68h0l1.12-1.29A18.9,18.9,0,0,1,154.74,160.3ZM135,114.87c-.5-.47-1.69-1.28-2.87-2.2-1.09-.38-2.18-.74-3.28-1.08,1.48,1.33,3.49,2.63,4.18,3.28.89.83,2.48,1.59,1.59,3s-.25,2.43-1.84,3.41a11.88,11.88,0,0,0-1.08.77c1.52.87,1.56.14,3-.77s1-2,1.83-3.41S135.93,115.7,135,114.87ZM82,153.65l-.24.11A.88.88,0,0,0,82,153.65Zm51.41,4.17c-.13-.85-1.26-.63-2.08-.29a.64.64,0,0,1,.12.29c.19,1.21.13,3.24,1.9,3.05,1.28-.14,2.1.22,2.31,0l-.34,0C133.58,161.06,133.64,159,133.45,157.82ZM130,167.33c1.2-1,3.32-1.19,5.73-2.58.28-.17,1.07,0,1.34-.1a3.62,3.62,0,0,0-2.79.35c-2.41,1.4-4.16,1.86-5.37,2.87s-3.71.88-4.15,2.09-.37,2.35,1.15,3.75,1.91,2.47,2.54,3c.35.28,1.05.19,2,0-.63-.52-1-1.59-2.52-3s-1.6-2.54-1.16-3.75S128.79,168.34,130,167.33ZM79.7,125.17a2.22,2.22,0,0,0-1.5-.13,2.19,2.19,0,0,1-.77.16A12,12,0,0,0,79.7,125.17Zm-.31,18.73a2.14,2.14,0,0,1,.23-.38c-.08-.22-.15-.41-.2-.56-.3-.92-1.57,0-2,.94-.28.61-1.31,1.23-1.69,2.4s-2,3.15.17,2.63l.86-.2c-.13-.52.67-1.65.93-2.43C78.09,145.13,79.11,144.51,79.39,143.9Zm1.92,6.43a13.58,13.58,0,0,0,1.71-.09c-.57-.42.4-2.45,1.43-3.72,1.3-1.57-.29-3.25-.77-5.09-.4-1.54.09-2.32.58-3.55a1,1,0,0,1,.19-.31c-.82-.28-1.78-.61-2.15.31-.5,1.23-1,2-.58,3.55.48,1.84,2.06,3.52.77,5.09C81.33,147.93,80.26,150.31,81.31,150.33ZM77.7,177.71a4.23,4.23,0,0,1,1.9-.84,4.89,4.89,0,0,0-3.87.84,6.52,6.52,0,0,1-2.53,2.6l1,.45h0C76.94,179.74,77.19,178.22,77.7,177.71Zm-4.41-4.09c1.85.51,2.42.82,4.14.58-.61-.11-1.22-.31-2.17-.58-2.1-.57-1.75-.8-1.37-2.52s1.33-3.11,1.72-6.29c.14-1.18.37-1.7.79-1.89-1.83-.16-2.47-.49-2.76,1.89-.38,3.18-1.33,4.58-1.71,6.29S71.2,173.05,73.29,173.62Zm36-3.15c.13.31,1-.05,1.61-.65a10.38,10.38,0,0,0-2.68-2.59c-1.78-1.21-2.16-1.59-4.19-3.18s-2.53-2.73-3.54-2.29c-.19.08-.41.19-.66.32.53.42,1.17,1.13,2.24,2,2,1.59,2.41,2,4.18,3.18A8.59,8.59,0,0,1,109.31,170.47ZM80.17,155.09c1.52,1.91,5.83,4.51,3.93,6.35s-1.84,1.08-5.45,1.46l-.22,0a10.67,10.67,0,0,0,2.18,0c3.61-.38,3.55.39,5.45-1.46s-2.41-4.44-3.93-6.35c-.66-.83-.63-1.15-.33-1.33C80.71,154.12,78.91,153.51,80.17,155.09ZM100,144a13.3,13.3,0,0,1,1.62-2.85c-.15-.51-.4-.79-.92-.64-1.59.44-2.16,2.67-2.66,3.49s-4.76,3.44-5.83,4.9-.92,3.07-4,3.26l-.6,0c.81,0,1.68,0,2.57,0,3-.19,2.88-1.8,4-3.26S99.49,144.86,100,144ZM74.84,125.16A4.49,4.49,0,0,1,74,125c-.57-.39-2.15.57-1.64.7s.44.25.75,1.65-1.26,1.78-.57,2.79c.21.3.94.18,1.89-.14-.47-.91,1-1.32.65-2.65s-.23-1.53-.75-1.65C74.07,125.67,74.39,125.37,74.84,125.16Zm7.51,28.23a.86.86,0,0,1-.31.26,2.55,2.55,0,0,0,1.45-.75,1.12,1.12,0,0,1,.4-.34A2.45,2.45,0,0,0,82.35,153.39Zm1.54-.83a27,27,0,0,1,3.75-.33A9.18,9.18,0,0,0,83.89,152.56ZM94,163.27a5.4,5.4,0,0,0,.91-.08A2.18,2.18,0,0,0,94,163.27ZM82.25,174a9.53,9.53,0,0,0-1.85,0A9.53,9.53,0,0,0,82.25,174Z"/><path class="cls-2" d="M101,107.86c-2,1.19-6.74,2.89-9.72,4.28-3.55,1.65-8.18,3.68-10,5.4S73.83,121.61,71,122.3s-7.35,2.55-9.82,4.77-8.87,8.13-9.76,7.56-1.62-4,.7-7.75c.68-1.08,1.46-2.36,2.3-3.68m18.1,7c.7,1,7.61-2.73,8.37-3.62s-2.09-1.91-2.73-1.52-4,.12-4.18,0c-.57-.39-2.15.57-1.64.7s.44.25.75,1.65S71.87,129.17,72.56,130.18Zm79.69,37c-.1-.31-.2-.62-.29-.94-.64-2,.19-1.46-1.46-3.62s-2.66-3.05-1.84-3.81,4.18-3.31,4.56-1.84-1.39,1.77-.44,3.3,2.15,2,2.91,3.68m-30.07,19.54c-2.52-1.1-6-2.51-7.82-2.51a3,3,0,0,0-3,2.8c0,.76-.76,1.78-3.55.25s-3.8-.76-6.33-2.28-3.8-2-3.55-3.82S99.81,173.9,97,173.9s-8.45.47-11.49,2.25-3,2.07-5,1a4.8,4.8,0,0,0-4.82.51,6.44,6.44,0,0,1-2.53,2.6m55.69-68.72c1.48,1.33,3.49,2.63,4.18,3.28.89.83,2.48,1.59,1.59,3s-.25,2.43-1.84,3.41-1.52,1.73-3.36.59-3.36-1.32-3.42-.59-2.66,1.1-5.19-.43-6.21-3.11-8.24-2.67-4.94.7-7.1,3.63-.89,4.63-4.12,6.54-6.14,4-6.33,5,2.21,5.34,3.8,3.81,3-3.37,3.48-.82,2.16,5.52,3.36,5,3.49-.83,3.68-3.25a5.49,5.49,0,0,1,1.2-3.45,8.4,8.4,0,0,0,.25-3.85,5.65,5.65,0,0,1,1.46-4.13c.64-.45,2.66-.51,1.78,2.09s-2.41,4.33-.32,5.41,4.62.25,5.83-.19,3.86.31,1.27,1.58A7.63,7.63,0,0,0,116.6,140a10.61,10.61,0,0,1-5.77,4.95c-2.66,1-6.08,2.55-7.79.58s-.76-5.41-2.34-5S98.54,143.21,98,144s-4.76,3.44-5.83,4.9-.92,3.07-4,3.26-5.13.12-5.89,1.2-3.7-.21-2.18,1.7,5.83,4.51,3.93,6.35-1.84,1.08-5.45,1.46-4.63-1.27-5,1.91-1.33,4.58-1.71,6.29-.73,2,1.36,2.52,2.54.9,4.89.46,5,1.09,6.56-1.9.18-3.43,2.4-4.51,3.8-1.4,4.18-2.41-.32-2.36,2-2,4.25-1,5.26-1.46,1.52.7,3.55,2.29,2.41,2,4.18,3.18a8.59,8.59,0,0,1,3,3.24c.26.63,3.62-1.53,1.65-2.86s-3.67-2.29-4.75-3.82-2.16-3.49-1.9-3.81,2.34-.32,3.55,1.4,4.56,2.92,5.57,3.75.64.57.57,2.54a4.22,4.22,0,0,0,2.73,3.94c1.14.25,4-.13,3.23-1.27s-2.92-3,.13-3.05,5.61-.07,5.55-1.15-1.82-1.2,0-3,2.6-4.83,3-5.21,2.66-1.34,2.85-.13.13,3.24,1.9,3.05,2.66.57,2.28-.63-1.71-1.91-1.14-2.55,2.28-1.08,2.6.07-2,1.46-.38,2.67,3.86,2.28,5.39,3.49,2,2.35-.7,2-4.75-2.35-7.16-.95-4.16,1.86-5.37,2.87-3.71.88-4.15,2.09-.37,2.35,1.15,3.75,1.91,2.47,2.54,3,2.41-.19,4.5-.63,4.18-1.4,4.37-.32c.13.73-.46,2-.59,2.93M82.49,146.52c-1.16,1.41-2.23,3.79-1.18,3.81,1.56,0,2.83-.28,4.57-.39s4.67-2.06,4.29-2.84-2.32-1.93-2.38-3.11a3.38,3.38,0,0,0-1.55-2.56c-.68-.43-.43-.93-.15-1.55s0-2-.9-2.11-2.4-1.12-2.89.11-1,2-.58,3.55C82.2,143.27,83.78,145,82.49,146.52ZM79.42,143c-.3-.92-1.57,0-2,.94-.28.61-1.31,1.23-1.69,2.4s-2,3.15.17,2.63,2.54-.47,3.75-1.65S79.73,143.89,79.42,143Z"/><path class="cls-2" d="M169.92,138.89a86.28,86.28,0,0,0-132.61,0"/><ellipse class="cls-2" cx="103.61" cy="117.01" rx="70.06" ry="70.25"/><path class="cls-2" d="M39.78,67.77a80.39,80.39,0,0,1,127.66,0"/><polyline class="cls-2" points="160.1 67.05 167.44 67.77 168.16 60.41"/><path class="cls-2" d="M167.44,166.25a80.39,80.39,0,0,1-127.66,0"/><polyline class="cls-2" points="47.12 166.97 39.78 166.25 39.07 173.61"/><path class="cls-6" d="M53.87,90a2.62,2.62,0,0,0-2.21,1.19l-.17-.11a3.64,3.64,0,0,0,.39-1.64A3.68,3.68,0,0,0,48.2,85.8a3.44,3.44,0,0,0-.46,0s0-.08,0-.11a6.71,6.71,0,0,0-13.39-.59A5.14,5.14,0,0,0,32,84.54a5.21,5.21,0,0,0-4.5,2.59,4.35,4.35,0,0,0-1.8-.4,4.31,4.31,0,0,0,0,8.61H53.87a2.65,2.65,0,0,0,0-5.3Z"/><path class="cls-2" d="M53.87,90a2.62,2.62,0,0,0-2.21,1.19l-.17-.11a3.64,3.64,0,0,0,.39-1.64A3.68,3.68,0,0,0,48.2,85.8a3.44,3.44,0,0,0-.46,0s0-.08,0-.11a6.71,6.71,0,0,0-13.39-.59A5.14,5.14,0,0,0,32,84.54a5.21,5.21,0,0,0-4.5,2.59,4.35,4.35,0,0,0-1.8-.4,4.31,4.31,0,0,0,0,8.61H53.87a2.65,2.65,0,0,0,0-5.3Z"/><path class="cls-2" d="M48.2,85.8a3.68,3.68,0,0,0-3.49,2.51"/><path class="cls-2" d="M35.74,86.17A5.22,5.22,0,0,0,32,84.54"/><path class="cls-2" d="M43,82.18a3.71,3.71,0,0,0-4.87,1.08"/><path class="cls-6" d="M179.29,97.37c0-.27,0-.53,0-.81a7.06,7.06,0,0,0-13.89-1.79,4.67,4.67,0,0,0-2-.47,4.82,4.82,0,0,0-4.53,6.44,3.65,3.65,0,0,0-.88-.1,3.92,3.92,0,0,0,0,7.83h20.59a5.57,5.57,0,0,0,.71-11.1Z"/><path class="cls-2" d="M179.29,97.37c0-.27,0-.53,0-.81a7.06,7.06,0,0,0-13.89-1.79,4.67,4.67,0,0,0-2-.47,4.82,4.82,0,0,0-4.53,6.44,3.65,3.65,0,0,0-.88-.1,3.92,3.92,0,0,0,0,7.83h20.59a5.57,5.57,0,0,0,.71-11.1Z"/><path class="cls-2" d="M163.4,94.3a4.8,4.8,0,0,1,4.16,2.41"/><path class="cls-2" d="M173.84,100a5.58,5.58,0,0,1,6.67-2.32"/><path class="cls-2" d="M173.84,92.76a4.37,4.37,0,0,0-5,1.32"/><line class="cls-2" x1="25.7" y1="92.72" x2="33.55" y2="92.72"/><line class="cls-2" x1="159.26" y1="105.85" x2="167.12" y2="105.85"/><line class="cls-2" x1="171.05" y1="105.85" x2="173.67" y2="105.85"/><line class="cls-2" x1="111.47" y1="94.69" x2="129.8" y2="94.69"/><line class="cls-2" x1="136.35" y1="94.69" x2="141.59" y2="94.69"/><path class="cls-2" d="M145.51,82.21v3.94m2-2h-3.93"/><path class="cls-2" d="M61.71,105.19v3.94m2-2H59.74"/><path class="cls-2" d="M40.1,98.63v3.94m2-2H38.14"/><path class="cls-2" d="M77.42,75.65v3.94m2-2H75.46"/><path class="cls-2" d="M165.81,119.64v3.93m2-2h-3.93"/><line class="cls-2" x1="61.71" y1="85.49" x2="68.26" y2="85.49"/><line class="cls-2" x1="38.79" y1="113.73" x2="45.99" y2="113.73"/><line class="cls-9" x1="57.02" y1="94.57" x2="144.94" y2="94.57"/><path class="cls-6" d="M65.73,52.47H89.49a4,4,0,0,1,4,4V94.57a0,0,0,0,1,0,0H61.77a0,0,0,0,1,0,0V56.43A4,4,0,0,1,65.73,52.47Z"/><path class="cls-8" d="M89.49,52.47H69.69a4,4,0,0,0-4,4V94.57H93.45V56.44A4,4,0,0,0,89.49,52.47Z"/><path class="cls-9" d="M65.73,52.47H89.49a4,4,0,0,1,4,4V94.57a0,0,0,0,1,0,0H61.77a0,0,0,0,1,0,0V56.43A4,4,0,0,1,65.73,52.47Z"/><rect class="cls-6" x="64.14" y="58.82" width="26.93" height="35.74"/><rect class="cls-9" x="64.14" y="58.82" width="26.93" height="35.74"/><line class="cls-9" x1="72.86" y1="55.64" x2="78.4" y2="55.64"/><line class="cls-9" x1="80.78" y1="55.64" x2="82.36" y2="55.64"/><ellipse class="cls-1" cx="76.03" cy="77.09" rx="2.38" ry="2.38"/><ellipse class="cls-1" cx="72.07" cy="87.42" rx="2.38" ry="2.38"/><ellipse class="cls-1" cx="83.16" cy="67.56" rx="2.38" ry="2.38"/><ellipse class="cls-9" cx="73.65" cy="77.09" rx="2.38" ry="2.38"/><ellipse class="cls-9" cx="69.69" cy="87.42" rx="2.38" ry="2.38"/><ellipse class="cls-9" cx="79.19" cy="84.24" rx="2.38" ry="2.38"/><ellipse class="cls-9" cx="80.78" cy="67.56" rx="2.38" ry="2.38"/><polyline class="cls-9" points="68.11 58.82 68.11 69.15 73.65 69.15 73.65 74.71"/><line class="cls-9" x1="80.78" y1="65.18" x2="80.78" y2="59.62"/><line class="cls-9" x1="69.69" y1="94.57" x2="69.69" y2="89.8"/><path class="cls-9" d="M87.91,50.08a6.65,6.65,0,0,1-6.34-6.35c0-3.07,2.84-4.77,6.34-4.77"/><path class="cls-10" d="M87.91,50.08a6.65,6.65,0,0,1-6.34-6.35c0-3.07,2.84-4.77,6.34-4.77"/><path class="cls-9" d="M87.91,43.73a2.19,2.19,0,0,0-3.17,0"/><path class="cls-9" d="M125.14,50.08a6.65,6.65,0,0,0,6.34-6.35c0-3.07-2.84-4.77-6.34-4.77"/><path class="cls-10" d="M125.14,50.08a6.65,6.65,0,0,0,6.34-6.35c0-3.07-2.84-4.77-6.34-4.77"/><path class="cls-9" d="M125.14,43.73a2.19,2.19,0,0,1,3.17,0"/><rect class="cls-6" x="100.58" y="57.23" width="11.88" height="22.24"/><rect class="cls-9" x="100.58" y="57.23" width="11.88" height="22.24"/><path class="cls-6" d="M91.87,15.13h29.31a4,4,0,0,1,4,4V45a18.62,18.62,0,0,1-18.62,18.62h0A18.62,18.62,0,0,1,87.91,45V19.09A4,4,0,0,1,91.87,15.13Z"/><path class="cls-9" d="M91.87,15.13h29.31a4,4,0,0,1,4,4V45a18.62,18.62,0,0,1-18.62,18.62h0A18.62,18.62,0,0,1,87.91,45V19.09A4,4,0,0,1,91.87,15.13Z"/><rect class="cls-9" x="90.28" y="33.4" width="13.47" height="11.12" rx="1.67" ry="1.67"/><rect class="cls-9" x="109.3" y="33.4" width="13.47" height="11.12" rx="1.67" ry="1.67"/><line class="cls-9" x1="103.75" y1="36.58" x2="109.29" y2="36.58"/><path class="cls-9" d="M102.17,52.86c0,1.1,2,2,4.35,2s4.36-.89,4.36-2"/><path class="cls-9" d="M104,47.7c0,.88,1.12,1.59,2.49,1.59S109,48.58,109,47.7"/><path class="cls-7" d="M114.05,69.15h-.15c-.7,2.72-3.74,4.76-7.38,4.76s-6.67-2-7.37-4.76h-.32L96.62,85l17.43,5.56Z"/><path class="cls-9" d="M114.05,69.15h-.15c-.7,2.72-3.74,4.76-7.38,4.76s-6.67-2-7.37-4.76h-.32L96.62,85l17.43,5.56Z"/><path class="cls-8" d="M106.67,83.21l7.38-14.06h4.12a15,15,0,0,1,14.89,14.93V94.57H106.92"/><path class="cls-6" d="M99,69.15H94.88A15,15,0,0,0,80,84.08V94.57h26.93V84.24Z"/><path class="cls-8" d="M99,69.15h-.16A15,15,0,0,0,84,84.08V94.57h23V84.24Z"/><path class="cls-9" d="M106.38,83.21,99,69.15H94.88A15,15,0,0,0,80,84.08V94.57h26.14"/><path class="cls-9" d="M133.06,91.39V84.08a15,15,0,0,0-14.89-14.93h-4.12l-7.92,15.09V94.57h26.93"/><circle class="cls-7" cx="108.9" cy="87.02" r="1.19"/><circle class="cls-7" cx="108.9" cy="90.99" r="1.19"/><polygon class="cls-6" points="95.83 66.76 99 77.89 103.75 75.5 99.79 65.18 95.83 66.76"/><polygon class="cls-9" points="95.83 66.76 99 77.89 103.75 75.5 99.79 65.18 95.83 66.76"/><polygon class="cls-6" points="117.22 66.76 114.05 77.89 109.3 75.5 113.26 65.18 117.22 66.76"/><polygon class="cls-9" points="117.22 66.76 114.05 77.89 109.3 75.5 113.26 65.18 117.22 66.76"/><line class="cls-9" x1="100.58" y1="30.23" x2="91.87" y2="31.02"/><line class="cls-9" x1="112.46" y1="30.23" x2="121.18" y2="31.02"/><ellipse class="cls-7" cx="96.62" cy="38.96" rx="1.58" ry="1.59"/><ellipse class="cls-7" cx="116.43" cy="38.96" rx="1.58" ry="1.59"/><path class="cls-6" d="M125.14,39s0-8.73-1.3-13.73A17.55,17.55,0,0,0,119,17.31s-13.64,7.35-24.73,10.53L93.45,21s-5.54,3.7-5.54,18a4.59,4.59,0,0,0-3.17.54c-2.38-8.48-4.1-30.66,12.52-37,15.76-6,26.19,5.59,25.36,10.44,7.31.61,9.65,17.3,5.27,26.43A6.18,6.18,0,0,0,125.14,39Z"/><path class="cls-1" d="M125.6,38.91c.53,0,1.47,0,2.47.05,4.12-9.22,1.75-25.42-5.45-26,.62-3.64-5.11-11.11-14.69-12a24.76,24.76,0,0,0-6.71,1.6C86.4,8.15,86.17,26.4,88,36.3,88.61,24.2,93.45,21,93.45,21l.8,6.88C105.34,24.66,119,17.31,119,17.31a17.55,17.55,0,0,1,4.86,7.92c1.3,5,1.3,13.73,1.3,13.73S125.33,38.9,125.6,38.91Z"/><path class="cls-9" d="M125.14,39s0-8.73-1.3-13.73A17.55,17.55,0,0,0,119,17.31s-13.64,7.35-24.73,10.53L93.45,21s-5.54,3.7-5.54,18a4.59,4.59,0,0,0-3.17.54c-2.38-8.48-4.1-30.66,12.52-37,15.76-6,26.19,5.59,25.36,10.44,7.31.61,9.65,17.3,5.27,26.43A6.18,6.18,0,0,0,125.14,39Z"/><path class="cls-9" d="M106.52,19.39c-2.89,1.29-6.09,2.62-9.23,3.72"/><path class="cls-9" d="M113,16.34l-3.21,1.55"/><path class="cls-9" d="M122.62,12.93S126.27,9,125.14,5.6"/><path class="cls-9" d="M127.48,11.33a2.14,2.14,0,0,1,2.43.61"/><line class="cls-9" x1="104.54" y1="58.03" x2="108.5" y2="58.03"/><line class="cls-9" x1="90.28" y1="36.58" x2="88.7" y2="36.58"/><line class="cls-9" x1="124.35" y1="36.58" x2="122.76" y2="36.58"/></g></g></svg>