<svg xmlns="http://www.w3.org/2000/svg" viewBox="0 0 256.85 199.93"><defs><style>.cls-1,.cls-8,.cls-9{fill:#233348;}.cls-1{opacity:0.1;}.cls-11,.cls-12,.cls-2,.cls-3,.cls-7{fill:none;}.cls-11,.cls-12,.cls-13,.cls-2,.cls-3{stroke:#233348;}.cls-12,.cls-13,.cls-2,.cls-3,.cls-7{stroke-linecap:round;}.cls-13,.cls-2,.cls-3,.cls-7{stroke-linejoin:round;stroke-width:1.8px;}.cls-3,.cls-5,.cls-8{opacity:0.3;}.cls-13,.cls-4{fill:#fff;}.cls-6{fill:#fdc800;}.cls-7{stroke:#009afe;}.cls-10{fill:#ffe920;}.cls-11,.cls-12{stroke-miterlimit:10;stroke-width:0.9px;}</style></defs><title>Asset 15</title><g id="Layer_2" data-name="Layer 2"><g id="Layer_1-2" data-name="Layer 1"><path class="cls-1" d="M45.46,67.35c-19-10.61-57.4,8.42-41.83,50.1S78,198.31,100.27,178.31s50.28-6,72,0c26.1,7.21,67.13-30.66,71.09-58.53s0-72.05-47.56-93.11c-38.72-17.15-70.33-6-94.62,24.66C75.86,83.23,64.45,78,45.46,67.35Z"/><ellipse class="cls-1" cx="125.01" cy="187.77" rx="12.15" ry="12.16"/><ellipse class="cls-1" cx="89.92" cy="35.57" rx="5.85" ry="5.85"/><ellipse class="cls-1" cx="227.15" cy="28.82" rx="8.1" ry="8.11"/><circle class="cls-2" cx="22.88" cy="46.83" r="3.6"/><circle class="cls-2" cx="74.17" cy="116.17" r="3.6"/><circle class="cls-2" cx="201.05" cy="70.24" r="3.6"/><polygon class="cls-3" points="176.76 0.9 173.12 7.2 180.4 7.2 176.76 0.9"/><polygon class="cls-3" points="216.35 177.41 212.72 183.72 219.99 183.72 216.35 177.41"/><circle class="cls-4" cx="27.83" cy="106.82" r="4.95"/><line class="cls-2" x1="24.68" y1="79.05" x2="24.68" y2="81.75"/><line class="cls-2" x1="24.68" y1="87.16" x2="24.68" y2="89.86"/><line class="cls-2" x1="21.98" y1="84.45" x2="19.28" y2="84.45"/><line class="cls-2" x1="30.07" y1="84.45" x2="27.38" y2="84.45"/><line class="cls-2" x1="28.28" y1="80.85" x2="26.48" y2="82.65"/><line class="cls-2" x1="22.88" y1="86.26" x2="21.08" y2="88.06"/><line class="cls-2" x1="22.88" y1="82.65" x2="21.08" y2="80.85"/><line class="cls-2" x1="28.28" y1="88.06" x2="26.48" y2="86.26"/><line class="cls-2" x1="250.55" y1="135.09" x2="250.55" y2="137.79"/><line class="cls-2" x1="250.55" y1="143.19" x2="250.55" y2="145.89"/><line class="cls-2" x1="247.85" y1="140.49" x2="245.15" y2="140.49"/><line class="cls-2" x1="255.95" y1="140.49" x2="253.25" y2="140.49"/><line class="cls-2" x1="254.15" y1="136.89" x2="252.35" y2="138.69"/><line class="cls-2" x1="248.75" y1="142.29" x2="246.95" y2="144.09"/><line class="cls-2" x1="248.75" y1="138.69" x2="246.95" y2="136.89"/><line class="cls-2" x1="254.15" y1="144.09" x2="252.35" y2="142.29"/><line class="cls-2" x1="177.66" y1="190.02" x2="175.86" y2="191.82"/><line class="cls-2" x1="172.26" y1="195.43" x2="170.46" y2="197.23"/><line class="cls-2" x1="172.26" y1="191.82" x2="170.46" y2="190.02"/><line class="cls-2" x1="177.66" y1="197.23" x2="175.86" y2="195.43"/><g class="cls-5"><line class="cls-2" x1="63.37" y1="33.32" x2="61.57" y2="35.12"/><line class="cls-2" x1="57.97" y1="38.72" x2="56.17" y2="40.53"/><line class="cls-2" x1="57.97" y1="35.12" x2="56.17" y2="33.32"/><line class="cls-2" x1="63.37" y1="40.53" x2="61.57" y2="38.72"/></g><line class="cls-2" x1="199.26" y1="33.32" x2="197.46" y2="35.12"/><line class="cls-2" x1="193.86" y1="38.72" x2="192.06" y2="40.53"/><line class="cls-2" x1="193.86" y1="35.12" x2="192.06" y2="33.32"/><line class="cls-2" x1="199.26" y1="40.53" x2="197.46" y2="38.72"/><ellipse class="cls-4" cx="142.56" cy="70.24" rx="12.6" ry="12.61"/><ellipse class="cls-6" cx="144.36" cy="70.24" rx="10.8" ry="12.46"/><ellipse class="cls-2" cx="142.56" cy="70.24" rx="12.6" ry="12.61"/><polygon class="cls-4" points="57.97 164.81 67.87 154 84.07 148.6 103.87 108.97 115.56 114.37 123.66 94.56 148.86 79.25 159.66 42.33 176.76 33.32 182.16 54.03 190.26 57.64 190.26 164.81 57.97 164.81"/><polygon class="cls-6" points="182.16 54.03 177.3 35.41 164.16 42.33 153.36 79.25 128.16 94.56 120.06 114.37 116.28 112.63 115.56 114.37 107.52 110.66 88.57 148.6 72.37 154 62.47 164.81 190.26 164.81 190.26 57.64 182.16 54.03"/><polygon class="cls-2" points="57.97 164.81 67.87 154 84.07 148.6 103.87 108.97 115.56 114.37 123.66 94.56 148.86 79.25 159.66 42.33 176.76 33.32 182.16 54.03 190.26 57.64 190.26 164.81 57.97 164.81"/><polyline class="cls-2" points="115.56 114.37 121.86 124.28 118.27 134.19 107.47 140.49"/><line class="cls-2" x1="131.76" y1="125.18" x2="121.86" y2="124.28"/><line class="cls-2" x1="124.56" y1="142.29" x2="119.16" y2="134.19"/><line class="cls-2" x1="182.16" y1="54.03" x2="174.06" y2="48.63"/><polyline class="cls-7" points="94.19 164.81 92.17 160.3 97.57 158.5"/><line class="cls-2" x1="148.86" y1="79.25" x2="156.96" y2="83.75"/><path class="cls-8" d="M97.57,139.64v-1.85h3.6v-5.4H76v5.4h-3.6v5.4H87.86a12.61,12.61,0,1,0,9.71-3.55Z"/><ellipse class="cls-8" cx="171.36" cy="154.9" rx="9" ry="9.01"/><line class="cls-2" x1="33.67" y1="164.81" x2="227.15" y2="164.81"/><line class="cls-2" x1="237.05" y1="164.81" x2="252.35" y2="164.81"/><line class="cls-2" x1="25.58" y1="164.81" x2="15.68" y2="164.81"/><line class="cls-2" x1="117.36" y1="95.46" x2="117.36" y2="83.75"/><rect class="cls-6" x="154.26" y="108.07" width="25.2" height="5.4"/><rect class="cls-6" x="150.66" y="113.47" width="25.2" height="5.4"/><rect class="cls-4" x="154.26" y="108.07" width="4.5" height="5.4"/><rect class="cls-4" x="150.66" y="113.47" width="4.5" height="5.4"/><rect class="cls-2" x="154.26" y="108.07" width="25.2" height="5.4"/><rect class="cls-2" x="150.66" y="113.47" width="25.2" height="5.4"/><line class="cls-2" x1="158.76" y1="108.07" x2="158.76" y2="113.47"/><line class="cls-2" x1="164.16" y1="108.07" x2="164.16" y2="113.47"/><line class="cls-2" x1="169.56" y1="108.07" x2="169.56" y2="113.47"/><line class="cls-2" x1="174.96" y1="108.07" x2="174.96" y2="113.47"/><line class="cls-2" x1="155.16" y1="113.47" x2="155.16" y2="118.88"/><line class="cls-2" x1="160.56" y1="113.47" x2="160.56" y2="118.88"/><line class="cls-2" x1="165.96" y1="113.47" x2="165.96" y2="118.88"/><line class="cls-2" x1="171.36" y1="113.47" x2="171.36" y2="118.88"/><ellipse class="cls-8" cx="194.76" cy="115.27" rx="10.8" ry="12.46"/><ellipse class="cls-7" cx="192.96" cy="115.27" rx="12.6" ry="12.61"/><ellipse class="cls-4" cx="207.35" cy="99.06" rx="12.6" ry="12.61"/><ellipse class="cls-6" cx="209.15" cy="99.06" rx="10.8" ry="12.46"/><path class="cls-8" d="M197.91,90.74A12.59,12.59,0,0,0,203.3,111a12.59,12.59,0,0,0-5.39-20.25Z"/><ellipse class="cls-7" cx="207.35" cy="99.06" rx="12.6" ry="12.61"/><ellipse class="cls-2" cx="207.35" cy="99.06" rx="12.6" ry="12.61"/><ellipse class="cls-4" cx="174.96" cy="110.77" rx="12.6" ry="12.61"/><ellipse class="cls-6" cx="176.76" cy="110.77" rx="10.8" ry="12.46"/><ellipse class="cls-2" cx="174.96" cy="110.77" rx="12.6" ry="12.61"/><ellipse class="cls-4" cx="191.16" cy="102.67" rx="12.6" ry="12.61"/><ellipse class="cls-6" cx="192.96" cy="102.67" rx="10.8" ry="12.46"/><ellipse class="cls-2" cx="191.16" cy="102.67" rx="12.6" ry="12.61"/><ellipse class="cls-4" cx="211.85" cy="109.87" rx="12.6" ry="12.61"/><ellipse class="cls-6" cx="213.65" cy="109.87" rx="10.8" ry="12.46"/><ellipse class="cls-2" cx="211.85" cy="109.87" rx="12.6" ry="12.61"/><rect class="cls-9" x="208.04" y="105.87" width="9" height="9" rx="0.9" ry="0.9" transform="translate(-20.93 163.73) rotate(-40.32)"/><rect class="cls-9" x="206.5" y="106.79" width="2.25" height="6" transform="translate(-21.76 160.24) rotate(-40.27)"/><rect class="cls-4" x="210.29" y="108.12" width="4.5" height="4.5" rx="0.71" ry="0.71" transform="translate(-20.93 163.73) rotate(-40.32)"/><polygon class="cls-4" points="210.95 154.9 162.36 154.9 153.36 126.08 219.95 126.08 210.95 154.9"/><polygon class="cls-6" points="157.86 126.08 166.86 154.9 210.95 154.9 219.95 126.08 157.86 126.08"/><path class="cls-8" d="M171.36,145.89a9,9,0,0,0-9,9h18A9,9,0,0,0,171.36,145.89Z"/><polyline class="cls-2" points="216.35 126.08 219.95 126.08 210.95 154.9 162.36 154.9 153.36 126.08 204.65 126.08"/><rect class="cls-4" x="147.96" y="118.88" width="77.39" height="7.2" rx="0.9" ry="0.9"/><rect class="cls-9" x="152.46" y="118.88" width="72.89" height="7.2" rx="0.9" ry="0.9"/><path class="cls-2" d="M215.45,126.08h9a.9.9,0,0,0,.9-.9v-5.4a.9.9,0,0,0-.9-.9H148.86a.9.9,0,0,0-.9.9v5.4a.9.9,0,0,0,.9.9h60.29"/><line class="cls-2" x1="211.85" y1="151.3" x2="220.85" y2="151.3"/><line class="cls-2" x1="220.85" y1="148.6" x2="220.85" y2="154"/><line class="cls-2" x1="161.46" y1="151.3" x2="152.46" y2="151.3"/><line class="cls-2" x1="152.46" y1="148.6" x2="152.46" y2="154"/><ellipse class="cls-4" cx="168.66" cy="154.9" rx="9" ry="9.01"/><ellipse class="cls-9" cx="170.91" cy="154.9" rx="6.75" ry="8.71"/><ellipse class="cls-2" cx="168.66" cy="154.9" rx="9" ry="9.01"/><circle class="cls-4" cx="171.36" cy="154.9" r="3.6"/><circle class="cls-2" cx="168.66" cy="154.9" r="3.6"/><ellipse class="cls-4" cx="204.65" cy="154.9" rx="9" ry="9.01"/><ellipse class="cls-9" cx="206.9" cy="154.9" rx="6.75" ry="8.71"/><ellipse class="cls-2" cx="204.65" cy="154.9" rx="9" ry="9.01"/><circle class="cls-4" cx="207.35" cy="154.9" r="3.6"/><circle class="cls-2" cx="204.65" cy="154.9" r="3.6"/><rect class="cls-10" x="155.16" y="121.58" width="1.8" height="1.8"/><rect class="cls-10" x="164.16" y="121.58" width="1.8" height="1.8"/><rect class="cls-10" x="173.16" y="121.58" width="1.8" height="1.8"/><rect class="cls-10" x="182.16" y="121.58" width="1.8" height="1.8"/><rect class="cls-10" x="191.16" y="121.58" width="1.8" height="1.8"/><rect class="cls-10" x="200.15" y="121.58" width="1.8" height="1.8"/><rect class="cls-10" x="209.15" y="121.58" width="1.8" height="1.8"/><rect class="cls-10" x="218.15" y="121.58" width="1.8" height="1.8"/><rect class="cls-6" x="154.26" y="121.58" width="1.8" height="1.8"/><rect class="cls-6" x="163.26" y="121.58" width="1.8" height="1.8"/><rect class="cls-6" x="172.26" y="121.58" width="1.8" height="1.8"/><rect class="cls-6" x="181.26" y="121.58" width="1.8" height="1.8"/><rect class="cls-6" x="190.26" y="121.58" width="1.8" height="1.8"/><rect class="cls-6" x="199.26" y="121.58" width="1.8" height="1.8"/><rect class="cls-6" x="208.25" y="121.58" width="1.8" height="1.8"/><rect class="cls-6" x="217.25" y="121.58" width="1.8" height="1.8"/><line class="cls-2" x1="156.06" y1="134.19" x2="174.06" y2="134.19"/><line class="cls-2" x1="180.36" y1="134.19" x2="193.86" y2="134.19"/><line class="cls-2" x1="172.26" y1="141.39" x2="183.96" y2="141.39"/><line class="cls-2" x1="190.26" y1="141.39" x2="214.55" y2="141.39"/><rect class="cls-6" x="67.87" y="159.4" width="25.2" height="5.4"/><rect class="cls-6" x="73.27" y="154" width="25.2" height="5.4"/><rect class="cls-6" x="73.27" y="132.39" width="25.2" height="5.4"/><rect class="cls-6" x="66.07" y="148.6" width="25.2" height="5.4"/><rect class="cls-6" x="69.67" y="137.79" width="25.2" height="5.4"/><rect class="cls-6" x="72.37" y="143.19" width="25.2" height="5.4"/><rect class="cls-4" x="73.27" y="132.39" width="4.5" height="5.4"/><rect class="cls-4" x="69.67" y="137.79" width="4.5" height="5.4"/><rect class="cls-4" x="72.37" y="143.19" width="4.5" height="5.4"/><rect class="cls-4" x="73.27" y="154" width="4.5" height="5.4"/><rect class="cls-4" x="66.07" y="148.6" width="4.5" height="5.4"/><rect class="cls-4" x="67.87" y="159.4" width="4.5" height="5.4"/><rect class="cls-2" x="67.87" y="159.4" width="25.2" height="5.4"/><rect class="cls-2" x="73.27" y="154" width="25.2" height="5.4"/><rect class="cls-2" x="73.27" y="132.39" width="25.2" height="5.4"/><rect class="cls-2" x="66.07" y="148.6" width="25.2" height="5.4"/><rect class="cls-2" x="69.67" y="137.79" width="25.2" height="5.4"/><rect class="cls-2" x="72.37" y="143.19" width="25.2" height="5.4"/><line class="cls-2" x1="77.77" y1="132.39" x2="77.77" y2="137.79"/><line class="cls-2" x1="83.17" y1="132.39" x2="83.17" y2="137.79"/><line class="cls-2" x1="88.57" y1="132.39" x2="88.57" y2="137.79"/><line class="cls-2" x1="93.97" y1="132.39" x2="93.97" y2="137.79"/><line class="cls-2" x1="74.17" y1="137.79" x2="74.17" y2="143.19"/><line class="cls-2" x1="79.57" y1="137.79" x2="79.57" y2="143.19"/><line class="cls-2" x1="84.97" y1="137.79" x2="84.97" y2="143.19"/><line class="cls-2" x1="90.37" y1="137.79" x2="90.37" y2="143.19"/><line class="cls-2" x1="76.87" y1="143.19" x2="76.87" y2="148.6"/><line class="cls-2" x1="82.27" y1="143.19" x2="82.27" y2="148.6"/><line class="cls-2" x1="87.67" y1="143.19" x2="87.67" y2="148.6"/><line class="cls-2" x1="93.07" y1="143.19" x2="93.07" y2="148.6"/><line class="cls-2" x1="70.57" y1="148.6" x2="70.57" y2="154"/><line class="cls-2" x1="75.97" y1="148.6" x2="75.97" y2="154"/><line class="cls-2" x1="81.37" y1="148.6" x2="81.37" y2="154"/><line class="cls-2" x1="86.77" y1="148.6" x2="86.77" y2="154"/><line class="cls-2" x1="77.77" y1="154" x2="77.77" y2="159.4"/><line class="cls-2" x1="83.17" y1="154" x2="83.17" y2="159.4"/><line class="cls-2" x1="88.57" y1="154" x2="88.57" y2="159.4"/><line class="cls-2" x1="93.97" y1="154" x2="93.97" y2="159.4"/><line class="cls-2" x1="72.37" y1="159.4" x2="72.37" y2="164.81"/><line class="cls-2" x1="77.77" y1="159.4" x2="77.77" y2="164.81"/><line class="cls-2" x1="83.17" y1="159.4" x2="83.17" y2="164.81"/><line class="cls-2" x1="88.57" y1="159.4" x2="88.57" y2="164.81"/><ellipse class="cls-4" cx="93.97" cy="152.2" rx="12.6" ry="12.61"/><ellipse class="cls-6" cx="95.77" cy="152.2" rx="10.8" ry="12.46"/><ellipse class="cls-2" cx="93.97" cy="152.2" rx="12.6" ry="12.61"/><line class="cls-2" x1="222.65" y1="82.85" x2="219.05" y2="86.46"/><line class="cls-2" x1="222.65" y1="86.46" x2="219.05" y2="82.85"/><line class="cls-2" x1="133.56" y1="49.53" x2="129.96" y2="53.13"/><line class="cls-2" x1="133.56" y1="53.13" x2="129.96" y2="49.53"/><line class="cls-2" x1="150.66" y1="99.06" x2="147.06" y2="102.67"/><line class="cls-2" x1="150.66" y1="102.67" x2="147.06" y2="99.06"/><line class="cls-2" x1="106.58" y1="126.08" x2="102.99" y2="129.68"/><line class="cls-2" x1="106.58" y1="129.68" x2="102.99" y2="126.08"/><line class="cls-2" x1="61.57" y1="139.59" x2="57.97" y2="143.19"/><line class="cls-2" x1="61.57" y1="143.19" x2="57.97" y2="139.59"/><path class="cls-4" d="M44,135.7c2.08-3.12,47.1-76.13,44-78.22S34.8,125,32.72,128.16A6.79,6.79,0,1,0,44,135.7Z"/><path class="cls-11" d="M48.91,105.79a11.14,11.14,0,0,1,1.88,6.39,45.8,45.8,0,0,1-10,26.09"/><path class="cls-11" d="M58.47,112.14A78.12,78.12,0,0,1,56.21,95.9"/><path class="cls-11" d="M32.63,135.56c3.24-5.35,6.63-12.22,7.44-17.67"/><path class="cls-11" d="M44.87,111.28c1,3.83,1.3,9.92-3.16,17.42-1.85,3.11-4,6.27-6.29,9.35"/><path class="cls-11" d="M67,97.82a57.25,57.25,0,0,1,.36-8.89c.81-5.72,7.32-7.73,6.32-2.59"/><path class="cls-11" d="M63,86.89a126.13,126.13,0,0,0-.7,18.91"/><path class="cls-11" d="M83,69.7a4.85,4.85,0,0,0-3.61.61A23.44,23.44,0,0,1,74,72.56"/><path class="cls-12" d="M69.54,78.29a40.67,40.67,0,0,0,9.73-1.77"/><path class="cls-2" d="M44,135.7c2.08-3.12,47.1-76.13,44-78.22S34.8,125,32.72,128.16A6.79,6.79,0,1,0,44,135.7Z"/><rect class="cls-13" x="82.65" y="56.72" width="5.66" height="9.06" rx="0.57" ry="0.57" transform="translate(48.4 -37.16) rotate(33.73)"/><path class="cls-4" d="M81.09,67.85c13.5,9,24.06,19.62,30.15,29.41C109.86,86,100,72.33,84.86,62.2s-31.59-14-42.49-10.91C53.74,53.15,67.58,58.83,81.09,67.85Z"/><path class="cls-6" d="M52.88,53.89a115.61,115.61,0,0,1,28.21,14C93.23,76,103,85.35,109.25,94.28c.66.83,1.3,1.66,1.9,2.48-.72-5-3.1-10.52-6.88-16a75.88,75.88,0,0,0-16.71-15C75.66,57.86,63,53.82,52.88,53.89Z"/><path class="cls-2" d="M81.09,67.85c13.5,9,24.06,19.62,30.15,29.41C109.86,86,100,72.33,84.86,62.2s-31.59-14-42.49-10.91C53.74,53.15,67.58,58.83,81.09,67.85Z"/><rect class="cls-4" x="78.44" y="58.79" width="9.06" height="12.46" transform="translate(50.07 -35.13) rotate(33.73)"/><rect class="cls-6" x="78.09" y="63.02" width="12.46" height="5.81" transform="translate(-17.32 99.45) rotate(-56.27)"/><rect class="cls-2" x="78.44" y="58.79" width="9.06" height="12.46" transform="translate(50.07 -35.13) rotate(33.73)"/><rect class="cls-9" x="89.22" y="148.27" width="10.06" height="10.07" rx="1.01" ry="1.01"/><rect class="cls-9" x="89.22" y="145.89" width="2.52" height="6.71"/><rect class="cls-4" x="91.73" y="150.79" width="5.03" height="5.03" rx="0.8" ry="0.8"/><rect class="cls-9" x="186.13" y="98.32" width="10.06" height="10.07" rx="1.01" ry="1.01"/><rect class="cls-9" x="186.13" y="95.95" width="2.52" height="6.71"/><rect class="cls-4" x="188.64" y="100.84" width="5.03" height="5.03" rx="0.8" ry="0.8"/><rect class="cls-9" x="170.09" y="106.37" width="9.01" height="9" rx="0.9" ry="0.9" transform="translate(10.72 237.05) rotate(-70.01)"/><rect class="cls-9" x="169.66" y="105.18" width="6" height="2.25" transform="translate(13.77 232.27) rotate(-70.03)"/><rect class="cls-4" x="172.34" y="108.62" width="4.5" height="4.5" rx="0.71" ry="0.71" transform="matrix(0.94, 0.34, -0.34, 0.94, 48.42, -53)"/><rect class="cls-9" x="136.87" y="66.2" width="10.07" height="10.06" rx="1.01" ry="1.01" transform="translate(3.8 149.58) rotate(-56.22)"/><rect class="cls-9" x="137.66" y="64.51" width="6.71" height="2.52" transform="translate(8.01 146.51) rotate(-56.26)"/><rect class="cls-4" x="139.39" y="68.72" width="5.03" height="5.03" rx="0.8" ry="0.8" transform="translate(63.55 -66.87) rotate(33.78)"/></g></g></svg>