<svg xmlns="http://www.w3.org/2000/svg" xmlns:xlink="http://www.w3.org/1999/xlink" viewBox="0 0 267.98 200"><defs><style>.cls-1,.cls-11{fill:#233348;}.cls-1{opacity:0.1;}.cls-10,.cls-2,.cls-3,.cls-7{fill:none;}.cls-2,.cls-3,.cls-5,.cls-7,.cls-8{stroke:#233348;}.cls-10,.cls-2,.cls-3,.cls-7,.cls-8{stroke-linecap:round;stroke-linejoin:round;stroke-width:1.58px;}.cls-14,.cls-3{opacity:0.3;}.cls-4,.cls-5,.cls-8{fill:#fff;}.cls-5{stroke-miterlimit:10;stroke-width:0.79px;}.cls-6{fill:#fdc800;}.cls-7{stroke-dasharray:4.87 4.06;}.cls-9{fill:#addfff;}.cls-10{stroke:#1b2b3f;}.cls-12{fill:url(#radial-gradient);}.cls-13{fill:#1b2b3f;}</style><radialGradient id="radial-gradient" cx="233.56" cy="382.06" r="3.56" gradientTransform="translate(-845.27 -1490.92) scale(4.12 4.13)" gradientUnits="userSpaceOnUse"><stop offset="0" stop-color="#ffe920"/><stop offset="1" stop-color="#fdc800"/></radialGradient></defs><title>Asset 14</title><g id="Layer_2" data-name="Layer 2"><g id="Layer_1-2" data-name="Layer 1"><path class="cls-1" d="M51.24,147.33c-26-8.11-46-38.8-47.39-62.29S22.49,33.92,52.85,45s76.73,17.36,93.31-11.48c16.3-28.35,46.57-43.33,70.4-26.29,22.15,15.83,38,49.88,26.9,75.21s-16.47,33.8-4,52.26C269.56,179,205.05,220.16,171,189.24,106.85,130.9,86.84,158.42,51.24,147.33Z"/><ellipse class="cls-1" cx="104.24" cy="26.2" rx="15.82" ry="15.83"/><ellipse class="cls-1" cx="99.49" cy="167.13" rx="10.68" ry="10.69"/><ellipse class="cls-1" cx="31.86" cy="24.22" rx="5.14" ry="5.15"/><ellipse class="cls-1" cx="249.79" cy="113.29" rx="7.12" ry="7.13"/><circle class="cls-2" cx="141.42" cy="11.16" r="3.16"/><circle class="cls-3" cx="42.54" cy="129.13" r="3.16"/><circle class="cls-2" cx="98.7" cy="136.25" r="3.16"/><polygon class="cls-2" points="181.76 186.92 178.56 192.46 184.96 192.46 181.76 186.92"/><polygon class="cls-2" points="64.69 160.79 61.49 166.34 67.89 166.34 64.69 160.79"/><ellipse class="cls-1" cx="46.89" cy="162.77" rx="4.35" ry="4.35"/><ellipse class="cls-4" cx="66.67" cy="142.58" rx="4.35" ry="4.35"/><line class="cls-2" x1="262.44" y1="82.41" x2="262.44" y2="84.79"/><line class="cls-2" x1="262.44" y1="89.54" x2="262.44" y2="91.91"/><line class="cls-2" x1="260.07" y1="87.16" x2="257.7" y2="87.16"/><line class="cls-2" x1="267.19" y1="87.16" x2="264.81" y2="87.16"/><line class="cls-2" x1="265.61" y1="84" x2="264.02" y2="85.58"/><line class="cls-2" x1="260.86" y1="88.75" x2="259.28" y2="90.33"/><line class="cls-2" x1="260.86" y1="85.58" x2="259.28" y2="84"/><line class="cls-2" x1="265.61" y1="90.33" x2="264.02" y2="88.75"/><line class="cls-2" x1="231.59" y1="54.7" x2="230.01" y2="56.29"/><line class="cls-2" x1="226.85" y1="59.45" x2="225.26" y2="61.04"/><line class="cls-2" x1="226.85" y1="56.29" x2="225.26" y2="54.7"/><line class="cls-2" x1="231.59" y1="61.04" x2="230.01" y2="59.45"/><path class="cls-2" d="M67.06,38.08H56.78a2.38,2.38,0,0,1-2.37-2.38h0a2.37,2.37,0,0,1,2.37-2.37h1.58A2.38,2.38,0,0,0,60.73,31h0a2.37,2.37,0,0,0-2.37-2.37h-8.7m23.73,9.5h4"/><path class="cls-4" d="M237.92,137H185.71V125.17h0a4.76,4.76,0,0,1,4.75-4.75h42.71a4.76,4.76,0,0,1,4.75,4.75Z"/><path class="cls-2" d="M185.71,137V125.17h0a4.76,4.76,0,0,1,4.75-4.75h42.71a4.76,4.76,0,0,1,4.75,4.75v1.58"/><ellipse class="cls-5" cx="211.82" cy="120.42" rx="11.07" ry="11.08"/><ellipse class="cls-6" cx="213.4" cy="120.42" rx="9.49" ry="10.96"/><ellipse class="cls-2" cx="211.82" cy="120.42" rx="11.07" ry="11.08"/><path class="cls-4" d="M190.46,129.92a4.75,4.75,0,0,1-4.75-4.75v43.54a4,4,0,0,0,4,4h49a4,4,0,0,0,4-4V133.88a4,4,0,0,0-4-4Z"/><path class="cls-6" d="M242.67,168.71V133.88a4,4,0,0,0-4-4H190.46a5.16,5.16,0,0,1-.79-.07v38.86a4,4,0,0,0,4,4h45.09A4,4,0,0,0,242.67,168.71Z"/><path class="cls-2" d="M242.67,141.79v-7.91a4,4,0,0,0-4-4H190.46a4.75,4.75,0,0,1-4.75-4.75v43.54a4,4,0,0,0,4,4h49a4,4,0,0,0,4-4V152.22"/><line class="cls-2" x1="190.46" y1="133.08" x2="192.83" y2="133.08"/><path class="cls-7" d="M196.89,133.08h41.82a.79.79,0,0,1,.79.8v34.83a.79.79,0,0,1-.79.79H194.86"/><line class="cls-2" x1="192.83" y1="169.5" x2="190.46" y2="169.5"/><path class="cls-4" d="M228.43,145h15.82a.79.79,0,0,1,.79.79v11.08a.79.79,0,0,1-.79.79H228.43a4,4,0,0,1-4-4v-4.75A4,4,0,0,1,228.43,145Z"/><path class="cls-6" d="M245,156.84V145.75a.8.8,0,0,0-.79-.79H230.8a4,4,0,0,0-4,4v4.75a4,4,0,0,0,4,4h13.45A.8.8,0,0,0,245,156.84Z"/><path class="cls-2" d="M228.43,145h15.82a.79.79,0,0,1,.79.79v11.08a.79.79,0,0,1-.79.79H228.43a4,4,0,0,1-4-4v-4.75A4,4,0,0,1,228.43,145Z"/><circle class="cls-4" cx="233.17" cy="151.29" r="2.37"/><circle class="cls-2" cx="230.8" cy="151.29" r="2.37"/><line class="cls-2" x1="226.06" y1="125.17" x2="233.97" y2="125.17"/><line class="cls-2" x1="189.67" y1="125.17" x2="197.58" y2="125.17"/><line class="cls-2" x1="211.82" y1="104.58" x2="211.82" y2="97.46"/><line class="cls-2" x1="219.73" y1="106.7" x2="223.29" y2="100.53"/><line class="cls-2" x1="191.95" y1="108.94" x2="198.12" y2="112.5"/><line class="cls-2" x1="203.91" y1="106.7" x2="200.35" y2="100.53"/><line class="cls-2" x1="225.52" y1="112.5" x2="231.68" y2="108.94"/><path class="cls-8" d="M200.83,21.27a9.76,9.76,0,0,1,3,.49,11.86,11.86,0,0,1-.29-2.55,11.63,11.63,0,0,1,23.12-1.84,12.27,12.27,0,0,1,2.21-.21,11.65,11.65,0,0,1,0,23.29H200.83a9.59,9.59,0,0,1,0-19.18Z"/><path class="cls-2" d="M200.83,21.27a9.76,9.76,0,0,1,3,.49,11.86,11.86,0,0,1-.29-2.55,11.63,11.63,0,0,1,23.12-1.84,12.27,12.27,0,0,1,2.21-.21,11.65,11.65,0,0,1,0,23.29H200.83a9.59,9.59,0,0,1,0-19.18Z"/><path class="cls-2" d="M237.11,28.8a8.22,8.22,0,0,0-8.21-8.22,7.82,7.82,0,0,0-1.57.16"/><line class="cls-2" x1="199.16" y1="35.7" x2="208.65" y2="35.7"/><line class="cls-2" x1="213.4" y1="35.7" x2="216.56" y2="35.7"/><path class="cls-2" d="M226.69,17.37a11.73,11.73,0,0,0-8.54,6.78"/><path class="cls-2" d="M221.12,15.43a6.32,6.32,0,0,0-8-3"/><path class="cls-8" d="M10.37,51.17a9.48,9.48,0,0,1,3,.5,12,12,0,0,1-.29-2.55,11.63,11.63,0,0,1,23.12-1.84,11.42,11.42,0,0,1,2.21-.22,11.65,11.65,0,0,1,0,23.29H10.37a9.59,9.59,0,0,1,0-19.18Z"/><path class="cls-2" d="M10.37,51.17a9.48,9.48,0,0,1,3,.5,12,12,0,0,1-.29-2.55,11.63,11.63,0,0,1,23.12-1.84,11.42,11.42,0,0,1,2.21-.22,11.65,11.65,0,0,1,0,23.29H10.37a9.59,9.59,0,0,1,0-19.18Z"/><path class="cls-2" d="M46.65,58.71a8.22,8.22,0,0,0-8.21-8.22,8.59,8.59,0,0,0-1.57.15"/><line class="cls-2" x1="8.7" y1="65.6" x2="18.19" y2="65.6"/><line class="cls-2" x1="22.94" y1="65.6" x2="26.1" y2="65.6"/><path class="cls-2" d="M36.23,47.28a11.71,11.71,0,0,0-8.54,6.78"/><path class="cls-2" d="M30.66,45.34a6.32,6.32,0,0,0-8-3"/><rect class="cls-4" x="71.02" y="52.33" width="98.08" height="70.46" rx="6.33" ry="6.33"/><path class="cls-6" d="M169.1,116.46V58.66a6.32,6.32,0,0,0-6.33-6.33H81.3A6.33,6.33,0,0,0,75,58.66v57.8a6.33,6.33,0,0,0,6.33,6.33h81.47A6.32,6.32,0,0,0,169.1,116.46Z"/><path class="cls-2" d="M71,105.53v10.93a6.32,6.32,0,0,0,6.33,6.33h85.42a6.32,6.32,0,0,0,6.33-6.33V58.66a6.32,6.32,0,0,0-6.33-6.33H77.35A6.32,6.32,0,0,0,71,58.66V83.6"/><rect class="cls-9" x="79.72" y="56.29" width="80.68" height="61.75"/><rect class="cls-4" x="83.67" y="56.29" width="76.73" height="61.75"/><polyline class="cls-2" points="79.72 106.17 79.72 118.04 160.4 118.04 160.4 56.29 150.91 56.29"/><polyline class="cls-2" points="144.74 56.29 79.72 56.29 79.72 94.29"/><ellipse class="cls-4" cx="120.06" cy="53.91" rx="11.07" ry="11.08"/><ellipse class="cls-6" cx="121.64" cy="53.91" rx="9.49" ry="10.96"/><ellipse class="cls-10" cx="120.06" cy="53.91" rx="11.07" ry="11.08"/><path class="cls-10" d="M125.64,51.84a6.23,6.23,0,0,0-11.16,0"/><polyline class="cls-10" points="126.12 48.37 125.64 51.84 122.17 51.37"/><path class="cls-10" d="M114.48,56a6.23,6.23,0,0,0,11.16,0"/><polyline class="cls-10" points="114 59.46 114.48 55.98 117.95 56.46"/><circle class="cls-1" cx="90" cy="73.7" r="2.37"/><circle class="cls-1" cx="104.24" cy="63.41" r="2.37"/><circle class="cls-1" cx="145.37" cy="67.37" r="2.37"/><circle class="cls-1" cx="94.75" cy="110.12" r="2.37"/><circle class="cls-1" cx="116.9" cy="111.71" r="2.37"/><circle class="cls-2" cx="74.97" cy="99.83" r="2.37"/><circle class="cls-4" cx="59.15" cy="93.5" r="2.37"/><circle class="cls-2" cx="56.78" cy="93.5" r="2.37"/><circle class="cls-2" cx="87.63" cy="73.7" r="2.37"/><circle class="cls-2" cx="101.87" cy="63.41" r="2.37"/><circle class="cls-2" cx="143" cy="67.37" r="2.37"/><circle class="cls-2" cx="114.52" cy="111.71" r="2.37"/><circle class="cls-2" cx="92.38" cy="110.12" r="2.37"/><polyline class="cls-2" points="77.35 99.83 87.63 99.83 87.63 95.87 106.61 95.87"/><polyline class="cls-2" points="108.99 87.95 66.27 87.95 66.27 93.5 59.15 93.5"/><polyline class="cls-2" points="106.61 81.62 95.54 81.62 95.54 73.7 90 73.7"/><line class="cls-2" x1="114.52" y1="104.58" x2="114.52" y2="109.33"/><polyline class="cls-2" points="109.78 100.62 109.78 104.58 92.38 104.58 92.38 107.75"/><polyline class="cls-2" points="109.78 73.7 109.78 68.95 101.87 68.95 101.87 65.79"/><polyline class="cls-2" points="131.13 77.66 143 77.66 143 69.75"/><path class="cls-2" d="M186.5,73.7H188a22.2,22.2,0,0,0,22.2-22.21V47.58"/><line class="cls-2" x1="181.76" y1="73.7" x2="177.01" y2="73.7"/><polyline class="cls-2" points="214.98 52.33 210.24 47.58 205.49 52.33"/><path class="cls-2" d="M26.33,86.37v1.54a22.19,22.19,0,0,0,22.19,22.21h3.91"/><line class="cls-2" x1="26.33" y1="81.62" x2="26.33" y2="76.87"/><polyline class="cls-2" points="47.68 114.87 52.43 110.12 47.68 105.37"/><path class="cls-8" d="M166.73,115.67V107a3.18,3.18,0,0,0-3.16-3.17h0A3.18,3.18,0,0,0,160.4,107v-.4a3.57,3.57,0,0,0-3.56-3.56h0a3.57,3.57,0,0,0-3.56,3.56v-1.19a4,4,0,0,0-3.95-4h0a4,4,0,0,0-4,4V92.71a4,4,0,0,0-4-4h0a4,4,0,0,0-4,4V118s-.36-4.62-1.42-6.4-4.89-4.93-7.64-4.93-4.66,1.27-3.69,2.79c1.24,2,2.7,4.45,5.19,7.83s1.73,9.13,4.4,13.58a11.73,11.73,0,0,0,7.12,5.34v6.33h21.35V137c.81-1.07,4-10.88,4-12.67v-8.7"/><rect class="cls-6" x="139.84" y="140.21" width="28.48" height="10.29"/><rect class="cls-4" x="139.84" y="140.21" width="3.96" height="10.29"/><rect class="cls-2" x="139.84" y="140.21" width="28.48" height="10.29"/><circle class="cls-11" cx="164.36" cy="144.96" r="2.37"/><circle class="cls-4" cx="162.77" cy="144.96" r="2.37"/><circle class="cls-2" cx="162.77" cy="144.96" r="2.37"/><line class="cls-8" x1="141.42" y1="82.41" x2="141.42" y2="85.58"/><line class="cls-8" x1="135.09" y1="91.91" x2="131.93" y2="91.91"/><line class="cls-8" x1="150.91" y1="91.91" x2="147.75" y2="91.91"/><line class="cls-8" x1="148.13" y1="85.2" x2="145.89" y2="87.44"/><line class="cls-8" x1="136.94" y1="87.44" x2="134.71" y2="85.2"/><ellipse class="cls-12" cx="118.08" cy="86.37" rx="14.69" ry="14.7"/><path class="cls-13" d="M130.49,86.36a11.7,11.7,0,0,1-.36,3,12.38,12.38,0,0,1-11.35,9.41,4.11,4.11,0,0,1-.7,0,12.41,12.41,0,1,1,12.41-12.43Z"/><path class="cls-14" d="M130.13,89.34a12.38,12.38,0,0,1-11.35,9.41l-5.87-5.88L123.3,82.51Z"/><rect class="cls-4" x="112.57" y="82.16" width="11.02" height="11.03" rx="1.1" ry="1.1"/><rect class="cls-4" x="112.57" y="79.56" width="2.75" height="7.35"/><rect class="cls-13" x="115.33" y="84.92" width="5.51" height="5.51" rx="0.87" ry="0.87"/><rect class="cls-11" x="207.47" y="116.2" width="8.77" height="8.77" rx="0.88" ry="0.88" transform="translate(-11.31 218.66) rotate(-53.37)"/><rect class="cls-11" x="208.4" y="114.69" width="5.85" height="2.19" transform="translate(-7.59 216.48) rotate(-53.42)"/><rect class="cls-4" x="209.67" y="118.39" width="4.38" height="4.39" rx="0.69" ry="0.69" transform="translate(113.78 -102.59) rotate(36.63)"/></g></g></svg>