<svg xmlns="http://www.w3.org/2000/svg" xmlns:xlink="http://www.w3.org/1999/xlink" viewBox="0 0 385 348.49"><defs><style>.cls-1{fill:none;}.cls-2{opacity:0.08;}.cls-3{fill:#233348;}.cls-4{fill:#93b9f4;}.cls-5{fill:#fff;}.cls-6{fill:#fdc800;}.cls-7{opacity:0.3;}.cls-8{opacity:0.1;}.cls-9{opacity:0.7;}.cls-10{fill:#e9ebed;}.cls-11{clip-path:url(#clip-path);}.cls-12{fill:#e5eefd;}</style><clipPath id="clip-path"><path class="cls-1" d="M208.54,219.34l-83.73-65,22-82c8.82-5.83,129.58-2.28,138.4,3.56l5.22,80.31Z"/></clipPath></defs><title>Asset 34</title><g id="Layer_2" data-name="Layer 2"><g id="Layer_1-2" data-name="Layer 1"><g class="cls-2"><path class="cls-3" d="M376.26,218c-1.93,19.69-13.11,39.41-16,41.71s-8.08,1-11.68,1H63.18l-.16-.29C55.93,248,47.88,236,43.86,222.19c-11.19-38.56,24.48-64.64,47.54-89.32,13.2-14.13,14.2-34.48,25.62-49.56,15.65-20.66,42.1-31.42,67.36-33.11,29-1.93,53.7,8.51,71.33,32,14.51,19.31,22.77,49.19,45.57,60.81,8.17,4.16,17.64,4.67,26.5,7C356.66,157.77,379.24,187.62,376.26,218Z"/></g><path class="cls-4" d="M306.87,210.61c-.06.85-.1,1.7-.14,2.56"/><polyline class="cls-5" points="284.79 55.75 289.88 56.89 284.64 44.15"/><path class="cls-3" d="M284.93,55.12l5.19.71-1.25,1.48L283,44.83a1.78,1.78,0,1,1,3.21-1.52,1.22,1.22,0,0,1,.07.17l4.61,13,.05.13a1,1,0,0,1-.64,1.33,1,1,0,0,1-.66,0l-5-1.57a.64.64,0,0,1-.42-.81A.64.64,0,0,1,284.93,55.12Z"/><polygon class="cls-5" points="289.92 28.13 276.32 66.25 220.26 50.97 289.92 28.13"/><path class="cls-3" d="M276.32,68a1.89,1.89,0,0,1-.47-.06L219.79,52.68a1.79,1.79,0,0,1-1.3-1.67,1.76,1.76,0,0,1,1.22-1.73l69.66-22.84a1.78,1.78,0,0,1,2.22,2.29L278,66.85A1.77,1.77,0,0,1,276.32,68ZM226.44,50.81,275.2,64.1,287,30.94Z"/><polyline class="cls-5" points="284.21 44.12 276.32 66.25 220.26 50.97 289.92 28.13 287.18 35.8"/><path class="cls-3" d="M285.88,44.72l-8.44,21.93v0a1.19,1.19,0,0,1-1.43.73L219.79,52.68a1.77,1.77,0,0,1-.1-3.39h0l69.72-22.65.12,0a1.51,1.51,0,0,1,1.85,2.06l-3.33,7.46a.94.94,0,0,1-1.25.48,1,1,0,0,1-.53-1.11l2.15-7.89,2,2-69.6,23-.08-3.4,55.9,15.85-1.44.75,7.35-22.32a1.77,1.77,0,0,1,3.37,1.11A.41.41,0,0,1,285.88,44.72Z"/><line class="cls-5" x1="248.7" y1="48.14" x2="221.7" y2="51.17"/><path class="cls-3" d="M221.69,52.94a1.78,1.78,0,0,1-.19-3.54l27-3a1.77,1.77,0,1,1,.4,3.52l-27,3Z"/><line class="cls-5" x1="256.13" y1="47.31" x2="255.35" y2="47.39"/><path class="cls-3" d="M255.34,49.17a1.78,1.78,0,0,1-.19-3.54l.78-.09a1.78,1.78,0,1,1,.4,3.53l-.79.09Z"/><line class="cls-5" x1="283.33" y1="44.25" x2="261.33" y2="46.72"/><path class="cls-3" d="M261.33,48.5a1.78,1.78,0,0,1-.2-3.54l22-2.47a1.78,1.78,0,1,1,.39,3.53l-22,2.47Z"/><path class="cls-6" d="M295.51,23a9.34,9.34,0,0,0-3.55-.78,17.87,17.87,0,0,0-3.93.29c-1.36.21-2.73.53-4.11.84l-2.07.5c-.69.18-1.39.35-2.09.51h0a1,1,0,0,1-.62-1.84,40.49,40.49,0,0,1,4.08-1.66,33.36,33.36,0,0,1,4.31-1.2,17,17,0,0,1,4.67-.38,7,7,0,0,1,2.47.68,5.59,5.59,0,0,1,2,1.57h0a.94.94,0,0,1-.18,1.33A1,1,0,0,1,295.51,23Z"/><path class="cls-6" d="M294.92,18.56a8,8,0,0,1-1.85-.3,11.36,11.36,0,0,0-1.77-.39,15.15,15.15,0,0,0-3.8,0h-.05a1,1,0,0,1-1.1-.87,1,1,0,0,1,.49-1A8.38,8.38,0,0,1,291.55,15a8.59,8.59,0,0,1,2.45.48,3.78,3.78,0,0,1,2,1.62,1,1,0,0,1-.36,1.34.87.87,0,0,1-.51.13Z"/><g class="cls-7"><path class="cls-3" d="M261.35,217.24h-1.5a1.53,1.53,0,0,1,0-3.06h0c4.13,0,8.21-.06,12.18-.26a1.53,1.53,0,1,1,.15,3.06C268.66,217.15,265,217.24,261.35,217.24Zm-13.75-.4h-.09l-1.7-.1a1.53,1.53,0,1,1,.19-3.06l1.69.1a1.54,1.54,0,0,1-.09,3.07Zm36.74-.87a1.54,1.54,0,0,1-.17-3.06c4.08-.46,8.13-1.07,12-1.8a1.53,1.53,0,0,1,.57,3c-4,.75-8.07,1.37-12.23,1.84Zm24.07-4.56a1.54,1.54,0,0,1-.4-3c4-1.08,7.84-2.33,11.53-3.71a1.53,1.53,0,0,1,1.08,2.87c-3.78,1.41-7.75,2.69-11.8,3.8A1.51,1.51,0,0,1,308.41,211.41Zm22.92-8.62a1.54,1.54,0,0,1-.68-2.91,109.2,109.2,0,0,0,10.52-5.94,1.53,1.53,0,1,1,1.66,2.58A113.31,113.31,0,0,1,332,202.63,1.51,1.51,0,0,1,331.33,202.79Zm20.56-13.27a1.53,1.53,0,0,1-1-2.71,94.26,94.26,0,0,0,8.75-8.29,1.53,1.53,0,1,1,2.25,2.08,95.49,95.49,0,0,1-9,8.57A1.51,1.51,0,0,1,351.89,189.52Zm16.57-18a1.47,1.47,0,0,1-.87-.27,1.54,1.54,0,0,1-.39-2.14,84.64,84.64,0,0,0,6.16-10.34,1.53,1.53,0,0,1,2.74,1.37,87.63,87.63,0,0,1-6.38,10.73A1.54,1.54,0,0,1,368.46,171.54Zm11-21.86a1.59,1.59,0,0,1-.48-.07,1.53,1.53,0,0,1-1-1.94,80.89,80.89,0,0,0,2.9-11.67,1.53,1.53,0,1,1,3,.51,82.86,82.86,0,0,1-3,12.12A1.53,1.53,0,0,1,379.41,149.68Zm4-24.1h0a1.54,1.54,0,0,1-1.51-1.55v-.87a71.55,71.55,0,0,0-.85-11.1,1.54,1.54,0,1,1,3-.48,76.64,76.64,0,0,1,.88,11.58c0,.3,0,.6,0,.9A1.53,1.53,0,0,1,383.46,125.58Zm-34.18-17.85a1.41,1.41,0,0,1-.45-.07,20.21,20.21,0,0,1-10.61-7.59,1.53,1.53,0,0,1,2.51-1.75,17.19,17.19,0,0,0,9,6.41,1.53,1.53,0,0,1-.46,3Zm12-.41a1.53,1.53,0,0,1-.63-2.93,11.69,11.69,0,0,0,6.53-8.21,1.53,1.53,0,1,1,3,.74,14.63,14.63,0,0,1-8.24,10.27A1.55,1.55,0,0,1,361.28,107.32Zm18.36-5.85a1.53,1.53,0,0,1-1.44-1,60.53,60.53,0,0,0-2.9-6.89,44.34,44.34,0,0,0-2.17-3.87A1.53,1.53,0,1,1,375.72,88,45.4,45.4,0,0,1,378,92.18a61.35,61.35,0,0,1,3,7.24,1.54,1.54,0,0,1-1.45,2ZM336.9,89.05l-.23,0a1.53,1.53,0,0,1-1.28-1.75,22.82,22.82,0,0,1,1.5-5.26,12.59,12.59,0,0,1,5.48-5.84,1.54,1.54,0,0,1,1.54,2.66,9.56,9.56,0,0,0-4.19,4.35,20.41,20.41,0,0,0-1.3,4.56A1.54,1.54,0,0,1,336.9,89.05ZM368.36,86a1.52,1.52,0,0,1-1.47-1.11,23.27,23.27,0,0,0-1.46-3.72l-.1-.07a21.78,21.78,0,0,0-10.51-4.26,1.54,1.54,0,0,1,.35-3.05,23.86,23.86,0,0,1,6.67,1.78l-.6-.74a1.53,1.53,0,1,1,2.35-2A31.3,31.3,0,0,1,369.83,84a1.53,1.53,0,0,1-1,1.9A1.65,1.65,0,0,1,368.36,86ZM353.45,67a1.52,1.52,0,0,1-.92-.31,80.37,80.37,0,0,0-10.16-6.44,1.53,1.53,0,0,1,1.45-2.7,83.72,83.72,0,0,1,10.56,6.69,1.54,1.54,0,0,1-.93,2.76ZM331.94,55.3a1.54,1.54,0,0,1-.55-.11,104.14,104.14,0,0,0-11.51-3.71,1.53,1.53,0,0,1,.77-3,108.19,108.19,0,0,1,11.85,3.82,1.54,1.54,0,0,1-.56,3Zm-23.72-6.08-.19,0a67.33,67.33,0,0,0-12-.44,1.53,1.53,0,0,1-.18-3.06,68.86,68.86,0,0,1,12.53.46,1.54,1.54,0,0,1-.18,3.06Z"/></g><polyline class="cls-5" points="107.11 338.63 102.14 341.13 104.25 326.6"/><path class="cls-3" d="M107.41,339.21l-4.78,2.9a1.06,1.06,0,0,1-1.44-.35,1.07,1.07,0,0,1-.14-.65V341l1.43-14.64a1.78,1.78,0,1,1,3.54.35.88.88,0,0,1,0,.16l-2.79,14.44-1.57-1.13,5.17-2.11a.65.65,0,0,1,.59,1.16Z"/><polygon class="cls-5" points="94.61 311.39 118.61 347.29 172.61 316.94 94.61 311.39"/><path class="cls-3" d="M118.42,348.08l-25-37.36,81.17,5.77Zm-22.65-36,23,34.44,51.8-29.12Z"/><path class="cls-3" d="M106.16,325.47l13.44,21.16-1.58-.38,53.72-30.86.74,3.33L94.5,313l1.42-2.45,4.31,7.57a1,1,0,0,1-1.58,1.06l-5.35-6.88a1.53,1.53,0,0,1,.26-2.14,1.55,1.55,0,0,1,1-.32h.12l78,5.35h0a1.77,1.77,0,0,1,1.65,1.89,1.8,1.8,0,0,1-.92,1.44L119.2,348.34a1.21,1.21,0,0,1-1.57-.36l0,0L103.2,327.44a1.78,1.78,0,1,1,2.91-2Z"/><line class="cls-5" x1="142.46" y1="321.4" x2="171.18" y2="317.53"/><path class="cls-3" d="M142.46,323.18a1.78,1.78,0,0,1-.24-3.55l28.72-3.87a1.78,1.78,0,0,1,.48,3.53l-28.72,3.87Z"/><line class="cls-5" x1="134.55" y1="322.46" x2="135.39" y2="322.35"/><path class="cls-3" d="M134.55,324.24a1.78,1.78,0,0,1-.23-3.54l.83-.11a1.78,1.78,0,1,1,.48,3.52l-.84.12Z"/><line class="cls-5" x1="105.63" y1="326.36" x2="129.03" y2="323.21"/><path class="cls-3" d="M105.63,328.14a1.78,1.78,0,0,1-.24-3.54l23.4-3.16a1.78,1.78,0,0,1,.48,3.53l-23.4,3.15A1,1,0,0,1,105.63,328.14Z"/><g class="cls-7"><path class="cls-3" d="M84.89,331a75.69,75.69,0,0,1-9-.56,1.54,1.54,0,0,1,.37-3.05,67.43,67.43,0,0,0,12,.45,1.53,1.53,0,0,1,.18,3.06C87.31,331,86.1,331,84.89,331Zm-20.81-2.87a1.58,1.58,0,0,1-.38,0,108.41,108.41,0,0,1-11.86-3.83A1.54,1.54,0,0,1,53,321.41a104.73,104.73,0,0,0,11.5,3.72,1.53,1.53,0,0,1-.38,3Zm-22.83-8.88a1.58,1.58,0,0,1-.73-.18A82.63,82.63,0,0,1,30,312.38a1.54,1.54,0,0,1,1.85-2.45A79.26,79.26,0,0,0,42,316.37a1.54,1.54,0,0,1-.72,2.89ZM21.93,304.34a1.54,1.54,0,0,1-1.18-.55,31.13,31.13,0,0,1-6.24-11.18,1.53,1.53,0,0,1,1.05-1.9,1.55,1.55,0,0,1,1.9,1.05,22,22,0,0,0,1.45,3.72l.11.08a21.82,21.82,0,0,0,10.5,4.25,1.54,1.54,0,0,1-.35,3.05,23.7,23.7,0,0,1-6.67-1.78c.2.25.4.5.61.74a1.54,1.54,0,0,1-1.18,2.52Zm19.28-3.71a1.54,1.54,0,0,1-.77-2.87,9.53,9.53,0,0,0,4.18-4.35,19.93,19.93,0,0,0,1.31-4.56,1.53,1.53,0,1,1,3,.47,23.86,23.86,0,0,1-1.5,5.26A12.61,12.61,0,0,1,42,300.42,1.5,1.5,0,0,1,41.21,300.63ZM9.92,289.29a1.54,1.54,0,0,1-1.3-.72,46.78,46.78,0,0,1-2.32-4.14,56,56,0,0,1-3-7.29,1.53,1.53,0,1,1,2.91-1,53.24,53.24,0,0,0,2.84,6.89,40.88,40.88,0,0,0,2.17,3.87,1.54,1.54,0,0,1-.48,2.12A1.56,1.56,0,0,1,9.92,289.29Zm5.76-7.7a1.52,1.52,0,0,1-1.49-1.9,14.63,14.63,0,0,1,8.24-10.27,1.54,1.54,0,1,1,1.26,2.8,11.61,11.61,0,0,0-6.52,8.21A1.54,1.54,0,0,1,15.68,281.59Zm29.19-2.65a1.53,1.53,0,0,1-1.26-.66,17.16,17.16,0,0,0-9-6.41,1.54,1.54,0,1,1,.92-2.93,20.25,20.25,0,0,1,10.61,7.59,1.53,1.53,0,0,1-1.26,2.41Zm-42.8-12.7A1.54,1.54,0,0,1,.55,264.9a73.61,73.61,0,0,1-.55-9c0-1.17,0-2.36.08-3.54a1.52,1.52,0,0,1,1.61-1.46,1.53,1.53,0,0,1,1.46,1.6c-.06,1.14-.08,2.28-.08,3.4a67.35,67.35,0,0,0,.53,8.58,1.55,1.55,0,0,1-1.33,1.72Zm1.09-24.41a1.73,1.73,0,0,1-.32,0A1.54,1.54,0,0,1,1.65,240a83,83,0,0,1,3.44-12A1.53,1.53,0,1,1,8,229a80,80,0,0,0-3.3,11.56A1.54,1.54,0,0,1,3.16,241.83Zm8.43-23a1.5,1.5,0,0,1-.73-.19,1.53,1.53,0,0,1-.61-2.08A85.26,85.26,0,0,1,17,206.13,1.54,1.54,0,0,1,19.48,208a80.67,80.67,0,0,0-6.54,10.1A1.53,1.53,0,0,1,11.59,218.88Zm14.78-19.47a1.53,1.53,0,0,1-1.06-2.63,82.54,82.54,0,0,1,9.58-8,1.53,1.53,0,1,1,1.78,2.49A80.06,80.06,0,0,0,27.44,199,1.52,1.52,0,0,1,26.37,199.41ZM46.25,185.2a1.54,1.54,0,0,1-.7-2.9A88.47,88.47,0,0,1,57,177.43a1.53,1.53,0,1,1,1,2.9A86.47,86.47,0,0,0,47,185,1.57,1.57,0,0,1,46.25,185.2Zm83.46-4.72a1.31,1.31,0,0,1-.39,0c-3.87-1-7.74-1.92-11.51-2.66a1.53,1.53,0,1,1,.58-3c3.84.75,7.78,1.66,11.72,2.71a1.53,1.53,0,0,1-.4,3ZM69.35,177.2a1.53,1.53,0,0,1-.3-3,105.72,105.72,0,0,1,12.31-1.76,1.54,1.54,0,0,1,.25,3.06,102.3,102.3,0,0,0-12,1.7A1.63,1.63,0,0,1,69.35,177.2ZM106,175.93h-.18c-4.08-.46-8.15-.73-12.09-.82a1.53,1.53,0,0,1,.06-3.06c4,.08,8.2.36,12.38.83a1.54,1.54,0,0,1-.17,3.06Z"/></g><path class="cls-6" d="M86,306.34a5.92,5.92,0,0,1,1.61-2.1A7.16,7.16,0,0,1,90,302.93a17.86,17.86,0,0,1,4.91-.83,37.66,37.66,0,0,1,4.76.11c1.57.14,3.12.36,4.65.64a1,1,0,0,1-.17,1.94h0l-4.57,0c-1.5,0-3,.05-4.47.18a20,20,0,0,0-4.17.72,10.45,10.45,0,0,0-1.78.69,12.26,12.26,0,0,0-1.7,1.09h0A.94.94,0,0,1,86,306.34Z"/><path class="cls-6" d="M84.3,300.42A4.06,4.06,0,0,1,86,298.25a9.83,9.83,0,0,1,2.39-1.12,9,9,0,0,1,5.12-.11,1,1,0,0,1,.69,1.21,1,1,0,0,1-.84.72h0a15.66,15.66,0,0,0-4,.91,11.52,11.52,0,0,0-1.76.87,10,10,0,0,1-1.83.84l-.18.06A1,1,0,0,1,84.3,301,1,1,0,0,1,84.3,300.42Z"/><path class="cls-5" d="M290.44,158.91V260.05c0,4.49-3.68,1.44-8.17,1.39l-149.48-1.67a8.07,8.07,0,0,1-8-8.06V157.06Z"/><path class="cls-5" d="M282.27,259.23l-149.48.54a8.07,8.07,0,0,1-8-8.06V157.06l165.64,1.85v67.87"/><path class="cls-3" d="M282.27,261l-128.36.46-16,.06h-5c-.38,0-.82,0-1.22-.09a9.11,9.11,0,0,1-2.36-.61,9.8,9.8,0,0,1-3.93-2.82,10,10,0,0,1-2.12-4.36c0-.41-.14-.81-.16-1.21s0-.84,0-1.14V157.06a1.78,1.78,0,0,1,1.77-1.78h0l165.64,1.85a1.77,1.77,0,0,1,1.75,1.77h0q0,8.47,0,17c-.07,5.66-.13,11.32-.24,17l-.33,17c-.11,5.66-.27,11.31-.43,17a.73.73,0,0,1-.74.71.74.74,0,0,1-.71-.71c-.16-5.66-.32-11.31-.43-17l-.33-17c-.11-5.65-.16-11.31-.24-17s-.07-11.31,0-17l1.76,1.77-165.64-1.85,1.8-1.77v94.26c0,.36,0,.61,0,.87s.08.51.1.77a6.4,6.4,0,0,0,1.35,2.78,6.29,6.29,0,0,0,2.52,1.81,6,6,0,0,0,1.51.39c.26,0,.5,0,.78.06h5l16-.06,128.34-.46a1.76,1.76,0,0,1,1.78,1.77A1.78,1.78,0,0,1,282.27,261Z"/><g class="cls-8"><ellipse class="cls-3" cx="307.28" cy="126.82" rx="7.76" ry="7.75"/></g><g class="cls-9"><path class="cls-6" d="M289.29,81.73a1.38,1.38,0,0,1-1.38-1.38V71.18a1.38,1.38,0,1,1,2.75,0v9.17A1.37,1.37,0,0,1,289.29,81.73Z"/><path class="cls-6" d="M293.88,77.14h-9.19a1.38,1.38,0,1,1,0-2.75h9.19a1.38,1.38,0,1,1,0,2.75Z"/></g><g class="cls-9"><path class="cls-6" d="M257.67,9.08a1.38,1.38,0,0,1-1.38-1.38V1.38a1.38,1.38,0,1,1,2.76,0V7.7A1.38,1.38,0,0,1,257.67,9.08Z"/><path class="cls-6" d="M260.84,5.92H254.5a1.38,1.38,0,1,1,0-2.76h6.34a1.38,1.38,0,0,1,0,2.76Z"/></g><path class="cls-6" d="M334,179.25a6.12,6.12,0,1,1,6.13-6.12A6.13,6.13,0,0,1,334,179.25Zm0-8.69a2.57,2.57,0,1,0,2.58,2.57A2.58,2.58,0,0,0,334,170.56Z"/><g class="cls-9"><path class="cls-6" d="M70.64,65.06a1.38,1.38,0,0,1-1.38-1.38V51A1.38,1.38,0,1,1,72,51V63.68A1.38,1.38,0,0,1,70.64,65.06Z"/><path class="cls-6" d="M77,58.73H64.29a1.38,1.38,0,1,1,0-2.76H77a1.38,1.38,0,0,1,0,2.76Z"/></g><path class="cls-3" d="M100,242a3.94,3.94,0,1,1,4-3.93A3.94,3.94,0,0,1,100,242Zm0-5.11a1.18,1.18,0,1,0,1.19,1.18A1.18,1.18,0,0,0,100,236.91Z"/><path class="cls-3" d="M168.44,32a3.81,3.81,0,0,1-.82-.09,4,4,0,0,1-2.49-1.71,3.9,3.9,0,0,1-.54-3,4,4,0,0,1,4.68-3,3.95,3.95,0,0,1,3,4.68h0A4,4,0,0,1,168.44,32Zm0-5.12a1.17,1.17,0,0,0-1,1.82,1.16,1.16,0,0,0,.74.52,1.18,1.18,0,0,0,1.41-.91h0a1.17,1.17,0,0,0-.91-1.4A1,1,0,0,0,168.44,26.85Z"/><path class="cls-6" d="M92.9,133.11a6.87,6.87,0,1,1,6.88-6.87A6.88,6.88,0,0,1,92.9,133.11Zm0-10.18a3.31,3.31,0,1,0,3.33,3.31A3.32,3.32,0,0,0,92.9,122.93Z"/><path class="cls-3" d="M329.86,76.29a1.17,1.17,0,0,1-.89-.41l-4.53-5.19a1.19,1.19,0,0,1-.29-.86,1.21,1.21,0,0,1,.4-.81l5.21-4.52a1.17,1.17,0,0,1,1.66.11L336,69.8a1.15,1.15,0,0,1,.29.86,1.13,1.13,0,0,1-.4.81L330.64,76A1.22,1.22,0,0,1,329.86,76.29ZM327,70l3,3.41,3.41-3-3-3.41Z"/><path class="cls-3" d="M41.82,133.43a.89.89,0,0,1-.84-.64l-1.25-4.57a.87.87,0,0,1,.09-.67.85.85,0,0,1,.52-.41l4.58-1.24a.87.87,0,0,1,1.08.61l1.25,4.57a.88.88,0,0,1-.62,1.07l-4.58,1.25A.85.85,0,0,1,41.82,133.43Zm-.17-4.83.79,2.88,2.89-.79-.79-2.88Z"/><path class="cls-10" d="M208.54,222l-83.73-65,66.91-44.23a26.39,26.39,0,0,1,29.11,0l69.6,46.07Z"/><path class="cls-3" d="M208.54,223.79a1.77,1.77,0,0,1-1.09-.37l-83.73-64.95A1.8,1.8,0,0,1,123,157a1.77,1.77,0,0,1,.8-1.42l66.91-44.23a28.11,28.11,0,0,1,31.07,0l69.6,46.07a1.77,1.77,0,0,1,.11,2.88l-81.89,63.11A1.77,1.77,0,0,1,208.54,223.79Zm-80.69-66.61,80.7,62.59L287.38,159l-67.53-44.7a24.57,24.57,0,0,0-27.15,0Z"/><g class="cls-11"><g class="cls-8"><path class="cls-3" d="M149.66,142.51H265.27a6.2,6.2,0,0,1,6.2,6.2v93.57a0,0,0,0,1,0,0h-128a0,0,0,0,1,0,0V148.71A6.2,6.2,0,0,1,149.66,142.51Z"/></g><path class="cls-5" d="M249.1,80.39l10,0a5.41,5.41,0,0,1,5.42,5.4l.22,130.88a5.41,5.41,0,0,1-5.4,5.41l-102.46.18a5.41,5.41,0,0,1-5.42-5.4L151.23,86a5.42,5.42,0,0,1,5.4-5.41l66.49-.11"/><path class="cls-5" d="M261.47,221.61a5.29,5.29,0,0,1-2.14.45l-102.46.18a5.41,5.41,0,0,1-5.42-5.4L151.23,86a5.42,5.42,0,0,1,5.4-5.41l66.49-.11"/><path class="cls-3" d="M261.79,222.35a4.92,4.92,0,0,1-1.33.68,5.57,5.57,0,0,1-.73.19l-.38.05-.31,0q-1.25.15-2.49.21c-1.67.09-3.33.05-5,.07l-10,0-19.93.08-39.88.15-19.94.08-5,0a7.17,7.17,0,0,1-7-5.81,7.35,7.35,0,0,1-.1-.82c0-.28,0-.56,0-.74v-1.25l0-5-.15-39.88-.08-79.75V86.38c0-.21,0-.38,0-.69a7.24,7.24,0,0,1,.87-3.18,7.38,7.38,0,0,1,2.2-2.45,7.19,7.19,0,0,1,3.05-1.22,9.42,9.42,0,0,1,1.51-.08h6.23l19.94,0,19.93,0h10c1.66,0,3.33,0,5,.17a44.46,44.46,0,0,1,5,.59,1,1,0,0,1,0,2,42.47,42.47,0,0,1-5,.61c-1.66.13-3.32.17-5,.19l-10,0-19.94,0-19.93,0h-5a20.34,20.34,0,0,0-2.22.06,3.41,3.41,0,0,0-1.53.61A3.58,3.58,0,0,0,153,85.82v4.92l.19,79.75,0,39.87v6.23c0,.24,0,.37,0,.5s0,.28.05.42A3.49,3.49,0,0,0,154,219a3.67,3.67,0,0,0,2.91,1.47h24.91l39.88,0h29.91c1.66,0,3.32,0,5,.05q1.24.06,2.49.21l.56.07.5,0a7.69,7.69,0,0,0,1.06,0h.06a.82.82,0,0,1,.91.72A.8.8,0,0,1,261.79,222.35Z"/><path class="cls-5" d="M249.1,80.39l10,0a5.41,5.41,0,0,1,5.42,5.4l.12,70.65"/><path class="cls-3" d="M249.1,79.59a4.07,4.07,0,0,1,2.78-.76c.93,0,1.86-.08,2.79-.1s1.86,0,2.78,0h1.4l.83,0c.3,0,.6.08.9.14a7.16,7.16,0,0,1,5.19,4.61,6.72,6.72,0,0,1,.37,1.78l0,.45v1l0,2.79.3,22.28.06,5.57V123c0,3.71,0,7.43,0,11.14s-.2,7.43-.36,11.14l-.24,5.58c-.09,1.85-.09,3.71-.34,5.57a1,1,0,0,1-1.95,0c-.26-1.86-.26-3.71-.37-5.57l-.25-5.57c-.17-3.71-.32-7.43-.4-11.14s-.07-7.43-.08-11.14v-5.57l0-5.57.22-22.29,0-2.78V85.51a3.89,3.89,0,0,0-.18-1,3.69,3.69,0,0,0-2.77-2.46,3.93,3.93,0,0,0-.48-.06c-.17,0-.29,0-.56,0h-1.39c-.93,0-1.86,0-2.78,0s-1.86,0-2.79-.09a4.11,4.11,0,0,1-2.79-.74,1,1,0,0,1-.14-1.47A.93.93,0,0,1,249.1,79.59Z"/><path class="cls-3" d="M163.32,146.62a5.38,5.38,0,0,1-5.38-5.36l-.08-47.34a5.38,5.38,0,0,1,5.37-5.38l89.19-.16h0a5.38,5.38,0,0,1,5.37,5.37l.09,47.34a5.38,5.38,0,0,1-5.37,5.38l-89.19.15Zm89.1-54.69-89.18.16a1.83,1.83,0,0,0-1.83,1.82l.08,47.35a1.83,1.83,0,0,0,1.83,1.81h0l89.18-.15a1.84,1.84,0,0,0,1.83-1.83l-.09-47.34a1.83,1.83,0,0,0-1.82-1.82Zm0-1.77h0Z"/><g class="cls-8"><path class="cls-3" d="M265.22,197.94l-.73-28.56-56.23,41.73-57-42.21.49,17.32L166,199.16s40.34,24.15,42.54,24.15S265,197.2,265,197.2"/></g><line class="cls-12" x1="169.09" y1="170.81" x2="249.75" y2="170.67"/><path class="cls-3" d="M169.08,169.87c6.73-.5,13.45-.58,20.17-.57l20.16.08c6.73,0,13.45.12,20.17.18,3.36,0,6.72.09,10.08.15l10.09.19a.77.77,0,0,1,0,1.53l-10.08.23c-3.36.07-6.72.14-10.09.18-6.72.08-13.44.23-20.16.25l-20.17.15c-6.72,0-13.44,0-20.16-.49a1,1,0,0,1-.88-1A.94.94,0,0,1,169.08,169.87Z"/><line class="cls-12" x1="201.14" y1="181.92" x2="249.77" y2="181.83"/><path class="cls-3" d="M201.14,181.14c4.05-.45,8.1-.62,12.15-.7s8.11,0,12.16,0,8.11.11,12.16.21,8.1.26,12.16.47a.7.7,0,0,1,.66.74.72.72,0,0,1-.66.67c-4.05.22-8.11.38-12.16.51s-8.1.19-12.15.25-8.11.09-12.16,0-8.11-.22-12.16-.65a.78.78,0,0,1,0-1.56Z"/><line class="cls-12" x1="169.11" y1="181.97" x2="189.57" y2="181.94"/><path class="cls-3" d="M169.1,181.08a48.15,48.15,0,0,1,10.23-.57c1.71,0,3.42.08,5.12.16s3.41.2,5.12.38a.9.9,0,0,1,0,1.78c-1.7.19-3.41.3-5.11.39s-3.42.15-5.12.18a47.48,47.48,0,0,1-10.23-.54.91.91,0,0,1-.71-1.07A.93.93,0,0,1,169.1,181.08Z"/><line class="cls-12" x1="240.38" y1="193.02" x2="249.79" y2="193"/><path class="cls-3" d="M240.38,192.41a15.45,15.45,0,0,1,2.35-.57,23.48,23.48,0,0,1,2.35-.27,15.36,15.36,0,0,1,2.35,0,8.35,8.35,0,0,1,2.36.52,1,1,0,0,1,.55,1.29,1,1,0,0,1-.55.55,8,8,0,0,1-2.35.52,15.37,15.37,0,0,1-2.35,0,23.68,23.68,0,0,1-2.36-.27,14.31,14.31,0,0,1-2.35-.56.65.65,0,0,1-.4-.81A.69.69,0,0,1,240.38,192.41Z"/><line class="cls-12" x1="169.12" y1="193.14" x2="227" y2="193.04"/><path class="cls-3" d="M169.12,192.46q7.24-.26,14.47-.41c4.83-.09,9.65-.22,14.47-.27l14.47-.17A127.17,127.17,0,0,1,227,192a1,1,0,0,1,0,2,127,127,0,0,1-14.46.48l-14.47-.12c-4.83,0-9.65-.15-14.47-.22s-9.65-.2-14.47-.36a.68.68,0,0,1-.67-.7A.69.69,0,0,1,169.12,192.46Z"/><line class="cls-12" x1="169.07" y1="159.23" x2="226.94" y2="159.13"/><path class="cls-3" d="M169.06,158.54q7.24-.25,14.47-.41c4.83-.08,9.65-.21,14.47-.27l14.47-.16a127.16,127.16,0,0,1,14.47.42,1,1,0,0,1,0,2,127,127,0,0,1-14.46.47L198,160.49c-4.83,0-9.65-.15-14.47-.22s-9.65-.21-14.47-.36a.69.69,0,0,1-.67-.71A.7.7,0,0,1,169.06,158.54Z"/><line class="cls-12" x1="236.59" y1="159.11" x2="247.99" y2="159.09"/><path class="cls-3" d="M236.58,158.43c.95-.18,1.9-.3,2.85-.4s1.9-.19,2.85-.25,1.9-.11,2.85-.14a5.17,5.17,0,0,1,2.86.45,1.13,1.13,0,0,1,0,2,5.13,5.13,0,0,1-2.85.46c-.95,0-1.9-.07-2.85-.13s-1.9-.14-2.85-.24-1.9-.22-2.85-.39a.69.69,0,0,1,0-1.36Z"/><line class="cls-12" x1="169.14" y1="204.31" x2="220.59" y2="204.22"/><path class="cls-3" d="M169.14,203.68q6.44-.35,12.86-.52t12.87-.29l6.43-.07q3.21,0,6.43,0c4.29,0,8.57.17,12.86.59a.86.86,0,0,1,0,1.72c-4.28.43-8.57.57-12.86.63q-3.21,0-6.43,0l-6.43-.06c-4.29-.05-8.57-.12-12.86-.24s-8.58-.26-12.86-.47a.63.63,0,0,1,0-1.26Z"/><line class="cls-5" x1="230.63" y1="80.42" x2="231.2" y2="80.42"/><path class="cls-3" d="M230.62,79.19l.57-.12a1.38,1.38,0,1,1,.57,2.7,1.32,1.32,0,0,1-.56,0l-.57-.11a1.26,1.26,0,0,1,0-2.47Z"/></g><path class="cls-5" d="M127.62,257.82,198,211.27a15,15,0,0,1,16.48,0l73,48.32"/><path class="cls-5" d="M185.44,219.6l12.6-8.33a15,15,0,0,1,16.48,0l73,48.32"/><path class="cls-3" d="M185,219a50.87,50.87,0,0,1,5.82-4.81c2-1.45,4.14-2.82,6.21-4.22a16.78,16.78,0,0,1,7.77-2.77,16.54,16.54,0,0,1,8.18,1.31,22,22,0,0,1,3.51,2l3.14,2.05,6.28,4.11,12.56,8.22,25.05,16.55c8.32,5.56,16.66,11.09,24.94,16.7a1.77,1.77,0,0,1-2,3c-8.4-5.44-16.75-10.95-25.12-16.45l-25-16.58-12.48-8.35-6.23-4.18-3.12-2.09a18.36,18.36,0,0,0-3-1.75,13.18,13.18,0,0,0-6.47-1.12,13.37,13.37,0,0,0-6.24,2.15c-2.1,1.37-4.18,2.76-6.31,4.07a51.23,51.23,0,0,1-6.71,3.47A.78.78,0,0,1,185,219Z"/><line class="cls-5" x1="172.47" y1="228.17" x2="173.09" y2="227.77"/><path class="cls-3" d="M171.8,227.16l.46-.65a1.61,1.61,0,1,1,1.66,2.51l-.77.17a1.29,1.29,0,0,1-1.56-1A1.27,1.27,0,0,1,171.8,227.16Z"/><line class="cls-5" x1="127.62" y1="257.82" x2="167.93" y2="231.18"/><path class="cls-3" d="M126.64,256.34c3.32-2.27,6.67-4.51,10-6.73s6.72-4.46,10.1-6.64l10.14-6.57a106.24,106.24,0,0,1,10.41-6.16,1.13,1.13,0,0,1,1.24,1.87,107.57,107.57,0,0,1-9.75,7.17l-10,6.75c-3.34,2.26-6.71,4.46-10.07,6.69s-6.73,4.41-10.13,6.58a1.77,1.77,0,0,1-2-3Z"/><path class="cls-6" d="M139.41,75a53.5,53.5,0,0,1-5.6-2.07c-1.82-.79-3.62-1.64-5.38-2.53s-3.53-1.82-5.27-2.78-3.45-2-5.11-3.06a1.12,1.12,0,0,1-.32-1.56,1.11,1.11,0,0,1,1.29-.45c1.9.64,3.74,1.39,5.57,2.16s3.64,1.58,5.42,2.44,3.56,1.74,5.3,2.69A50.41,50.41,0,0,1,140.39,73a1.13,1.13,0,0,1-1,2Z"/><path class="cls-6" d="M137.8,63.35a17.9,17.9,0,0,1-2.88-2A33.3,33.3,0,0,1,132.4,59c-.81-.83-1.58-1.69-2.33-2.58a29.19,29.19,0,0,1-2.1-2.8,1.15,1.15,0,0,1,.35-1.58,1.16,1.16,0,0,1,1.23,0,29.24,29.24,0,0,1,2.81,2.09c.89.74,1.76,1.51,2.59,2.32a29.88,29.88,0,0,1,2.39,2.51,18.1,18.1,0,0,1,2,2.87,1.16,1.16,0,0,1-.47,1.58A1.18,1.18,0,0,1,137.8,63.35Z"/><path class="cls-6" d="M149.61,67a17.65,17.65,0,0,1-1.46-3.2,29.51,29.51,0,0,1-1-3.33c-.28-1.12-.51-2.25-.7-3.39a28.73,28.73,0,0,1-.4-3.48,1.15,1.15,0,0,1,1.1-1.19,1.13,1.13,0,0,1,1.06.62,26.59,26.59,0,0,1,1.37,3.22c.4,1.09.76,2.19,1.06,3.31a29.49,29.49,0,0,1,.8,3.37,18.38,18.38,0,0,1,.3,3.5,1.17,1.17,0,0,1-1.21,1.13A1.19,1.19,0,0,1,149.61,67Z"/><g class="cls-8"><path d="M222.75,121.05a17.47,17.47,0,0,1-14.94,13.54l-8.07-8L214,112.34Z"/></g><rect class="cls-3" x="199.28" y="111.87" width="15.13" height="15.1" rx="1.51" ry="1.51"/><rect class="cls-3" x="199.28" y="108.31" width="3.78" height="10.07"/><rect class="cls-6" x="203.06" y="115.64" width="7.56" height="7.55" rx="1.19" ry="1.19"/><ellipse class="cls-1" cx="206.79" cy="117.39" rx="19.6" ry="19.95" transform="translate(-29.84 140.85) rotate(-35.24)"/><path class="cls-3" d="M206.65,135.23a17.55,17.55,0,0,1-16.8-22.83,1.1,1.1,0,1,1,2.1.66,15.38,15.38,0,1,0,28.91-1.22c-.11-.29-.24-.56-.37-.83a1.1,1.1,0,0,1,.52-1.47,1.08,1.08,0,0,1,1.46.51c.16.31.3.63.43,1a17.58,17.58,0,0,1-16.25,24.23Z"/><path class="cls-5" d="M218.9,106.67c.24.27.47.54.7.83"/><path class="cls-3" d="M219.6,108.6a1.12,1.12,0,0,1-.87-.42c-.21-.27-.42-.52-.65-.77a1.1,1.1,0,1,1,1.64-1.48c.25.29.5.58.74.89a1.1,1.1,0,0,1-.86,1.78Z"/><path class="cls-3" d="M194.18,108a1.12,1.12,0,0,1-.73-.27,1.1,1.1,0,0,1-.1-1.55,17.63,17.63,0,0,1,23.56-2.73,1.1,1.1,0,0,1-1.28,1.79A15.42,15.42,0,0,0,195,107.59,1.11,1.11,0,0,1,194.18,108Z"/><path class="cls-3" d="M206.69,139.81a22.22,22.22,0,0,1-14.6-5.48,22,22,0,0,1-7-11.49,1.09,1.09,0,0,1,.81-1.32,1.11,1.11,0,0,1,1.33.81,20,20,0,0,0,22.52,15,1.1,1.1,0,1,1,.34,2.17A21.9,21.9,0,0,1,206.69,139.81Z"/><path class="cls-5" d="M219.66,134.28a21.21,21.21,0,0,1-6.53,3.43"/><path class="cls-3" d="M213.13,138.81a1.1,1.1,0,0,1-.33-2.15,19.79,19.79,0,0,0,6.18-3.25,1.1,1.1,0,1,1,1.35,1.74,22.16,22.16,0,0,1-6.87,3.61A1.26,1.26,0,0,1,213.13,138.81Z"/><path class="cls-3" d="M227.24,123.66a.82.82,0,0,1-.26,0,1.09,1.09,0,0,1-.81-1.32,19.87,19.87,0,0,0-3.55-16.79,1.1,1.1,0,1,1,1.75-1.33,22,22,0,0,1,3.94,18.63A1.1,1.1,0,0,1,227.24,123.66Z"/><path class="cls-5" d="M219.55,100.91c.3.22.6.46.88.71"/><path class="cls-3" d="M220.43,102.72a1.13,1.13,0,0,1-.71-.26c-.27-.24-.55-.46-.84-.68a1.1,1.1,0,0,1,1.34-1.75q.48.36.93.75a1.1,1.1,0,0,1-.72,1.94Z"/><path class="cls-3" d="M185.72,116.34h-.12a1.1,1.1,0,0,1-1-1.22A22,22,0,0,1,190,103.05a22.24,22.24,0,0,1,28-4.53,1.1,1.1,0,0,1-1.12,1.9,20,20,0,0,0-30.05,14.94A1.11,1.11,0,0,1,185.72,116.34Z"/><path class="cls-5" d="M185.7,119.85c0-.33-.06-.65-.08-1"/><path class="cls-3" d="M185.7,121a1.1,1.1,0,0,1-1.09-1c0-.35-.06-.69-.08-1a1.1,1.1,0,0,1,2.19-.13c0,.31.05.63.08.94a1.11,1.11,0,0,1-1,1.21Z"/><path class="cls-3" d="M360.85,259.12a6.18,6.18,0,0,1,1.66-.4,13.16,13.16,0,0,1,1.66-.06,16.91,16.91,0,0,1,3.32.33,1,1,0,0,1,0,1.94,16.91,16.91,0,0,1-3.32.33,13.17,13.17,0,0,1-1.66-.07,5.81,5.81,0,0,1-1.66-.39.9.9,0,0,1-.5-1.18A.88.88,0,0,1,360.85,259.12Z"/><path class="cls-3" d="M57.42,259.16c12.44-.37,24.88-.41,37.32-.42l37.32-.06,74.63-.12h112l18.65.07c6.22.07,12.44.13,18.66.29a1,1,0,0,1,0,2.08c-6.22.16-12.44.22-18.66.29l-18.65.06h-112l-74.63-.12-37.32-.06c-12.44,0-24.88-.05-37.32-.42a.8.8,0,0,1,0-1.6Z"/><path class="cls-3" d="M50.08,258.78a1.29,1.29,0,0,1,.48,0,1,1,0,0,1,.49.16,1.22,1.22,0,0,1,.35,1.69,1.3,1.3,0,0,1-.35.35,1.18,1.18,0,0,1-.49.16,1.55,1.55,0,0,1-.48,0,1.2,1.2,0,0,1-1-1.4A1.22,1.22,0,0,1,50.08,258.78Z"/><path class="cls-3" d="M38.12,259.1a11.27,11.27,0,0,1,2.42-.33A6.88,6.88,0,0,1,43,259a1,1,0,0,1,.66,1.26,1.06,1.06,0,0,1-.66.66,7.12,7.12,0,0,1-2.42.23,11.93,11.93,0,0,1-2.42-.33.89.89,0,0,1-.63-1.09A.87.87,0,0,1,38.12,259.1Z"/><path class="cls-3" d="M172.31,275c3.88-.38,7.77-.41,11.65-.42l11.65-.06,23.29-.12h34.94c3.89,0,7.77,0,11.65.36a1,1,0,0,1,1,1.12,1,1,0,0,1-1,1c-3.88.31-7.76.35-11.65.36H218.9l-23.29-.12L184,277c-3.88,0-7.77,0-11.65-.42a.8.8,0,0,1,0-1.6Z"/><path class="cls-3" d="M134,275c2-.11,4-.18,6-.23s4-.07,6-.09,4,0,6,0,4,.09,6,.22a1,1,0,0,1,0,1.92c-2,.13-4,.17-6,.22s-4,0-6,0-4,0-6-.09-4-.12-6-.23a.86.86,0,0,1,0-1.72Z"/></g></g></svg>