<?xml version="1.0" encoding="UTF-8"?>
<svg width="114px" height="26px" viewBox="0 0 114 26" version="1.1" xmlns="http://www.w3.org/2000/svg" xmlns:xlink="http://www.w3.org/1999/xlink">
    <!-- Generator: Sketch 47.1 (45422) - http://www.bohemiancoding.com/sketch -->
    <title>SSL Badge</title>
    <desc>Created with Sketch.</desc>
    <defs></defs>
    <g id="Baza-Foundation---Layout" stroke="none" stroke-width="1" fill="none" fill-rule="evenodd">
        <g id="Baza_Foundation/Donate" transform="translate(-596.000000, -678.000000)">
            <g id="Group-6" transform="translate(305.000000, 96.000000)">
                <g id="Secure_payment_badges" transform="translate(291.000000, 582.000000)">
                    <g id="SSL-Badge">
                        <text id="" font-family="FontAwesome" font-size="16" font-weight="normal" line-spacing="33" fill="#A0A3B7">
                            <tspan x="10.2857143" y="15"></tspan>
                        </text>
                        <text id="SSL-Encrypted" font-family="Raleway-Bold, Raleway" font-size="11" font-weight="bold" line-spacing="24" fill="#A0A3B7">
                            <tspan x="30" y="11">SSL </tspan>
                            <tspan x="52.55" y="11" font-family="Raleway-Regular, Raleway" font-weight="normal">Encrypted</tspan>
                        </text>
                        <path d="M108.252101,26 L5.74789916,26 C2.57314286,26 0,23.314 0,20 L0,6 C0,2.686 2.57314286,0 5.74789916,0 L108.252101,0 C111.426857,0 114,2.686 114,6 L114,20 C114,23.314 111.426857,26 108.252101,26 Z M113.042017,6 C113.042017,3.239 110.897092,1 108.252101,1 L5.74789916,1 C3.10290756,1 0.957983193,3.239 0.957983193,6 L0.957983193,20 C0.957983193,22.761 3.10290756,25 5.74789916,25 L108.252101,25 C110.897092,25 113.042017,22.761 113.042017,20 L113.042017,6 Z" id="Shape" fill="#424770" opacity="0.349"></path>
                    </g>
                </g>
            </g>
        </g>
    </g>
</svg>